<svg version="1.1" xmlns="http://www.w3.org/2000/svg" xmlns:xlink="http://www.w3.org/1999/xlink" width="335.02839" height="200.529" viewBox="0,0,335.02839,200.529"><g transform="translate(-10.35092,-6.32985)"><g data-paper-data="{&quot;isPaintingLayer&quot;:true}" fill-rule="nonzero" stroke="none" stroke-linecap="butt" stroke-linejoin="miter" stroke-miterlimit="10" stroke-dasharray="" stroke-dashoffset="0" style="mix-blend-mode: normal"><g stroke-width="0.5"><path d="M331.2816,187.5267c-0.52697,0.18025 -0.83612,-0.0908 -0.99722,-0.33019c-3.97012,-0.06446 -7.81101,-0.28483 -11.70312,-1.11814c-0.86456,-0.1851 -1.76302,-0.05581 -2.64445,-0.08741c-2.75159,-0.09868 -5.50608,0.00355 -8.25883,0.07001c0.04597,0.29773 0.27251,0.56097 0.31556,0.86487c0.10262,0.72394 0.06933,1.48064 0.28817,2.1748l-0.19885,0.83491c3.95785,-0.04656 7.92124,-1.17671 11.88899,-1.1553c1.55426,0.00842 3.78049,0.13461 5.2978,0.4725c1.14706,0.2554 2.24512,0.77881 3.41087,0.90677c1.0414,0.11435 1.90559,-0.02998 2.82993,-0.12495c-0.18288,-0.27758 -0.17951,-0.6128 -0.17951,-0.6128l0.0125,-1.18507c-0.01481,-0.23777 -0.03024,-0.47639 -0.04591,-0.71561c-0.00528,0.00188 -0.01056,0.00376 -0.01593,0.00559zM305.97628,185.13166c-0.00643,-0.34663 0.10644,-0.57142 0.25382,-0.71701c0.12347,-0.98236 -0.10662,-1.98642 -0.0679,-2.97824c0.0281,-0.71933 0.17785,-1.49406 0.24709,-2.26096c-0.25741,-0.08615 -0.55891,-0.30322 -0.59271,-0.84548c-0.03455,-0.55429 0.2504,-0.81103 0.4989,-0.92915c-0.13471,-0.47581 -0.36212,-0.92773 -0.46044,-1.41465c-0.22147,-1.09673 -0.30161,-2.23158 -0.62775,-3.29835c0,0 -0.00953,-0.03152 -0.01959,-0.08482c-1.30574,-0.01877 -2.60469,0.07954 -3.88593,0.4282c0.03087,0.22771 0.06327,0.45558 0.09759,0.68376c0.16093,1.06992 0.44354,2.12765 0.47759,3.21053c0.05518,1.75569 -0.30119,3.32146 0.03986,5.07052c0.46114,2.36485 1.26837,4.95349 1.11423,7.43234c1.05799,0.1361 2.14596,0.32006 3.2193,0.42536c0.0177,-0.23488 0.10325,-0.41225 0.10325,-0.41225l0.17802,0.25083c-0.23332,-0.79751 -0.2432,-1.65037 -0.35492,-2.47711c-0.0573,-0.42397 -0.34755,-0.80356 -0.34387,-1.2319c0.00205,-0.23493 0.06332,-0.46064 0.13642,-0.68503c-0.00735,-0.05205 -0.01179,-0.10749 -0.01292,-0.16669zM315.9976,184.05969c0.95484,0.03408 1.92615,-0.08244 2.86433,0.10958c0.60375,0.12359 1.17089,0.41185 1.77502,0.5332c3.30881,0.66457 6.91332,0.52833 10.26569,0.57038l0.26337,0.28325c-0.10821,-1.65166 -0.20232,-3.31443 -0.20716,-4.94185c-0.00198,-0.66729 0.03225,-1.31415 0.07486,-1.9491c-0.07329,0.03961 -0.12432,0.05706 -0.12432,0.05706l-0.97968,0.283c-2.51957,-0.02842 -4.95438,0.41528 -7.453,0.52676c-0.99398,0.04436 -1.97002,-0.33114 -2.96419,-0.37014c-1.19975,-0.047 -2.39748,0.16606 -3.59808,0.17407c-1.6023,0.01078 -3.16288,-0.31432 -4.74555,-0.42065c-0.96123,-0.06457 -1.97584,0.05611 -2.97212,0.17208c0.00418,0.1765 0.00214,0.35319 -0.00732,0.53001c-0.0764,1.43193 0.02853,3.03847 -0.09746,4.50055c2.63516,-0.06612 5.2714,-0.15226 7.9055,-0.0583zM311.24756,176.98454c1.55836,0.0968 3.09256,0.43018 4.66961,0.41889c0.25631,-0.00184 3.46898,-0.18036 3.66246,-0.17278c0.96377,0.03778 1.90912,0.41921 2.87237,0.36901c2.51414,-0.13101 4.96119,-0.55544 7.49724,-0.52681l0.40411,-0.19031c0,0 0.4417,-0.15107 0.7953,0.09847c0.08432,-1.48126 0.07466,-2.93981 -0.4067,-4.49427c0,0 -0.0169,-0.05591 -0.0294,-0.14458c-3.29609,0.13824 -6.60365,0.39356 -9.89695,0.44825c-1.20613,0.02002 -2.41211,-0.14754 -3.61758,-0.10017c-1.82846,0.07179 -3.6619,0.42307 -5.49977,0.36445c-1.51765,-0.04837 -3.05094,-0.23823 -4.58231,-0.35648c0.21994,0.94764 0.32384,1.92733 0.51595,2.88314c0.10634,0.52907 0.22783,1.06112 0.33106,1.59552c1.0974,-0.12187 2.21802,-0.25848 3.28462,-0.19224zM333.06129,173.88592c0.31775,2.23208 -0.29648,4.53361 -0.28551,6.7549c0.01227,2.48826 0.22894,5.05658 0.38377,7.54225l-0.01192,1.25922c0,0 -0.00303,0.30205 -0.16443,0.56652c1.25646,0.65008 2.23558,0.32283 3.65081,0.75056c0.2654,0.08019 0.4337,0.42706 0.70836,0.45536c0.24745,0.02546 0.45716,-0.20785 0.6857,-0.31181l0.34597,-0.11832c0,0 0.1368,-0.04679 0.31901,-0.04526c-0.13534,-1.71201 -0.25363,-3.424 -0.36016,-5.14047c-0.20143,-3.24578 -0.05103,-6.51266 0.08423,-9.76131c0.05107,-1.22764 0.09431,-2.473 0.16224,-3.72087l-0.00801,-0.00086c-2.04269,-0.07716 -3.98892,-0.04273 -5.99662,0.10357c0.18474,0.54992 0.40457,1.09121 0.48648,1.66648zM338.58455,192.74267c-0.46333,0.13269 -0.91084,0.42585 -1.38996,0.39814c-0.40983,-0.02367 -0.72566,-0.42374 -1.12045,-0.54309c-1.32681,-0.40101 -2.36507,-0.07753 -3.60777,-0.75599c-1.46526,0.01159 -2.3899,0.4037 -3.96653,0.24066c-1.23158,-0.12733 -2.39563,-0.66429 -3.6058,-0.93896c-1.41885,-0.32201 -3.47894,-0.4229 -4.93141,-0.43076c-4.06793,-0.022 -8.1311,1.16784 -12.19089,1.1567c-1.67566,-0.00459 -3.43639,-0.34159 -5.11803,-0.54568c-0.01448,0.08005 -0.02635,0.16056 -0.03472,0.24176c-0.09832,0.95741 0.01367,2.01626 -0.43687,2.85173c0.03845,0.09477 0.4324,1.12547 0.54641,1.16434c0.45623,0.15545 0.95848,-0.00584 1.43711,0.01626c1.72591,0.07969 3.45911,0.20071 5.18412,0.31119c3.41234,0.2185 6.92195,0.87008 10.33974,0.72785c2.45701,-0.10226 4.86753,-0.6988 7.34549,-0.50451c0.91701,0.0719 1.80039,0.53623 2.71904,0.49468c1.75542,-0.07934 3.56705,-0.21517 5.32613,-0.39636c1.00567,-0.1024 2.5357,-0.27345 3.55429,-0.31866c0.23922,-0.01062 0.64272,0.26624 0.71794,0.02441c0.1309,-0.42081 -0.25897,-0.84623 -0.32632,-1.28362c-0.09792,-0.63568 -0.11185,-1.28284 -0.16779,-1.92419c-0.00223,-0.02577 -0.0045,-0.05146 -0.00672,-0.07722zM341.02369,171.40476c-0.05633,0.60217 -0.4319,0.78969 -0.70479,0.84578c-0.41727,4.99998 -0.36229,10.18113 -0.05288,15.14886c0.14674,2.35637 0.47623,4.71791 0.56922,7.07483c0.03368,0.85417 0.42431,1.83264 0.00925,2.56477c-0.35109,0.61927 -1.24175,0.61495 -1.90422,0.77775c-1.20187,0.29536 -2.45904,0.2123 -3.68695,0.33743c-1.81048,0.1825 -3.71106,0.34882 -5.51836,0.40506c-0.95702,0.02978 -1.87881,-0.425 -2.83371,-0.49982c-2.40512,-0.18854 -4.75486,0.41067 -7.14153,0.50828c-3.47983,0.14239 -7.04418,-0.50733 -10.51797,-0.72977c-1.7337,-0.11103 -3.47161,-0.14576 -5.20218,-0.31243c-0.73064,-0.07037 -1.52602,0.08453 -2.18805,-0.25162c-1.0348,-0.52532 -1.22525,-2.05179 -1.48047,-3.01427c0.16331,-0.37096 0.42848,-0.70847 0.49001,-1.11282c0.08943,-0.58801 -0.10778,-1.19386 -0.04897,-1.78623c0.06286,-0.6328 0.35134,-1.22511 0.41084,-1.85827c0.22026,-2.34315 -0.64285,-4.86202 -1.0631,-7.10355c-0.35398,-1.88832 -0.02327,-3.48863 -0.07695,-5.36641c-0.02907,-1.01674 -0.30676,-2.00812 -0.45763,-3.0126c-0.28332,-1.88677 -0.83469,-4.2461 -0.77495,-6.35776c-0.09444,-0.09954 -0.17665,-0.23745 -0.23398,-0.42703c-0.19653,-0.64999 0.17761,-0.98836 0.41411,-1.131c0.08254,-0.37264 0.19603,-0.72933 0.34658,-1.06489c0,0 0.41487,-0.85956 1.22311,-0.41834c0.37957,0.20724 0.48937,0.50673 0.49911,0.76618c1.44391,-0.41224 2.85966,-0.53281 4.33531,-0.94707c1.22194,-0.21385 2.40862,-0.64686 3.63907,-0.7955c1.82208,-0.22012 3.38399,0.46153 5.1626,0.53952c1.55084,0.06797 3.17626,-0.32735 4.74151,-0.35343c2.2804,-0.03796 4.57858,0.26954 6.85251,0.00272c3.12712,-0.36683 6.30346,-0.93721 9.38935,-1.59768c0.27659,-0.05922 3.65857,-0.84594 3.79966,-0.82284c0.87307,0.14263 1.61302,0.76632 2.41956,1.14943c-0.16893,2.66206 -0.65393,5.22993 -0.94531,7.8674c0.25657,0.11319 0.58623,0.37609 0.53025,0.97499zM311.75474,171.12311c1.79526,0.05708 3.59049,-0.29521 5.3769,-0.3641c0.31361,-0.01207 3.28713,0.10528 3.64782,0.09929c3.50973,-0.0584 7.03562,-0.34749 10.54654,-0.47346c2.4946,-0.23173 4.86523,-0.29291 7.36784,-0.19707l0.01471,0.00156c0.18548,-2.26403 0.50803,-4.51056 1.16332,-6.64881c-1.50279,-0.30552 -2.80181,0.27034 -4.29375,0.58972c-3.13439,0.67093 -6.36237,1.25446 -9.53938,1.62292c-2.33848,0.2712 -4.68877,-0.02918 -7.03258,0.00977c-1.59409,0.0265 -3.24261,0.41976 -4.82444,0.35278c-1.65765,-0.0702 -3.21299,-0.76976 -4.89625,-0.55177c-1.17356,0.15196 -2.30613,0.56257 -3.47268,0.7664c-1.58886,0.44001 -3.12029,0.51665 -4.66964,1.05565l-0.40804,0.13957c0.01377,0.2553 0.04067,0.50977 0.06622,0.75393c0.09954,0.9494 0.18903,1.89167 0.29044,2.83279c3.52857,-0.85493 7.07837,-0.10307 10.6629,0.01088z" fill="#ffe8bf"/><path d="M302.39722,168.37799c-0.15361,-0.50803 0.10908,-1.05232 0.58675,-1.21569c0.47766,-0.16338 0.98941,0.11603 1.14302,0.62405c0.15361,0.50803 -0.10908,1.05232 -0.58675,1.21569c-0.47766,0.16338 -0.98941,-0.11602 -1.14302,-0.62405z" fill="#ffe8bf"/><path d="M311.61631,180.54637c-1.76206,0.48725 -3.57263,-0.55823 -4.10661,-3.51929c0,0 -0.13416,-0.78482 0.60374,-0.92751c0.7379,-0.14269 0.87207,0.64212 0.87207,0.64212c0.36829,2.32029 1.71729,2.89505 2.90233,2.11697c0.36917,-0.65169 0.70998,-1.12632 1.14983,-1.57101l-0.08623,-0.06114l0.48535,-0.77432c0.13354,-0.21991 0.36603,-0.3655 0.63049,-0.3655c0.41422,0 0.75,0.35714 0.75,0.79769c0,0.09473 -0.01553,0.18561 -0.04402,0.26991l-0.24037,0.76694l-0.02985,-0.01058l0.00485,0.07953c-0.35698,0.66388 -0.79059,1.21287 -1.26587,1.63687c-0.11611,0.16888 -0.22874,0.34216 -0.32241,0.5216l-0.28922,0.35101c0,0 -0.49972,0.5315 -1.01407,0.04669z" fill="#8c6023"/><path d="M329.06727,175.04056c0.75,0 0.75,0.79769 0.75,0.79769l-0.00372,0.16655c-0.51213,4.53876 -5.8029,6.17803 -7.43473,1.41372c0,0 -0.25631,-0.74966 0.44853,-1.02226c0.70484,-0.27259 0.96116,0.47705 0.96116,0.47705c1.04871,3.07315 4.33399,2.00178 4.53248,-1.02726l-0.00372,-0.0078c0,0 0,-0.79769 0.75,-0.79769z" fill="#8c6023"/><path d="M307.21599,169.16574c-0.15361,-0.50803 0.10908,-1.05231 0.58674,-1.21569c0.47766,-0.16338 0.98941,0.11601 1.14302,0.62404c0.15361,0.50803 -0.10908,1.05231 -0.58675,1.21569c-0.47766,0.16338 -0.98941,-0.11603 -1.14302,-0.62405z" fill="#ffe8bf"/><path d="M313.19611,168.74425c-0.15361,-0.50803 0.10908,-1.05231 0.58674,-1.21568c0.47766,-0.16338 0.98941,0.11601 1.14302,0.62404c0.15361,0.50803 -0.10908,1.05231 -0.58675,1.21569c-0.47766,0.16338 -0.98941,-0.11602 -1.14302,-0.62405z" fill="#ffe8bf"/><path d="M317.90403,169.16397c-0.15361,-0.50803 0.10908,-1.05231 0.58675,-1.21569c0.47766,-0.16338 0.98941,0.11601 1.14302,0.62404c0.15361,0.50803 -0.10908,1.05231 -0.58675,1.21569c-0.47766,0.16338 -0.98941,-0.11602 -1.14302,-0.62404z" fill="#ffe8bf"/><path d="M324.22974,168.62427c-0.15361,-0.50803 0.10908,-1.05231 0.58675,-1.21569c0.47766,-0.16338 0.9894,0.11602 1.14301,0.62404c0.15361,0.50803 -0.10908,1.05231 -0.58675,1.21569c-0.47766,0.16338 -0.9894,-0.11602 -1.14301,-0.62404z" fill="#ffe8bf"/><path d="M329.40669,168.07155c-0.15361,-0.50803 0.10908,-1.0523 0.58675,-1.21568c0.47766,-0.16338 0.98941,0.11601 1.14302,0.62404c0.15361,0.50803 -0.10909,1.05231 -0.58675,1.21569c-0.47766,0.16338 -0.98941,-0.11603 -1.14302,-0.62405z" fill="#ffe8bf"/><path d="M334.00335,168.12332c-0.15361,-0.50803 0.10908,-1.05231 0.58675,-1.21569c0.47766,-0.16338 0.98941,0.11603 1.14302,0.62405c0.15361,0.50803 -0.10908,1.05231 -0.58675,1.21569c-0.47766,0.16338 -0.98941,-0.11603 -1.14302,-0.62405z" fill="#ffe8bf"/><path d="M303.29026,194.05583c-0.15361,-0.50803 0.10908,-1.05231 0.58675,-1.21569c0.47766,-0.16338 0.98941,0.11603 1.14302,0.62405c0.15361,0.50803 -0.10908,1.05232 -0.58675,1.21569c-0.47766,0.16338 -0.98941,-0.11603 -1.14302,-0.62406z" fill="#ffe8bf"/><path d="M307.42974,193.85789c-0.15361,-0.50803 0.10908,-1.05231 0.58675,-1.21569c0.47766,-0.16338 0.98941,0.11603 1.14302,0.62405c0.15361,0.50803 -0.10908,1.05231 -0.58674,1.21569c-0.47766,0.16338 -0.98941,-0.11602 -1.14302,-0.62405z" fill="#ffe8bf"/><path d="M311.09925,194.63279c-0.15361,-0.50803 0.10908,-1.05231 0.58675,-1.21568c0.47766,-0.16338 0.98941,0.11602 1.14302,0.62404c0.15361,0.50803 -0.10908,1.05231 -0.58675,1.21569c-0.47766,0.16338 -0.98941,-0.11602 -1.14302,-0.62405z" fill="#ffe8bf"/><path d="M316.38744,194.44795c-0.15361,-0.50803 0.10908,-1.05231 0.58675,-1.21568c0.47766,-0.16338 0.9894,0.11603 1.14301,0.62405c0.15361,0.50803 -0.10908,1.05231 -0.58675,1.21568c-0.47766,0.16338 -0.9894,-0.11603 -1.14301,-0.62405z" fill="#ffe8bf"/><path d="M320.76122,193.76401c-0.15361,-0.50803 0.10908,-1.05231 0.58675,-1.21569c0.47766,-0.16338 0.98941,0.11603 1.14302,0.62405c0.15361,0.50803 -0.10908,1.05231 -0.58675,1.21569c-0.47766,0.16338 -0.98941,-0.11602 -1.14302,-0.62404z" fill="#ffe8bf"/><path d="M325.34572,195.03783c-0.15361,-0.50803 0.10908,-1.05232 0.58675,-1.21569c0.47766,-0.16338 0.98941,0.11603 1.14302,0.62405c0.15361,0.50803 -0.10908,1.05232 -0.58675,1.21569c-0.47766,0.16338 -0.98941,-0.11603 -1.14302,-0.62405z" fill="#ffe8bf"/><path d="M329.48465,194.84015c-0.15361,-0.50803 0.10908,-1.05231 0.58675,-1.21569c0.47766,-0.16338 0.9894,0.11603 1.14301,0.62405c0.15361,0.50803 -0.10908,1.05231 -0.58675,1.21567c-0.47766,0.16338 -0.9894,-0.11601 -1.14301,-0.62404z" fill="#ffe8bf"/><path d="M334.08092,194.89205c-0.15361,-0.50803 0.10908,-1.05231 0.58675,-1.21569c0.47766,-0.16338 0.98941,0.11603 1.14302,0.62405c0.15361,0.50803 -0.10908,1.05231 -0.58674,1.21569c-0.47766,0.16338 -0.98941,-0.11602 -1.14302,-0.62404z" fill="#ffe8bf"/><path d="M315.55682,174.02665c0.27814,0.91986 -0.58675,1.21569 -0.58675,1.21569l-0.76211,0.15348c-0.58279,-0.0995 -1.18122,-0.12438 -1.74836,-0.29842c-0.26511,-0.08134 -1.99571,0.26167 -2.69438,0.25764c-0.52467,-0.00305 -1.01615,-0.27835 -1.52421,-0.41759c0,0 -0.87387,-0.26416 -0.62559,-1.19356c0.24836,-0.92943 1.12221,-0.66535 1.12221,-0.66535c0.33216,0.11477 0.64727,0.33722 0.99647,0.34423c0.75483,0.01516 2.89046,-0.28153 3.28567,-0.16383c0.47498,0.14148 0.97614,0.15114 1.46425,0.22673l-0.07018,-0.08317c0,0 0.86488,-0.29582 1.14302,0.62404z" fill="#ffb840"/><path d="M314.3185,174.14484c0.84906,0.34361 0.52601,1.24673 0.52601,1.24673l-0.20636,0.56023c-0.66629,1.37563 -1.50939,3.09971 -3.12944,3.38947c-2.5226,0.45126 -3.5978,-2.60203 -3.56628,-4.67556c0,0 0.02898,-0.96577 0.93696,-0.93492c0.90805,0.03082 0.87904,0.99653 0.87904,0.99653c-0.03415,0.66901 0.29082,3.05871 1.41655,2.71429c0.96596,-0.29554 1.43695,-1.5202 1.84665,-2.37237l0.12459,-0.36497c0,0 0.32308,-0.90305 1.1722,-0.55947z" fill="#ffb840"/><path d="M324.78464,175.26396c0.21092,0.55865 0.33251,1.16659 0.63691,1.67409c0.20083,0.33486 1.31456,-0.15972 1.5017,-0.34837c0.5422,-0.54634 0.59714,-1.40039 0.66221,-2.14683c-0.9862,0.09807 -1.9707,0.18379 -2.95838,0.29443zM329.10701,176.38032c-0.67843,1.92747 -3.27402,3.59752 -4.98374,1.90961c-0.3043,-0.30044 -0.84636,-1.83518 -1.02422,-2.30478l-0.26673,-0.87421c0,0 -0.0315,-0.1042 -0.04032,-0.25365c-0.24171,-0.08641 -0.50028,-0.29322 -0.56118,-0.77546c-0.12099,-0.95765 0.77943,-1.08627 0.77943,-1.08627c2.01835,-0.28838 3.99928,-0.42903 6.01816,-0.62548l1.12852,0.25215c0,0 0.88718,0.20794 0.69167,1.15153c-0.19552,0.94359 -1.0827,0.73565 -1.0827,0.73565l-0.35674,-0.08882c-0.08628,0.65739 -0.08373,1.33986 -0.30202,1.95994z" fill="#ffb840"/><path d="M323.4283,187.17102c-0.24169,-0.61775 0.08623,-0.98574 0.31074,-1.15359c-2.50012,-0.17876 -5.02541,-0.19369 -7.50937,-0.39686c-1.21987,-0.09978 -2.41014,0.21552 -3.62881,0.20505c0,0 -0.90845,-0.01023 -0.89877,-0.97645c0.00961,-0.96619 0.91808,-0.9559 0.91808,-0.9559c1.25943,0.01804 2.46081,-0.29618 3.73014,-0.20087c2.93205,0.22006 5.92816,0.22167 8.86776,0.51237c-0.37615,-0.32878 -0.73469,-0.68088 -1.07436,-1.04979c0,0 -0.63555,-0.69044 0.01362,-1.36639c0.64917,-0.67595 1.28472,0.0145 1.28472,0.0145c0.44979,0.48864 2.6016,2.70966 2.64589,3.31316c0.0768,1.04666 -2.08913,1.91956 -2.61517,2.1949l-0.85663,0.38092c0,0 -0.83877,0.37121 -1.18773,-0.52092z" fill="#ffb840"/></g><text transform="translate(299.43197,205.38854) scale(0.15477,0.15477)" font-size="40" xml:space="preserve" fill="#9966ff" fill-rule="nonzero" stroke="none" stroke-width="1" stroke-linecap="butt" stroke-linejoin="miter" stroke-miterlimit="10" stroke-dasharray="" stroke-dashoffset="0" font-family="&quot;Rockwell&quot;, Sans Serif" font-weight="normal" text-anchor="start" style="mix-blend-mode: normal"><tspan x="0" dy="0">box man is tired</tspan></text><text transform="translate(10.60092,23.57985) scale(0.5,0.5)" font-size="40" xml:space="preserve" fill="#9966ff" fill-rule="nonzero" stroke="none" stroke-width="1" stroke-linecap="butt" stroke-linejoin="miter" stroke-miterlimit="10" stroke-dasharray="" stroke-dashoffset="0" font-family="&quot;OCR A&quot;, Sans Serif" font-weight="normal" text-anchor="start" style="mix-blend-mode: normal"><tspan x="0" dy="0">15.09.2023</tspan></text></g></g></svg>