<svg version="1.1" xmlns="http://www.w3.org/2000/svg" xmlns:xlink="http://www.w3.org/1999/xlink" width="205.22756" height="157.48348" viewBox="0,0,205.22756,157.48348"><g transform="translate(-220.4308,-103.30274)"><g data-paper-data="{&quot;isPaintingLayer&quot;:true}" stroke="none" stroke-linecap="butt" stroke-linejoin="miter" stroke-miterlimit="10" stroke-dasharray="" stroke-dashoffset="0" style="mix-blend-mode: normal"><path d="M373.63758,167.20369c1.95377,-0.42482 11.02167,-0.11427 14.22856,0.49606c17.71508,3.37047 21.65432,5.0103 23.30024,9.6082c1.66969,4.66249 0.75041,5.81397 -6.13015,7.62052c-3.14467,0.82607 -4.59764,1.34542 -4.98573,1.76768c-1.01428,1.10378 -10.11761,0.14503 -16.261,-1.72104c-9.91736,-3.01197 -18.20307,-8.69204 -17.97794,-12.29353c0.13335,-2.13331 3.59113,-4.55846 7.82604,-5.47789" data-paper-data="{&quot;noHover&quot;:false,&quot;origItem&quot;:[&quot;Path&quot;,{&quot;applyMatrix&quot;:true,&quot;segments&quot;:[[[430.75599,404.384],[0,0],[-5.68,-1.612]],[[388.79999,403.274],[9.564,-1.208],[-52.832,6.67]],[[318.47399,427.206],[5.698,-13.248],[-5.78,13.434]],[[335.12999,450.752],[-19.946,-6.592],[9.116,3.014]],[[349.48599,456.858],[-1.066,-1.316],[2.786,3.44]],[[397.59999,454.754],[-18.45,4.368],[29.784,-7.05]],[[452.79999,421.934],[0,10.656],[0,-6.312]],[[430.75599,404.384],[12.312,3.49],[0,0]]],&quot;fillColor&quot;:[0,0,0,1],&quot;fillRule&quot;:&quot;evenodd&quot;}],&quot;index&quot;:null}" fill="#ff6cbf" fill-rule="evenodd" stroke-width="0.5"/><path d="M239.89436,114.87644c3.53511,1.35219 6.6549,4.90829 7.64598,8.71338c0.44858,1.72275 0.65487,6.52287 0.61261,11.80161c-0.47744,0.91027 -0.90279,1.86659 -1.0354,2.94522c-0.26301,2.13923 0.19549,3.66501 0.77381,5.19672c-0.07988,1.36055 -0.17776,2.66007 -0.29378,3.84886l-0.52463,5.37493l-0.83633,0.68875c-1.3436,1.10694 -1.0469,2.29878 1.24747,5.01204c0.83028,0.98225 2.91049,0.31494 3.18819,-1.02286c0.11167,-0.53793 0.45754,-0.63235 3.74627,-1.02733c4.10169,-0.49278 4.06363,-0.50262 3.38132,0.88114c-0.67761,1.37387 -0.54447,2.64167 0.61012,5.82859c2.13693,5.89417 3.98864,8.39382 7.77731,10.49883c4.72583,2.62571 7.03852,2.95077 11.68994,1.64276c3.55037,-0.99819 6.06273,-1.25101 11.8276,-1.18923c6.77196,0.07179 8.23486,-0.29481 10.7395,-2.69316c3.06401,-2.9334 2.8095,-7.39479 -0.56636,-9.94832c-0.67325,-0.50895 -1.16588,-0.9218 -1.09423,-0.91732c0.07165,0.00448 2.84171,0.48164 6.15574,1.06067c3.31403,0.57903 7.86624,1.24903 10.11712,1.48812c4.0703,0.4329 4.09434,0.43915 4.598,1.21845c0.33603,0.5191 0.98798,0.95615 1.93237,1.29612c2.66198,0.95764 3.17376,1.81344 2.22889,3.72842c-2.13622,4.33162 2.44154,10.06418 8.69492,10.88734c3.7927,0.49902 5.65588,-0.32233 9.18393,-4.04647c2.18838,-2.31089 3.72386,-3.17649 5.83314,-3.28825l1.10434,-0.05855l0.4123,3.10931c1.16531,8.79075 4.05928,17.46835 7.02703,21.06855c0.64025,0.7763 37.47272,3.65818 43.80282,3.42753l2.24451,-0.08228l-0.08256,1.32081c-0.04542,0.72665 0.00243,2.02372 0.10618,2.88252c0.13868,1.14668 0.09044,1.78833 -0.18148,2.41463c-0.29971,0.69108 -0.30335,1.14008 -0.01836,2.36715c0.9825,4.2246 -1.82261,30.73162 -3.50255,33.10483c-0.13397,0.1891 -1.08487,0.14866 -3.01784,-0.12824c-1.55229,-0.22258 -5.58532,-0.66536 -8.96171,-0.98499c-3.37643,-0.31896 -6.13787,-0.59743 -6.13656,-0.61839c0.00131,-0.02096 -0.23677,-2.05262 -0.5294,-4.51453c-0.95027,-7.99693 -1.33527,-13.6927 -1.32929,-19.65039c0.00946,-8.91208 -1.83177,-11.81823 -9.51075,-15.00991c-7.18955,-2.98804 -10.79131,4.01046 -10.37406,20.15454c0.19777,7.65945 0.26847,15.11552 0.15959,16.89003l-0.10259,1.67379l-1.15799,0.07012c-0.63692,0.0389 -3.85742,0.26511 -7.15671,0.50335c-8.17183,0.58919 -8.54107,0.6014 -8.70815,0.28897c-0.98367,-1.83941 -1.05765,-19.57776 -0.12963,-31.12373c0.71685,-8.91672 -0.72284,-10.2024 -12.45715,-11.12455l-6.78388,-0.53263l0.00078,-2.23796c0.0002,-3.71598 -1.23526,-6.01085 -5.30425,-9.85158c-5.28394,-4.9875 -7.67597,-5.0203 -13.64312,-0.18508c-3.11866,2.5269 -4.49636,3.35417 -8.61018,5.17013c-2.32732,1.02714 -3.06103,1.48546 -3.42136,2.13678c-0.40076,0.72277 -0.66768,0.85672 -2.09454,1.04847c-3.8829,0.5207 -6.43203,2.89252 -7.60696,7.07658c-0.81184,2.89164 -0.71767,6.02042 0.60526,20.17107c0.77203,8.25383 1.07718,13.1425 0.94877,15.19673l-0.06008,0.9612l-9.65359,-0.80498c-5.30949,-0.44251 -10.31772,-0.92792 -11.12941,-1.07841l-1.47577,-0.27411l-0.09155,-3.94158c-0.08734,-3.79202 -0.05066,-4.13989 0.97413,-9.16801c3.29559,-16.16986 1.36495,-31.8453 -3.22563,-26.19115c-0.94541,1.16374 -2.09964,14.00525 -1.93456,21.52558c0.16398,7.46191 -0.01953,9.9307 -1.03028,13.88752l-0.87974,3.44588l-4.46447,-0.45618c-2.45506,-0.25118 -9.22897,-0.83476 -15.05299,-1.29653c-8.06041,-0.63956 -10.61463,-0.92205 -10.69731,-1.18441c-0.35414,-1.13029 0.73696,-32.03588 1.63952,-46.4315c0.14476,-2.30496 0.16587,-5.42178 0.04687,-6.92688c-0.51797,-6.55368 -0.48834,-7.82012 0.58865,-25.40781c1.13142,-18.48003 1.32835,-20.30603 2.69204,-25.00217c1.72944,-5.95515 5.64948,-12.75867 7.92924,-13.763c0.93924,-0.41359 1.15018,-0.40108 2.6009,0.15443zM228.4224,161.17106c-0.74575,0.83556 -0.78543,1.30742 -0.20247,2.414c0.39619,0.75086 0.40236,0.94532 0.05102,1.4961c-1.29612,2.03009 0.72357,4.17652 2.81126,2.98783c0.61006,-0.34731 0.74524,-0.33886 1.46411,0.09152c2.45421,1.46988 4.12954,-0.93823 2.27406,-3.26915c-0.56814,-0.71411 -0.86394,-1.37726 -0.83318,-1.86936z" data-paper-data="{&quot;index&quot;:null}" fill="#fbfbfb" fill-rule="nonzero" stroke-width="1"/><path d="M395.58687,112.2107c-0.45556,0.64401 -0.94603,3.80071 -0.69294,4.46323c0.94082,2.45968 3.95221,1.38844 4.1309,-1.47017c0.06165,-0.98622 0.77738,-2.66578 1.12616,-2.64398c0.07301,0.00456 0.04765,0.84444 -0.05566,1.86741c-0.19558,1.93467 0.21649,3.02854 1.1635,3.08773c0.27443,0.01715 0.31964,0.16249 0.14955,0.48436c-1.72515,3.27021 2.20593,4.51891 4.16864,1.32394c2.92439,-4.76009 8.34008,-7.16716 11.79947,-5.24424c1.00535,0.5589 2.1271,4.02132 1.51435,4.67247c-0.15775,0.16794 -0.22755,0.37258 -0.15463,0.45449c0.20528,0.23337 -2.31171,3.37198 -3.10279,3.8688c-0.38846,0.24376 -1.67565,0.52431 -2.85989,0.62333c-3.15566,0.26351 -4.15312,1.57599 -2.69451,3.54688c0.86542,1.16903 1.65966,1.34897 3.66087,0.82736c2.11777,-0.55164 1.87549,-1.17006 2.20204,5.61255c0.15341,3.19085 0.356,6.64806 0.44881,7.68193c0.20657,2.28621 0.07716,2.50001 -0.45433,0.7547c-2.19915,-7.21115 -8.46727,-12.12987 -12.96256,-10.1715c-6.10465,2.65987 -9.49492,19.12849 -5.73708,27.87094c2.72231,6.33249 11.2115,9.14458 16.87536,5.58992c0.75509,-0.47464 1.48529,-0.85515 1.62318,-0.84653c0.45356,0.02835 1.45906,-1.32571 1.50271,-2.02396c0.11037,-1.76559 0.37811,0.07385 0.57812,3.97403c0.80348,15.65384 0.67679,23.64045 -0.40166,25.43443c-1.37072,2.27922 -5.94568,3.72095 -13.26949,4.18332c-5.41346,0.34156 -23.98492,-0.35855 -24.92441,-0.9398c-0.28225,-0.1744 -2.14555,-1.80482 -4.14023,-3.62396c-7.54101,-6.87529 -17.44894,-11.78605 -20.28454,-10.05306c-0.96451,0.58981 -2.23967,-6.97549 -2.45725,-14.5785c-0.11724,-4.10604 -0.06781,-4.29975 1.14084,-4.46374c3.30297,-0.44906 7.0628,-4.84137 7.29341,-8.51987c0.13487,-2.15765 -0.51619,-3.65122 -2.40183,-5.51036c-1.28988,-1.27224 -1.56241,-1.72154 -1.83426,-3.02854c-0.87896,-4.22016 -1.42718,-6.07782 -2.20891,-7.4893c-1.1336,-2.04625 -1.12487,-4.40043 0.01876,-4.83789c2.79749,-1.06899 -0.16332,-5.21436 -3.89121,-5.44738c-0.41909,-0.0262 -1.07397,-0.35147 -1.45515,-0.72341l-0.69268,-0.67575l0.76215,-1.69499c1.92456,-4.27836 12.38805,-5.02016 12.38805,-5.02016c0,0 4.57074,-7.34509 6.09977,-9.13872c1.56457,1.06819 6.19541,4.86599 6.36643,4.87668c0.17102,0.01069 0.52661,0.29282 0.79002,0.62755c2.30676,2.9278 7.05999,1.77136 5.20389,-1.26602c-0.36138,-0.59126 -0.33636,-0.62226 0.66194,-0.81908c1.96496,-0.38679 8.98298,-1.32023 11.16061,-1.48337c1.19995,-0.08989 2.59347,-0.20433 3.096,-0.25366c0.50663,-0.04976 0.84131,0.01323 0.75048,0.14192zM380.75703,129.53384c-9.96952,4.32513 -10.36896,26.69516 -0.58314,32.64741c1.51603,0.92198 1.37827,0.97647 -2.32964,0.92317c-12.1848,-0.17468 -19.75049,8.03299 -13.76785,14.93504c6.02565,6.95225 18.28264,11.95353 31.30772,12.77654c7.98137,0.50366 10.8557,0.02916 10.97071,-1.81078c0.02286,-0.36569 0.3624,-0.58672 1.20244,-0.78122c6.54427,-1.51814 8.86003,-4.57499 7.75655,-10.24034c-1.33017,-6.82634 -5.61739,-9.673 -18.74204,-12.44233c-4.9127,-1.03658 -6.72485,-1.50951 -5.48447,-1.43197c1.31473,0.08218 2.16113,-1.97263 1.32008,-3.20596c-0.41397,-0.60743 -0.42094,-0.96278 -0.06748,-3.5017c1.15574,-8.30637 0.79316,-15.29414 -1.13067,-21.78573z" data-paper-data="{&quot;index&quot;:null}" fill="#fbfbfb" fill-rule="nonzero" stroke-width="1"/><path d="M406.91071,136.09189c4.784,2.78067 8.45707,14.5077 7.14991,22.82633l-0.30555,1.94611l-1.54042,0.99896c-3.85596,2.49982 -9.52319,0.48504 -11.44995,-4.0707c-1.99943,-4.72857 -1.06712,-14.50857 1.90595,-19.99307zM408.29974,146.23211c-0.75932,0.62909 -0.89996,1.58731 -0.43183,2.94593c0.17752,0.51462 0.47092,2.04148 0.65176,3.393c0.46237,3.44834 1.68553,4.63702 3.4688,3.36823c0.88487,-0.62939 0.93139,-1.89477 0.21615,-5.84615c-0.73519,-4.05578 -2.07281,-5.3785 -3.90487,-3.86101z" data-paper-data="{&quot;index&quot;:null}" fill="#fbfbfb" fill-rule="nonzero" stroke-width="1"/><path d="M385.41031,133.70017c2.78411,2.13042 4.04862,10.32207 3.2291,20.92479l-0.45121,5.83961l-1.82634,-0.26752c-5.42993,-0.79544 -8.40088,-4.86543 -9.06587,-12.42175c-0.85432,-9.70575 3.63856,-17.49882 8.11433,-14.07512zM378.9164,144.36756c-0.99852,0.68879 -1.01529,1.4783 -0.1186,5.50142c0.83954,3.76507 1.16679,4.31619 2.61062,4.40644c2.02921,0.12684 2.31799,-0.95375 1.38203,-5.16323c-0.34962,-1.57176 -0.62287,-3.06276 -0.60719,-3.31354c0.08928,-1.42829 -1.96624,-2.32834 -3.26687,-1.43111z" data-paper-data="{&quot;index&quot;:null}" fill="#fbfbfb" fill-rule="nonzero" stroke-width="1"/><path d="M406.20539,112.40827c-0.26063,0.13097 -0.80845,0.61177 -1.2177,1.06867l-0.74347,0.83163l0.06845,-1.14933l0.06913,-1.14929l1.14861,0.07994c0.88576,0.06215 1.04,0.13491 0.67498,0.31838z" data-paper-data="{&quot;index&quot;:null}" fill="#fbfbfb" fill-rule="nonzero" stroke-width="1"/><path d="" data-paper-data="{&quot;index&quot;:null}" fill="#fbfbfb" fill-rule="nonzero" stroke-width="1"/><path d="" data-paper-data="{&quot;index&quot;:null}" fill="#fbfbfb" fill-rule="nonzero" stroke-width="1"/><path d="" data-paper-data="{&quot;index&quot;:null}" fill="#fbfbfb" fill-rule="nonzero" stroke-width="1"/><path d="" data-paper-data="{&quot;index&quot;:null}" fill="#fbfbfb" fill-rule="nonzero" stroke-width="1"/><path d="M405.31008,104.00965c0.73361,0.71563 0.82373,1.53218 0.35346,3.20402l-0.26519,0.94228l5.3002,0.22206c5.54451,0.23258 6.73411,0.48201 6.97943,1.46435c0.06561,0.26401 1.09398,1.04081 2.28484,1.72599c5.22768,3.01063 7.04667,7.2495 4.66209,10.86462c-0.76084,1.15288 -3.3722,3.36947 -3.9607,3.36119c-1.31325,-0.01898 -1.34623,1.97403 -0.28113,16.93849c1.78019,25.01912 2.26678,46.09005 1.14039,49.39973c-1.47886,4.34557 -8.63083,8.08408 -14.73604,7.70245c-0.81993,-0.05125 -1.05978,1.4192 -0.78106,4.78753c0.13323,1.60302 0.20364,3.46203 0.1564,4.13088c-0.04656,0.6689 -0.13658,3.41159 -0.19912,6.09491c-0.17792,7.60136 -2.29919,24.50353 -3.49511,27.84008c-0.17597,0.49184 -0.2799,1.43809 -0.23115,2.10209c0.07646,1.03489 -0.01239,1.30552 -0.62612,1.89621c-0.39349,0.37849 -0.97055,1.28363 -1.282,2.01062c-2.20019,5.13786 -6.34217,8.58748 -11.52253,9.59642c-6.23831,1.21561 -9.78472,-1.88807 -11.3619,-9.94115c-1.25607,-6.41592 -2.9586,-25.30654 -2.82993,-31.39227c0.13846,-6.50314 -0.324,-7.77864 -3.6262,-10.00183c-4.18194,-2.81564 -5.32265,-2.78312 -6.98303,0.20002l-1.11987,2.01125l-0.26738,5.00489c-0.14696,2.75269 -0.20318,6.96326 -0.1248,9.35681c0.61495,18.80024 0.08471,23.04903 -3.45865,27.69103c-6.66245,8.72828 -16.09735,8.95148 -19.32579,0.45724c-2.56075,-6.73498 -3.62494,-26.52284 -2.17481,-40.41803c0.82567,-7.91102 0.50446,-8.18965 -10.06818,-8.74127c-4.10435,-0.21381 -6.56845,-0.49405 -10.23652,-1.16307c-2.65692,-0.48502 -6.52954,-1.06232 -8.60582,-1.28304c-2.07627,-0.22071 -6.88281,-0.77361 -10.68104,-1.2275c-13.97095,-1.67134 -14.18032,-1.26369 -11.85333,23.03025c1.93284,20.17806 0.57517,25.93929 -7.3221,31.08137c-11.00409,7.16485 -19.64775,4.05538 -21.18176,-7.61938c-0.64384,-4.89831 -0.4678,-4.88119 -2.21358,-0.21708c-4.42178,11.8121 -9.54991,16.16503 -18.39996,15.61928c-7.56025,-0.46647 -11.68214,-4.90496 -14.44788,-15.55806c-2.14452,-8.25887 -2.45992,-13.46102 -1.75824,-29.01806c1.35223,-29.98063 1.52684,-35.80292 1.19038,-39.69126c-0.71204,-8.23651 1.64667,-41.85596 3.36293,-47.9368c4.95308,-17.54354 12.95453,-22.32217 21.95926,-13.11264c4.64909,4.75441 5.66101,12.04741 4.27179,30.78685c-0.2615,3.52118 -0.42033,6.46381 -0.35379,6.53923c0.06649,0.07609 1.72174,-0.07831 3.67838,-0.3428c4.28141,-0.5779 8.74694,-0.36663 16.23617,0.76926c6.15084,0.93279 11.76941,1.64162 19.92927,2.51405c3.55919,0.38059 7.55907,0.87628 8.88858,1.10189c1.32951,0.22561 4.834,0.83012 7.78774,1.34319c9.88557,1.71862 23.95026,2.35689 35.54306,1.61307c5.30417,-0.34093 5.29158,-0.33493 5.23525,-2.32131c-0.02416,-0.85112 0.1401,-5.62833 0.36431,-10.61556l0.40802,-9.06767l-1.00898,-0.96764c-1.53394,-1.47139 -1.09219,-3.64243 0.71734,-3.52932c1.57227,0.09828 1.06435,-1.24248 -0.88307,-2.33053c-2.93028,-1.6374 -4.37605,-3.9332 -3.68956,-5.86161c0.79042,-2.22321 4.88973,-5.42441 8.16727,-6.37857c0.73612,-0.21456 3.0293,-1.05382 5.09544,-1.86521c2.06614,-0.81138 4.48654,-1.74244 5.37821,-2.06808c0.89239,-0.32626 1.58077,-0.68903 1.53045,-0.80686c-1.57951,-3.68443 -1.60467,-4.50846 -0.18005,-5.84785c1.52915,-1.43736 3.46841,-1.00059 7.28597,1.64095c2.1407,1.48083 2.24737,1.5221 3.31217,1.2928c6.87311,-1.48129 13.72307,-2.45101 19.69886,-2.78864l4.0676,-0.22958l1.33667,-1.54983c2.88471,-3.34362 3.83544,-3.78907 5.21446,-2.44476M404.26063,112.34167c-0.11082,0.32898 -0.22852,1.007 -0.26182,1.50708l-0.06026,0.90962l1.44191,-1.35527c1.73464,-1.63081 1.71191,-1.49515 0.26672,-1.58549c-1.00109,-0.06258 -1.21655,0.01896 -1.38656,0.52407M399.38492,113.42733c-0.31686,0.59635 -0.60939,1.57425 -0.6502,2.17294c-0.10263,1.5116 -0.75629,2.25248 -1.9223,2.1796c-1.89741,-0.11861 -2.36439,-2.02751 -1.26281,-5.1684c0.32798,-0.93699 -2.78619,-0.80525 -11.31493,0.47822c-5.33988,0.80353 -5.07837,0.7018 -4.41999,1.72014c1.70237,2.63079 -2.67271,3.78439 -4.7518,1.25288c-0.24347,-0.29548 -1.04396,-0.86396 -1.7791,-1.26211c-0.73581,-0.39818 -1.8314,-1.1093 -2.43503,-1.58134c-4.47668,-3.4957 -5.80596,-2.60704 -2.29949,1.53715c4.76006,5.62791 5.3333,6.79225 3.94429,8.01782c-1.36819,1.2072 -2.43521,0.50602 -4.58814,-3.01544c-0.75419,-1.23332 -1.40077,-2.24481 -1.43659,-2.24705c-0.37245,-0.02328 -4.88264,1.79369 -4.91116,1.97852c-0.02142,0.13642 0.49268,0.48817 1.14139,0.78184c5.20736,2.35858 7.34027,4.87581 5.31481,6.274c-1.03823,0.71616 -1.41896,0.62993 -3.26523,-0.74087c-6.01224,-4.46367 -13.3792,-5.56884 -15.29061,-2.29332c-1.78379,3.05754 -1.67234,3.35901 1.64806,4.43313c4.01283,1.29791 5.71287,4.22645 2.95105,5.08325c-1.14807,0.35643 -1.10453,2.53676 0.09603,4.87968c0.8873,1.73092 1.89351,4.80542 1.84209,5.62806c-0.09566,1.53036 0.70161,3.22511 2.47636,5.26258c2.73079,3.13548 2.95248,5.4077 0.87008,8.92159c-1.45725,2.45839 -4.84161,4.91507 -6.6208,4.80522c-1.21,-0.07495 -0.40531,12.23756 1.22575,18.75563c0.20519,0.82103 0.27701,0.8771 0.69982,0.55065c2.75998,-2.12995 13.37116,3.21158 21.35524,10.74973l2.9476,2.78259l9.32766,0.59121c17.35559,1.09913 26.2114,0.03289 28.96201,-3.48876c1.51948,-1.94487 1.62244,-7.12019 0.58493,-29.33236c-0.07839,-1.67696 -0.35891,-1.8465 -0.77679,-0.46997c-0.8879,2.92488 -7.09664,4.87251 -11.74884,3.68528c-9.45401,-2.41299 -12.52482,-16.34921 -6.50068,-29.49977c4.15864,-9.07888 13.7343,-5.56167 17.34434,6.37044c0.59901,1.97891 0.6492,1.52331 0.33983,-3.06976c-0.15507,-2.30674 -0.36268,-6.03095 -0.4605,-8.27643c-0.2079,-4.77266 -0.10219,-4.56384 -2.04245,-4.04045c-3.05705,0.82477 -5.30619,-0.84267 -4.0235,-2.98353c0.45154,-0.75352 0.69193,-0.83213 3.18946,-1.04314c3.8265,-0.32405 6.66854,-3.9947 5.73951,-7.41386c-1.39787,-5.1463 -9.42949,-3.63021 -13.14547,2.48169c-0.61263,1.00742 -1.35023,1.94052 -1.64014,2.07305c-1.83653,0.83998 -3.60041,-1.15406 -2.53903,-2.87037c0.24158,-0.3907 0.19464,-0.53003 -0.2354,-0.69602c-1.05342,-0.40854 -1.35317,-1.42142 -1.03084,-3.48388c0.33356,-2.13369 0.05351,-2.27809 -0.90843,-0.47005M237.02096,114.70633c-2.23506,0.98404 -6.1805,8.04181 -7.94737,14.21584c-1.69991,5.93867 -4.10975,40.33259 -3.36707,48.05732c0.36232,3.76781 0.37985,3.18328 -1.06461,35.62756c-0.52727,11.84382 -0.65497,19.61864 -0.32797,19.98924c0.03675,0.04165 3.39958,0.35026 7.47326,0.68565c4.07304,0.33468 10.85121,0.9477 15.06186,1.36087c4.21127,0.41389 7.70954,0.70517 7.77491,0.64751c1.12974,-0.99681 2.2266,-9.6638 2.08416,-16.47155c-0.1383,-6.61341 0.8897,-20.77929 1.59355,-21.95405c1.27212,-2.12388 3.49343,-1.58533 4.14447,1.00484c1.3007,5.18095 0.87911,15.57307 -1.01145,24.90908c-0.82745,4.08568 -1.10239,8.11495 -0.81658,11.97774l0.08866,1.19783l3.5401,0.39297c9.65591,1.07181 18.79354,1.71764 18.85088,1.33239c0.33593,-2.26926 0.10767,-6.96583 -0.78586,-16.17459c-1.52312,-15.7029 -1.43564,-19.25191 0.56091,-22.72774c1.61572,-2.81154 3.55011,-4.04442 6.75295,-4.30293c1.12538,-0.09116 1.46319,-0.23019 1.56796,-0.64709c0.21509,-0.85719 0.64005,-1.16382 3.01228,-2.17118c3.52182,-1.4967 6.6491,-3.37975 9.4588,-5.69728c5.35039,-4.413 7.95869,-4.442 12.63748,-0.14108c4.50998,4.14651 5.78285,6.40709 5.70167,10.12682c-0.06293,2.88484 -0.59728,2.65058 6.91093,3.02694c7.14424,0.35836 9.82697,1.17955 11.57716,3.5446c1.16761,1.57811 1.17927,1.83671 0.56744,12.7537c-0.61454,10.9494 -0.62649,15.12473 -0.06273,21.84684l0.34268,4.09299l1.10957,0.15079c0.60958,0.08357 3.67208,-0.05751 6.80551,-0.3129c3.13276,-0.25544 6.53323,-0.49482 7.55612,-0.53132c1.26573,-0.04574 1.91755,-0.19296 2.0394,-0.4595c0.19726,-0.43079 0.17834,-6.42465 -0.0492,-15.73562c-0.28067,-11.48987 0.26204,-16.19866 2.25922,-19.60861c2.59887,-4.43775 5.16505,-4.79171 10.88406,-1.49929c5.38302,3.09837 6.39782,5.22134 6.34832,13.27589c-0.03355,5.30249 0.49527,12.89848 1.41362,20.32068l0.5063,4.09169l2.95046,0.26179c1.62305,0.14353 5.72034,0.56793 9.10619,0.94245c3.38517,0.37447 6.19744,0.64322 6.24919,0.59692c1.75137,-1.57276 4.64805,-29.63143 3.49047,-33.80182c-0.25098,-0.90262 -0.23535,-1.25043 0.08413,-1.89956c0.31627,-0.64118 0.3477,-1.18752 0.16394,-2.83985c-0.1258,-1.12483 -0.20428,-2.50729 -0.17508,-3.07209l0.05332,-1.02677l-1.02737,0.15157c-1.1931,0.17582 -41.14642,-2.38066 -43.27935,-2.76982c-0.82458,-0.15062 -1.58346,-0.46203 -1.79094,-0.73626c-2.0479,-2.70464 -2.67699,-4.13712 -4.61013,-10.50171c-0.94783,-3.11836 -1.99475,-8.34248 -2.60619,-12.99922c-0.23906,-1.82068 -3.85036,-0.33637 -7.41689,3.04811c-4.21584,4.00144 -6.33044,4.7304 -10.27555,3.54326c-5.97525,-1.79855 -9.0146,-6.56567 -6.95438,-10.90815c0.76279,-1.60741 0.01283,-2.61518 -2.57227,-3.45673c-1.08469,-0.35349 -2.0325,-1.10559 -2.20334,-1.74872c-0.05712,-0.21529 -1.64007,-0.50086 -4.79183,-0.86412c-2.58852,-0.2982 -7.35822,-1.00623 -10.599,-1.57389c-6.27551,-1.09869 -6.60947,-1.11889 -5.24469,-0.31766c5.71571,3.356 4.48355,10.45308 -2.18754,12.59981c-0.89889,0.28921 -2.56952,0.38566 -5.99331,0.34671c-6.04467,-0.06909 -9.35669,0.25318 -12.90529,1.25555c-5.04483,1.42457 -8.91369,0.53739 -13.80021,-3.16511c-3.87577,-2.93697 -7.45025,-12.55013 -5.65308,-15.20307c0.76625,-1.13082 0.74149,-1.13644 -2.94293,-0.63183c-1.40933,0.19352 -3.01163,0.40213 -3.5597,0.46354c-0.75102,0.08402 -1.04769,0.27041 -1.2013,0.75212c-0.44829,1.4072 -2.26269,1.90385 -3.06398,0.8379c-0.20612,-0.27414 -0.71447,-0.93498 -1.12972,-1.46785c-1.01764,-1.30679 -0.95464,-2.56437 0.16416,-3.28839l0.80761,-0.52225l0.4744,-5.0381c0.80251,-8.51778 0.71932,-21.39729 -0.15914,-24.58324c-1.44033,-5.227 -7.34444,-10.00897 -10.59204,-8.57859M386.89609,130.06891c4.97264,2.87864 7.4157,16.32707 5.1517,28.35886c-0.28273,1.50509 -0.29301,2.00594 -0.04362,2.11992c1.80504,0.82536 0.35868,3.64137 -1.80031,3.50641c-1.74058,-0.1088 -0.41005,0.24174 5.94691,1.5681c12.25507,2.55686 16.18543,4.70737 18.31992,10.02186c2.44326,6.085 0.42039,10.44882 -5.59084,12.05931c-2.20987,0.59204 -2.54869,0.80158 -2.9304,1.81664c-0.84961,2.25818 -14.01614,1.68963 -23.17927,-1.00172c-9.61825,-2.82498 -18.4885,-8.55171 -20.08481,-12.96601c-2.6348,-7.28723 5.71506,-13.02601 18.00445,-12.37521l1.62327,0.08586l-1.74885,-1.04035c-5.20005,-3.09439 -7.73781,-10.03423 -7.14373,-19.53815c0.61339,-9.81283 7.37785,-16.1454 13.4756,-12.61555M382.29657,133.13027c-5.31167,2.06749 -7.05895,13.30166 -3.39121,21.803c1.31643,3.05114 3.86337,4.87223 7.3979,5.28928l2.15561,0.25418l0.41819,-6.99392c0.84972,-14.20145 -1.74735,-22.23346 -6.58049,-20.35254M403.67575,136.13667c-3.3795,3.19326 -5.26261,15.64517 -3.22855,21.35037c1.77028,4.96397 7.87307,7.09962 12.20296,4.26978l1.43836,-0.9402l0.20206,-3.25412c0.75917,-12.21001 -5.97689,-25.80735 -10.61483,-21.42582M410.57818,146.10649c1.31236,0.73891 2.5361,8.10623 1.56247,9.40664c-1.39054,1.85794 -2.94252,0.49059 -3.48088,-3.06633c-0.21599,-1.42973 -0.56393,-3.06111 -0.773,-3.62452c-0.75962,-2.0473 0.90116,-3.72344 2.69142,-2.71579M381.51456,144.71794c0.2215,0.27782 0.49369,1.05825 0.60479,1.73429c0.11174,0.67676 0.43745,2.33797 0.72404,3.69135c0.72882,3.44125 -0.50266,5.2623 -2.448,3.61997c-0.79154,-0.66835 -2.45699,-7.15737 -2.12602,-8.2835c0.40077,-1.36335 2.39252,-1.83126 3.24518,-0.76211M373.66593,167.22219c-4.2349,0.91943 -7.68779,3.33247 -7.82114,5.46578c-0.22513,3.60148 8.04559,9.24663 17.96295,12.25859c6.1434,1.86607 15.20269,2.83137 16.21697,1.72759c0.38809,-0.42226 1.83633,-0.93432 4.981,-1.7604c6.88056,-1.80655 7.79648,-2.94362 6.12679,-7.60612c-1.64591,-4.5979 -5.54788,-6.20375 -23.26297,-9.57421c-3.20689,-0.61033 -12.24984,-0.93606 -14.20361,-0.51123M383.51529,169.28123c0.42289,0.52996 0.88564,3.13618 1.04856,5.9035c0.25205,4.28344 -3.2984,3.74121 -3.77562,-0.57666c-0.14046,-1.27029 -0.36216,-2.71734 -0.49248,-3.21611c-0.56225,-2.14354 1.90441,-3.76048 3.21954,-2.11072M231.27468,160.82139c1.8786,0.36511 2.77069,1.27048 2.68009,2.71972c-0.01859,0.29742 0.24887,0.86041 0.59424,1.25183c2.04365,2.31689 0.20527,4.97743 -2.14424,3.10286c-0.50544,-0.40347 -0.64833,-0.39747 -1.56369,0.06851c-1.97088,1.0026 -3.58771,-0.78207 -2.45094,-2.7054c0.50757,-0.85723 0.51039,-0.92424 0.07631,-1.53564c-0.91451,-1.28475 0.12402,-3.35197 1.56955,-3.1259c0.23857,0.03731 0.79619,0.13799 1.23869,0.224M404.47883,173.35694c0.57076,0.71563 0.77578,5.54511 0.28215,6.6353c-1.0137,2.23436 -3.599,0.89675 -3.43197,-1.7753c0.042,-0.6719 -0.01553,-1.8359 -0.1287,-2.58739c-0.37936,-2.52908 1.8451,-4.07092 3.27853,-2.27261M393.58001,180.59622c2.44504,0.81311 2.9599,1.28299 2.77265,2.53076c-0.32388,2.16348 -1.03921,2.17576 -6.67231,0.11426c-0.9427,-0.3453 -1.36102,-0.99168 -1.29769,-2.00493c0.09946,-1.59119 1.73181,-1.79182 5.19734,-0.64008M380.6088,244.8179c-0.11895,2.01139 1.87085,7.99068 3.02549,9.09229c2.64808,2.52636 9.61355,-0.22628 12.3077,-4.86368c1.66988,-2.87465 2.06511,-2.66198 -6.68765,-3.59183c-7.09037,-0.75333 -8.63185,-0.86666 -8.64553,-0.63678M350.69862,244.62912c-3.04142,0.24894 -6.23408,0.4857 -7.09503,0.52621c-1.82804,0.08524 -1.80754,0.02884 -1.07721,2.96802c1.2617,5.0774 3.96284,7.10221 7.61994,5.71032c3.17809,-1.20874 6.92782,-5.23322 7.86025,-8.43626l0.31788,-1.09031l-1.0484,-0.06553c-0.57658,-0.03604 -3.53667,0.13858 -6.57742,0.38756M224.79994,237.79416c0.33375,4.80021 3.05516,12.79724 5.28282,15.52465c4.9192,6.02398 13.80535,5.00443 18.45856,-2.11836c1.41378,-2.16456 5.22629,-11.76384 4.84349,-12.19696c-0.13815,-0.15657 -16.2825,-1.6238 -23.57347,-2.14265l-5.10138,-0.36299l0.08997,1.29631M260.89022,240.72737c-0.2932,4.87502 1.60378,10.08103 4.24299,11.64188c4.41916,2.614 14.39675,-2.53512 16.86429,-8.70403c0.91531,-2.28868 1.36925,-2.12528 -7.74063,-2.7809c-4.4269,-0.31879 -9.23375,-0.68238 -10.68151,-0.80748l-2.63225,-0.22832l-0.0529,0.87887" data-paper-data="{&quot;index&quot;:null}" fill="#080808" fill-rule="evenodd" stroke-width="1"/><path d="M224.77218,237.77479l-0.08881,-1.29789l5.1064,0.35784c7.29096,0.51886 23.48647,1.99568 23.62463,2.15225c0.38279,0.43313 -3.42768,10.06106 -4.84145,12.22562c-4.65321,7.12278 -13.59851,8.14987 -18.51771,2.12589c-2.22766,-2.72741 -4.9493,-10.7635 -5.28305,-15.56371" data-paper-data="{&quot;noHover&quot;:false,&quot;origItem&quot;:[&quot;Path&quot;,{&quot;applyMatrix&quot;:true,&quot;segments&quot;:[[856.50199,639.804],[857.00599,636],[[841.90399,636.13],[0,0],[-21.584,0.186]],[[772.03199,638.102],[0.436,-0.436],[-1.208,1.206]],[[784.05999,674.942],[-3.768,-6.64],[12.402,21.85]],[[838.07199,684.586],[-15.608,16.848],[7.068,-7.628]],[[856.50199,639.804],[-1.868,14.086],[0,0]]],&quot;fillColor&quot;:[0,0,0,1],&quot;fillRule&quot;:&quot;evenodd&quot;}],&quot;index&quot;:null}" fill="#ff6cbf" fill-rule="evenodd" stroke-width="0.5"/><path d="M260.86106,240.71016l0.05403,-0.88064l2.63484,0.22498c1.44777,0.12511 6.29485,0.48057 10.72176,0.79937c9.10987,0.65563 8.67354,0.51286 7.75823,2.80155c-2.46754,6.1689 -12.50294,11.35025 -16.92209,8.73625c-2.6392,-1.56084 -4.53996,-6.80647 -4.24676,-11.6815" data-paper-data="{&quot;noHover&quot;:false,&quot;origItem&quot;:[&quot;Path&quot;,{&quot;applyMatrix&quot;:true,&quot;segments&quot;:[[749.59399,641.8],[749.59999,639.2],[[741.79999,639.388],[0,0],[-4.29,0.102]],[[710.16999,639.8],[13.106,-0.124],[-26.97,0.254]],[[686.84399,646.57],[-2.276,-6.914],[6.136,18.636]],[[734.94399,675.33],[-13.506,6.89],[8.066,-4.114]],[[749.59399,641.8],[-0.034,14.422],[0,0]]],&quot;fillColor&quot;:[0,0,0,1],&quot;fillRule&quot;:&quot;evenodd&quot;}],&quot;index&quot;:null}" fill="#ff6cbf" fill-rule="evenodd" stroke-width="0.5"/><path d="M350.70428,244.59574c3.04074,-0.24898 6.02341,-0.40888 6.60001,-0.37284l1.04957,0.06743l-0.3165,1.093c-0.93243,3.20305 -4.71148,7.27544 -7.88958,8.48419c-3.65709,1.39189 -6.39326,-0.67112 -7.65498,-5.74852c-0.73035,-2.93918 -0.74602,-2.89627 1.08201,-2.9815c0.86095,-0.04051 4.08805,-0.29281 7.12948,-0.54175" data-paper-data="{&quot;noHover&quot;:false,&quot;origItem&quot;:[&quot;Path&quot;,{&quot;applyMatrix&quot;:true,&quot;segments&quot;:[[[484.18599,636.754],[0,0],[-8.916,-1.294]],[[464.87199,634.4],[1.706,0],[0,0]],[461.76999,634.4],[[462.50599,637.672],[0,0],[2.158,9.612]],[[484.11799,663.984],[-9.144,-4.148],[10.522,4.776]],[[507.62799,648.558],[-4.654,14.732],[2.694,-8.528]],[[504.99999,639.612],[5.372,0.588],[-2.53,-0.278]],[[484.18599,636.754],[8.918,1.294],[0,0]]],&quot;fillColor&quot;:[0,0,0,1],&quot;fillRule&quot;:&quot;evenodd&quot;}],&quot;index&quot;:null}" fill="#ff6cbf" fill-rule="evenodd" stroke-width="0.5"/><path d="M380.58063,244.7991c0.01369,-0.22986 1.58882,-0.13115 8.67919,0.62217c8.75276,0.92985 8.38558,0.74593 6.71569,3.62058c-2.69414,4.6374 -9.71976,7.41566 -12.36783,4.88929c-1.15464,-1.1016 -3.146,-7.12066 -3.02705,-9.13205" data-paper-data="{&quot;noHover&quot;:false,&quot;origItem&quot;:[&quot;Path&quot;,{&quot;applyMatrix&quot;:true,&quot;segments&quot;:[[[395.99799,631.8],[0,0],[0.002,-0.68]],[[370.39999,632.084],[21.036,-0.914],[-25.968,1.128]],[[350.02799,641.438],[-4.392,-8.78],[7.086,14.164]],[[385.40599,658.04],[-8.27,6.958],[3.606,-3.034]],[[395.99799,631.8],[-0.02,5.95],[0,0]]],&quot;fillColor&quot;:[0,0,0,1],&quot;fillRule&quot;:&quot;evenodd&quot;}],&quot;index&quot;:null}" fill="#ff6cbf" fill-rule="evenodd" stroke-width="0.5"/></g></g></svg>