<svg version="1.1" xmlns="http://www.w3.org/2000/svg" xmlns:xlink="http://www.w3.org/1999/xlink" width="511.23309" height="291.97586" viewBox="0,0,511.23309,291.97586"><g transform="translate(-3.20998,-7.44829)"><g data-paper-data="{&quot;isPaintingLayer&quot;:true}" fill-rule="nonzero" stroke-linejoin="miter" stroke-miterlimit="10" stroke-dasharray="" stroke-dashoffset="0" style="mix-blend-mode: normal"><path d="M256.16666,234.3333v-109h128v109z" fill="#8f661e" stroke="none" stroke-width="0" stroke-linecap="butt"/><path d="M256.16666,233.66661v-108.33333h8v108.33333z" fill="#c78a32" stroke="none" stroke-width="0" stroke-linecap="butt"/><path d="M374.5,233.99995v-108.66667h9.33333v108.66667z" fill="#c78a32" stroke="none" stroke-width="0" stroke-linecap="butt"/><path d="M265.16666,134.33326v-8.33333h109v8.33333z" fill="#090000" stroke="#000000" stroke-width="0" stroke-linecap="butt"/><path d="M255.83333,243.33333v-9h128v9z" fill="#86837b" stroke="none" stroke-width="0" stroke-linecap="butt"/><path d="M256.16666,125.33333v-9h128v9z" fill="#86837b" stroke="none" stroke-width="0" stroke-linecap="butt"/><path d="M256.16666,243.66667v-127h128v127z" fill="none" stroke="#000000" stroke-width="2" stroke-linecap="butt"/><path d="M264.83333,233.99998v-108.33333h109.33334v108.33333z" fill="none" stroke="#000000" stroke-width="2" stroke-linecap="butt"/><path d="M373.49999,151.33326h-108.33333" fill="none" stroke="#000000" stroke-width="2" stroke-linecap="round"/><path d="M265.16667,176.99998h108.66667" fill="none" stroke="#000000" stroke-width="2" stroke-linecap="round"/><path d="M265.16666,212.33333h108.33333" fill="none" stroke="#000000" stroke-width="2" stroke-linecap="round"/><path d="M256.83333,125.66667h126.66667" fill="none" stroke="#000000" stroke-width="2" stroke-linecap="round"/><path d="M256.16667,234.33333h126.66667" fill="none" stroke="#000000" stroke-width="2" stroke-linecap="round"/><path d="M263.16666,119.99996c0,-0.55228 0.44772,-1 1,-1c0.55228,0 1,0.44772 1,1c0,0.55228 -0.44772,1 -1,1c-0.55228,0 -1,-0.44772 -1,-1z" fill="#000000" stroke="none" stroke-width="0.5" stroke-linecap="butt"/><path d="M276.83333,120.33329c0,-0.55228 0.44772,-1 1,-1c0.55228,0 1,0.44772 1,1c0,0.55228 -0.44772,1 -1,1c-0.55228,0 -1,-0.44772 -1,-1z" fill="#000000" stroke="none" stroke-width="0.5" stroke-linecap="butt"/><path d="M304.49999,120.99996c0,-0.55228 0.44772,-1 1,-1c0.55228,0 1,0.44772 1,1c0,0.55228 -0.44772,1 -1,1c-0.55228,0 -1,-0.44772 -1,-1z" fill="#000000" stroke="none" stroke-width="0.5" stroke-linecap="butt"/><path d="M319.16666,120.66662c0,-0.55228 0.44772,-1 1,-1c0.55228,0 1,0.44772 1,1c0,0.55228 -0.44772,1 -1,1c-0.55228,0 -1,-0.44772 -1,-1z" fill="#000000" stroke="none" stroke-width="0.5" stroke-linecap="butt"/><path d="M330.83333,120.66662c0,-0.55228 0.44772,-1 1,-1c0.55228,0 1,0.44772 1,1c0,0.55228 -0.44772,1 -1,1c-0.55228,0 -1,-0.44772 -1,-1z" fill="#000000" stroke="none" stroke-width="0.5" stroke-linecap="butt"/><path d="M346.49999,120.33329c0,-0.55228 0.44772,-1 1,-1c0.55228,0 1,0.44772 1,1c0,0.55228 -0.44772,1 -1,1c-0.55228,0 -1,-0.44772 -1,-1z" fill="#000000" stroke="none" stroke-width="0.5" stroke-linecap="butt"/><path d="M359.49999,119.66662c0,-0.55228 0.44772,-1 1,-1c0.55228,0 1,0.44772 1,1c0,0.55228 -0.44772,1 -1,1c-0.55228,0 -1,-0.44772 -1,-1z" fill="#000000" stroke="none" stroke-width="0.5" stroke-linecap="butt"/><path d="M374.49999,120.33329c0,-0.55228 0.44772,-1 1,-1c0.55228,0 1,0.44772 1,1c0,0.55228 -0.44772,1 -1,1c-0.55228,0 -1,-0.44772 -1,-1z" fill="#000000" stroke="none" stroke-width="0.5" stroke-linecap="butt"/><path d="M277.83333,237.33329c0,-0.55228 0.44772,-1 1,-1c0.55228,0 1,0.44772 1,1c0,0.55228 -0.44772,1 -1,1c-0.55228,0 -1,-0.44772 -1,-1z" fill="#000000" stroke="none" stroke-width="0.5" stroke-linecap="butt"/><path d="M289.16666,238.99996c0,-0.55228 0.44772,-1 1,-1c0.55228,0 1,0.44772 1,1c0,0.55228 -0.44772,1 -1,1c-0.55228,0 -1,-0.44772 -1,-1z" fill="#000000" stroke="none" stroke-width="0.5" stroke-linecap="butt"/><path d="M305.49999,237.99996c0,-0.55228 0.44772,-1 1,-1c0.55228,0 1,0.44772 1,1c0,0.55228 -0.44772,1 -1,1c-0.55228,0 -1,-0.44772 -1,-1z" fill="#000000" stroke="none" stroke-width="0.5" stroke-linecap="butt"/><path d="M319.16666,238.99996c0,-0.55228 0.44772,-1 1,-1c0.55228,0 1,0.44772 1,1c0,0.55228 -0.44772,1 -1,1c-0.55228,0 -1,-0.44772 -1,-1z" fill="#000000" stroke="none" stroke-width="0.5" stroke-linecap="butt"/><path d="M331.83333,238.99996c0,-0.55228 0.44772,-1 1,-1c0.55228,0 1,0.44772 1,1c0,0.55228 -0.44772,1 -1,1c-0.55228,0 -1,-0.44772 -1,-1z" fill="#000000" stroke="none" stroke-width="0.5" stroke-linecap="butt"/><path d="M346.83334,238.33329c0,-0.55228 0.44772,-1 1,-1c0.55228,0 1,0.44772 1,1c0,0.55228 -0.44772,1 -1,1c-0.55228,0 -1,-0.44772 -1,-1z" fill="#000000" stroke="none" stroke-width="0.5" stroke-linecap="butt"/><path d="M359.16667,238.33329c0,-0.55228 0.44772,-1 1,-1c0.55228,0 1,0.44772 1,1c0,0.55228 -0.44772,1 -1,1c-0.55228,0 -1,-0.44772 -1,-1z" fill="#000000" stroke="none" stroke-width="0.5" stroke-linecap="butt"/><path d="M374.83334,238.99996c0,-0.55228 0.44772,-1 1,-1c0.55228,0 1,0.44772 1,1c0,0.55228 -0.44772,1 -1,1c-0.55228,0 -1,-0.44772 -1,-1z" fill="#000000" stroke="none" stroke-width="0.5" stroke-linecap="butt"/><path d="M289.33333,139.49995c0,4.78647 -3.95482,8.66667 -8.83333,8.66667c-4.87851,0 -8.83333,-3.8802 -8.83333,-8.66667c0,-2.09361 0.75664,-3.75874 2.01626,-4.96968c1.62016,-1.55753 6.81707,-2.36365 6.81707,-2.36365c0,0 4.45764,0.58324 6.03699,1.71606c1.72096,1.23439 2.79634,3.12134 2.79634,5.61727z" fill="none" stroke="#ff0000" stroke-width="5" stroke-linecap="butt"/><path d="M294.99999,131.16661h-29" fill="none" stroke="#ff0000" stroke-width="5" stroke-linecap="round"/><path d="M369.33334,139.49995c0,4.78647 -3.95482,8.66667 -8.83333,8.66667c-4.87851,0 -8.83333,-3.8802 -8.83333,-8.66667c0,-2.09361 0.75664,-3.75874 2.01626,-4.96968c1.62016,-1.55753 6.81707,-2.36365 6.81707,-2.36365c0,0 4.45765,0.58325 6.03699,1.71606c1.72096,1.2344 2.79634,3.12134 2.79634,5.61727z" fill="none" stroke="#ff0000" stroke-width="5" stroke-linecap="butt"/><path d="M375.00001,131.16661h-29" fill="none" stroke="#ff0000" stroke-width="5" stroke-linecap="round"/><path d="M334.99999,166.16661c0,0 13.64993,9.803 13,10.33333c-0.83138,0.6784 -56.33333,0 -56.33333,0" fill="none" stroke="#ff0000" stroke-width="5" stroke-linecap="round"/><path d="M349.66667,177.16661l-15.33333,11.66667" fill="none" stroke="#ff0000" stroke-width="5" stroke-linecap="round"/><text transform="translate(67.15752,290.93242) scale(0.65321,0.65321)" font-size="40" xml:space="preserve" fill="#ffffff" fill-rule="nonzero" stroke="#000000" stroke-width="6" stroke-linecap="butt" stroke-linejoin="miter" stroke-miterlimit="10" stroke-dasharray="" stroke-dashoffset="0" font-family="&quot;Microsoft YaHei&quot;, &quot;微软雅黑&quot;, STXihei, &quot;华文细黑&quot;" font-weight="normal" text-anchor="start" style="mix-blend-mode: normal"><tspan x="0" dy="0">is that a WlodekM reference????!??!</tspan></text><text transform="translate(67.15752,290.93242) scale(0.6532,0.6532)" font-size="40" xml:space="preserve" fill="#ffffff" fill-rule="nonzero" stroke="#ffffff" stroke-width="1" stroke-linecap="butt" stroke-linejoin="miter" stroke-miterlimit="10" stroke-dasharray="" stroke-dashoffset="0" font-family="&quot;Microsoft YaHei&quot;, &quot;微软雅黑&quot;, STXihei, &quot;华文细黑&quot;" font-weight="normal" text-anchor="start" style="mix-blend-mode: normal"><tspan x="0" dy="0">is that a WlodekM reference????!??!</tspan></text><text transform="translate(3.45998,24.69829) scale(0.5,0.5)" font-size="40" xml:space="preserve" fill="#9966ff" fill-rule="nonzero" stroke="none" stroke-width="1" stroke-linecap="butt" stroke-linejoin="miter" stroke-miterlimit="10" stroke-dasharray="" stroke-dashoffset="0" font-family="&quot;OCR A&quot;, Sans Serif" font-weight="normal" text-anchor="start" style="mix-blend-mode: normal"><tspan x="0" dy="0">IDK, pre-rewrite</tspan></text></g></g></svg>