<svg version="1.1" xmlns="http://www.w3.org/2000/svg" xmlns:xlink="http://www.w3.org/1999/xlink" width="586.04214" height="299.32943" viewBox="0,0,586.04214,299.32943"><g transform="translate(-10.46811,-3.65032)"><g data-paper-data="{&quot;isPaintingLayer&quot;:true}" stroke-linecap="butt" stroke-linejoin="miter" stroke-miterlimit="10" stroke-dasharray="" stroke-dashoffset="0" style="mix-blend-mode: normal"><text transform="translate(10.71811,20.90032) scale(0.5,0.5)" font-size="40" xml:space="preserve" fill="#9966ff" fill-rule="nonzero" stroke="none" stroke-width="1" stroke-linecap="butt" stroke-linejoin="miter" stroke-miterlimit="10" stroke-dasharray="" stroke-dashoffset="0" font-family="&quot;OCR A&quot;, Sans Serif" font-weight="normal" text-anchor="start" style="mix-blend-mode: normal"><tspan x="0" dy="0">15.09.23</tspan><tspan x="0" dy="46.150000000000006px"> </tspan><tspan x="0" dy="46.150000000000006px">Tooltips</tspan></text><path d="M135.83937,145.55044c-2.55581,4.8009 -3.7233,10.10374 -5.19904,15.39717c-0.95964,3.44221 -2.77668,7.32124 -1.66218,11.05965c0.81278,2.72636 2.12958,5.28645 3.44955,7.80663c0.3556,0.67893 0.67682,1.49465 1.34983,1.86133c1.01106,0.55087 2.2413,0.54015 3.37928,0.71529c2.68527,0.41327 6.97446,1.02137 9.80314,0.54159c2.63006,-0.44609 5.62647,-3.09151 7.71039,-4.48079c5.08504,-2.89522 4.74498,-7.6753 5.85603,-12.866c1.12856,-5.27251 1.73833,-10.34281 2.09607,-15.72344c0.10408,-1.56544 -0.26154,-3.17112 0.06205,-4.70628c0.24715,-1.17256 1.31458,-2.05352 1.60772,-3.21543c0.24365,-0.96578 -0.31098,-2.02858 -0.04271,-2.9878c0.22502,-0.8046 1.45477,-1.20891 1.45007,-2.04437c-0.00295,-0.52512 -0.96169,0.42525 -1.45821,0.59622c-1.41778,0.48818 -2.84297,0.95688 -4.28147,1.38013c-1.61711,0.4758 -3.25309,0.88504 -4.88266,1.31621c-3.94342,1.04341 -8.24106,1.97477 -12.00745,3.53517c-1.06776,0.44237 -1.89696,1.40667 -3.0083,1.72402c-1.07314,0.30644 -2.23124,0.06048 -3.34686,0.09071c-0.29174,0 -0.58349,0 -0.87523,0zM138.71639,140.3533c2.16298,-0.48546 4.29668,-1.72099 6.44839,-2.39695c4.46505,-1.40271 8.90599,-2.6005 13.40914,-3.8761c2.85536,-0.80883 8.55128,-3.58112 11.32079,0.1073c1.10125,1.46664 -0.54236,3.63049 -0.69355,5.45831c-0.09461,1.14387 0.23343,2.329 -0.04271,3.44306c-0.2883,1.16312 -1.35225,2.04466 -1.60772,3.21543c-0.27492,1.25992 0.13685,2.58081 0.06205,3.86821c-0.32533,5.59919 -1.01483,10.94749 -2.19117,16.4309c-1.0867,5.06556 -1.08697,10.16729 -5.00965,14.16198c-0.84412,0.85962 -2.04525,1.27395 -3.06787,1.91092c-2.80816,1.87211 -6.01178,4.51389 -9.4386,5.16552c-3.22041,0.61237 -8.57509,0.06224 -11.63309,-0.53022c-1.76321,-0.3416 -3.65904,-0.49786 -5.19521,-1.42834c-3.31,-2.00492 -6.04918,-9.42736 -6.99054,-12.84008c-1.25975,-4.56695 0.56149,-9.18161 1.73571,-13.43251c1.40465,-5.08507 2.63853,-10.07679 4.81276,-14.74373c-0.39977,-0.3696 -0.70776,-0.9391 -0.70776,-1.81658c0,-2.5 2.5,-2.5 2.5,-2.5h0.5837c0.36741,-0.56648 0.75585,-1.12649 1.16764,-1.67953c0,0 1.5,-2 3.5,-0.5c0.84587,0.6344 1.06568,1.35824 1.03769,1.98239z" fill="#9966ff" fill-rule="nonzero" stroke="none" stroke-width="0.5"/><text transform="translate(137.64693,170.14583) scale(0.635,0.635)" font-size="40" xml:space="preserve" fill="#9966ff" fill-rule="nonzero" stroke="none" stroke-width="1" stroke-linecap="butt" stroke-linejoin="miter" stroke-miterlimit="10" stroke-dasharray="" stroke-dashoffset="0" font-family="&quot;OCR A&quot;, Sans Serif" font-weight="normal" text-anchor="start" style="mix-blend-mode: normal"><tspan x="0" dy="0">E</tspan></text><text transform="translate(175.92368,152.96407) scale(0.19109,0.19109)" font-size="40" xml:space="preserve" fill="#9966ff" fill-rule="nonzero" stroke="none" stroke-width="1" stroke-linecap="butt" stroke-linejoin="miter" stroke-miterlimit="10" stroke-dasharray="" stroke-dashoffset="0" font-family="&quot;OCR A&quot;, Sans Serif" font-weight="normal" text-anchor="start" style="mix-blend-mode: normal"><tspan x="0" dy="0">rotate</tspan><tspan x="0" dy="46.150000000000006px">side-to-side</tspan></text><g fill="#261700" fill-rule="nonzero" stroke="#000000" stroke-width="2"><path d="M37.95582,285.33716v-118h74.23841v118z"/><path d="M89.19423,239.83716c0,-4.14213 3.35787,-7.5 7.5,-7.5c4.14214,0 7.5,3.35787 7.5,7.5c0,4.14213 -3.35786,7.5 -7.5,7.5c-4.14213,0 -7.5,-3.35787 -7.5,-7.5z"/><path d="M45.19423,221.33716v-46h58v46z"/></g><g data-paper-data="{&quot;index&quot;:null}"><path d="M78.22912,281.69094l1.84942,-93.46881l110.11246,2.17874l-1.84942,93.46881z" fill-opacity="0.01176" fill="#ff0000" fill-rule="nonzero" stroke="#000000" stroke-width="0"/><path d="M90.16367,206.17116c0.20675,-0.05291 0.3982,-0.09187 0.42399,-0.08695c1.05402,0.19985 1.93038,1.62881 2.40758,3.95412c0.68365,3.33093 0.59611,4.90378 -0.44641,8.24186c-0.21727,0.6957 -1.13951,1.80597 -1.65778,2.00169c-1.29621,0.48902 -3.84435,0.50422 -5.0337,0.03211c-1.08416,-0.43038 -1.04123,-0.27788 -0.98261,-3.01777c0.05588,-2.6152 0.0451,-2.61764 0.90211,-4.70755c0.18951,-0.46191 0.4458,-1.17493 0.56267,-1.57053c0.23668,-0.80022 0.76457,-1.84589 1.23912,-2.47647c0.17166,-0.22819 0.40347,-0.60708 0.51137,-0.84121c0.2253,-0.48928 1.40885,-1.35933 2.07365,-1.5293" data-paper-data="{&quot;noHover&quot;:false,&quot;origItem&quot;:[&quot;Path&quot;,{&quot;applyMatrix&quot;:true,&quot;segments&quot;:[[[401.84325,127.53929],[0,0],[-0.37302,-0.10337]],[[401.08024,127.36601],[0.04694,-0.00799],[-1.91852,0.32458]],[[396.60104,134.43436],[0.94877,-4.19956],[-1.35924,6.01571]],[[397.10689,149.32159],[-1.77071,-6.09062],[0.36902,1.26936]],[[400.02511,153.00332],[-0.93279,-0.37351],[2.33298,0.93329]],[[409.11834,153.24501],[-2.17369,0.81344],[1.98143,-0.74154]],[[410.99291,147.81903],[0.00799,4.97057],[-0.00749,-4.74436]],[[409.51333,139.29457],[1.47908,3.82055],[-0.32708,-0.84441]],[[408.55907,136.44726],[0.19774,0.72156],[-0.40048,-1.45961]],[[406.42334,131.92811],[0.83791,1.1605],[-0.30311,-0.41996]],[[405.53249,130.38611],[0.18726,0.42844],[-0.39099,-0.89534]],[[401.84327,127.5393],[1.19944,0.33207],[0,0]]],&quot;fillColor&quot;:[0,0,0,1]}]}" fill="#ffffff" fill-rule="nonzero" stroke="none" stroke-width="0.5"/><path d="M181.44573,202.49675c0.57036,-0.28143 0.8682,-0.32663 1.40487,-0.21357c0.23584,0.04955 1.28574,1.14395 1.76354,1.83825c0.16169,0.23452 0.42955,0.59304 0.59543,0.79651c0.16588,0.2032 0.36804,0.58355 0.44907,0.84483c0.08129,0.26128 0.28731,0.79626 0.45772,1.18846c0.43196,0.993 0.54327,1.35115 0.64123,2.06465c0.04667,0.34128 0.1826,0.92474 0.30165,1.29609l0.21666,0.67497l-0.2586,12.932c-0.22126,11.01516 -0.2831,13.07779 -0.41994,13.91166c-0.10241,0.62444 -0.2137,2.26446 -0.30727,4.53002c-0.15207,3.67706 -0.1725,3.82298 -0.59962,4.31102c-0.28201,0.32184 -0.53909,0.85434 -0.54448,1.12713c-0.00336,0.16983 -0.54736,1.94577 -0.98559,3.21813c-0.48294,1.40254 -0.59605,2.35887 -0.37689,3.19594l0.17507,0.6689l-0.28621,0.98814c-0.15725,0.54322 -0.4047,1.18336 -0.54958,1.42171c-0.51664,0.85087 -0.72275,1.31661 -0.96684,2.18471c-0.13598,0.48417 -0.42328,1.29789 -0.63826,1.80803c-0.21497,0.50986 -0.46105,1.20399 -0.54649,1.54183c-0.08545,0.33812 -0.23761,0.77015 -0.33774,0.95983c-0.11987,0.22701 -0.21131,0.66442 -0.26725,1.27876c-0.06758,0.74327 -0.15564,1.10346 -0.43122,1.76826c-0.19028,0.45913 -0.46979,1.15642 -0.62048,1.54942c-0.15069,0.39272 -0.45188,0.97608 -0.6686,1.29618c-0.88924,1.31162 -0.96802,1.36581 -1.65581,1.13906c-0.26455,-0.08729 -0.75369,-0.21335 -1.08667,-0.28024c-0.33298,-0.06662 -1.0552,-0.34101 -1.60503,-0.60964l-0.99963,-0.48867l-1.32651,-0.10345l-1.32653,-0.10317l-2.55379,-0.9042c-1.40446,-0.4973 -2.95899,-0.99028 -3.45422,-1.09563c-2.44875,-0.52154 -2.82873,-1.25242 -2.02663,-3.96328c0.08705,-0.29375 0.21035,-1.15998 0.27451,-1.92563c0.11137,-1.32839 0.13347,-1.42737 0.49602,-2.1871c0.20913,-0.43756 0.43399,-0.96255 0.50054,-1.16694c0.06628,-0.2044 0.23914,-0.51713 0.38421,-0.69518c0.28759,-0.35285 0.67755,-1.03945 0.68069,-1.198c0.00194,-0.09799 0.51905,-1.40297 0.88839,-2.2416c0.10438,-0.23696 0.30785,-0.86302 0.45268,-1.39135c0.14456,-0.52833 0.43981,-1.35697 0.65594,-1.84231c0.2164,-0.48533 0.49465,-1.21633 0.61867,-1.62528c0.12402,-0.40895 0.32058,-1.02959 0.43683,-1.37976c0.47023,-1.41381 0.26973,-1.93318 -0.83822,-2.01045c-1.40384,-0.09745 -1.81769,0.57863 -2.05487,3.35271c-0.15801,1.84874 -0.26574,2.3974 -0.7312,3.73806c-0.21464,0.61864 -0.44115,1.37231 -0.50274,1.67373c-0.06159,0.30142 -0.26674,0.92403 -0.45537,1.38319c-0.27976,0.68097 -0.3608,1.02441 -0.43768,1.86195c-0.07373,0.80345 -0.16107,1.18855 -0.39865,1.7693c-0.16724,0.4081 -0.37622,1.02889 -0.46438,1.37879c-0.21489,0.85408 -0.56665,1.71519 -1.02462,2.50994c-0.22356,0.38771 -0.42701,0.89698 -0.49634,1.24175c-0.11519,0.57517 -0.64278,2.00132 -0.96341,2.60437c-0.31236,0.58835 -0.42086,0.60589 -3.65711,0.58233l-2.91691,-0.02117l-0.24801,-0.25768l-0.25944,-0.28286l0.08098,-1.04058c0.04465,-0.57244 0.15254,-1.43916 0.24038,-1.92593c0.08784,-0.48677 0.22951,-1.45133 0.31564,-2.14411c0.14141,-1.13449 0.67715,-3.79038 1.0342,-5.12107c0.07551,-0.28159 0.17303,-0.93138 0.21706,-1.4449c0.04403,-0.51325 0.24535,-1.81282 0.44838,-2.88881c0.50045,-2.64935 0.50552,-4.21586 0.02345,-5.70992c-0.38867,-1.20473 -0.45084,-1.32082 -0.80284,-1.51173c-0.15911,-0.08631 -0.48283,-0.34487 -0.71923,-0.57507c-0.2364,-0.22993 -0.56912,-0.46833 -0.7686,-0.54635c-1.35862,-0.53163 -1.86857,-0.83797 -2.25456,-1.35669c-0.43965,-0.59083 -1.02284,-1.01881 -1.77521,-1.29447c-0.28542,-0.1045 -0.77357,-0.35702 -1.05486,-0.54488c-0.28157,-0.18814 -0.71891,-0.45172 -0.97178,-0.58643c-0.25316,-0.13443 -0.57461,-0.40049 -0.7143,-0.59161c-0.16544,-0.22578 -0.45975,-0.44391 -0.84196,-0.62469c-0.41714,-0.19716 -0.8186,-0.50674 -1.38354,-1.06948c-0.43775,-0.43604 -1.1656,-1.04826 -1.61676,-1.3634l-0.82057,-0.57137l-0.92902,-0.04619c-0.76529,-0.0402 -1.02064,-0.01629 -1.27533,0.10755c-0.57027,0.27731 -1.8395,1.16395 -2.48067,1.74001c-0.34512,0.31012 -0.95608,0.73374 -1.35593,0.94283c-0.72819,0.38102 -0.99003,0.66273 -0.99828,1.07948c-0.00212,0.1068 -0.14051,0.57908 -0.30679,1.04998c-0.19634,0.5565 -0.33961,1.19021 -0.40725,1.81121c-0.17977,1.65362 0.0254,1.58837 -3.83198,1.51756c-2.59828,-0.04783 -3.18979,-0.03521 -3.74356,0.09014c-0.36181,0.08178 -1.05556,0.1788 -1.5415,0.21628c-1.26949,0.09825 -1.80355,0.54431 -1.98204,1.64639c-0.05364,0.33131 -0.16093,0.74437 -0.23846,0.91852c-0.10608,0.23968 -0.1334,0.56849 -0.11057,1.34935c0.02968,1.00542 0.02199,1.04961 -0.27661,1.69441c-0.1683,0.36429 -0.31007,0.82332 -0.31452,1.0204c-0.00445,0.19681 -0.12085,0.587 -0.25857,0.86736c-0.35606,0.72378 -0.98054,2.35052 -1.1747,3.06181c-0.09084,0.3325 -0.33414,0.87444 -0.54032,1.20466c-0.47803,0.76462 -0.71735,1.28205 -1.01348,2.19208c-0.13019,0.40056 -0.4145,1.10746 -0.6313,1.57075c-0.21707,0.46328 -0.42624,0.99437 -0.46489,1.18003c-0.03865,0.18593 -0.20666,0.53201 -0.37299,0.76912c-0.6506,0.92725 -0.72009,1.07832 -0.79904,1.74206c-0.10108,0.84972 -0.73725,2.38454 -1.35247,3.26319c-0.67105,0.95851 -0.98116,1.06334 -1.96279,0.57304c-0.33103,-0.16544 -0.86085,-0.40474 -1.17667,-0.5316c-0.3161,-0.12687 -0.83639,-0.43044 -1.15595,-0.67413c-1.0246,-0.78195 -2.22047,-1.51107 -3.08797,-1.88265c-2.06432,-0.88376 -2.26517,-1.25739 -1.30909,-2.43964c0.31502,-0.39002 0.5228,-0.76468 0.64098,-1.15639c0.09608,-0.31864 0.36033,-0.93373 0.58753,-1.36625c0.2272,-0.43252 0.48983,-1.03527 0.58396,-1.33879c0.18708,-0.60377 0.46643,-1.15633 1.49385,-2.9518c0.68855,-1.20297 0.904,-1.81933 1.20009,-3.42302c0.06322,-0.34186 0.24973,-0.92754 0.41464,-1.30126c1.24483,-2.81914 1.31413,-3.35837 0.62358,-4.79598c-0.93889,-1.95499 -2.08337,-2.51951 -3.85691,-1.89977c-0.46917,0.16392 -1.09976,0.30149 -1.55071,0.33828c-1.00921,0.08219 -1.12983,0.16098 -2.29988,1.35772c-1.75776,1.79837 -2.06326,2.67052 -2.37982,6.82595c-0.25027,3.28243 -0.43795,4.54955 -1.07788,7.31731c-0.15989,0.69105 -0.32456,1.48688 -0.36622,1.76886c-0.10726,0.73091 -0.44799,2.23749 -0.5707,2.5242c-0.17641,0.41232 -0.48196,0.47847 -2.87712,0.5192c-1.2349,0.021 -3.10461,0.08404 -4.15489,0.14064c-3.1765,0.17149 -2.90311,0.31997 -3.20562,-1.74606c-0.11112,-0.75782 -0.21853,-1.40626 -0.23851,-1.44025c-0.06741,-0.11423 -0.20325,-1.82687 -0.27224,-3.43365c-0.03749,-0.87477 -0.12815,-2.72908 -0.20061,-4.11894c-0.20819,-3.99343 -0.08275,-5.90909 0.49936,-7.59193c0.26549,-0.76717 0.26548,-0.77056 0.12405,-1.4169c-0.1258,-0.57306 -0.12584,-0.6992 -0.0004,-1.09628c0.07813,-0.24657 0.19362,-0.74216 0.25717,-1.10082c0.19224,-1.08721 -1.25946,-1.00166 12.47823,-0.76289c13.70576,0.23787 12.50971,0.29628 13.17016,-0.58616c0.17508,-0.23391 0.41629,-0.48685 0.53591,-0.56186c0.30003,-0.18821 0.87378,-1.36316 0.99649,-2.03952c0.10602,-0.58444 0.35034,-1.23595 0.74195,-1.97529c0.12759,-0.2409 0.34764,-0.81514 0.48919,-1.27496c0.14155,-0.4601 0.45847,-1.40204 0.70398,-2.09168c0.24578,-0.68935 0.58749,-1.84158 0.75945,-2.558c0.37546,-1.56521 0.4496,-1.756 0.74113,-1.90471c0.55969,-0.28522 2.19288,0.27728 2.48024,0.85408c0.66822,1.34134 1.82032,2.6505 2.52043,2.8673c0.20445,0.06325 0.65773,0.22953 1.04032,0.37699c0.84938,0.32715 2.88629,0.36884 3.59899,0.07453c0.20739,-0.08566 0.74363,-0.22433 1.1908,-0.30636c1.97665,-0.36321 3.38954,-2.64608 2.84097,-4.5928c-0.28408,-1.00742 -0.08262,-1.38916 0.96649,-1.84535c0.39637,-0.17225 0.86727,-0.4746 1.15958,-0.74584c0.59077,-0.54759 0.70302,-0.5721 2.427,-0.53799c1.6403,0.03245 3.70024,-0.11265 6.31083,-0.44982c2.37261,-0.30636 2.58858,-0.25998 1.95624,0.41264c-0.18594,0.19788 -0.39273,0.52212 -0.45917,0.72044c-0.0667,0.19805 -0.23219,0.63067 -0.36842,0.96034c-0.30832,0.74704 -0.29141,1.45354 0.05801,2.62418c0.33652,1.12632 0.38877,1.2157 0.95625,1.6364c1.27392,0.94357 1.23699,0.93807 5.58572,1.3105c1.73273,0.14829 3.35647,0.41732 4.42723,0.7315c0.35783,0.10511 0.96572,0.22538 1.35041,0.26714c0.38497,0.04177 1.06606,0.16401 1.51335,0.27089c1.06341,0.25456 2.19846,0.27739 3.11704,0.05792c0.39371,-0.09409 0.95394,-0.21125 1.24461,-0.2603c0.30061,-0.05078 0.76845,-0.22999 1.08357,-0.41569c0.30508,-0.17956 0.76737,-0.4395 1.02732,-0.57838c0.50485,-0.26924 1.67904,-1.44643 1.87796,-1.88309c0.06592,-0.14492 0.24196,-0.43832 0.39103,-0.65208c0.88963,-1.27554 1.3866,-2.91732 1.42577,-4.71637l0.02848,-1.30561l0.28336,-0.09469c0.20012,-0.06598 0.59626,0.00247 1.7708,0.30412c1.85346,0.47617 2.04468,0.56483 2.36093,1.08713c0.40639,0.67141 0.90049,0.76703 1.29606,0.23155c0.07441,-0.10069 0.31764,-0.38019 0.5405,-0.6214c0.66015,-0.71392 0.66862,-1.32492 0.03178,-2.29003l-0.33199,-0.50315l-0.07603,-2.46067c-0.06542,-2.12111 -0.05164,-2.69281 0.09568,-4.14027c0.09428,-0.92366 0.25203,-2.53976 0.34995,-3.59222c0.45129,-4.84119 1.08251,-6.91902 2.27126,-7.48783c0.16986,-0.08118 0.502,-0.32012 0.71147,-0.51038c0.40885,-0.37137 1.33581,-0.94282 2.30689,-1.4223" data-paper-data="{&quot;noHover&quot;:false,&quot;origItem&quot;:[&quot;Path&quot;,{&quot;applyMatrix&quot;:true,&quot;segments&quot;:[[[150.944,54.88802],[0,0],[-2.051,-1.063]],[[145.858,54.01102],[1.957,-0.372],[-0.86,0.163]],[[139.323,60.55802],[1.785,-2.487],[-0.604,0.84]],[[137.104,63.40702],[0.617,-0.727],[-0.617,0.726]],[[135.413,66.44202],[0.313,-0.943],[-0.314,0.943]],[[133.666,70.72402],[0.647,-1.412],[-1.64,3.575]],[[131.19,78.17402],[0.407,-2.584],[-0.194,1.236]],[[130.002,82.85802],[0.459,-1.34],[0,0]],[129.167,85.29302],[[129.181,132.26302],[0,0],[0.012,40.017]],[[129.708,182.79902],[-0.437,-3.038],[0.327,2.275]],[[130.498,199.26702],[-0.177,-8.234],[0.288,13.364]],[[132.365,214.96102],[-1.516,-1.803],[1.001,1.189]],[[134.261,219.09202],[0,-0.991],[0,0.617]],[[137.608,230.84602],[-1.5,-4.652],[1.653,5.128]],[[138.746,242.47602],[0.856,-3.024],[0,0]],[138.062,244.89202],[[139.03,248.50002],[0,0],[0.532,1.984]],[[140.923,253.70102],[-0.509,-0.876],[1.815,3.127]],[[144.276,261.70202],[-0.824,-3.17],[0.459,1.768]],[[146.463,268.31202],[-0.744,-1.868],[0.744,1.867]],[[148.336,273.94902],[-0.286,-1.233],[0.286,1.234]],[[149.493,277.45802],[-0.35,-0.696],[0.419,0.833]],[[150.371,282.12002],[-0.159,-2.235],[0.192,2.704]],[[151.809,288.57102],[-0.953,-2.434],[0.658,1.681]],[[153.95,294.24102],[-0.519,-1.438],[0.519,1.437]],[[156.284,298.99502],[-0.764,-1.178],[3.135,4.827]],[[162.214,303.24902],[-2.514,0.774],[0.967,-0.298]],[[166.18,302.30902],[-1.214,0.219],[1.214,-0.218]],[[172.052,300.21002],[-2.016,0.936],[0,0]],[175.717,298.50702],[180.541,298.22602],[185.365,297.94602],[[194.703,294.84502],[0,0],[5.136,-1.705]],[[207.324,291.11302],[-1.806,0.347],[8.93,-1.718]],[[214.901,276.94002],[2.718,9.902],[-0.295,-1.073]],[[214.041,269.92602],[0.178,2.785],[-0.309,-4.832]],[[212.395,261.94602],[1.262,2.785],[-0.728,-1.604]],[[210.66,257.67102],[0.227,0.747],[-0.226,-0.747]],[[209.314,255.11802],[0.514,0.657],[-1.019,-1.302]],[[206.927,250.71702],[0,0.576],[0,-0.356]],[[203.86,242.51002],[1.281,3.072],[-0.362,-0.868]],[[202.315,237.42302],[0.488,1.929],[-0.487,-1.929]],[[200.064,230.68302],[0.75,1.778],[-0.751,-1.778]],[[197.933,224.73402],[0.421,1.494],[-0.421,-1.494]],[[196.445,219.69002],[0.397,1.28],[-1.606,-5.168]],[[199.728,212.41702],[-4.029,0.201],[5.105,-0.253]],[[206.947,224.73402],[-0.662,-10.091],[0.441,6.725]],[[209.331,238.35602],[-1.594,-4.902],[0.735,2.262]],[[211.035,244.46802],[-0.202,-1.099],[0.202,1.099]],[[212.588,249.52202],[-0.652,-1.681],[0.967,2.493]],[[214.042,256.31302],[-0.219,-3.047],[0.21,2.923]],[[215.361,262.76502],[-0.821,-2.126],[0.578,1.494]],[[216.947,267.80402],[-0.295,-1.277],[0.719,3.117]],[[220.485,276.99002],[-1.606,-2.919],[0.784,1.424]],[[222.197,281.53402],[-0.227,-1.257],[0.377,2.097]],[[225.506,291.05902],[-1.121,-2.213],[1.092,2.159]],[[238.741,293.43402],[-11.754,-0.147],[0,0]],[249.332,293.56502],[250.251,292.64702],[251.169,291.72802],[[250.949,287.94302],[0,0],[-0.121,-2.082]],[[250.213,280.93102],[0.284,1.774],[-0.284,-1.774]],[[249.219,273.12102],[0.263,2.522],[-0.432,-4.13]],[[245.826,254.44602],[1.201,4.858],[-0.254,-1.028]],[[245.14,249.18202],[0.123,1.868],[-0.123,-1.867]],[[243.716,238.65602],[0.66,3.922],[-1.627,-9.657]],[[244.035,217.91102],[-1.858,5.391],[1.498,-4.347]],[[247.058,212.47702],[-1.292,0.668],[0.584,-0.302]],[[249.711,210.44002],[-0.875,0.819],[0.875,-0.818]],[[252.629,208.46302],[-0.73,0.269],[4.972,-1.833]],[[260.826,203.74602],[-1.439,1.856],[1.639,-2.114]],[[267.454,199.12602],[-2.752,0.947],[1.044,-0.359]],[[271.235,197.26902],[-1.035,0.662],[1.036,-0.663]],[[274.806,195.20902],[-0.928,0.471],[0.929,-0.47]],[[277.442,193.11102],[-0.521,0.684],[0.617,-0.808]],[[280.544,190.90202],[-1.401,0.629],[1.529,-0.686]],[[285.644,187.11502],[-2.092,2.003],[1.621,-1.552]],[[291.611,182.27302],[-1.661,1.112],[0,0]],[294.631,180.25202],[[298.107,180.13702],[0,0],[2.782,-0.091]],[[302.727,180.60702],[-0.916,-0.468],[2.051,1.048]],[[311.541,187.08002],[-2.287,-2.138],[1.231,1.151]],[[316.39,190.60602],[-1.437,-0.788],[2.617,1.436]],[[320,194.67602],[0,-1.514],[0,0.388]],[[321.036,198.51302],[-0.57,-1.722],[0.673,2.035]],[[322.381,205.12202],[-0.201,-2.26],[0.534,6.018]],[[336.129,210.82802],[-14.013,-0.02],[9.439,0.013]],[[349.711,211.43102],[-2.002,-0.495],[1.308,0.323]],[[355.292,212.32902],[-1.762,-0.171],[4.603,0.448]],[[362.453,218.50802],[-0.569,-4.015],[0.171,1.207]],[[363.252,221.86202],[-0.269,-0.638],[0.368,0.878]],[[363.555,226.77202],[0.139,-2.834],[-0.18,3.649]],[[364.436,232.94702],[-1.038,-2.363],[0.585,1.335]],[[365.504,236.67602],[-0.002,-0.716],[0.002,0.715]],[[366.38,239.84502],[-0.48,-1.028],[1.241,2.654]],[[370.424,251.05002],[-0.654,-2.597],[0.306,1.214]],[[372.299,255.46402],[-0.725,-1.214],[1.681,2.811]],[[375.821,263.49802],[-1.01,-3.326],[0.444,1.464]],[[378,269.24802],[-0.754,-1.698],[0.755,1.698]],[[379.603,273.56702],[-0.127,-0.677],[0.127,0.678]],[[380.902,276.38702],[-0.587,-0.873],[2.296,3.414]],[[383.678,282.77102],[-0.239,-2.416],[0.306,3.093]],[[388.354,294.71902],[-2.171,-3.235],[2.368,3.529]],[[395.382,296.86002],[-3.6,1.71],[1.214,-0.577]],[[399.692,295.01502],[-1.156,0.438],[1.157,-0.438]],[[403.937,292.65102],[-1.178,0.862],[3.777,-2.766]],[[415.283,286.03902],[-3.177,1.287],[7.56,-3.061]],[[420.21,277.27602],[3.387,4.362],[-1.116,-1.439]],[[417.965,273.03102],[0.401,1.431],[-0.326,-1.164]],[[415.929,268.02802],[0.794,1.587],[-0.794,-1.587]],[[413.904,263.12502],[0.32,1.109],[-0.636,-2.206]],[[408.69,252.30002],[3.602,6.594],[-2.414,-4.418]],[[404.576,239.78602],[0.96,5.845],[-0.205,-1.246]],[[403.163,235.03202],[0.572,1.369],[-4.318,-10.327]],[[401.24,217.57702],[-2.611,5.171],[3.55,-7.032]],[[415.381,210.96002],[-6.396,-2.378],[1.692,0.629]],[[420.988,212.30002],[-1.635,-0.166],[3.659,0.371]],[[429.338,217.42502],[-4.163,-4.43],[6.254,6.657]],[[437.487,242.39102],[-0.851,-15.113],[0.673,11.938]],[[440.872,269.04702],[-2.125,-10.097],[0.531,2.521]],[[442.074,275.49802],[-0.131,-1.027],[0.337,2.662]],[[443.964,284.70702],[-0.425,-1.05],[0.611,1.51]],[[454.295,286.73902],[-8.695,-0.32],[4.483,0.165]],[[469.372,287.55002],[-3.81,-0.281],[11.523,0.851]],[[481.137,281.44202],[-1.247,7.481],[0.458,-2.744]],[[482.106,276.23002],[-0.075,0.122],[0.253,-0.41]],[[483.34,263.78302],[-0.366,5.83],[0.199,-3.174]],[[484.363,248.84302],[-0.363,5.042],[1.043,-14.487]],[[483.093,221.24402],[1.993,6.153],[-0.909,-2.805]],[[482.744,216.09102],[-0.56,2.337],[0.498,-2.072]],[[482.824,212.11102],[0.427,1.451],[-0.266,-0.901]],[[481.969,208.09602],[0.205,1.307],[-0.62,-3.962]],[[436.808,204.44702],[49.905,0.12],[-49.789,-0.121]],[[388.926,201.34902],[2.335,3.252],[-0.619,-0.862]],[[387.02,199.27102],[0.429,0.281],[-1.076,-0.705]],[[383.547,191.79702],[0.397,2.465],[-0.343,-2.13]],[[380.994,184.57502],[1.369,2.713],[-0.446,-0.884]],[[379.309,179.91302],[0.481,1.68],[-0.481,-1.681]],[[376.903,172.27202],[0.842,2.522],[-0.843,-2.521]],[[374.33,162.93502],[0.573,2.614],[-1.251,-5.711]],[[371.777,155.97002],[1.048,0.561],[-2.012,-1.076]],[[362.803,158.86002],[1.085,-2.074],[-2.523,4.823]],[[353.446,169.09802],[2.558,-0.737],[-0.747,0.215]],[[349.543,170.41202],[1.4,-0.508],[-3.108,1.127]],[[336.469,170.42802],[2.567,1.12],[-0.747,-0.326]],[[332.168,169.23402],[1.618,0.33],[-7.152,-1.461]],[[322.203,152.37702],[-2.132,7.03],[1.104,-3.638]],[[318.834,145.61002],[3.777,1.732],[-1.427,-0.654]],[[314.683,142.82002],[1.042,1.006],[-2.106,-2.031]],[[305.92,140.69302],[6.263,0],[-5.959,0]],[[283.059,138.59902],[9.456,1.412],[-8.594,-1.283]],[[275.931,139.95302],[-2.248,-2.488],[0.661,0.732]],[[277.547,142.60202],[-0.227,-0.725],[0.228,0.724]],[[278.817,146.11502],[-0.471,-1.207],[1.066,2.735]],[[278.424,155.63402],[1.353,-4.226],[-1.303,4.066]],[[274.839,161.50002],[2.091,-1.487],[-4.694,3.335]],[[254.465,165.84602],[15.819,-1.04],[-6.303,0.414]],[[238.336,168.18002],[3.911,-1.064],[-1.307,0.356]],[[233.413,169.05202],[1.4,-0.124],[-1.401,0.124]],[[227.898,169.92602],[1.632,-0.356],[-3.88,0.848]],[[216.475,169.90202],[3.32,0.863],[-1.423,-0.37]],[[211.974,168.86702],[1.052,0.199],[-1.088,-0.206]],[[208.069,167.27902],[1.131,0.697],[-1.095,-0.674]],[[204.38,165.10402],[0.934,0.523],[-1.814,-1.014]],[[197.696,158.12802],[0.691,1.6],[-0.229,-0.531]],[[196.323,155.73102],[0.526,0.787],[-3.139,-4.696]],[[191.486,138.49502],[0.013,6.536],[0,0]],[191.477,133.75002],[[190.548,133.42202],[0,0],[-0.722,-0.254]],[[184.096,134.39802],[4.287,-1.011],[-6.765,1.596]],[[175.445,138.17402],[1.186,-1.874],[-1.524,2.409]],[[170.626,138.89302],[1.398,1.973],[-0.263,-0.371]],[[168.708,136.59702],[0.792,0.892],[-2.346,-2.64]],[[168.758,128.27602],[-2.382,3.459],[0,0]],[170,126.47202],[[170.454,117.53902],[0,0],[0.39,-7.698]],[[170.406,102.49302],[0.431,5.267],[-0.276,-3.361]],[[169.395,89.42002],[0.28,3.829],[-1.291,-17.613]],[[161.688,62.06102],[4.276,2.151],[-0.611,-0.307]],[[159.219,60.21902],[0.747,0.706],[-1.458,-1.378]],[[150.944,54.88802],[3.492,1.811],[0,0]]],&quot;fillColor&quot;:[0,0,0,1]}]}" fill="#ffffff" fill-rule="nonzero" stroke="none" stroke-width="0.5"/><path d="M97.36993,194.11608c0.34513,-0.32472 2.49679,-0.04536 4.96559,0.64538c0.91002,0.25482 1.93733,0.51371 2.28088,0.5753c0.9442,0.16931 1.08013,0.29436 0.99429,0.91693c-0.082,0.59538 0.16851,0.97522 0.64428,0.97857c0.4821,0.00349 1.69053,-0.22236 1.91766,-0.35886c0.12374,-0.07438 0.45188,-0.20325 0.7289,-0.28672c0.27701,-0.08318 0.77195,-0.32711 1.09921,-0.54176c0.32726,-0.21465 0.73837,-0.46 0.913,-0.54576c0.17463,-0.08549 0.48601,-0.29319 0.69147,-0.46151c0.50692,-0.4157 0.99617,-0.37303 0.9871,0.08556c-0.00567,0.28655 -1.2445,1.79809 -1.69843,2.06834c-0.23631,0.14072 -0.50287,0.38749 -0.59225,0.54846c-0.08937,0.1607 -0.38522,0.52226 -0.65761,0.80326c-1.02379,1.05534 -0.9304,2.20891 0.17817,2.38009c0.89965,0.13869 1.31692,-0.24105 1.88536,-1.72011c0.29931,-0.77834 0.73428,-1.16142 1.1642,-1.02569c2.22736,0.70194 2.61447,1.23688 1.24048,1.6211c-0.23288,0.06506 -0.68675,0.27879 -1.00924,0.4748c-0.32248,0.19601 -0.78207,0.46221 -1.02172,0.59158c-0.34654,0.18701 -0.46556,0.3106 -0.64004,0.69487c-0.67404,1.48523 0.51467,1.98261 2.31637,0.96937c0.44194,-0.24873 0.95212,-0.49477 1.13298,-0.54737c0.55059,-0.15929 1.70947,-0.58307 2.30834,-0.84411c0.68776,-0.30031 2.26422,-0.30868 3.19446,-0.0182c1.79507,0.56065 2.36972,2.99353 0.69887,2.96047c-0.89212,-0.01765 -2.71431,0.92365 -3.03633,1.56908c-0.22108,0.44311 -0.20164,0.60848 0.13201,1.12837c0.16214,0.25269 0.36995,0.58061 0.46149,0.72782c0.19987,0.32284 0.20637,1.00391 0.01196,1.36521c-0.07577,0.14114 -0.37669,0.65175 -0.66905,1.13475c-0.71395,1.17851 -0.76506,1.3453 -0.8466,2.69658c-0.10356,1.71297 -0.27176,2.07973 -1.11957,2.4248c-1.59569,0.64943 -2.37586,2.94062 -1.59492,4.68128c0.3563,0.79489 2.19362,2.75421 3.06843,3.27104c0.66822,0.39489 0.67202,0.41963 0.50357,2.60055c-0.12104,1.56667 -0.19778,2.02057 -0.64715,3.86962c-0.27998,1.15158 -0.54501,2.39773 -0.58757,2.76754c-0.10205,0.88495 -0.14828,0.91637 -1.27561,0.85882c-1.60599,-0.08216 -2.84057,0.2582 -4.9356,1.35816c-0.62748,0.32932 -1.43902,0.73902 -1.80259,0.90972c-0.36329,0.1707 -0.89589,0.46283 -1.18238,0.64882c-0.28648,0.18572 -0.71277,0.43 -0.94659,0.5424c-0.23798,0.11453 -0.77055,0.55553 -1.20978,1.00203c-0.5792,0.58913 -0.88851,0.82933 -1.18192,0.9199c-0.2186,0.06727 -0.66929,0.336 -1.00077,0.5971c-0.8445,0.66456 -0.89989,0.66995 -5.39819,0.57792c-7.04308,-0.14376 -9.88588,-0.4449 -12.60779,-1.32872c-0.26322,-0.08534 -0.94291,-0.2201 -1.50999,-0.29906c-1.18085,-0.16408 -1.73459,-0.44034 -1.93462,-0.96393c-0.13195,-0.34544 -0.31609,-3.37615 -0.21439,-3.53358c0.03693,-0.05737 0.13928,-2.13107 0.22846,-4.60627c0.19622,-5.44931 0.52615,-8.17166 1.00443,-8.25335c0.07875,-0.01332 0.5431,0.26252 0.9992,0.62017c3.15391,2.47328 6.31866,2.43628 8.97647,-0.1211c2.38665,-2.29646 3.14254,-9.22726 1.46575,-13.45544c-0.12563,-0.31696 -0.24873,-0.86243 -0.29443,-1.23894c-0.32213,-2.64719 -4.19221,-3.71348 -5.92584,-1.63155c-0.19774,0.23786 -0.59897,0.65819 -0.89194,0.9352c-0.29297,0.27728 -0.77785,0.83724 -1.07838,1.246c-0.30053,0.40876 -0.75664,0.94178 -1.01426,1.18562l-0.46817,0.44305l-0.08514,-0.27502c-0.03448,-0.14993 0.06301,-1.05105 0.22597,-2.09176c0.1573,-1.00502 0.33395,-2.4077 0.39146,-3.1151c0.14168,-1.74664 0.31422,-1.90425 1.58193,-1.43994c1.01482,0.37201 1.41943,0.20132 1.73859,-0.73166c0.34224,-0.99999 -0.23824,-1.65118 -1.64912,-1.85203c-1.12146,-0.15961 -1.94311,-0.88611 -2.63215,-2.3168c-0.29413,-0.61053 -0.07685,-2.25691 0.35829,-2.71918c0.49168,-0.52202 2.96559,-0.59649 3.63115,-0.10885c1.38596,1.01518 2.86687,2.48429 3.5507,3.52385c0.38042,0.57782 0.70145,0.71855 1.3396,0.58771c0.75206,-0.15392 0.95143,-0.61838 1.22011,-2.85487c0.10191,-0.84998 0.1485,-0.94694 0.38068,-0.79585c0.15143,0.09882 0.2341,0.44095 0.33332,1.41084c0.07014,0.68623 0.33578,0.88178 1.12669,0.89358c0.99656,0.01476 1.15582,-0.20732 1.15427,-1.61835c-0.00093,-0.746 0.03156,-1.01389 0.13398,-1.11017" data-paper-data="{&quot;noHover&quot;:false,&quot;origItem&quot;:[&quot;Path&quot;,{&quot;applyMatrix&quot;:true,&quot;segments&quot;:[[[456.814,30.51302],[0,0],[-1.23,-1.204]],[[438.746,32.50102],[9.015,-2.331],[-3.323,0.86]],[[430.427,34.42602],[1.252,-0.199],[-3.441,0.547]],[[426.753,37.68402],[-0.267,-2.267],[0.255,2.168]],[[424.345,41.19102],[1.728,0.022],[-1.751,-0.022]],[[417.411,39.74902],[0.815,0.512],[-0.444,-0.279]],[[414.786,38.65502],[1,0.323],[-1,-0.322]],[[410.835,36.60802],[1.173,0.803],[-1.173,-0.803]],[[407.56,34.56002],[0.628,0.324],[-0.628,-0.323]],[[405.083,32.83402],[0.734,0.626],[-1.811,-1.546]],[[401.494,33.07302],[0,-1.666],[0,1.041]],[[407.472,40.61502],[-1.629,-1.014],[0.848,0.528]],[[409.584,42.64902],[-0.313,-0.591],[0.313,0.59]],[[411.915,45.61302],[-0.969,-1.04],[3.642,3.906]],[[411.137,54.33502],[4.038,-0.542],[-3.277,0.439]],[[404.416,47.95202],[1.958,5.412],[-1.031,-2.848]],[[400.263,44.14302],[1.571,-0.462],[-8.139,2.389]],[[395.589,49.85602],[-4.962,-1.494],[0.841,0.253]],[[399.221,51.65202],[-1.157,-0.735],[1.157,0.735]],[[402.89,53.87302],[-0.861,-0.487],[1.245,0.704]],[[405.216,56.52802],[-0.606,-1.408],[2.341,5.442]],[[396.74,59.87802],[6.47,3.809],[-1.587,-0.935]],[[392.666,57.80802],[0.653,0.204],[-1.988,-0.618]],[[384.346,54.57502],[2.156,0.991],[-2.476,-1.14]],[[372.75,54.27602],[3.399,-0.988],[-6.559,1.907]],[[370.003,64.97202],[-6.07,0],[3.241,0]],[[380.916,70.88902],[-1.123,-2.367],[0.771,1.625]],[[380.357,74.97502],[1.249,-1.864],[-0.607,0.906]],[[378.63,77.58302],[0.343,-0.528],[-0.749,1.158]],[[378.49,82.53702],[-0.68,-1.326],[0.265,0.518]],[[380.839,86.70402],[-1.027,-1.775],[2.508,4.331]],[[383.722,96.55102],[-0.199,-4.913],[0.253,6.228]],[[387.615,105.43002],[-3.054,-1.314],[5.748,2.473]],[[393.07,122.52702],[2.961,-6.265],[-1.351,2.861]],[[381.69,134.17802],[3.214,-1.814],[-2.455,1.386]],[[379.672,143.58002],[-0.455,-7.932],[0.327,5.698]],[[381.739,157.67102],[-1.499,-6.747],[0.934,4.202]],[[383.67,167.75902],[-0.128,-1.346],[0.307,3.221]],[[388.238,170.96702],[-4.098,0.128],[5.838,-0.183]],[[406.054,176.24702],[-7.529,-4.145],[2.255,1.241]],[[412.53,179.67802],[-1.308,-0.646],[1.307,0.646]],[[416.774,182.11802],[-1.027,-0.696],[1.027,0.695]],[[420.17,184.15502],[-0.841,-0.425],[0.856,0.433]],[[424.488,187.88002],[-1.563,-1.653],[2.061,2.181]],[[428.711,191.30502],[-1.059,-0.35],[0.789,0.26]],[[432.3,193.54502],[-1.185,-0.972],[3.019,2.474]],[[451.85,196.03202],[-16.342,0.011],[25.587,-0.016]],[[497.708,192.12202],[-9.948,3.014],[0.962,-0.291]],[[503.211,191.14602],[-2.065,0.246],[4.3,-0.511]],[[510.303,187.78702],[-0.764,1.887],[0.504,-1.245]],[[511.332,174.97402],[0.358,0.579],[-0.13,-0.211]],[[510.829,158.23602],[0.146,8.995],[-0.321,-19.803]],[[507.768,128.20802],[1.731,0.331],[-0.285,-0.054]],[[504.192,130.41202],[1.682,-1.266],[-11.631,8.755]],[[471.51,129.29202],[9.468,9.478],[-8.502,-8.511]],[[467.166,80.38402],[-6.393,15.234],[0.479,-1.142]],[[468.388,75.82902],[-0.193,1.364],[1.36,-9.59]],[[490.032,70.33702],[-6.146,-7.685],[0.701,0.878]],[[493.206,73.80002],[-1.044,-1.027],[1.044,1.028]],[[497.035,78.40602],[-1.062,-1.506],[1.062,1.506]],[[500.635,82.78802],[-0.918,-0.904],[0,0]],[502.304,84.43202],[[502.542,83.48102],[0,0],[0.136,-0.542]],[[501.874,75.87302],[0.517,3.791],[-0.499,-3.661]],[[500.68,64.53802],[0.158,2.573],[-0.389,-6.353]],[[495.042,59.19902],[4.637,-1.595],[-3.712,1.278]],[[488.784,56.42002],[1.092,3.411],[-1.171,-3.656]],[[494.972,49.73802],[-5.138,0.628],[4.084,-0.499]],[[504.63,41.58802],[-2.605,5.146],[1.112,-2.196]],[[503.527,31.69002],[1.547,1.71],[-1.748,-1.931]],[[490.353,31.03702],[2.452,-1.723],[-5.106,3.587]],[[477.208,43.58002],[2.558,-3.726],[-1.423,2.071]],[[472.303,45.61902],[2.308,0.521],[-2.72,-0.613]],[[468.082,35.16602],[0.815,8.141],[-0.309,-3.094]],[[466.758,32.24902],[0.854,-0.532],[-0.557,0.348]],[[465.479,37.25402],[0.43,-3.515],[-0.304,2.487]],[[461.292,40.51302],[2.873,0.014],[-3.62,-0.018]],[[457.22,34.55402],[-0.107,5.124],[0.057,-2.709]],[[456.814,30.51302],[0.365,0.357],[0,0]]],&quot;fillColor&quot;:[0,0,0,1]}]}" fill="#ffffff" fill-rule="nonzero" stroke="none" stroke-width="0.5"/><path d="M97.17402,224.90501c2.03294,-0.28554 7.73753,-0.19179 8.89464,0.14255c1.26307,0.3648 4.15713,1.92882 4.34548,2.34643c0.55368,1.22948 -0.49873,2.47374 -3.74689,4.41611c-0.21763,0.13008 -0.74788,0.32951 -1.17775,0.44163c-0.43015,0.1121 -0.97292,0.26738 -1.20573,0.34318c-1.89327,0.61682 -4.57003,1.38091 -4.99242,1.42102c-0.28334,0.02689 -0.94159,0.1183 -1.45765,0.20254c-2.55487,0.4162 -5.74663,0.31272 -6.44247,-0.20333c-0.53274,-0.39524 -0.7044,-0.48443 -1.81915,-0.92725c-0.53769,-0.21386 -1.24961,-0.50177 -1.58094,-0.6383c-0.55668,-0.22911 -1.40239,-0.53604 -1.94075,-0.70255c-1.62876,-0.50421 0.52293,-5.35457 2.35402,-5.30623c0.46459,0.01222 0.52032,0.11337 0.32593,0.96097c-0.25825,1.12474 -0.24128,3.03091 0.03014,3.41134c0.41424,0.58042 1.62193,0.62035 2.10764,0.06572c0.45585,-0.52025 0.7515,-3.74323 0.39571,-4.31368c-0.21406,-0.34322 -0.19507,-0.52991 0.05849,-0.58244c2.45094,-0.50776 4.48259,-0.88533 5.85169,-1.07771" data-paper-data="{&quot;noHover&quot;:false,&quot;origItem&quot;:[&quot;Path&quot;,{&quot;applyMatrix&quot;:true,&quot;segments&quot;:[[[455.314,142.33602],[0,0],[-7.362,-1.183]],[[423.056,142.19102],[4.226,-1.131],[-4.613,1.234]],[[407.113,150.38402],[0.714,-1.503],[-2.099,4.425]],[[420.402,166.66902],[-11.656,-7.287],[0.781,0.488]],[[424.646,168.35302],[-1.553,-0.438],[1.554,0.438]],[[428.998,169.68102],[-0.84,-0.292],[6.831,2.376]],[[446.995,175.17302],[-1.531,-0.176],[1.027,0.118]],[[452.258,176.01102],[-1.868,-0.343],[9.248,1.695]],[[475.628,175.75702],[-2.564,1.824],[1.963,-1.397]],[[482.296,172.52902],[-4.08,1.528],[1.968,-0.738]],[[488.081,170.33002],[-1.213,0.472],[2.038,-0.792]],[[495.178,167.92302],[-1.967,0.566],[5.951,-1.714]],[[487.012,148.50902],[6.653,-0.044],[-1.688,0.011]],[[485.856,151.95002],[-0.645,-3.092],[0.857,4.103]],[[485.502,164.35402],[1.013,-1.362],[-1.546,2.078]],[[477.745,164.42402],[1.724,2.049],[-1.618,-1.922]],[[476.621,148.76002],[-1.333,2.046],[0.802,-1.231]],[[476.452,146.64402],[0.917,0.209],[-8.864,-2.02]],[[455.314,142.33602],[4.958,0.797],[0,0]]],&quot;fillColor&quot;:[0,0,0,1]}]}" fill="#ff6cbf" fill-rule="nonzero" stroke="none" stroke-width="0.5"/><path d="M95.03542,188.88842c0.10003,0.20548 0.17916,0.49233 0.17629,0.6374c-0.00304,0.15387 0.06968,0.31943 0.17414,0.39805c0.09877,0.0741 0.16316,0.15992 0.14355,0.19065c-0.01988,0.03045 0.03427,0.06319 0.12028,0.07233c0.086,0.00914 0.42912,0.06439 0.76228,0.1222c0.33316,0.05808 1.10929,0.16211 1.72531,0.23103c1.58016,0.17694 2.65803,0.3544 2.71239,0.44635c0.02558,0.04319 0.21481,0.08218 0.42044,0.08625c0.20562,0.00407 0.35364,0.03839 0.32921,0.07646c-0.02471,0.03805 0.08768,0.07773 0.24967,0.0881c0.37761,0.024 1.66549,0.38736 1.59924,0.45104c-0.02779,0.02644 0.07094,0.03307 0.21919,0.01425c0.14797,-0.01883 0.29688,0.01248 0.33072,0.0696c0.03357,0.05711 0.20827,0.10656 0.38829,0.11012c0.5731,0.01134 1.61913,0.2394 1.55465,0.3389c-0.0358,0.05575 -0.01259,0.06556 0.05707,0.02426c0.06548,-0.03891 0.28764,0.02001 0.50268,0.13276c0.381,0.2003 0.93477,0.42357 1.52495,0.61534c0.16744,0.05453 0.28578,0.12792 0.26305,0.16327c-0.023,0.03535 0.11901,0.06735 0.31555,0.07123c0.19653,0.00389 0.34407,-0.00668 0.32787,-0.02325c-0.07474,-0.07803 0.82023,-0.73223 1.32693,-0.97004c0.31158,-0.14612 0.77468,-0.42059 1.02957,-0.61023c0.38262,-0.2846 0.5463,-0.34608 0.94189,-0.35394c1.14791,-0.02217 1.93247,0.10212 2.18428,0.34641c0.10619,0.10289 0.22952,0.18767 0.27412,0.18855c0.15938,0.00316 0.49834,0.4634 0.42477,0.57705c-0.04091,0.06363 -0.034,0.0902 0.01615,0.06063c0.13875,-0.0818 0.53402,0.99805 0.42635,1.165c-0.04603,0.07151 -0.0326,0.08885 0.03679,0.04754c0.07829,-0.04609 0.10564,0.10287 0.09618,0.52511c-0.00985,0.44233 -0.03712,0.55414 -0.10964,0.44751c-0.07438,-0.10969 -0.0874,-0.078 -0.05671,0.13822c0.02201,0.15409 0.00588,0.34322 -0.03558,0.42006c-0.37822,0.70242 0.01243,1.12487 1.05764,1.14444c0.67881,0.0126 1.2292,0.2537 1.6585,0.72675c0.21749,0.23947 0.44408,0.43645 0.50353,0.43762c0.05946,0.00117 0.07721,0.05 0.03943,0.10873c-0.04091,0.06335 -0.02751,0.08206 0.03323,0.04609c0.05628,-0.03304 0.1992,-0.01919 0.31772,0.03079c0.11879,0.05027 0.41375,0.14587 0.65585,0.2129c0.25716,0.07118 0.41454,0.16131 0.37848,0.21677c-0.0358,0.05575 -0.01484,0.06772 0.05093,0.02855c0.06186,-0.03651 0.25893,0.02412 0.43793,0.13451c0.17928,0.11066 0.36611,0.20165 0.41566,0.20263c0.04955,0.00098 0.24603,0.10483 0.43658,0.23059c0.19082,0.12576 0.49239,0.26308 0.66999,0.30542c0.20337,0.04835 0.46438,0.23141 0.70318,0.49333c0.20915,0.22912 0.42875,0.41769 0.48821,0.41886c0.05946,0.00117 0.07721,0.05 0.03943,0.10873c-0.04403,0.06824 -0.02695,0.0818 0.04744,0.03784c0.14767,-0.08713 0.56256,0.30771 0.55813,0.53149c-0.0018,0.09084 0.03806,0.19186 0.0889,0.22481c0.05085,0.03268 0.09113,0.12599 0.08952,0.20748c-0.00161,0.08148 0.15998,0.4176 0.35917,0.7473c0.19918,0.32971 0.36126,0.6416 0.36024,0.6928c-0.00102,0.05148 0.07938,0.23289 0.17872,0.40338c0.09934,0.17022 0.17757,0.46118 0.17419,0.64616c-0.01039,0.55301 -0.35563,1.42572 -0.52176,1.31862c-0.05084,-0.03295 -0.06474,-0.01285 -0.0309,0.04455c0.07753,0.13123 -0.31864,0.94786 -0.49004,1.00973c-0.06961,0.02506 -0.12796,0.10707 -0.12944,0.18194c-0.00149,0.07515 -0.2221,0.34147 -0.49004,0.59254c-0.45508,0.42608 -0.47738,0.46723 -0.33952,0.62554c0.08104,0.0933 0.1462,0.23751 0.14457,0.32036c-0.00164,0.08285 0.03862,0.17755 0.08919,0.21022c0.13812,0.0892 0.08351,1.37411 -0.06647,1.56362c-0.06948,0.08784 -0.15539,0.12938 -0.19074,0.0926c-0.03562,-0.03706 -0.03915,0.0028 -0.00836,0.0885c0.04308,0.11926 -0.06612,0.21045 -0.4701,0.39192c-0.66932,0.30041 -0.60145,-0.20687 -0.74668,5.58793l-0.12403,4.94597l0.27867,0.08372c0.52203,0.15682 1.58122,0.38816 1.79785,0.39245c0.12057,0.00238 0.18938,0.04533 0.15587,0.09699c-0.0358,0.05575 0.06428,0.0916 0.24992,0.08948c0.17049,-0.00185 0.60328,0.04471 0.96203,0.10358c0.35903,0.0586 1.09364,0.14611 1.63268,0.1945c0.53905,0.04812 0.90345,0.11316 0.80976,0.14462c-0.09343,0.03147 0.11631,0.06427 0.46613,0.07339c0.34982,0.00884 0.92964,0.07017 1.28853,0.13592c0.82202,0.15148 9.60139,0.33345 10.28118,0.21334c0.7124,-0.1258 4.43408,-0.47513 4.96508,-0.46572c0.37299,0.00656 0.42038,-0.00848 0.23525,-0.07383c-0.1917,-0.0674 -0.15424,-0.08181 0.21311,-0.08225c0.24508,-0.00011 0.51928,-0.03819 0.60942,-0.0846c0.37696,-0.19356 3.06395,-0.32819 6.80815,-0.34113c2.15989,-0.00766 4.24359,-0.04766 4.6302,-0.08903c0.38635,-0.04165 1.83838,-0.05587 3.22661,-0.03171c1.38795,0.02415 3.45011,0.00107 4.58264,-0.05115c2.44918,-0.11291 4.42509,-0.09116 4.78188,0.05276c0.14205,0.05734 0.89904,0.14171 1.68238,0.18805l1.42422,0.0838l0.10165,-0.25216c0.12336,-0.30597 0.14209,-0.73711 0.02923,-0.67023c-0.11759,0.06955 -0.16839,-2.95724 -0.06835,-4.0606c0.04678,-0.51347 0.11374,-0.93319 0.14897,-0.93249c0.03524,0.0007 0.05505,-0.48576 0.04397,-1.08106c-0.01335,-0.73082 0.01492,-1.11606 0.08762,-1.18567c0.06737,-0.06476 0.11606,-0.50769 0.13025,-1.1829c0.01672,-0.7897 0.04897,-1.04158 0.11961,-0.93747c0.07493,0.1097 0.08563,0.0843 0.04683,-0.11225c-0.06658,-0.33755 0.08325,-1.85574 0.17706,-1.79523c0.04051,0.02613 0.05311,-0.09588 0.02822,-0.27096c-0.02659,-0.18695 -0.00173,-0.34397 0.05985,-0.38048c0.06715,-0.03942 0.11266,-0.4469 0.1261,-1.12598c0.01203,-0.60834 0.06145,-1.08761 0.11578,-1.11958c0.05183,-0.03092 0.09571,-0.11927 0.09724,-0.19662c0.00153,-0.07735 0.11506,-0.3736 0.25204,-0.65811c0.13698,-0.2845 0.27441,-0.6472 0.30564,-0.80602c0.08427,-0.43205 0.39712,-1.04544 0.56325,-1.10549c0.08071,-0.02897 0.14821,-0.12787 0.15029,-0.21925c0.00599,-0.26121 2.11282,-2.29087 2.27133,-2.18832c0.04786,0.03068 0.14566,-0.01364 0.21729,-0.09869c0.1111,-0.13136 0.11078,-0.1432 -0.00231,-0.07798c-0.08301,0.04793 -0.11015,0.04161 -0.07265,-0.01658c0.03324,-0.05139 0.46325,-0.28218 0.95606,-0.5131c0.49281,-0.23092 0.92196,-0.46008 0.9535,-0.50902c0.30139,-0.46657 2.09965,-0.76281 3.51611,-0.57921c1.3033,0.16899 1.46087,0.23516 2.07967,0.87333c0.30873,0.31838 0.6023,0.58111 0.65237,0.58375c0.17771,0.00958 0.46114,0.33957 0.65976,0.76702c0.11065,0.23873 0.31307,0.55831 0.44995,0.71027c0.28186,0.31262 0.52236,0.76623 0.60926,1.14824c0.03216,0.14218 0.13254,0.34409 0.22298,0.44887c0.16933,0.19584 0.21445,0.35122 0.38341,1.31726c0.05444,0.31032 0.19025,0.72552 0.302,0.92296c0.11175,0.19773 0.20213,0.41761 0.20072,0.48863c-0.00141,0.07129 0.03905,0.15608 0.08961,0.18903c0.05085,0.03267 0.09086,0.14003 0.08891,0.23858c-0.00195,0.09827 0.09227,0.40277 0.20967,0.67633c0.64854,1.51498 0.6422,0.63835 0.15653,21.07838c-0.23686,9.96652 -0.43129,18.60988 -0.43238,19.20797c-0.00171,1.04665 -0.19534,2.10658 -0.43082,2.35912c-0.04473,0.04813 -0.08373,0.20955 -0.08668,0.35875c-0.00845,0.42721 -0.29318,1.37326 -0.55472,1.84338c-0.15247,0.27429 -0.24145,0.58177 -0.24684,0.85455c-0.00463,0.23398 -0.04464,0.44715 -0.08867,0.47326c-0.0443,0.02611 -0.11376,0.5306 -0.15463,1.12073c-0.06525,0.94571 -0.10842,1.13762 -0.36152,1.61231c-0.15815,0.29648 -0.32123,0.71705 -0.36244,0.93488c-0.0901,0.47571 -0.27937,0.85611 -0.53799,1.08093c-0.10507,0.09127 -0.1924,0.24623 -0.19435,0.3445c-0.00195,0.09826 -0.05434,0.26879 -0.116,0.37909c-0.06194,0.1103 -0.19249,0.51527 -0.29015,0.89995c-0.17799,0.70087 -0.31165,1.09586 -0.5554,1.64096c-0.07174,0.1605 -0.13188,0.36061 -0.13354,0.44428c-0.00166,0.08396 -0.06403,0.17443 -0.13836,0.20131c-0.07461,0.02688 -0.11525,0.10456 -0.09072,0.17279c0.02481,0.06824 -0.00051,0.1509 -0.05623,0.18367c-0.05546,0.03305 -0.10391,0.19978 -0.1073,0.37073c-0.00993,0.5018 -0.31363,1.25169 -0.60103,1.48393c-0.14497,0.1172 -0.24527,0.23224 -0.22261,0.25582c0.0224,0.02329 -0.08833,0.28876 -0.24602,0.58993c-0.15768,0.30089 -0.33124,0.77798 -0.38556,1.05971c-0.09639,0.50174 -0.21738,0.86862 -0.47927,1.45384c-0.07175,0.16078 -0.13247,0.34875 -0.13494,0.4181c-0.0022,0.06935 -0.1563,0.41217 -0.34221,0.76179c-0.18591,0.34962 -0.33937,0.70154 -0.34096,0.78192c-0.00159,0.08065 -0.09592,0.24153 -0.20947,0.35769c-0.16583,0.16965 -0.22456,0.38245 -0.29775,1.07549c-0.11059,1.05194 -0.24338,1.57003 -0.43661,1.70555c-0.08042,0.05624 -0.11906,0.13037 -0.08588,0.1649c0.03291,0.03425 -0.02868,0.15502 -0.13694,0.26853c-0.18896,0.19783 -0.60667,0.98952 -0.60997,1.15633c-0.00782,0.39528 -0.68959,1.35275 -1.17261,1.64638c-0.19231,0.1168 -0.42264,0.35898 -0.51181,0.53786c-0.08946,0.17915 -0.2058,0.29746 -0.25882,0.26337c-0.05874,-0.03779 -0.06935,-0.01624 -0.02725,0.05508c0.04263,0.07216 -0.04144,0.22939 -0.21762,0.40737c-0.15791,0.15962 -0.37625,0.47776 -0.48543,0.70719c-0.1089,0.22915 -0.3941,0.6005 -0.63371,0.82486c-0.24017,0.22519 -0.43717,0.49528 -0.43928,0.60181c-0.00366,0.18497 -0.32402,0.53855 -0.40848,0.45068c-0.0224,-0.02302 -0.10054,0.02913 -0.17385,0.1158c-0.11533,0.13678 -0.11419,0.14864 0.00815,0.0891c0.07813,-0.03783 0.0244,0.01948 -0.11928,0.12761c-0.14368,0.10813 -0.26266,0.27596 -0.26458,0.37285c-0.00884,0.44675 -0.5364,1.12585 -0.95932,1.23479c-0.47303,0.12199 -0.8083,0.31032 -1.13475,0.63734c-0.35118,0.35159 -1.01144,0.71 -1.14712,0.6225c-0.04378,-0.02841 -0.08054,-0.00711 -0.08162,0.0474c-0.00108,0.0545 -0.0837,0.0972 -0.18335,0.09523c-0.09993,-0.00198 -0.20838,0.03801 -0.24106,0.08886c-0.07499,0.11582 -7.68076,-0.02282 -7.75084,-0.14124c-0.02664,-0.04541 -0.17927,-0.11122 -0.33884,-0.14659c-0.2994,-0.06596 -1.23797,-0.86768 -1.23428,-1.05403c0.00115,-0.05781 -0.04114,-0.10573 -0.09372,-0.10677c-0.18718,-0.00371 -1.05122,-0.77312 -1.18174,-1.0519c-0.07292,-0.15565 -0.25901,-0.40937 -0.41375,-0.56334c-0.15501,-0.15424 -0.28064,-0.33242 -0.27938,-0.39601c0.00295,-0.14892 -0.51296,-0.42045 -0.81052,-0.42634c-0.35647,-0.00705 -1.29726,-0.29333 -1.65493,-0.50363c-0.17775,-0.10458 -0.38504,-0.19129 -0.46046,-0.19278c-0.0757,-0.0015 -0.13648,-0.04703 -0.1354,-0.10154c0.00108,-0.0545 -0.03956,-0.07458 -0.09027,-0.04447c-0.12733,0.07513 -1.02121,-0.39719 -1.34981,-0.71321c-0.14835,-0.14283 -0.45604,-0.36068 -0.6838,-0.48414c-0.36017,-0.19548 -0.56949,-0.34668 -1.08135,-0.78115c-0.06121,-0.05188 -0.14764,-0.09517 -0.19224,-0.09605c-0.04459,-0.00088 -0.17794,-0.10871 -0.29596,-0.23937c-0.11829,-0.13094 -0.26017,-0.23921 -0.3155,-0.24031c-0.05533,-0.0011 -0.22061,-0.10955 -0.36753,-0.24106c-0.14693,-0.13123 -0.36065,-0.24065 -0.47544,-0.24292c-0.24856,-0.00492 -0.76437,-0.53172 -1.16712,-1.19205c-0.15897,-0.26007 -0.32079,-0.4877 -0.35981,-0.50582c-0.0393,-0.01785 -0.0698,-0.10465 -0.06806,-0.19273c0.00174,-0.08808 -0.13206,-0.43743 -0.2972,-0.77609c-0.29611,-0.60782 -0.39835,-1.60614 -0.38498,-3.75735c0.00083,-0.13959 -0.03478,-0.23255 -0.07935,-0.20645c-0.0443,0.02639 -0.06156,-0.92454 -0.03805,-2.11285c0.02692,-1.36063 0.07565,-2.13952 0.13166,-2.10344c0.04894,0.03153 0.0926,-0.05985 0.09709,-0.20296c0.09601,-3.0572 0.24163,-5.90744 0.30947,-6.05178c0.04773,-0.10177 0.11362,-0.34252 0.14634,-0.53463c0.13587,-0.79892 0.18964,-0.9975 0.25844,-0.95318c0.03997,0.02586 0.08052,-0.04742 0.08996,-0.16261c0.1805,-2.19169 0.33889,-3.33548 0.46166,-3.33305c0.04927,0.00098 0.06202,-0.04476 0.02818,-0.10188c-0.03358,-0.05684 -0.01628,-0.19336 0.03876,-0.30297c0.05504,-0.10989 0.15227,-0.63971 0.21634,-1.17762c0.06434,-0.53763 0.15063,-0.98836 0.19219,-1.00103c0.04156,-0.01294 0.06356,-0.66541 0.04879,-1.44996l-0.02657,-1.42667l-0.39195,-0.80248c-0.21569,-0.44155 -0.42634,-0.81747 -0.46811,-0.83593c-0.04177,-0.01818 -0.13418,-0.09381 -0.20514,-0.16763c-0.15595,-0.16225 -2.70888,-0.24773 -2.8083,-0.09412c-0.03268,0.05085 -0.16481,0.09037 -0.29336,0.08782c-0.14314,-0.00283 -0.20871,-0.04323 -0.1695,-0.10414c0.07839,-0.12099 -0.81705,-0.02663 -0.89931,0.09483c-0.02921,0.04321 -0.43616,0.08197 -0.90437,0.0862c-0.46794,0.00424 -0.80294,0.03947 -0.7445,0.07834c0.05844,0.03888 -0.48474,0.0598 -1.20705,0.04634c-0.78699,-0.01475 -1.35317,0.01371 -1.41296,0.07118c-0.06597,0.06341 -0.98637,0.06889 -2.72182,0.01609c-1.44208,-0.04369 -2.60698,-0.05379 -2.58833,-0.0223c0.03624,0.06102 -1.33626,0.2448 -1.76512,0.23604c-0.14203,-0.00281 -0.33189,0.03143 -0.42228,0.07646c-0.28202,0.14064 -1.55234,0.23998 -1.74525,0.13647c-0.14333,-0.07663 -0.16585,-0.06578 -0.12121,0.05791c0.0496,0.13729 -0.12739,0.1481 -1.78793,0.10864c-1.01344,-0.02418 -1.78947,-0.06432 -1.72454,-0.08892c0.28661,-0.10916 -0.01237,-0.18199 -0.50836,-0.12434c-0.29864,0.03484 -0.79068,0.03255 -1.09395,-0.00485c-0.37551,-0.04653 -0.53212,-0.03642 -0.49189,0.03157c0.03596,0.06102 -0.07799,0.11411 -0.29184,0.13659c-0.19317,0.02041 -0.68946,0.13533 -1.10324,0.25547l-0.7525,0.21835l-0.07822,1.58707c-0.04709,0.96039 -0.12026,1.63801 -0.18514,1.71603c-0.05923,0.0707 -0.14047,0.29352 -0.18079,0.49457c-0.04061,0.20131 -0.21215,0.53442 -0.38145,0.74063c-0.27595,0.33545 -0.37304,0.49683 -0.58852,0.97694c-0.16679,0.37148 -0.51299,0.91703 -0.55454,0.8738c-0.02591,-0.02695 -0.05532,0.06774 -0.0653,0.21019c-0.15229,2.14378 -0.34946,3.10451 -0.63657,3.09883c-0.05698,-0.00113 -0.08059,0.03696 -0.05261,0.08432c0.02824,0.04765 -0.09485,0.35418 -0.27342,0.68081c-0.17971,0.32827 -0.35441,0.80754 -0.39101,1.07089c-0.03794,0.2749 -0.24961,0.841 -0.50011,1.3375c-0.23875,0.4736 -0.53462,1.17489 -0.6573,1.55799c-0.12502,0.38992 -0.33562,0.81837 -0.47828,0.97251c-0.25551,0.27638 -0.89194,1.46165 -1.0184,1.89671c-0.11464,0.39426 -0.27464,0.64527 -0.37172,0.58276c-0.05084,-0.03295 -0.06474,-0.01285 -0.0309,0.04455c0.0858,0.14517 -0.33074,0.96111 -0.45091,0.88329c-0.05547,-0.03579 -0.06988,-0.01708 -0.03391,0.04394c0.03437,0.05824 -0.0265,0.28173 -0.13567,0.49684c-0.10916,0.21483 -0.19968,0.46115 -0.20138,0.54703c-0.00391,0.19736 -0.53025,0.84288 -0.61524,0.75446c-0.03454,-0.03593 -0.03937,-0.00051 -0.01065,0.07882c0.02949,0.08209 -0.03155,0.21692 -0.14167,0.31277c-0.11992,0.1042 -0.19593,0.28526 -0.19969,0.47547c-0.00334,0.16874 -0.13696,0.54776 -0.29726,0.84199c-0.16003,0.29424 -0.29206,0.59316 -0.29347,0.66445c-0.00333,0.16819 -0.58742,1.03258 -0.69615,1.03043c-0.04597,-0.00091 -0.05782,0.04154 -0.02665,0.09448c0.03118,0.05266 -0.16131,0.33084 -0.42749,0.61801c-0.26618,0.2869 -0.48622,0.60804 -0.48886,0.71345c-0.00726,0.29726 -1.5435,1.79766 -1.83473,1.79189c-0.12855,-0.00254 -0.28245,0.05141 -0.34191,0.12018c-0.05918,0.06877 -0.43679,0.28077 -0.83874,0.47136c-0.40224,0.19086 -0.80872,0.41496 -0.90317,0.49845c-0.15302,0.13493 -0.54404,0.24561 -1.4184,0.40151c-0.18902,0.03371 -0.25092,0.01679 -0.20376,-0.05636c0.04573,-0.07069 -0.04223,-0.10685 -0.27069,-0.11137c-0.22819,-0.00452 -0.31751,0.02814 -0.27461,0.10058c0.04502,0.07662 -0.02761,0.08702 -0.25241,0.03658c-0.17354,-0.03895 -0.48356,-0.09714 -0.68863,-0.12928c-0.20507,-0.03214 -0.41197,-0.09682 -0.46005,-0.14403c-0.04781,-0.04721 -0.14395,-0.08683 -0.21359,-0.08821c-0.19599,-0.00388 -0.87888,-0.35307 -1.12452,-0.5752c-0.12147,-0.10952 -0.30911,-0.20136 -0.41674,-0.20348c-0.1079,-0.00214 -0.31613,-0.11145 -0.46305,-0.24295c-0.14694,-0.13123 -0.36369,-0.24071 -0.4815,-0.24304c-0.30444,-0.00603 -1.10131,-0.8581 -1.17386,-1.25496c-0.0313,-0.17163 -0.0859,-0.54418 -0.12104,-0.82768c-0.03655,-0.29564 -0.2041,-0.79049 -0.39285,-1.1602c-0.2211,-0.43286 -0.32684,-0.76677 -0.32189,-1.01671c0.00442,-0.22351 -0.0829,-0.54192 -0.21805,-0.79573c-0.12399,-0.23266 -0.22253,-0.56892 -0.21901,-0.74701c0.00352,-0.17809 -0.03544,-0.32454 -0.08691,-0.32556c-0.05147,-0.00102 -0.0952,0.07963 -0.09718,0.17955c-0.00197,0.09965 -0.04622,0.20644 -0.09805,0.23736c-0.0521,0.03064 -0.09713,0.17707 -0.10006,0.32516c-0.00293,0.14809 -0.04462,0.29266 -0.09254,0.3209c-0.0482,0.02851 -0.11721,0.17584 -0.15381,0.32767c-0.0366,0.15183 -0.17241,0.47491 -0.30224,0.7177c-0.12982,0.24279 -0.3458,0.77604 -0.48028,1.18478c-0.19427,0.59124 -0.33288,0.8333 -0.67742,1.18336c-0.2383,0.24229 -0.43505,0.52726 -0.43715,0.63352c-0.00624,0.31518 -0.69065,0.9058 -1.04162,0.89885c-0.16351,-0.00324 -0.38435,0.03838 -0.49034,0.09246c-0.67375,0.34356 -2.51187,0.38621 -3.9129,0.09056c-0.53776,-0.11335 -1.16657,-0.23126 -1.39729,-0.26171c-0.5905,-0.07833 -1.45675,-0.54102 -1.96929,-1.05206c-0.23953,-0.23881 -0.48954,-0.43514 -0.55533,-0.43644c-0.12277,-0.00243 -0.79875,-0.67311 -0.79644,-0.7901c0.00222,-0.1123 -0.30837,-0.44752 -0.41627,-0.44965c-0.1847,-0.00365 -0.50135,-0.43675 -0.49655,-0.67925c0.00257,-0.12992 -0.07669,-0.31324 -0.17645,-0.40718c-0.09975,-0.09394 -0.26922,-0.36661 -0.37655,-0.60638c-0.10734,-0.23949 -0.25243,-0.50535 -0.32235,-0.59044c-0.17908,-0.21833 -0.47851,-0.85321 -0.47544,-1.00818c0.00141,-0.07129 -0.20042,-0.33634 -0.44849,-0.58908c-0.49397,-0.50324 -0.68539,-0.80773 -0.59534,-0.94722c0.0321,-0.04976 0.01007,-0.0915 -0.04883,-0.09266c-0.07487,-0.00148 -0.09746,-0.29327 -0.07491,-0.95977c0.08224,-2.43045 0.012,-9.05398 -0.09736,-9.19135c-0.08008,-0.10016 -0.0944,-0.44797 -0.05015,-1.20905c0.03421,-0.58751 0.03459,-1.05206 0.00088,-1.03235c-0.03371,0.01999 -0.09291,-0.98298 -0.13187,-2.22871c-0.0707,-2.27212 -0.03299,-2.93942 0.28715,-5.06281c0.12615,-0.83602 0.13677,-1.13679 0.07039,-1.99836c-0.02975,-0.38941 -0.00575,-0.66982 0.06932,-0.80354c0.06536,-0.11629 0.1303,-0.64261 0.14987,-1.21417l0.03455,-1.00855l-0.63648,-0.16185c-0.35016,-0.08926 -0.60196,-0.19503 -0.5593,-0.23549c0.04266,-0.04046 0.00146,-0.04623 -0.09145,-0.01255c-0.18055,0.065 -0.78672,-0.09845 -1.1904,-0.3215c-0.13511,-0.07455 -0.39435,-0.13833 -0.5763,-0.14193c-0.18167,-0.0036 -0.35563,-0.04917 -0.38627,-0.10127c-0.03091,-0.05211 -0.16906,-0.09807 -0.30749,-0.10246c-0.28621,-0.00897 -0.60609,-0.22321 -0.50061,-0.33512c0.03854,-0.0411 0.0177,-0.04591 -0.04605,-0.01083c-0.20462,0.11243 -0.47892,-0.0808 -1.48968,-1.0478c-0.38457,-0.36807 -0.84482,-0.75278 -1.02261,-0.85488c-0.17808,-0.1021 -0.35368,-0.23142 -0.3903,-0.2875c-0.08821,-0.13475 0.21817,-15.68856 0.3079,-15.6306c0.03806,0.02472 0.06613,-0.50317 0.06231,-1.17295c-0.00448,-0.7893 0.0292,-1.25291 0.09601,-1.31713c0.0567,-0.0545 0.10734,-0.30354 0.11229,-0.55348c0.00494,-0.24967 0.04324,-0.43176 0.08511,-0.40477c0.04188,0.02699 0.09104,-0.27274 0.10901,-0.66617c0.01797,-0.39342 0.06361,-0.73757 0.1016,-0.7649c0.07542,-0.05441 0.10805,-0.29747 0.20358,-1.52098c0.03908,-0.49986 0.09918,-0.79552 0.15465,-0.75972c0.05084,0.03295 0.0839,-0.03744 0.07533,-0.1607c-0.03248,-0.47429 0.03638,-1.11481 0.11441,-1.06453c0.0454,0.02954 0.08728,-0.04096 0.09286,-0.15623c0.01817,-0.36176 0.37448,-2.3506 0.42995,-2.39852c0.02914,-0.02531 0.07956,-1.22328 0.11217,-2.66283c0.03793,-1.66663 0.10304,-2.78582 0.17939,-3.08199c0.06619,-0.25589 0.15166,-0.74849 0.19047,-1.09496c0.03852,-0.34621 0.09589,-0.62925 0.12755,-0.62863c0.03166,0.00062 0.07305,-0.24033 0.09184,-0.53571c0.01879,-0.29538 0.06786,-1.06351 0.10895,-1.7068c0.07424,-1.16335 0.07356,-1.1708 -0.15958,-1.39846c-0.12886,-0.12592 -0.23315,-0.28301 -0.23185,-0.3488c0.00305,-0.15387 -0.42782,-0.60409 -0.58114,-0.60713c-0.21636,-0.00428 -0.79522,-0.71243 -0.79019,-0.9665c0.00263,-0.13295 -0.05749,-0.29551 -0.1333,-0.3609c-0.17354,-0.14994 -0.13005,-4.10176 0.04708,-4.27201c0.05755,-0.05531 0.22064,-0.32333 0.36234,-0.59589c0.17691,-0.33988 0.35632,-0.54204 0.5712,-0.64408c0.42059,-0.19986 4.07336,-3.14869 4.44977,-3.20319c0.19442,-0.0281 1.45373,-0.02989 2.79868,-0.00383l2.44546,0.04728l0.07072,-0.3731c0.04336,-0.22881 0.10851,-0.3484 0.16887,-0.30948c0.05954,0.03863 0.07178,0.0185 0.03101,-0.05033c-0.03704,-0.06269 0.00455,-0.25766 0.09201,-0.43354l0.15942,-0.31931l1.81646,0.03594l1.81619,0.03594l0.18151,0.37397M91.63702,193.36979c-0.21245,0.07675 -0.18803,0.24797 0.07104,0.5012c0.38631,0.37747 0.72721,0.03036 0.3718,-0.37816c-0.1645,-0.18941 -0.21818,-0.20424 -0.44284,-0.12304M97.37257,194.12957c-0.10242,0.09628 -0.1347,0.36413 -0.13377,1.11013c0.00155,1.41104 -0.15678,1.63288 -1.15333,1.61812c-0.79091,-0.01179 -1.06465,-0.23365 -1.13478,-0.91989c-0.09922,-0.96989 -0.17337,-1.28583 -0.3248,-1.38466c-0.23218,-0.15109 -0.27843,-0.05425 -0.38034,0.79573c-0.26868,2.23648 -0.46676,2.70042 -1.21882,2.85434c-0.63815,0.13084 -0.95864,-0.01016 -1.33906,-0.58798c-0.68383,-1.03956 -2.16406,-2.50904 -3.55003,-3.52422c-0.66556,-0.48763 -3.1382,-0.41402 -3.62988,0.108c-0.43515,0.46227 -0.65166,2.10801 -0.35753,2.71855c0.68903,1.43069 1.49265,2.1364 2.61411,2.296c1.41089,0.20085 2.00919,0.87302 1.66694,1.87301c-0.31916,0.93298 -0.72291,1.10288 -1.73773,0.73087c-1.26772,-0.4643 -1.43934,-0.30771 -1.58102,1.43892c-0.05751,0.70739 -0.23311,2.10859 -0.3904,3.11361c-0.16296,1.04071 -0.2598,1.94064 -0.22531,2.09057l0.06033,0.26307l0.46837,-0.44345c0.25761,-0.24385 0.71429,-0.77784 1.01482,-1.1866c0.30053,-0.40876 0.78609,-0.96972 1.07907,-1.24701c0.29297,-0.27701 0.69481,-0.69809 0.89255,-0.93595c1.73363,-2.08193 5.60577,-1.01755 5.9279,1.62963c0.0457,0.37652 0.18593,0.94353 0.31156,1.26049c1.67679,4.22818 0.92452,11.14247 -1.46212,13.43894c-2.65782,2.55739 -5.84836,2.60358 -9.00227,0.13029c-0.45609,-0.35765 -0.89359,-0.63948 -0.97234,-0.62616c-0.47829,0.08168 -0.80991,2.79965 -1.00613,8.24895c-0.08918,2.4752 -0.19269,4.54726 -0.22962,4.60463c-0.1017,0.15743 0.08151,3.18711 0.21345,3.53256c0.20003,0.52359 0.75303,0.79916 1.93388,0.96324c0.56708,0.07896 1.24624,0.21329 1.50946,0.29863c2.72191,0.88383 5.55866,1.18228 12.60175,1.32605c4.4983,0.09204 4.55045,0.08646 5.39495,-0.5781c0.33148,-0.2611 0.78152,-0.52977 1.00012,-0.59704c0.29341,-0.09058 0.6019,-0.33066 1.18109,-0.91978c0.43924,-0.4465 0.97089,-0.88731 1.20888,-1.00184c0.23381,-0.1124 0.65941,-0.3565 0.94589,-0.54221c0.28649,-0.18599 0.81822,-0.47783 1.18151,-0.64853c0.36356,-0.17069 1.17381,-0.57983 1.80129,-0.90916c2.09504,-1.09996 3.32686,-1.43853 4.93286,-1.35636c1.12733,0.05755 1.17283,0.02678 1.27488,-0.85817c0.04257,-0.36981 0.30649,-1.61478 0.58648,-2.76634c0.44937,-1.84904 0.52467,-2.30081 0.64572,-3.86749c0.16844,-2.18092 0.16394,-2.20414 -0.50428,-2.59902c-0.87482,-0.51684 -2.71274,-2.4742 -3.06904,-3.26908c-0.78093,-1.74065 -0.001,-4.02706 1.59468,-4.67648c0.84781,-0.34506 1.0164,-0.7099 1.11996,-2.42287c0.08154,-1.35128 0.13327,-1.51631 0.84722,-2.69481c0.29236,-0.483 0.59352,-0.99308 0.66929,-1.13423c0.1944,-0.3613 0.18831,-1.04158 -0.01156,-1.36442c-0.09154,-0.1472 -0.29902,-0.4746 -0.46117,-0.72729c-0.33365,-0.5199 -0.35269,-0.68467 -0.13162,-1.12777c0.32201,-0.64543 2.14405,-1.58695 3.03617,-1.5693c1.67085,0.03306 1.09718,-2.39854 -0.69789,-2.95919c-0.93024,-0.29047 -2.50582,-0.28116 -3.19358,0.01915c-0.59887,0.26105 -1.75722,0.68533 -2.3078,0.84462c-0.18086,0.0526 -0.69076,0.29887 -1.1327,0.5476c-1.8017,1.01324 -2.98892,0.51694 -2.31489,-0.9683c0.17448,-0.38427 0.30819,-0.53115 0.65473,-0.71815c0.23966,-0.12936 0.69956,-0.39536 1.02204,-0.59138c0.32248,-0.19602 0.77666,-0.40953 1.00954,-0.47459c1.374,-0.38422 0.97189,-0.8961 -1.25547,-1.59804c-0.42993,-0.13573 -0.86462,0.24752 -1.16392,1.02586c-0.56844,1.47906 -0.98516,1.85909 -1.88481,1.7204c-1.10856,-0.17119 -1.19044,-1.34975 -0.16665,-2.40509c0.27239,-0.28099 0.56841,-0.64248 0.65778,-0.80318c0.08938,-0.16098 0.35613,-0.40767 0.59243,-0.54839c0.45393,-0.27024 1.68094,-1.75692 1.68661,-2.04348c0.00908,-0.45859 -0.4797,-0.50103 -0.98662,-0.08534c-0.20545,0.16832 -0.5166,0.37612 -0.69123,0.46161c-0.17463,0.08577 -0.58538,0.33126 -0.91264,0.54591c-0.32726,0.21465 -0.82171,0.45876 -1.09872,0.54195c-0.27702,0.08347 -0.60479,0.21246 -0.72852,0.28684c-0.22713,0.1365 -1.43442,0.36265 -1.91653,0.35917c-0.47577,-0.00335 -0.72573,-0.38308 -0.64373,-0.97846c0.08585,-0.62256 -0.04937,-0.7475 -0.99357,-0.91682c-0.34355,-0.0616 -1.36942,-0.32037 -2.27943,-0.57519c-2.4688,-0.69074 -4.61751,-0.97035 -4.96264,-0.64563M181.43479,202.5051c-0.97108,0.47948 -1.898,1.05099 -2.30684,1.42236c-0.20947,0.19027 -0.5198,0.41241 -0.68966,0.49359c-1.18875,0.5688 -1.81917,2.64778 -2.27047,7.48896c-0.09793,1.05246 -0.25522,2.66936 -0.3495,3.59302c-0.14733,1.44746 -0.16059,2.02025 -0.09516,4.14135l0.07632,2.4614l0.33205,0.50334c0.63684,0.96511 0.62859,1.57682 -0.03156,2.29074c-0.22287,0.24122 -0.46605,0.52087 -0.54046,0.62156c-0.39556,0.53548 -0.9162,0.44725 -1.32258,-0.22416c-0.31626,-0.52231 -0.50727,-0.61035 -2.36074,-1.08651c-1.17455,-0.30164 -1.57056,-0.36979 -1.77069,-0.3038l-0.25751,0.08523l-0.02832,1.30607c-0.03918,1.79905 -0.5357,3.44256 -1.42533,4.7181c-0.14907,0.21377 -0.32507,0.50741 -0.39099,0.65233c-0.19892,0.43666 -1.373,1.6146 -1.87786,1.88384c-0.25995,0.13887 -0.72221,0.39904 -1.02729,0.5786c-0.31512,0.1857 -0.78295,0.36507 -1.08356,0.41585c-0.29066,0.04904 -0.85089,0.16628 -1.2446,0.26038c-0.91858,0.21947 -2.08106,0.19894 -3.14447,-0.05561c-0.44729,-0.10688 -1.12835,-0.22885 -1.51332,-0.27061c-0.3847,-0.04176 -0.99254,-0.16173 -1.35038,-0.26685c-1.07076,-0.31418 -2.69428,-0.58202 -4.42702,-0.73031c-4.34873,-0.37243 -4.31063,-0.36369 -5.58456,-1.30726c-0.56748,-0.42071 -0.61835,-0.50791 -0.95487,-1.63423c-0.34942,-1.17063 -0.36466,-1.87534 -0.05634,-2.62238c0.13623,-0.32968 0.30202,-0.76204 0.36872,-0.96008c0.06644,-0.19833 0.27332,-0.52248 0.45926,-0.72037c0.63234,-0.67261 0.41789,-0.71788 -1.95471,-0.41152c-2.61059,0.33717 -4.66392,0.48434 -6.30421,0.45189c-1.72398,-0.03412 -1.83295,-0.00984 -2.42372,0.53775c-0.29231,0.27124 -0.76145,0.57313 -1.15782,0.74538c-1.0491,0.45619 -1.2483,0.83694 -0.96422,1.84436c0.54857,1.94671 -0.85817,4.22263 -2.83481,4.58584c-0.44717,0.08203 -0.98301,0.21957 -1.19041,0.30524c-0.7127,0.29432 -2.74933,0.25153 -3.59871,-0.07561c-0.3826,-0.14746 -0.86275,-0.31971 -1.0672,-0.38296c-0.70011,-0.2168 -1.85166,-1.52778 -2.51988,-2.86911c-0.28736,-0.57681 -1.89478,-1.12961 -2.45448,-0.84439c-0.29153,0.14872 -0.36523,0.33809 -0.74068,1.90331c-0.17196,0.71642 -0.51333,1.86677 -0.75911,2.55612c-0.24551,0.68963 -0.56234,1.63009 -0.7039,2.09019c-0.14155,0.45983 -0.36163,1.0332 -0.48921,1.27411c-0.39161,0.73934 -0.63607,1.38961 -0.74208,1.97405c-0.1227,0.67636 -0.69668,1.85021 -0.99669,2.03841c-0.11962,0.07501 -0.36089,0.32771 -0.53597,0.56162c-0.66045,0.88244 0.50872,0.82985 -13.19705,0.59198c-13.73769,-0.23878 -12.25882,-0.32875 -12.45106,0.75847c-0.06355,0.35865 -0.17909,0.85396 -0.25722,1.10052c-0.12544,0.39708 -0.12545,0.52293 0.00035,1.09599c0.14142,0.64634 0.14136,0.64937 -0.12413,1.41653c-0.58211,1.68284 -0.70811,3.59666 -0.49991,7.59009c0.07246,1.38985 0.16274,3.24324 0.20022,4.11801c0.06899,1.60678 0.20447,3.3187 0.27188,3.43293c0.01998,0.03399 0.12722,0.68213 0.23834,1.43995c0.3025,2.06604 0.02871,1.91688 3.20521,1.74539c1.05028,-0.0566 2.91966,-0.12013 4.15457,-0.14113c2.39516,-0.04073 2.67841,-0.09075 2.85481,-0.50307c0.1227,-0.28671 0.46314,-1.79369 0.5704,-2.52461c0.04165,-0.28198 0.2061,-1.07813 0.366,-1.76918c0.63993,-2.76777 0.82668,-4.03656 1.07695,-7.31899c0.31656,-4.15542 0.62134,-5.02948 2.3791,-6.82785c1.17005,-1.19675 1.31716,-1.28305 2.32637,-1.36525c0.45097,-0.03679 1.08154,-0.17439 1.55071,-0.33831c1.77354,-0.61974 2.91758,-0.05655 3.85647,1.89844c0.69055,1.43761 0.62043,1.97513 -0.6244,4.79426c-0.1649,0.37372 -0.35162,0.95905 -0.41484,1.30091c-0.29609,1.60369 -0.51204,2.21928 -1.20059,3.42225c-1.02741,1.79547 -1.3071,2.34756 -1.49418,2.95133c-0.09412,0.30352 -0.35691,0.90607 -0.58411,1.33859c-0.2272,0.43252 -0.49161,1.04743 -0.58769,1.36606c-0.11818,0.39172 -0.32606,0.76624 -0.64109,1.15627c-0.95608,1.18225 -0.75583,1.55521 1.30849,2.43897c0.8675,0.37157 2.06251,1.09989 3.08712,1.88184c0.31957,0.24369 0.83952,0.54697 1.15562,0.67384c0.31582,0.12686 0.8453,0.3659 1.17634,0.53134c0.98164,0.49031 1.27517,0.40745 1.94622,-0.55106c0.61522,-0.87865 1.25113,-2.41366 1.35221,-3.26338c0.07895,-0.66373 0.1483,-0.81492 0.79891,-1.74216c0.16633,-0.23711 0.33428,-0.58324 0.37293,-0.76917c0.03864,-0.18566 0.24769,-0.71685 0.46477,-1.18014c0.2168,-0.46329 0.50093,-1.17033 0.63111,-1.5709c0.29613,-0.91003 0.53521,-1.42768 1.01323,-2.19229c0.20618,-0.33023 0.44932,-0.8723 0.54016,-1.20481c0.19417,-0.7113 0.81814,-2.33852 1.1742,-3.06231c0.13773,-0.28035 0.25394,-0.67073 0.25839,-0.86754c0.00445,-0.19708 0.14599,-0.65635 0.31429,-1.02064c0.2986,-0.64479 0.30581,-0.68954 0.27614,-1.69496c-0.02283,-0.78086 0.00407,-1.11022 0.11014,-1.3499c0.07752,-0.17415 0.18456,-0.58757 0.2382,-0.91888c0.1785,-1.10209 0.73534,-1.56361 2.00482,-1.66185c0.48595,-0.03747 1.17933,-0.135 1.54114,-0.21679c0.55377,-0.12535 1.14363,-0.13985 3.74191,-0.09201c3.85738,0.07081 3.63564,0.15786 3.8154,-1.49577c0.06764,-0.621 0.20989,-1.2554 0.40622,-1.8119c0.16627,-0.4709 0.30396,-0.94374 0.30607,-1.05054c0.00825,-0.41675 0.28769,-0.71964 1.01587,-1.10066c0.39985,-0.20908 1.00884,-0.63404 1.35396,-0.94417c0.64117,-0.57606 1.89116,-1.45647 2.46143,-1.73378c0.25469,-0.12383 0.50899,-0.14441 1.27428,-0.10421l0.95619,0.05059l0.82029,0.57276c0.45115,0.31514 1.17837,0.92929 1.61612,1.36533c0.56494,0.56274 0.96607,0.87304 1.38322,1.0702c0.38222,0.18077 0.6764,0.39918 0.84183,0.62495c0.13969,0.19111 0.46101,0.45742 0.71417,0.59186c0.25288,0.13471 0.69019,0.39836 0.97175,0.58649c0.28129,0.18786 0.74524,0.42725 1.03066,0.53176c0.75237,0.27566 1.35964,0.71699 1.79929,1.30782c0.386,0.51873 0.87202,0.81143 2.23065,1.34306c0.19948,0.07802 0.55605,0.33016 0.79245,0.56009c0.23639,0.23021 0.56007,0.48885 0.71918,0.57516c0.35201,0.19092 0.41386,0.30752 0.80253,1.51225c0.48208,1.49407 0.47527,3.06272 -0.02518,5.71208c-0.20304,1.07599 -0.40528,2.37643 -0.44931,2.88967c-0.04403,0.51352 -0.14198,1.16366 -0.2175,1.44525c-0.35705,1.33069 -0.89427,3.98759 -1.03568,5.12207c-0.08613,0.69278 -0.22831,1.65762 -0.31615,2.14439c-0.08784,0.48677 -0.19614,1.3537 -0.24078,1.92614l-0.08117,1.04068l0.24769,0.25797l0.24797,0.2577l2.91603,0.02162c3.23625,0.02356 3.3437,0.00668 3.65605,-0.58166c0.32062,-0.60306 0.84753,-2.0287 0.96273,-2.60387c0.06933,-0.34477 0.27244,-0.85377 0.496,-1.24147c0.45797,-0.79475 0.80902,-1.65522 1.02391,-2.5093c0.08815,-0.3499 0.29677,-0.97032 0.46401,-1.37841c0.23757,-0.58074 0.32449,-0.96537 0.39821,-1.76882c0.07688,-0.83754 0.15746,-1.18043 0.43722,-1.8614c0.18863,-0.45916 0.39343,-1.0813 0.45501,-1.38272c0.06159,-0.30142 0.2877,-1.05449 0.50234,-1.67313c0.46547,-1.34066 0.57241,-1.88791 0.73042,-3.73666c0.23718,-2.77408 0.65037,-3.44855 2.05421,-3.35111c1.10795,0.07727 1.3343,0.60606 0.86408,2.01988c-0.11626,0.35017 -0.31304,0.97137 -0.43707,1.38032c-0.12402,0.40895 -0.40259,1.1406 -0.61899,1.62593c-0.21613,0.48533 -0.51176,1.31468 -0.65632,1.84301c-0.14483,0.52833 -0.34861,1.1549 -0.45299,1.39185c-0.36934,0.83863 -0.88699,2.14439 -0.88893,2.24238c-0.00314,0.15855 -0.39344,0.84558 -0.68102,1.19843c-0.14507,0.17805 -0.31814,0.49102 -0.38441,0.69542c-0.06655,0.20438 -0.29174,0.72975 -0.50086,1.1673c-0.36256,0.75973 -0.38517,0.85925 -0.49655,2.18764c-0.06416,0.76564 -0.18788,1.63227 -0.27493,1.92602c-0.8021,2.71086 -0.44027,3.42105 2.00848,3.94258c0.49523,0.10535 2.04931,0.59872 3.45378,1.09602l2.55352,0.90446l1.32635,0.10335l1.32634,0.10362l0.99957,0.48874c0.54983,0.26863 1.27193,0.54314 1.60492,0.60976c0.33298,0.0669 0.82202,0.19306 1.08658,0.28035c0.6878,0.22675 0.76625,0.17295 1.65549,-1.13868c0.21671,-0.3201 0.51768,-0.90317 0.66836,-1.29589c0.1507,-0.393 0.42995,-1.08995 0.62022,-1.54908c0.27558,-0.66481 0.36338,-1.02463 0.43096,-1.7679c0.05593,-0.61435 0.1472,-1.05149 0.26707,-1.2785c0.10013,-0.18967 0.25214,-0.62148 0.33759,-0.95959c0.08545,-0.33785 0.33131,-1.0316 0.54627,-1.54146c0.21497,-0.51014 0.50203,-1.32342 0.63801,-1.80758c0.24408,-0.8681 0.4499,-1.33326 0.96654,-2.18412c0.14488,-0.23836 0.39215,-0.87812 0.5494,-1.42134l0.28611,-0.98788l-0.17512,-0.66877c-0.21916,-0.83706 -0.10635,-1.79257 0.37659,-3.19512c0.43823,-1.27236 0.98197,-3.04738 0.98533,-3.21722c0.0054,-0.27279 0.26238,-0.80495 0.5444,-1.12679c0.42712,-0.48804 0.44733,-0.63276 0.59939,-4.30982c0.09357,-2.26555 0.20474,-3.90429 0.30715,-4.52874c0.13684,-0.83387 0.19906,-2.8927 0.42031,-13.90786l0.25968,-12.92906l-0.21658,-0.67482c-0.11905,-0.37135 -0.25484,-0.95452 -0.3015,-1.2958c-0.09796,-0.7135 -0.20902,-1.0712 -0.64098,-2.0642c-0.17041,-0.3922 -0.37626,-0.92691 -0.45756,-1.18819c-0.08102,-0.26128 -0.28306,-0.64143 -0.44894,-0.84463c-0.16588,-0.20348 -0.43361,-0.5618 -0.59529,-0.79631c-0.47781,-0.6943 -1.52736,-1.7882 -1.76319,-1.83775c-0.53666,-0.11306 -0.83442,-0.06773 -1.40477,0.2137M103.98664,203.65141c1.1679,0.35906 1.7055,1.06529 3.1139,4.09168l0.67249,1.44552l-0.05548,2.62319l-0.05548,2.62319l-0.47942,1.25282c-0.26367,0.689 -0.62913,1.66512 -0.8123,2.16873c-0.18291,0.50389 -0.4845,1.17534 -0.66976,1.49193c-0.18553,0.31658 -0.33842,0.63959 -0.33997,0.71777c-0.00527,0.26618 -0.37728,0.59946 -1.03866,0.93058c-1.7063,0.85403 -1.61648,1.18571 0.37129,1.37346c1.454,0.13754 2.05692,0.28385 3.28318,0.79745c0.50334,0.2107 1.06149,0.43461 1.24007,0.49735c0.6164,0.2168 1.58394,1.07142 1.97514,1.74473c0.19947,0.34293 0.53097,0.83277 0.73684,1.08826c0.90926,1.12828 0.81924,2.25443 -0.32954,4.11524c-1.00794,1.63229 -1.11909,1.73886 -2.02743,1.94201c-0.52138,0.11663 -1.26458,0.49075 -2.13002,1.07256c-0.33239,0.22363 -0.94197,0.53871 -1.35465,0.70073c-0.41268,0.16201 -0.88511,0.39279 -1.05023,0.51317c-0.46325,0.3378 -0.81671,0.48556 -1.42942,0.59681c-0.3098,0.05638 -1.26318,0.29471 -2.11872,0.52947c-3.6985,1.01564 -8.50326,1.21412 -12.16153,0.5026c-1.31479,-0.25595 -1.48238,-0.34491 -1.75788,-0.9369c-0.37191,-0.79905 -0.75727,-1.07158 -2.18371,-1.54398c-0.46289,-0.15345 -0.64224,-0.28863 -1.25052,-0.94338c-1.20471,-1.29632 -1.35354,-1.95768 -0.89169,-3.96426c0.40793,-1.77331 0.79746,-2.37913 2.01148,-3.12615c0.37885,-0.23345 1.09417,-0.70203 1.58968,-1.04167c1.45832,-0.99994 2.69809,-1.47548 4.16604,-1.59789c2.06953,-0.17274 2.47864,-0.22357 3.84924,-0.47788c1.73073,-0.32098 1.7927,-0.34977 1.72947,-0.79988c-0.14821,-1.05458 -0.14763,-1.11211 0.01328,-1.40881c0.14633,-0.27 0.16239,-0.60839 0.16159,-3.44859c-0.00127,-4.27792 0.14622,-5.46901 1.01382,-8.17802c0.52008,-1.62349 0.70201,-2.06434 1.13843,-2.75762c0.21523,-0.34216 0.5726,-0.96541 0.79404,-1.3851c0.6978,-1.32257 2.36929,-1.79507 4.27649,-1.20908M101.53237,206.06801c-1.04632,0.66331 -1.65193,1.91915 -1.86336,3.86514c-0.43233,3.97993 -0.4616,4.44307 -0.45611,7.25555c0.00711,3.60723 0.00181,3.59666 1.6674,3.29725c1.82614,-0.3279 3.07633,-1.39915 3.74941,-3.21237c0.17046,-0.45953 0.40893,-1.08596 0.52954,-1.39199c0.22815,-0.57762 0.2419,-1.17518 0.03219,-1.38999c-0.16301,-0.16707 -0.33571,0.12663 -0.67652,1.15171c-0.5326,1.60204 -1.48163,2.19156 -2.24628,1.39575c-0.45438,-0.47244 -0.40079,-1.21846 0.20053,-2.80042c0.85578,-2.25048 1.23597,-2.60755 2.24134,-2.10575c0.63262,0.3157 0.65806,0.25425 0.72763,-1.77276l0.06054,-1.76531l-0.31073,-0.66209c-0.87777,-1.87035 -2.41181,-2.65274 -3.65556,-1.86472M90.15998,206.19849c-0.6648,0.16997 -1.8394,1.03976 -2.0647,1.52904c-0.1079,0.23413 -0.33622,0.6121 -0.50789,0.8403c-0.47455,0.63057 -0.98991,1.66761 -1.22659,2.46784c-0.11688,0.39559 -0.36758,1.09724 -0.55708,1.55914c-0.857,2.08991 -0.8527,2.06768 -0.90858,4.68288c-0.05862,2.73989 -0.11,2.58108 0.97416,3.01146c1.18935,0.47211 3.71898,0.45497 5.01519,-0.03405c0.51827,-0.19572 1.43153,-1.30199 1.6488,-1.99769c1.04251,-3.33808 1.12487,-4.86999 0.44122,-8.20092c-0.47719,-2.32532 -1.33799,-3.74537 -2.39202,-3.94522c-0.02578,-0.00492 -0.21574,0.03429 -0.42249,0.0872M88.39717,212.09347c0.40279,0.47747 0.39785,0.78249 -0.02674,1.6718c-0.29504,0.61816 -0.49124,1.47398 -0.50722,2.21221c-0.02489,1.16047 -1.00123,1.58533 -1.59047,0.69193c-0.29222,-0.44307 -0.20686,-1.59739 0.21884,-2.96032c0.58621,-1.8758 1.22757,-2.41963 1.9056,-1.61562M148.46814,221.15079c0.08954,0.02545 0.23681,0.02836 0.32729,0.00647c0.0902,-0.02163 0.01709,-0.04235 -0.16294,-0.04591c-0.17975,-0.00356 -0.2539,0.01425 -0.16435,0.03943M97.1764,224.91857c-1.36909,0.19238 -3.39104,0.56295 -5.84198,1.0707c-0.25356,0.05253 -0.2721,0.23832 -0.05804,0.58154c0.35578,0.57045 0.06113,3.78536 -0.39471,4.30561c-0.48572,0.55462 -1.7206,0.5189 -2.13484,-0.06152c-0.27142,-0.38043 -0.28813,-2.29156 -0.02988,-3.4163c0.19439,-0.8476 0.16512,-0.94126 -0.29946,-0.95348c-1.83109,-0.04835 -3.9823,4.79528 -2.35354,5.29949c0.53836,0.16651 1.38377,0.4721 1.94044,0.70121c0.33133,0.13653 1.04272,0.42295 1.58042,0.63682c1.11475,0.44282 1.28515,0.52963 1.81788,0.92487c0.69584,0.51605 3.87666,0.61341 6.43153,0.1972c0.51606,-0.08424 1.16994,-0.17512 1.45328,-0.20201c0.4224,-0.04011 3.09057,-0.79691 4.98384,-1.41373c0.23281,-0.07581 0.77503,-0.22974 1.20518,-0.34185c0.42987,-0.11211 0.95975,-0.31035 1.17739,-0.44043c3.24817,-1.94236 4.30036,-3.18081 3.74668,-4.41029c-0.18835,-0.4176 -3.08083,-1.97727 -4.3439,-2.34207c-1.1571,-0.33434 -6.84731,-0.42132 -8.88025,-0.13578M102.21565,225.42307c0.82329,0.47671 0.8518,0.6783 0.3637,2.55025c-0.58314,2.23549 -0.74018,2.47637 -1.60367,2.45845c-1.14508,-0.02376 -1.41154,-0.79402 -0.95355,-2.75854c0.46432,-1.99249 1.24881,-2.7973 2.19352,-2.25017M185.59659,228.0345c0.7369,0.24975 0.85364,0.51531 0.50361,1.14339c-0.28637,0.51395 -0.28983,0.60531 -0.04526,1.22974c0.42202,1.07817 -0.50146,1.75383 -1.88242,1.37678c-0.32182,-0.08788 -0.5751,-0.09096 -1.06708,-0.01286c-1.624,0.25701 -2.09886,-0.90592 -0.90325,-2.2112c0.20209,-0.22071 0.41982,-0.5642 0.48378,-0.76312c0.17754,-0.55301 0.36639,-0.66162 1.30164,-0.74914c0.45631,-0.04275 0.91554,-0.09369 1.02056,-0.11309c0.10475,-0.01941 0.3696,0.02521 0.58843,0.09948M97.10339,230.97529c1.54388,0.3128 1.08665,1.87723 -0.59251,2.0274c-0.32992,0.02927 -0.87397,0.15041 -1.20869,0.26908c-1.25567,0.44438 -2.0801,0.10864 -2.06135,-0.83909c0.01561,-0.78891 2.51204,-1.73085 3.86256,-1.45739M108.22094,246.8705c-0.06456,0.04774 -0.18977,0.05765 -0.27801,0.02176c-0.08851,-0.0359 -0.13176,-0.0351 -0.09614,0.00168c0.09442,0.09852 -0.23079,0.30715 -0.47639,0.3056c-0.27396,-0.00157 -0.54037,0.14407 -1.03642,0.56686c-0.221,0.18867 -0.44516,0.34202 -0.49773,0.34098c-0.0523,-0.00104 -0.09674,0.06004 -0.09824,0.13574c-0.0015,0.0757 -0.10813,0.3575 -0.23682,0.62647c-0.45066,0.94002 -0.52485,1.47497 -0.70771,5.10791c-0.0767,1.5246 -0.15545,2.35962 -0.23564,2.50122c-0.06648,0.11709 -0.15131,0.50755 -0.18845,0.86754c-0.03742,0.35999 -0.09574,0.60778 -0.1293,0.55066c-0.03384,-0.05712 -0.07084,0.11508 -0.08219,0.38252c-0.02051,0.48012 -0.01892,0.48318 0.11967,0.22845c0.07715,-0.14194 0.14257,-0.35846 0.145,-0.48096c0.00243,-0.12278 0.0424,-0.22221 0.08892,-0.2213c0.04679,0.00092 0.06571,-0.07828 0.0423,-0.17568c-0.02368,-0.09739 0.0035,-0.20453 0.06006,-0.23811c0.05656,-0.0333 0.10478,-0.16012 0.10719,-0.28179c0.0024,-0.12139 0.11228,-0.34419 0.24413,-0.49469c0.13186,-0.1505 0.26759,-0.39977 0.30149,-0.55441c0.03417,-0.15436 0.18961,-0.39747 0.34526,-0.54006c0.28186,-0.25795 0.55834,-0.75972 0.56353,-1.02204c0.0015,-0.07597 0.09976,-0.26844 0.21885,-0.428c0.33353,-0.44804 0.55481,-0.87324 0.55877,-1.07335c0.00198,-0.09993 0.04622,-0.20699 0.09833,-0.23763c0.05183,-0.03092 0.0961,-0.13909 0.0981,-0.24038c0.00201,-0.10157 0.11291,-0.39017 0.24648,-0.64114c0.13356,-0.25097 0.2439,-0.51095 0.24522,-0.57756c0.00132,-0.06662 0.26477,-0.61985 0.58525,-1.22924c0.32075,-0.60966 0.58418,-1.16124 0.58547,-1.22621c0.00129,-0.06496 0.04308,-0.11728 0.0929,-0.1163c0.04983,0.00098 0.06916,-0.05756 0.04278,-0.12995c-0.02611,-0.07239 -0.00209,-0.15865 0.05363,-0.19142c0.05546,-0.03277 0.10254,-0.14392 0.10457,-0.24659c0.00235,-0.11891 0.04312,-0.16162 0.11192,-0.1173c0.07369,0.04745 0.08915,0.01746 0.04841,-0.0946c-0.03264,-0.09042 -0.05731,-0.27678 -0.05487,-0.41387c0.00997,-0.54559 -0.59959,-0.95474 -0.9903,-0.66479M104.89318,266.76634c-0.13829,0.33679 -0.06154,1.07851 0.19351,1.86892c0.11365,0.35197 0.27255,0.88025 0.3532,1.17402c0.54048,1.96611 2.81033,4.0003 4.04048,3.62095c0.77244,-0.23806 3.01324,-2.73403 3.02583,-3.37044c0.00475,-0.24003 -0.21214,-0.38422 -0.9831,-0.65308c-0.26309,-0.09167 -0.71774,-0.34161 -1.01009,-0.55503c-0.37026,-0.2703 -0.71653,-0.43081 -1.14115,-0.52843c-0.57895,-0.13317 -1.52532,-0.56908 -3.06803,-1.4136c-0.85377,-0.46713 -1.26078,-0.5085 -1.41065,-0.14329M92.13802,267.29244c-1.40193,0.08433 -1.66678,0.3038 -1.2195,1.00989c2.29755,3.6264 4.88808,4.81741 6.61592,3.04186c0.85113,-0.87454 1.29544,-3.90172 0.59706,-4.06644c-0.30699,-0.07243 -4.72498,-0.06154 -5.99348,0.01469M162.17714,269.22597c-0.06279,0.11193 -0.12054,1.22082 -0.15424,2.96573c-0.05813,3.02105 -0.00877,3.53257 0.43034,4.4431c0.12697,0.26329 0.28293,0.81491 0.34694,1.22621c0.15391,0.98916 0.91836,1.94852 2.00074,2.5105l0.66563,0.34527l2.33041,0.01665l2.33041,0.01692l0.64572,-0.34686c1.31316,-0.70513 3.00203,-2.54314 3.31386,-3.60651c0.19547,-0.66611 0.36664,-0.91111 1.14687,-1.64c1.35931,-1.27038 1.4178,-1.94388 0.18993,-2.19481c-0.3069,-0.0628 -0.93316,-0.31035 -1.39103,-0.55045c-0.54591,-0.2859 -1.09206,-0.49002 -1.58488,-0.59229c-0.41329,-0.08556 -1.25729,-0.35091 -1.87518,-0.5895c-0.61789,-0.23858 -1.26243,-0.46668 -1.43236,-0.50694c-0.16993,-0.04027 -0.99812,-0.33918 -1.84011,-0.66398l-1.53122,-0.59068l-1.30352,-0.07426c-0.77072,-0.04389 -1.41868,-0.1272 -1.58541,-0.20375c-0.39515,-0.18158 -0.58645,-0.17187 -0.7029,0.03566M153.18056,269.7086c-0.60027,0.86105 1.57262,4.32967 3.08877,4.93051c0.2806,0.1113 0.60087,0.26358 0.71147,0.33819c0.1106,0.07488 0.60904,0.31028 1.10739,0.52308c1.09608,0.46834 1.2919,0.43862 1.21723,-0.1852c-0.15693,-1.30974 -0.19212,-2.0779 -0.16652,-3.63655c0.02819,-1.70261 0.02337,-1.75145 -0.17857,-1.90002c-0.30018,-0.22128 -5.62955,-0.2857 -5.77976,-0.07003" fill="#090909" fill-rule="evenodd" stroke="none" stroke-width="1"/><path d="M162.16655,269.21718c0.11646,-0.20753 0.30827,-0.21781 0.70341,-0.03624c0.16674,0.07654 0.81597,0.15865 1.58669,0.20254l1.30518,0.07308l1.53359,0.58953c0.84199,0.3248 1.67501,0.62287 1.84494,0.66313c0.16993,0.04026 0.81936,0.26928 1.43726,0.50786c0.6179,0.23858 1.4669,0.50728 1.88019,0.59284c0.49282,0.10228 1.0412,0.30949 1.58711,0.59539c0.45788,0.24009 1.08504,0.48983 1.39194,0.55264c1.22787,0.25093 1.17004,0.92902 -0.18927,2.1994c-0.78023,0.72889 -0.95222,0.97822 -1.1477,1.64433c-0.31184,1.06337 -2.00963,2.90984 -3.32278,3.61497l-0.64738,0.34726l-2.33587,-0.01707l-2.33473,-0.01846l-0.66684,-0.34613c-1.08238,-0.56197 -1.85075,-1.52639 -2.00466,-2.51554c-0.06401,-0.4113 -0.2208,-0.96532 -0.34777,-1.22861c-0.4391,-0.91053 -0.4879,-1.43039 -0.42978,-4.45144c0.0337,-1.74491 0.09366,-2.85754 0.15645,-2.96947" data-paper-data="{&quot;noHover&quot;:false,&quot;origItem&quot;:[&quot;Path&quot;,{&quot;applyMatrix&quot;:true,&quot;segments&quot;:[[[216.083,298.56602],[0,0],[-0.408,-0.762]],[[213.533,298.38602],[1.448,-0.631],[-0.611,0.266]],[[207.761,299.01202],[2.802,-0.104],[0,0]],[203.022,299.18802],[[197.419,301.22302],[0,0],[-3.081,1.119]],[[190.689,303.50202],[0.62,-0.134],[-0.62,0.134]],[[185.451,305.24002],[2.261,-0.822],[-2.261,0.822]],[[178.599,307.24602],[1.507,-0.281],[-1.797,0.336]],[[172.801,309.28302],[2.003,-0.999],[-1.68,0.839]],[[167.71,311.18202],[1.119,-0.206],[-4.477,0.823]],[[168.242,319.16602],[-4.845,-4.711],[2.781,2.703]],[[172.289,325.20402],[-0.662,-2.433],[1.056,3.884]],[[184.064,338.53902],[-4.718,-2.655],[0,0]],[186.384,339.84502],[194.848,339.95102],[203.312,340.05802],[[205.754,338.85202],[0,0],[3.971,-1.963]],[[213.2,329.87902],[-0.63,3.581],[0.262,-1.489]],[[214.548,325.45102],[-0.48,0.947],[1.66,-3.275]],[[216.43,309.34702],[-0.006,10.975],[0.003,-6.339]],[[216.083,298.56602],[0.22,0.411],[0,0]]],&quot;fillColor&quot;:[0,0,0,1]}]}" fill="#ff6cbf" fill-rule="nonzero" stroke="none" stroke-width="0.5"/><path d="M153.17073,269.69896c0.15022,-0.21567 5.49891,-0.15157 5.79909,0.06971c0.20194,0.14857 0.21029,0.20295 0.18211,1.90557c-0.02561,1.55864 0.00703,2.34014 0.16396,3.64988c0.07468,0.62382 -0.12399,0.65606 -1.22007,0.18772c-0.49835,-0.21281 -1.00002,-0.44661 -1.11062,-0.52149c-0.1106,-0.07461 -0.43481,-0.22618 -0.71541,-0.33747c-1.51615,-0.60084 -3.69934,-4.09286 -3.09906,-4.95391" data-paper-data="{&quot;noHover&quot;:false,&quot;origItem&quot;:[&quot;Path&quot;,{&quot;applyMatrix&quot;:true,&quot;segments&quot;:[[[248.719,300.96502],[0,0],[-0.53,-0.794]],[[227.725,300.80402],[1.106,-0.782],[-0.744,0.525]],[[226.94,307.69102],[0.02,-6.185],[-0.019,5.662]],[[226.074,320.88502],[0.664,-4.745],[-0.316,2.26]],[[230.481,321.64502],[-4.014,1.622],[1.825,-0.737]],[[234.54,319.82502],[-0.407,0.264],[0.407,-0.263]],[[237.148,318.64802],[-1.027,0.384],[5.549,-2.073]],[[248.719,300.96502],[2.118,3.17],[0,0]]],&quot;fillColor&quot;:[0,0,0,1]}]}" fill="#ff6cbf" fill-rule="nonzero" stroke="none" stroke-width="0.5"/><path d="M92.12817,267.28282c1.2685,-0.07624 5.70779,-0.08517 6.01478,-0.01273c0.6984,0.16472 0.2546,3.20634 -0.59653,4.08088c-1.72785,1.77556 -4.34325,0.57294 -6.64079,-3.05345c-0.44728,-0.70609 -0.17939,-0.93036 1.22254,-1.0147" data-paper-data="{&quot;noHover&quot;:false,&quot;origItem&quot;:[&quot;Path&quot;,{&quot;applyMatrix&quot;:true,&quot;segments&quot;:[[[470.566,296.57702],[0,0],[-4.601,-0.368]],[[448.802,296.09302],[1.12,-0.241],[-2.548,0.548]],[[450.678,310.90302],[-3.028,-3.237],[6.147,6.572]],[[474.922,300.33202],[-8.604,13.004],[1.675,-2.532]],[[470.566,296.57702],[5.085,0.407],[0,0]]],&quot;fillColor&quot;:[0,0,0,1]}]}" fill="#ff6cbf" fill-rule="nonzero" stroke="none" stroke-width="0.5"/><path d="M104.8828,266.7573c0.14987,-0.36521 0.55901,-0.32582 1.41278,0.14131c1.54271,0.84453 2.50277,1.27881 3.08172,1.41198c0.42462,0.09763 0.77711,0.26347 1.14737,0.53377c0.29236,0.21342 0.7488,0.46778 1.01189,0.55945c0.77095,0.26887 0.98815,0.41606 0.9834,0.65609c-0.01259,0.63642 -2.26384,3.14562 -3.03629,3.38368c-1.23016,0.37936 -3.51704,-1.66914 -4.05752,-3.63524c-0.08065,-0.29377 -0.23864,-0.82613 -0.35229,-1.1781c-0.25505,-0.79041 -0.32936,-1.53614 -0.19107,-1.87294" data-paper-data="{&quot;noHover&quot;:false,&quot;origItem&quot;:[&quot;Path&quot;,{&quot;applyMatrix&quot;:true,&quot;segments&quot;:[[[424.284,293.75002],[0,0],[-0.518,-1.337]],[[419.151,294.16902],[3.134,-1.635],[-5.663,2.956]],[[407.908,299.08202],[2.112,-0.442],[-1.549,0.324]],[[403.726,300.91902],[1.364,-0.955],[-1.077,0.754]],[[400.018,302.86202],[0.962,-0.314],[-2.819,0.921]],[[396.401,305.16302],[0,-0.872],[0,2.312]],[[407.147,317.62002],[-2.788,-0.92],[4.44,1.466]],[[422.08,304.76102],[-2.104,7.101],[0.314,-1.061]],[[423.447,300.52302],[-0.438,1.27],[0.983,-2.852]],[[424.284,293.75002],[0.478,1.233],[0,0]]],&quot;fillColor&quot;:[0,0,0,1]}]}" fill="#ff6cbf" fill-rule="nonzero" stroke="none" stroke-width="0.5"/></g><text transform="translate(293.75244,106.68484) scale(0.5,0.5)" font-size="40" xml:space="preserve" fill="#9966ff" fill-rule="nonzero" stroke="none" stroke-width="1" stroke-linecap="butt" stroke-linejoin="miter" stroke-miterlimit="10" stroke-dasharray="" stroke-dashoffset="0" font-family="&quot;OCR A&quot;, Sans Serif" font-weight="normal" text-anchor="start" style="mix-blend-mode: normal"><tspan x="0" dy="0">when player(MOO)</tspan><tspan x="0" dy="46.15px">touches an interaction</tspan><tspan x="0" dy="46.15px">trigger a tooltip</tspan><tspan x="0" dy="46.15px">should pop up above MOO</tspan><tspan x="0" dy="46.15px">saying that the player </tspan><tspan x="0" dy="46.15px">should press the interact</tspan><tspan x="0" dy="46.15px">key</tspan></text><text transform="translate(290.5895,267.24111) scale(0.34381,0.34381)" font-size="40" xml:space="preserve" fill="#9966ff" fill-rule="nonzero" stroke="none" stroke-width="1" stroke-linecap="butt" stroke-linejoin="miter" stroke-miterlimit="10" stroke-dasharray="" stroke-dashoffset="0" font-family="&quot;OCR A&quot;, Sans Serif" font-weight="normal" text-anchor="start" style="mix-blend-mode: normal"><tspan x="0" dy="0">(will use looks+ to edit</tspan><tspan x="0" dy="46.15px">SVG to have the actual </tspan><tspan x="0" dy="46.15px">interact key)</tspan></text></g></g></svg>