<svg version="1.1" xmlns="http://www.w3.org/2000/svg" xmlns:xlink="http://www.w3.org/1999/xlink" width="197.21868" height="158.00045" viewBox="0,0,197.21868,158.00045"><g transform="translate(-225.57904,-104.35526)"><g data-paper-data="{&quot;isPaintingLayer&quot;:true}" stroke="none" stroke-linecap="butt" stroke-linejoin="miter" stroke-miterlimit="10" stroke-dasharray="" stroke-dashoffset="0" style="mix-blend-mode: normal"><path d="M404.41593,136.17823c4.39738,2.39376 8.14597,13.1098 7.46817,21.35081c-0.19245,2.33864 -0.20701,2.3716 -0.95195,2.6975c-0.32225,0.1414 -0.86801,0.46856 -1.21058,0.72591c-1.85493,1.39498 -5.21451,1.27275 -7.81025,-0.28608c-0.48688,-0.29238 -1.15458,-0.67787 -1.47923,-0.85571c-3.84458,-2.10267 -4.17389,-15.15745 -0.54794,-21.69065c1.42259,-2.56254 2.52565,-3.03363 4.53179,-1.94178" data-paper-data="{&quot;noHover&quot;:false,&quot;origItem&quot;:[&quot;Path&quot;,{&quot;applyMatrix&quot;:true,&quot;segments&quot;:[[[966.45401,156.90104],[0,0],[-8.366,-4.21]],[[948.17601,165.44704],[5.492,-10.69],[-13.998,27.254]],[[953.27401,254.08704],[-16.034,-8.11],[1.354,0.686]],[[959.43601,257.39504],[-2.034,-1.134],[10.844,6.046]],[[991.42201,257.54304],[-7.418,5.962],[1.37,-1.1]],[[996.27801,254.41304],[-1.302,0.622],[3.01,-1.434]],[[999.80801,243.24304],[-0.48,9.61],[1.69,-33.864]],[[966.45401,156.90104],[18.338,9.23],[0,0]]],&quot;fillColor&quot;:[0,0,0,1]}]}" fill="#fbfbfb" fill-rule="nonzero" stroke-width="0.5"/><path d="M392.25744,114.01209c-0.02612,0.40175 -0.12055,1.38599 -0.20982,2.18783c-0.20665,1.85506 0.05251,2.22978 1.58866,2.30805c1.89668,0.09623 2.147,-0.10543 2.38079,-2.18214c0.14569,-1.29583 0.54338,-2.19831 0.98495,-2.22606c0.08607,-0.00552 0.17088,0.69226 0.18765,1.55023c0.02732,1.36387 0.08542,1.6432 0.45779,2.21785c0.31798,0.49093 0.41963,0.85213 0.40117,1.42542c-0.0924,2.86892 2.48995,3.368 4.097,0.79041c1.09296,-1.75283 3.13474,-3.74107 5.12405,-4.99069l1.68485,-1.05815l1.61018,-0.03659c3.04687,-0.06973 3.94609,0.45415 4.5546,2.65169c0.62596,2.26204 0.5183,2.66496 -1.38378,5.13008c-1.27266,1.64993 -2.03662,2.04034 -4.73357,2.32094c-2.38846,0.24808 -3.04649,2.09913 -1.39521,3.86033c0.78034,0.83229 0.94061,0.85597 2.60813,0.37043c2.4897,-0.725 2.25134,-1.33328 2.92857,7.41202c0.13157,1.70296 0.29694,3.39257 0.36588,3.75199c0.32744,1.71221 -0.04618,2.84698 -0.53031,1.66654c-0.15705,-0.38131 -0.49653,-0.99292 -0.75508,-1.35944c-0.25901,-0.36703 -0.81383,-1.22279 -1.23401,-1.90391c-1.99697,-3.23975 -4.8065,-5.63156 -7.14503,-6.08556c-2.56159,-0.49779 -5.71551,1.0257 -6.32443,3.05226c-0.11968,0.39778 -0.32495,0.938 -0.49444,1.24585c-3.6157,6.56329 -4.11632,20.47149 -0.85894,23.71425c0.22223,0.22139 0.47922,0.66931 0.57123,0.99435c0.33601,1.18838 2.43203,3.03905 4.41781,3.8843c3.72217,1.58487 7.46104,1.50998 10.20385,-0.20973c0.57226,-0.35831 1.45594,-0.89805 1.96539,-1.20031c0.54975,-0.32634 1.14234,-0.85508 1.46036,-1.30502c0.36452,-0.51482 0.62058,-0.67905 0.70144,-0.53834c0.12661,0.22075 0.49112,3.79558 0.60651,5.94016c0.03842,0.71616 0.11999,1.74432 0.18219,2.28264c0.10755,0.93359 0.22515,2.67422 0.44019,6.43679c0.14294,2.50122 -0.21549,13.30545 -0.45989,13.89392c-0.21265,0.51141 -0.98086,1.34323 -1.23339,1.3351c-0.0858,-0.00277 -0.86847,0.29321 -1.7386,0.65754c-5.46656,2.28686 -12.60339,2.94995 -26.91868,2.48886c-7.62052,-0.24546 -7.14844,-0.13108 -9.62504,-2.29754c-1.09024,-0.95304 -2.1837,-1.89033 -2.4274,-2.08167c-0.24417,-0.19184 -0.97948,-0.77844 -1.63257,-1.30407c-1.43751,-1.15602 -3.42493,-2.46491 -5.77924,-3.8076c-0.96558,-0.55083 -1.9504,-1.14501 -2.18634,-1.31951c-1.78797,-1.32005 -7.76835,-2.74935 -9.68268,-2.31276c-0.39231,0.08985 -0.45227,0.04811 -0.52724,-0.36616c-0.04685,-0.25722 -0.24269,-1.06359 -0.43491,-1.79203c-0.78932,-2.99295 -1.69904,-9.85575 -1.8249,-13.79602c-0.05729,-1.79671 -0.01699,-1.86696 1.40312,-2.35265c1.09051,-0.37333 3.09369,-1.93296 3.96879,-3.08817c0.3731,-0.49306 0.88473,-1.14529 1.13702,-1.448c2.48785,-2.98549 1.63148,-6.64982 -2.37339,-10.13919l-0.77457,-0.67541l-0.06613,-1.54404c-0.10861,-2.50645 -0.88156,-4.94041 -2.39345,-7.51401c-0.97107,-1.65339 -0.84251,-3.21169 0.3251,-3.96367c0.80181,-0.51585 1.10159,-1.29565 0.8393,-2.1825c-0.31509,-1.0652 -3.24692,-2.87467 -4.7289,-2.92241c-1.3528,-0.04357 -3.04907,-1.64877 -2.23415,-2.11687c0.07757,-0.04483 0.31558,-0.51398 0.52731,-1.04201c0.90778,-2.26046 5.58764,-3.62662 7.8962,-2.30347c0.30715,0.17582 1.302,0.59097 2.20972,0.92324c1.70117,0.62136 3.02212,1.26846 4.85817,2.38363c2.78186,1.68878 5.03912,0.49135 3.79936,-2.0159c-0.20389,-0.41209 -3.32247,-2.3473 -4.9132,-3.06417c-1.36467,-0.61443 -1.65459,-0.85006 -1.52829,-1.15001c0.10358,-0.24603 3.83247,-1.74861 4.30193,-1.73349c0.5065,0.01631 1.71534,1.78308 2.4304,3.5512c0.47187,1.16737 1.20444,1.7659 2.19699,1.79787c1.9646,0.06328 2.75536,-2.37444 1.21726,-3.75574c-0.24141,-0.21664 -0.75787,-0.82729 -1.16794,-1.41389c-0.41008,-0.58611 -1.51741,-1.8953 -2.46076,-2.909c-2.3051,-2.47618 -2.42074,-2.68385 -1.88986,-3.18159c0.47602,-0.44632 1.10999,-0.26626 2.26262,0.64342c2.10446,1.66061 3.5746,2.5209 6.70549,3.93349c2.96208,1.3359 4.25446,0.72457 3.50801,-1.66043c-0.23228,-0.7429 0.13446,-1.01624 1.7713,-1.32172c5.04209,-0.94145 5.74009,-1.06296 8.17802,-1.43778c2.65813,-0.40872 3.68355,-0.51684 4.40614,-0.46721l0.64895,0.04441l-0.0483,0.72948" data-paper-data="{&quot;noHover&quot;:false,&quot;origItem&quot;:[&quot;Path&quot;,{&quot;applyMatrix&quot;:true,&quot;segments&quot;:[[456.835,33.82952],[456.886,32.33152],[[455.554,32.28352],[0,0],[-1.484,-0.054]],[[446.561,33.53252],[5.42,-1.013],[-4.971,0.929]],[[429.908,37.01852],[10.27,-2.262],[-3.334,0.734]],[[426.368,39.84352],[-0.525,-1.507],[1.687,4.838]],[[419.294,43.47652],[6.158,2.542],[-6.509,-2.688]],[[405.3,35.85652],[4.422,3.264],[-2.422,-1.788]],[[400.623,34.68652],[0.946,-0.946],[-1.055,1.055]],[[404.664,40.99052],[-4.887,-4.922],[2,2.015]],[[409.9,46.78852],[-0.879,-1.174],[0.879,1.175]],[[412.424,49.70152],[-0.509,-0.428],[3.243,2.729]],[[410.181,57.47652],[4.03,0],[-2.036,0]],[[405.562,53.93652],[1.044,2.361],[-1.582,-3.576]],[[400.348,46.81952],[1.039,0],[-0.963,0]],[[391.652,50.65252],[0.196,-0.511],[-0.239,0.623]],[[394.802,52.82652],[-2.837,-1.169],[3.307,1.364]],[[405.126,58.86552],[-0.445,-0.831],[2.706,5.056]],[[397.479,63.24352],[5.812,3.277],[-3.836,-2.164]],[[387.369,58.67752],[3.527,1.161],[-1.882,-0.621]],[[382.781,56.93052],[0.641,0.34],[-4.818,-2.559]],[[366.758,62.16552],[1.711,-4.692],[-0.399,1.096]],[[365.747,64.33452],[0.156,-0.097],[-1.639,1.013]],[[370.383,68.46752],[-2.775,0],[3.04,0]],[[380.348,74.20152],[-0.716,-2.162],[0.596,1.8]],[[378.774,78.72652],[1.609,-1.11],[-2.343,1.618]],[[378.372,86.86552],[-2.099,-3.324],[3.268,5.174]],[[383.776,102.09552],[-0.388,-5.129],[0,0]],[384.014,105.25252],[[385.646,106.58452],[0,0],[8.437,6.886]],[[391.178,127.18452],[4.901,-6.282],[-0.497,0.637]],[[388.943,130.22452],[0.732,-1.035],[-1.717,2.425]],[[381.013,136.81152],[2.21,-0.837],[-2.878,1.089]],[[378.292,141.72252],[-0.236,-3.678],[0.518,8.066]],[[382.932,169.85752],[-1.815,-6.081],[0.442,1.48]],[[383.94,173.49952],[-0.113,-0.524],[0.181,0.844]],[[385.044,174.21452],[-0.798,0.21],[3.894,-1.021]],[[405.028,178.30752],[-3.751,-2.587],[0.495,0.342]],[[409.592,180.86552],[-2.015,-1.065],[4.913,2.596]],[[421.677,188.28352],[-3.022,-2.274],[1.373,1.034]],[[425.106,190.84752],[-0.513,-0.377],[0.512,0.376]],[[430.214,194.95252],[-2.297,-1.881],[5.218,4.276]],[[450.077,199.02552],[-15.632,0],[29.365,0]],[[505.048,192.16052],[-11.051,5.047],[1.759,-0.804]],[[508.566,190.69952],[-0.176,0],[0.518,0]],[[511.004,187.88352],[-0.402,1.062],[0.462,-1.222]],[[511.022,159.39152],[0.458,5.116],[-0.689,-7.696]],[[509.692,146.23652],[0.282,1.906],[-0.163,-1.099]],[[509.167,141.57352],[0.126,1.465],[-0.378,-4.387]],[[507.53,129.44852],[0.274,0.444],[-0.175,-0.283]],[[506.226,130.61852],[0.713,-1.079],[-0.622,0.943]],[[503.319,133.39152],[1.105,-0.705],[-1.024,0.653]],[[499.37,135.98352],[1.149,-0.772],[-5.507,3.705]],[[478.471,137.09452],[7.732,3.002],[-4.125,-1.601]],[[469.072,129.38252],[0.767,2.413],[-0.21,-0.66]],[[467.835,127.38452],[0.47,0.439],[-6.889,-6.43]],[[468.045,78.79052],[-6.976,13.688],[0.327,-0.642]],[[469.038,76.12652],[-0.219,0.823],[1.114,-4.193]],[[481.8,69.45752],[-5.282,-0.851],[4.822,0.776]],[[496.852,81.46752],[-4.306,-6.507],[0.906,1.368]],[[499.508,85.29052],[-0.555,-0.735],[0.554,0.734]],[[501.146,88.02852],[-0.347,-0.771],[1.07,2.387]],[[502.032,84.62052],[0.784,3.487],[-0.165,-0.732]],[[501.037,76.96052],[0.382,3.481],[-1.965,-17.876]],[[494.553,61.97352],[5.054,-1.65],[-3.385,1.105]],[[489.186,61.38852],[1.654,1.654],[-3.5,-3.5]],[[491.857,53.31152],[-4.878,0.666],[5.508,-0.753]],[[501.337,48.31752],[-2.499,3.465],[3.735,-5.177]],[[503.836,37.71552],[1.432,4.594],[-1.392,-4.463]],[[494.332,32.58552],[6.239,-0.344],[0,0]],[491.036,32.76752],[[487.654,35.04752],[0,0],[-3.994,2.692]],[[477.485,45.61352],[2.124,-3.664],[-3.123,5.388]],[[469.042,44.26652],[0,5.885],[0,-1.176]],[[468.127,41.37252],[0.684,0.985],[-0.801,-1.153]],[[467.044,36.85852],[0.146,2.793],[-0.091,-1.757]],[[466.558,33.69452],[0.176,-0.017],[-0.903,0.086]],[[464.719,38.22652],[0.213,-2.665],[-0.342,4.271]],[[459.954,42.95052],[3.893,0.072],[-3.153,-0.059]],[[456.549,38.32652],[-0.301,3.815],[0.13,-1.649]],[[456.835,33.82952],[-0.027,0.825],[0,0]]],&quot;fillColor&quot;:[0.04314,0.04314,0.04314]}]}" fill="#fbfbfb" fill-rule="nonzero" stroke-width="0.5"/><path d="M386.85483,167.63633c0.9127,0.208 2.06238,0.39109 2.54597,0.40666c0.48359,0.01557 1.30156,0.15314 1.81156,0.30376c0.51,0.15015 1.24244,0.28547 1.62268,0.29772c0.38073,0.01226 1.22342,0.14829 1.86958,0.29842c0.64565,0.15061 2.08582,0.46082 3.19614,0.68445c1.11033,0.22316 2.46731,0.5297 3.0135,0.6771c0.54622,0.14691 1.40335,0.28236 1.904,0.29849c3.42563,0.11034 7.098,4.5678 6.97283,8.4541c-0.05517,1.71306 -0.34276,1.96136 -3.92808,3.33965c-0.63346,0.2436 -2.25038,0.75781 -3.59199,1.13916c-1.96414,0.55845 -2.58102,0.8103 -3.15827,1.27873c-0.92247,0.74719 -1.90636,0.82924 -6.7565,0.5232c-4.03733,-0.25448 -5.22753,-0.4827 -10.77008,-2.07838c-3.50211,-1.00828 -5.34735,-1.7766 -7.60681,-3.13965c-0.64337,-0.38818 -1.43607,-0.7621 -1.76185,-0.82871c-1.67545,-0.34384 -6.03334,-4.13124 -6.48614,-5.63325c-0.41309,-1.37141 0.79726,-4.05879 1.81418,-4.02603c0.11554,0.00372 0.90541,-0.32365 1.75431,-0.72623c1.56202,-0.74025 2.77485,-1.12753 5.1501,-1.63175c1.97378,-0.41858 9.98506,-0.18875 12.40487,0.36255" data-paper-data="{&quot;noHover&quot;:false,&quot;origItem&quot;:[&quot;Path&quot;,{&quot;applyMatrix&quot;:true,&quot;segments&quot;:[[[898.64201,288.14504],[0,0],[-9.99,-1.94]],[[847.82601,288.25104],[8.034,-1.976],[-9.668,2.38]],[[826.94401,295.59904],[6.304,-3.24],[-3.426,1.762]],[[819.85201,298.80104],[0.474,0],[-4.172,0]],[[812.95201,315.52104],[-1.874,-5.566],[2.054,6.096]],[[840.27601,337.72104],[-6.912,-1.188],[1.344,0.23]],[[847.60401,340.87704],[-2.688,-1.506],[9.44,5.288]],[[879.16201,352.69304],[-14.486,-3.67],[22.926,5.808]],[[923.46401,359.77904],[-16.58,-0.51],[19.918,0.614]],[[951.05201,356.77304],[-3.682,3.184],[2.304,-1.996]],[[963.81801,351.13104],[-7.976,2.548],[5.448,-1.74]],[[978.38401,346.00104],[-2.564,1.082],[14.512,-6.122]],[[994.03801,331.81504],[0,7.028],[0,-15.944]],[[964.35201,298.13504],[14.054,0],[-2.054,0]],[[956.51201,297.16904],[2.258,0.53],[-2.258,-0.532]],[[944.08001,294.80504],[4.58,0.768],[-4.58,-0.77]],[[930.90601,292.43904],[2.666,0.532],[-2.668,-0.53]],[[923.21801,291.47304],[1.562,0],[-1.56,0]],[[916.54401,290.47504],[2.11,0.548],[-2.11,-0.55]],[[909.10001,289.47504],[1.984,0],[-1.984,0]],[[898.64201,288.14504],[3.768,0.732],[0,0]]],&quot;fillColor&quot;:[0,0,0,1]}]}" fill="#ff6cbf" fill-rule="nonzero" stroke-width="0.5"/><path d="M397.81421,104.40898c0.06139,-0.05757 1.15836,-0.07103 2.43754,-0.02983l2.32536,0.0749l0.54113,0.78944c0.45351,0.6617 0.53717,0.92791 0.51758,1.6422l-0.02354,0.85227l4.59659,0.14806c3.78979,0.12206 4.65033,0.19174 4.90383,0.39658c0.16884,0.13671 0.4232,0.2547 0.56496,0.26221c0.14177,0.00749 0.57745,0.38947 0.96817,0.84907c0.39074,0.4591 0.77384,0.83745 0.85135,0.83995c0.38366,0.01235 3.12882,1.64383 3.55486,2.11286c1.46338,1.6102 2.20879,2.52725 2.20293,2.70909c-0.00362,0.1126 0.0926,0.24601 0.21393,0.29725c0.12134,0.05076 0.46797,0.63727 0.77055,1.30338c0.95244,2.09492 0.6517,5.18989 -0.63946,6.58107c-0.13749,0.14783 -0.28019,0.35112 -0.31713,0.45242c-0.08072,0.21846 -2.53254,2.63025 -3.2919,3.23774c-0.56253,0.45036 3.12466,46.57391 2.81841,57.15757l-0.21104,7.27955l-0.47598,0.70252c-0.26182,0.38684 -0.53109,0.70123 -0.59838,0.69955c-0.06679,-0.00215 -0.125,0.10822 -0.12941,0.24519c-0.02891,0.89747 -3.75052,3.70415 -5.37411,4.05299c-0.24816,0.0535 -0.49367,0.16076 -0.54547,0.23863c-0.05131,0.0779 -0.23329,0.13694 -0.40391,0.13143c-0.17063,-0.00549 -0.57509,0.12788 -0.89867,0.29605c-0.32407,0.16816 -0.75779,0.3006 -0.96498,0.29392c-0.2067,-0.00665 -0.61708,0.09871 -0.91181,0.23416c-0.52902,0.24306 -2.43055,0.49414 -2.66214,0.3515c-0.06554,-0.04067 -0.12164,0.00389 -0.12469,0.09847c-0.00305,0.09457 -0.22489,0.16453 -0.49302,0.15589l-0.48701,-0.01569l-0.09445,2.93228c-0.06163,1.91342 7.54404,32.81556 7.73625,33.10528c0.53108,0.79888 0.44527,4.34144 -0.0971,5.3478c-0.33736,0.62598 -0.46108,1.08852 -0.48448,1.81489c-0.02442,0.75805 -0.0734,0.93021 -0.22012,0.77371c-0.27551,-0.29435 -0.44666,-0.25302 -0.45836,0.11017c-0.00701,0.21743 0.06867,0.29209 0.23646,0.23405c0.13524,-0.04737 0.2436,-0.0024 0.24033,0.09899c-0.00328,0.10189 -0.11897,0.22406 -0.25666,0.27185c-0.15991,0.05585 -0.2002,0.15557 -0.11137,0.27603c0.16411,0.22294 -0.2453,2.44918 -0.41751,2.266c-0.06226,-0.06691 -0.12218,0.14197 -0.13256,0.46421c-0.01038,0.32224 -0.09344,0.62846 -0.18442,0.68067c-0.09101,0.0527 -0.16967,0.22243 -0.17468,0.37794c-0.01145,0.35538 -0.40238,1.14458 -0.56526,1.14129c-0.0668,-0.00166 -0.12518,0.09845 -0.12917,0.22227c-0.02937,0.91162 -3.40778,4.8659 -4.13708,4.84241c-0.19597,-0.00631 -0.49318,0.13051 -0.66078,0.30372c-0.16713,0.17371 -0.40728,0.31189 -0.53305,0.30784c-0.12577,-0.00405 -0.42046,0.20605 -0.65432,0.46692c-0.23433,0.26037 -0.51976,0.47077 -0.6348,0.46706c-0.11505,-0.00371 -0.30484,0.10096 -0.42183,0.23334c-0.31804,0.35917 -1.15608,0.66695 -1.88895,0.6941c-0.35813,0.01336 -0.73972,0.1333 -0.84892,0.26643c-0.3358,0.41081 -4.00684,0.22328 -4.84031,-0.24765c-0.3513,-0.19871 -0.71776,-0.33641 -0.81484,-0.30684c-0.0966,0.02959 -0.30478,-0.09814 -0.46274,-0.28428c-0.15797,-0.18614 -0.37843,-0.3411 -0.49105,-0.34473c-0.11212,-0.00361 -0.38098,-0.23187 -0.59807,-0.50678c-0.21659,-0.27538 -0.45573,-0.50219 -0.5308,-0.5046c-0.23157,-0.00746 -2.8648,-3.32577 -2.856,-3.59925c0.00162,-0.05021 -0.20617,-0.41704 -0.46176,-0.8147c-0.25508,-0.39813 -0.46075,-0.83079 -0.45654,-0.96143c0.00421,-0.13065 -0.09249,-0.27968 -0.21527,-0.33146c-0.29804,-0.12526 -0.7509,-1.10999 -0.50667,-1.10212c0.09993,0.00322 -0.04393,-0.24248 -0.32011,-0.54614c-0.2757,-0.30364 -0.49858,-0.64119 -0.49509,-0.74941c0.00605,-0.18769 -0.06516,-0.37103 -0.47686,-1.22463c-0.8467,-1.75675 -1.11734,-2.26323 -1.47927,-2.76825c-0.51229,-0.71532 -0.79917,-1.29308 -0.78961,-1.58996c0.00397,-0.12334 -0.06588,-0.22709 -0.1551,-0.22997c-0.0897,-0.00289 -0.15798,-0.14027 -0.15267,-0.30504c0.00531,-0.16478 -0.13094,-0.43463 -0.30226,-0.60022c-0.17135,-0.16509 -0.27552,-0.35438 -0.23193,-0.42032c0.0436,-0.06594 -0.02631,-0.21362 -0.15583,-0.32857c-0.12954,-0.11446 -0.23233,-0.30175 -0.22867,-0.41534c0.00793,-0.24619 -0.77371,-1.88664 -1.21587,-2.55237c-0.17174,-0.25831 -0.30705,-0.61794 -0.3012,-0.79977c0.00587,-0.18232 -0.06101,-0.37821 -0.14843,-0.43666c-0.08792,-0.05797 -0.1488,-0.42545 -0.13619,-0.81691c0.01261,-0.39147 -0.04875,-0.75895 -0.13669,-0.81693c-0.08744,-0.05795 -0.15569,-0.21143 -0.15152,-0.34111c0.00418,-0.12968 -0.20392,-0.47163 -0.46301,-0.76058c-0.25859,-0.28941 -0.46764,-0.61677 -0.46405,-0.72841c0.00359,-0.11163 -0.19941,-0.62668 -0.45064,-1.14472c-0.25172,-0.51808 -0.45642,-1.02584 -0.45508,-1.12827c0.00136,-0.10292 -0.13437,-0.37374 -0.30169,-0.60264c-0.16782,-0.22891 -0.30235,-0.53678 -0.29955,-0.68407c0.00279,-0.14729 -0.19251,-0.67476 -0.43413,-1.17249c-0.24164,-0.49725 -0.52091,-1.19042 -0.62043,-1.53961c-0.09952,-0.34968 -0.24269,-0.70712 -0.31846,-0.79448c-0.07576,-0.08735 -0.1326,-0.32245 -0.12616,-0.52233c0.00645,-0.20036 -0.05995,-0.41136 -0.14737,-0.46982c-0.08744,-0.05795 -0.15478,-0.23971 -0.14949,-0.404c0.00529,-0.16429 -0.19633,-0.72222 -0.44756,-1.24027c-0.25172,-0.51808 -0.45202,-1.11695 -0.44513,-1.33096c0.00691,-0.21449 -0.06009,-0.39185 -0.14979,-0.39474c-0.08922,-0.00287 -0.15659,-0.18365 -0.14957,-0.40157c0.00702,-0.21791 -0.05841,-0.44401 -0.14634,-0.50198c-0.08744,-0.05795 -0.15486,-0.23728 -0.14968,-0.39815c0.0052,-0.16136 -0.26427,-0.87033 -0.59923,-1.57651c-0.4876,-1.02733 -0.60308,-1.45707 -0.58064,-2.15371c0.01544,-0.4792 -0.04215,-0.87293 -0.12845,-0.87571c-0.23059,-0.00743 -2.26933,-5.42012 -2.26933,-5.42012l-0.59426,-0.47347c-0.32687,-0.26039 -0.62932,-0.52145 -0.67234,-0.57992c-0.07243,-0.09993 -0.38086,-0.29628 -1.87114,-1.19243c-0.32888,-0.19799 -0.66503,-0.42793 -0.74724,-0.51158c-0.08221,-0.08366 -0.30287,-0.15712 -0.49055,-0.16317c-0.18769,-0.00605 -0.4083,-0.0805 -0.49048,-0.16512c-0.20782,-0.21409 -1.56352,-0.42515 -1.79273,-0.2788c-0.24865,0.15937 -0.91291,1.26819 -0.92165,1.53972c-0.00378,0.11748 -0.12107,0.42554 -0.26117,0.68455c-0.26884,0.49837 -0.1518,34.80224 -0.49033,35.55555c-0.11881,0.26458 -0.1905,0.56629 -0.15874,0.67077c0.03176,0.10497 -0.02076,0.23552 -0.11672,0.29051c-0.09596,0.05499 -0.18342,0.37668 -0.19432,0.715c-0.01089,0.33832 -0.12853,0.824 -0.26167,1.07883c-0.13266,0.25535 -0.30716,0.90023 -0.38775,1.43298c-0.08011,0.53275 -0.27464,1.1482 -0.4325,1.3676c-0.15737,0.21941 -0.39347,0.59538 -0.5237,0.83566c-0.1307,0.2398 -0.3597,0.56181 -0.50906,0.71462c-0.14988,0.15329 -0.45916,0.52884 -0.68812,0.83428c-0.66801,0.89202 -1.38461,1.58044 -1.63567,1.57236c-0.12822,-0.00413 -0.87681,0.55687 -1.66325,1.24695c-0.78691,0.68958 -1.49749,1.2518 -1.57987,1.24915c-0.08239,-0.00265 -0.47555,0.20428 -0.87367,0.45937c-0.39815,0.25558 -0.82011,0.46305 -0.93815,0.4612c-0.11803,-0.00185 -0.40152,0.13347 -0.63044,0.30129c-0.22889,0.16734 -0.61476,0.29935 -0.8576,0.29349c-0.24333,-0.00588 -0.70681,0.12706 -1.03043,0.29572c-0.66951,0.34784 -3.3055,0.38739 -3.07881,0.04577c0.07692,-0.11562 0.0086,-0.14564 -0.19923,-0.08693c-0.17384,0.04906 -0.45506,-0.02296 -0.62485,-0.16018c-0.16981,-0.13674 -0.53188,-0.25869 -0.80478,-0.27041c-1.27291,-0.05417 -3.87042,-1.95174 -5.12827,-3.74613c-0.22442,-0.32004 -0.53266,-0.70426 -0.68548,-0.85363c-0.15281,-0.14936 -0.27338,-0.39091 -0.26868,-0.53668c0.0047,-0.14576 -0.06457,-0.26754 -0.15379,-0.27042c-0.0897,-0.00289 -0.16017,-0.13301 -0.15708,-0.28957c0.00309,-0.15655 -0.1312,-0.47174 -0.29904,-0.70016c-0.24023,-0.32885 -0.29688,-0.67617 -0.26797,-1.64977c0.02078,-0.72109 -0.05244,-1.43251 -0.17714,-1.71225c-0.11742,-0.2634 -0.24894,-0.93718 -0.29288,-1.49735c-0.04393,-0.56017 -0.13649,-1.01992 -0.2062,-1.02217c-0.06923,-0.00223 -0.15631,-0.38909 -0.19336,-0.85975c-0.03705,-0.47065 -0.10686,-1.07607 -0.15477,-1.34601c-0.04745,-0.26944 -0.08221,-0.65949 -0.07605,-0.8662c0.00569,-0.20673 -0.03414,-0.33391 -0.08899,-0.28249c-0.14089,0.1321 -0.46097,-1.35441 -0.44662,-2.07278c0.00675,-0.33065 -0.08448,-1.02849 -0.20284,-1.55057c-0.11835,-0.52256 -0.23631,-1.57214 -0.26256,-2.3328c-0.02626,-0.76067 -0.1049,-1.53082 -0.17519,-1.71218c-0.19686,-0.50898 -0.39225,-3.821 -0.33644,-5.70531c0.02772,-0.93656 -0.01545,-1.65677 -0.09599,-1.61057c-0.13026,0.07486 -0.064,-6.39144 0.08648,-8.42694c0.03462,-0.46883 -0.00642,-0.74002 -0.10385,-0.68459c-0.09946,0.05779 -0.14152,-0.49988 -0.11031,-1.46902c0.02767,-0.85896 0.10381,-1.52605 0.16975,-1.48245c0.06545,0.04359 0.20261,-1.72978 0.30456,-3.94055l0.18511,-4.02004l-0.46438,-0.35412c-1.16651,-0.88815 -47.35203,-4.62496 -47.42648,-2.31376c-0.01304,0.40511 0.05271,0.78738 0.14589,0.84943c0.09365,0.06207 0.13047,0.20672 0.08238,0.32132c-0.0486,0.11507 0.0098,0.34728 0.12929,0.51608c0.11999,0.16881 1.52739,5.27422 1.68993,5.63667c0.16252,0.36294 8.51936,21.1252 8.59532,21.17547c0.07596,0.05077 0.13329,0.25562 0.12685,0.45549c-0.00645,0.20036 0.04551,0.4353 0.1159,0.52247c0.27263,0.33818 0.66763,5.4227 0.66187,5.60161c-0.00574,0.17842 -0.03377,1.0486 -0.05552,1.72378c-0.02174,0.67518 -0.03044,2.09645 -0.1991,2.34819c-0.12763,0.19012 -0.23034,0.8944 -0.25855,1.76995c-0.02575,0.79949 -0.12141,1.49669 -0.21239,1.5489c-0.09098,0.05221 -0.16967,0.22243 -0.17468,0.37794c-0.01145,0.35538 -0.40238,1.14458 -0.56525,1.14079c-0.06682,-0.00118 -0.12499,0.09259 -0.12874,0.20911c-0.00992,0.3081 -0.84605,1.81349 -1.12983,2.0337c-0.13265,0.10357 -0.24428,0.26589 -0.24731,0.36048c-0.00792,0.2457 -0.69667,0.90281 -0.93798,0.89504c-0.11114,-0.00358 -0.35669,0.22617 -0.54594,0.51091c-0.74773,1.12467 -4.89095,4.62731 -6.39569,5.40746c-0.39751,0.20582 -0.76027,0.42301 -0.80706,0.48201c-0.21933,0.2794 -1.12066,0.73348 -1.47177,0.7412c-0.21587,0.00525 -0.43767,0.07375 -0.49293,0.15297c-0.198,0.28398 -1.83711,0.47812 -1.99477,0.23685c-0.14742,-0.22581 -0.50236,0.03652 -0.40991,0.30253c0.06252,0.18014 -0.11554,0.22369 -0.81753,0.20108c-0.51285,-0.01652 -0.85541,-0.09246 -0.7995,-0.17703c0.15026,-0.22599 -0.21082,-0.39378 -0.44857,-0.20916c-0.20923,0.1626 -0.9204,0.04648 -0.91459,-0.14951c0.00182,-0.05655 -0.26664,-0.13059 -0.59639,-0.16512c-0.32928,-0.03404 -0.65188,-0.15422 -0.71659,-0.26659c-0.0642,-0.11285 -0.28457,-0.21023 -0.48834,-0.21679c-0.76049,-0.02449 -3.00698,-1.44179 -2.9926,-1.88834c0.00334,-0.10384 -0.14494,-0.33309 -0.3291,-0.50934c-0.42466,-0.40603 -2.16888,-2.67529 -2.16434,-2.81618c0.00185,-0.05752 -0.19251,-0.4171 -0.43202,-0.79862c-0.23953,-0.38103 -0.55196,-0.96841 -0.69389,-1.30433c-0.14193,-0.33592 -0.32346,-0.65409 -0.40277,-0.70692c-0.25849,-0.17132 -0.62036,-1.11799 -0.60539,-1.58257c0.00802,-0.24911 -0.05708,-0.50009 -0.14453,-0.55804c-0.08744,-0.05795 -0.15349,-0.27969 -0.14665,-0.49223c0.00686,-0.21303 -0.0592,-0.43428 -0.14665,-0.49223c-0.08742,-0.05844 -0.15349,-0.27969 -0.14663,-0.49272c0.00685,-0.21255 -0.0592,-0.43428 -0.14665,-0.49223c-0.08744,-0.05795 -0.1502,-0.38206 -0.1393,-0.72038c0.01089,-0.33832 -0.08693,-0.84656 -0.21686,-1.13036c-0.12995,-0.28332 -0.26582,-0.79229 -0.30174,-1.13163c-0.03545,-0.33884 -0.12031,-0.76467 -0.18866,-0.94547c-0.06834,-0.1813 -0.20254,-0.68094 -0.2985,-1.11103c-0.09644,-0.43011 -0.23654,-0.82258 -0.31202,-0.87283c-0.07549,-0.05025 -0.132,-0.26533 -0.12515,-0.47788c0.00685,-0.21255 -0.04536,-0.42504 -0.11606,-0.47222c-0.07119,-0.04719 -0.21434,-0.57201 -0.31864,-1.16731c-0.10431,-0.59481 -0.24744,-1.12012 -0.31817,-1.16681c-0.07119,-0.04719 -0.1198,-0.37132 -0.10856,-0.72037c0.01126,-0.34954 -0.11742,-0.89976 -0.28559,-1.22383c-0.16818,-0.32358 -0.29685,-0.8743 -0.2856,-1.22334c0.01124,-0.34905 -0.04643,-0.67933 -0.12815,-0.73319c-0.08169,-0.05437 -0.21553,-0.52032 -0.29703,-1.03535c-0.08198,-0.51504 -0.21555,-1.06541 -0.29683,-1.22323c-0.08129,-0.1578 -0.12917,-0.86841 -0.10628,-1.57869c0.02288,-0.71028 -0.02959,-1.33906 -0.1175,-1.39703c-0.08744,-0.05795 -0.15349,-0.27969 -0.14665,-0.49223c0.00686,-0.21303 -0.0592,-0.43428 -0.14665,-0.49223c-0.08742,-0.05844 -0.15114,-0.35281 -0.14141,-0.65505c0.00972,-0.30176 -0.05398,-0.59661 -0.14142,-0.65456c-0.08744,-0.05795 -0.15375,-0.27189 -0.14721,-0.47468c0.00655,-0.20328 -0.03858,-0.42336 -0.10038,-0.48928c-0.14391,-0.15299 -0.46725,-1.55322 -0.46214,-2.00007c0.00213,-0.18733 -0.10807,-0.5842 -0.24488,-0.8819c-0.13681,-0.2977 -0.27474,-0.86383 -0.30646,-1.25769c-0.03124,-0.39385 -0.11956,-0.75733 -0.19554,-0.80759c-0.07549,-0.05025 -0.13309,-0.23121 -0.1276,-0.40183c0.00549,-0.17063 -0.12788,-0.57509 -0.29655,-0.89869c-0.16816,-0.32407 -0.3002,-0.76997 -0.29306,-0.99179c0.00714,-0.22181 -0.05312,-0.53265 -0.13441,-0.69047c-0.08129,-0.1578 -0.21485,-0.70817 -0.29683,-1.22323c-0.08198,-0.51504 -0.21534,-0.98098 -0.29705,-1.03486c-0.08169,-0.05437 -0.13828,-0.41877 -0.12568,-0.81022c0.01261,-0.39147 -0.04875,-0.75895 -0.13619,-0.81691c-0.08744,-0.05795 -0.15382,-0.26945 -0.14739,-0.46932c0.00645,-0.20036 -0.05381,-0.43556 -0.13394,-0.52306c-0.08062,-0.08751 -0.16766,-0.4158 -0.19464,-0.72948c-0.0265,-0.31366 -0.30629,7.07005 -0.62125,16.40902c-0.58381,17.30716 -4.92702,27.45872 -6.02929,28.99995c-0.4502,0.62965 -0.82046,1.2009 -0.82268,1.27012c-0.00704,0.2184 -2.41717,2.41193 -2.64238,2.40467c-0.11846,-0.00381 -0.66958,0.28929 -1.22439,0.65108c-0.55432,0.3623 -1.12779,0.72789 -1.27399,0.81248c-0.1462,0.0846 -0.56553,0.33168 -0.93124,0.54975c-1.72342,1.02443 -1.14136,1.49263 -7.35942,1.33969l-5.99342,-0.63762l-0.83504,-0.67985c-0.45887,-0.37394 -0.88866,-0.68157 -0.95544,-0.68372c-0.06631,-0.00213 -0.59233,-0.45779 -1.16834,-1.01266c-0.57651,-0.55489 -1.14836,-1.01201 -1.27121,-1.01597c-0.80046,-0.02579 -4.31886,-5.51297 -4.306,-6.71548c0.00103,-0.09269 -0.13543,-0.35572 -0.30276,-0.58461c-0.16734,-0.22889 -0.30109,-0.57627 -0.29673,-0.77181c0.00434,-0.19555 -0.05359,-0.397 -0.12956,-0.4468c-0.07549,-0.05025 -0.21947,-0.44335 -0.32079,-0.87361c-0.10083,-0.42975 -0.24335,-0.85353 -0.31716,-0.94083c-0.07332,-0.08727 -0.13013,-0.30821 -0.12618,-0.49157c0.00394,-0.18288 -0.12966,-0.51999 -0.29746,-0.7489c-0.16921,-0.2314 -0.2975,-0.67229 -0.28914,-0.99264c0.00827,-0.31742 -0.07354,-0.67093 -0.1816,-0.78568c-0.12219,-0.13033 -0.20794,-0.90755 -0.22702,-2.05741c-0.01703,-1.01657 -0.10562,-1.94808 -0.19634,-2.07057c-0.09121,-0.12249 -0.20032,-0.55301 -0.24246,-0.95697c-0.04166,-0.40345 -0.13309,-1.06471 -0.20254,-1.46906c-0.31642,-1.84214 -0.40681,-2.7176 -0.30804,-2.99648c0.06929,-0.19687 0.04269,-0.26508 -0.07713,-0.19621c-0.16856,0.09705 -0.22371,-1.53904 -0.12389,-3.68352c0.01505,-0.33086 -0.03399,-0.56571 -0.11005,-0.52228c-0.07608,0.04392 -0.13303,-0.06674 -0.12729,-0.24517c0.00576,-0.17891 0.08456,-0.36768 0.17603,-0.41986c0.09101,-0.0527 0.16792,-0.16832 0.17079,-0.25753c0.00287,-0.08922 -0.06587,-0.12168 -0.15237,-0.07225c-0.39975,0.22965 1.3396,-96.28475 1.72909,-96.52939c0.09662,-0.06081 0.28388,-0.61697 0.41657,-1.23683c0.13219,-0.61941 0.30116,-1.19908 0.37479,-1.28797c0.07412,-0.08886 0.18583,-0.43664 0.2484,-0.7728c0.06303,-0.33567 0.23527,-0.83519 0.38368,-1.10955c0.14791,-0.27437 0.27355,-0.6295 0.27869,-0.78891c0.00515,-0.1599 0.08344,-0.33306 0.17493,-0.38574c0.09098,-0.05221 0.17116,-0.26874 0.17802,-0.48177c0.00685,-0.21255 0.08703,-0.42957 0.17802,-0.48177c0.09098,-0.05221 0.17006,-0.23462 0.17556,-0.40524c0.00549,-0.17063 0.16668,-0.56901 0.35794,-0.88591c0.19173,-0.3164 0.44054,-0.95059 0.5534,-1.40909c0.11285,-0.4585 0.3487,-1.02334 0.52354,-1.25486c0.17484,-0.23154 0.32066,-0.50109 0.32381,-0.59909c0.00315,-0.09798 0.07885,-0.17559 0.16807,-0.17272c0.0897,0.00289 0.16723,-0.13175 0.17264,-0.29944c0.0054,-0.1677 0.12594,-0.39512 0.2681,-0.50572c0.14167,-0.11061 0.40703,-0.50124 0.58868,-0.86822c0.18167,-0.36747 0.44654,-0.75812 0.58868,-0.86822c0.14216,-0.11059 0.26129,-0.29414 0.26495,-0.40822c0.01535,-0.47677 2.8142,-2.8603 4.03418,-3.4354c1.48459,-0.69979 4.20763,-0.88147 5.19764,-0.34694c0.28637,0.15416 0.61647,0.28386 0.73396,0.28765c0.11748,0.00378 0.46915,0.16102 0.78123,0.35017c0.3121,0.18865 0.69343,0.34881 0.84694,0.3557c0.15349,0.00689 0.45694,0.16161 0.67458,0.34331c0.21765,0.18172 0.45381,0.33426 0.52493,0.3385c1.18598,0.07138 6.74146,5.85647 6.71889,6.99669c-0.00325,0.16143 1.82492,7.05133 1.91493,6.99958c0.10342,-0.05962 0.11983,0.74905 0.04553,2.23748c-0.08538,1.71111 0.01059,20.39779 -0.03011,20.91863c-0.07092,0.89906 -0.06414,0.91586 0.36564,0.91994c1.45431,0.01317 89.39269,4.37062 89.52856,4.31888c0.25691,-0.09763 0.38515,-0.12473 1.26998,-0.26409c0.5935,-0.09361 0.60255,-0.10211 0.77789,-0.74306c0.08187,-0.29943 0.06582,-0.42244 -0.04704,-0.35776c-0.16408,0.09426 0.09715,-12.04609 0.35424,-16.49765l0.0993,-1.71944l-0.66617,-0.57437c-1.06645,-0.9191 -0.76173,-5.04655 -0.20793,-5.02871c0.35831,0.01154 0.0908,-0.28889 -0.55246,-0.61999c-1.31724,-0.6778 -3.58411,-3.64417 -3.73066,-4.88158c-0.01617,-0.13472 -0.06964,-0.44388 -0.11889,-0.68752c-0.11369,-0.56096 0.971,-2.66298 1.82379,-3.5344c0.32346,-0.33069 0.71198,-0.84814 0.86321,-1.14974c0.29045,-0.5782 1.14428,-1.49741 1.38413,-1.48968c0.07751,0.0025 0.41789,-0.20175 0.7559,-0.45389c0.713,-0.5314 11.3857,-5.2321 12.19079,-5.274c0.4717,-0.02433 0.89942,-0.10718 0.95019,-0.18363c0.0508,-0.07693 0.30732,-0.13259 0.56959,-0.12414c0.55867,0.01799 0.61052,-0.18286 0.1752,-0.68196c-0.17274,-0.19734 -0.31043,-0.45261 -0.30675,-0.56669c0.00369,-0.11456 -0.13116,-0.4732 -0.29984,-0.7968c-0.32764,-0.63031 -0.39685,-2.64847 -0.08388,-2.44076c0.09221,0.06152 0.16549,-0.09275 0.17428,-0.36576c0.02511,-0.7795 1.11513,-2.27427 1.64553,-2.25719c0.0624,0.00201 0.28939,-0.15171 0.50486,-0.34144c0.34354,-0.30272 0.56772,-0.33894 1.80774,-0.29362c1.96192,0.071 2.70123,0.32857 3.88969,1.35358c0.30247,0.26057 0.61126,0.47597 0.68682,0.4784c0.07507,0.00242 0.43538,0.22484 0.80101,0.49379c1.54018,1.13493 23.4948,-2.6368 24.16073,-2.61535c1.189,0.0383 1.223,0.02817 1.84669,-0.56369c0.87789,-0.83255 1.90568,-2.19806 1.91691,-2.54662c0.00514,-0.15941 0.05964,-0.33675 0.12103,-0.39431M402.67679,113.13147c-0.12863,-0.36966 -1.45357,-0.33913 -1.67165,0.0379c-0.24757,0.42878 -0.25664,1.42255 -0.01387,1.52163c0.27743,0.11337 1.78241,-1.2797 1.68552,-1.55953M392.2513,114.0357l0.04839,-0.72946l-0.64859,-0.04431c-0.72259,-0.04963 -1.74552,0.05894 -4.40365,0.46767c-2.43792,0.37483 -3.1309,0.49648 -8.17298,1.43793c-1.63683,0.30547 -2.00236,0.57869 -1.77009,1.32158c0.74643,2.38498 -0.54351,2.99589 -3.50559,1.65999c-3.13089,-1.41259 -4.5979,-2.27383 -6.70236,-3.93444c-1.15264,-0.90967 -1.78561,-1.09012 -2.26164,-0.64382c-0.53088,0.49774 -0.43412,0.66044 1.87098,3.13662c0.94335,1.01371 2.0514,2.32259 2.46148,2.90871c0.41006,0.58661 0.94329,1.24306 1.1847,1.4597c1.53809,1.3813 0.74907,3.81833 -1.21553,3.75504c-0.99254,-0.03197 -1.72428,-0.63089 -2.19616,-1.79826c-0.71506,-1.76812 -1.92354,-3.53506 -2.43005,-3.55137c-0.46946,-0.01512 -4.19587,1.486 -4.29944,1.73203c-0.12629,0.29996 0.1368,0.49485 1.50147,1.10927c1.59073,0.71687 4.73419,2.694 4.93807,3.10609c1.23978,2.50727 -1.01475,3.70296 -3.79661,2.01418c-1.83606,-1.11517 -3.15571,-1.76328 -4.85687,-2.38465c-0.90771,-0.33229 -1.90205,-0.74788 -2.20919,-0.92369c-2.30857,-1.32315 -6.98555,0.03999 -7.89333,2.30045c-0.21172,0.52804 -0.44935,0.99666 -0.52692,1.0415c-0.8149,0.46809 0.84233,2.04404 2.19513,2.08761c1.48198,0.04774 4.45276,1.88655 4.76785,2.95177c0.26228,0.88686 -0.03655,1.66534 -0.83837,2.1812c-1.1676,0.75198 -1.29483,2.30801 -0.32377,3.96141c1.5119,2.57361 2.28668,5.00295 2.39528,7.5094l0.06645,1.54276l0.77467,0.67496c4.00488,3.48936 4.86121,7.14377 2.37336,10.12926c-0.25229,0.30273 -0.76419,0.95383 -1.13729,1.44689c-0.8751,1.15522 -2.87876,2.71329 -3.96926,3.08661c-1.42011,0.4857 -1.46088,0.55465 -1.40359,2.35136c0.12587,3.94027 1.03088,10.79558 1.8202,13.78852c0.19224,0.72844 0.38734,1.53406 0.43421,1.79128c0.07498,0.41429 0.13465,0.45574 0.52696,0.3659c1.91434,-0.43659 7.88986,0.98906 9.67782,2.30911c0.23594,0.17449 1.21918,0.76785 2.18477,1.31867c2.3543,1.34268 4.3374,2.64999 5.7749,3.80599c0.65309,0.52563 1.38719,1.11194 1.63136,1.30378c0.24369,0.19134 1.33542,1.12833 2.42566,2.08138c2.47661,2.16646 1.99864,2.05201 9.61915,2.29745c14.31529,0.46108 21.43932,-0.19663 26.90588,-2.48351c0.87013,-0.36432 1.65215,-0.65975 1.73794,-0.65699c0.25252,0.00814 1.02008,-0.82309 1.23273,-1.3345c0.24441,-0.58846 0.5991,-11.3882 0.45615,-13.88942c-0.21503,-3.76258 -0.33427,-5.50028 -0.44181,-6.43388c-0.06221,-0.53831 -0.1443,-1.56526 -0.18271,-2.28142c-0.11539,-2.14457 -0.48104,-5.71583 -0.60764,-5.93658c-0.08086,-0.14071 -0.28955,0.03508 -0.65407,0.5499c-0.31803,0.44994 -0.91094,0.97985 -1.46069,1.30618c-0.50945,0.30226 -1.39357,0.84328 -1.96581,1.20158c-2.74281,1.7197 -6.48342,1.79832 -10.2056,0.21345c-1.98577,-0.84525 -4.12485,-2.71878 -4.46086,-3.90714c-0.09202,-0.32505 -0.34942,-0.77204 -0.57166,-0.99344c-3.25739,-3.24277 -2.7503,-17.12274 0.8654,-23.68602c0.16949,-0.30784 0.40622,-0.88532 0.52591,-1.2831c0.6089,-2.02658 3.76454,-3.54851 6.32613,-3.05072c2.33852,0.45401 5.15221,2.85141 7.1492,6.09116c0.42019,0.68112 0.97573,1.53837 1.23476,1.9054c0.25855,0.36652 0.59847,0.97917 0.75553,1.36048c0.48413,1.18045 0.81288,0.06474 0.48543,-1.64747c-0.06894,-0.35944 -0.23322,-2.04686 -0.36478,-3.74984c-0.67725,-8.74531 -0.43588,-8.1329 -2.92559,-7.4079c-1.66752,0.48553 -1.82685,0.46284 -2.6072,-0.36945c-1.65128,-1.7612 -0.95954,-3.64748 1.42892,-3.89556c2.69695,-0.28059 3.42721,-0.63576 4.69986,-2.28569c1.90208,-2.46511 2.01068,-2.86714 1.38473,-5.12918c-0.60852,-2.19755 -1.50573,-2.71981 -4.5526,-2.65008l-1.60964,0.03697l-1.68451,1.05838c-1.98933,1.24963 -4.03026,3.23837 -5.12325,4.9912c-1.60705,2.57758 -4.18718,2.07968 -4.09476,-0.78922c0.01846,-0.5733 -0.08263,-0.93425 -0.40062,-1.42518c-0.37238,-0.57466 -0.42976,-0.85369 -0.45707,-2.21756c-0.01677,-0.85795 -0.10118,-1.55558 -0.18724,-1.55007c-0.44155,0.02774 -0.82198,0.88462 -0.96766,2.18044c-0.23378,2.07672 -0.5004,2.32434 -2.39709,2.2281c-1.53615,-0.07826 -1.79396,-0.45257 -1.58731,-2.30764c0.08926,-0.80184 0.18392,-1.78602 0.21003,-2.18777M243.42603,121.17861c-2.58999,-1.52497 -3.89159,-1.26385 -5.622,1.12871c-0.379,0.52459 -0.93351,1.21092 -1.23206,1.52582c-1.10075,1.16113 -2.77227,4.7707 -4.12818,8.91456l-0.93156,2.84725l-0.29184,6.16673c-0.58062,12.26915 -1.19491,39.14357 -0.92388,40.44062c0.19322,0.92513 0.22336,2.45891 0.15812,7.96926c-0.04426,3.75277 -0.11088,10.26005 -0.14711,14.46058c-0.03622,4.20003 -0.11564,11.43842 -0.17598,16.08469c-0.09667,7.39498 0.00719,12.36714 0.28487,13.70003c0.10778,0.51733 -0.12227,0.49333 9.72151,0.99827c4.90851,0.2513 11.21205,0.61392 14.0075,0.80498c6.22293,0.4259 5.47921,0.82016 6.39756,-3.39001c1.05286,-4.8256 1.0604,-5.02934 0.52705,-14.52983c-0.18577,-3.3078 -0.17817,-4.10446 0.06511,-6.82406c0.15118,-1.69386 0.31351,-4.86991 0.36058,-7.05854c0.12437,-5.80077 1.03505,-7.59069 3.41768,-6.71851c1.03407,0.37881 1.41678,1.25393 2.12615,4.86552c0.1438,0.73224 0.38983,1.36626 0.68315,1.75928c0.25213,0.3385 0.45603,0.68959 0.45307,0.78124c-0.00293,0.09115 0.19606,0.41282 0.44254,0.71454c0.82444,1.00889 1.10073,1.82446 1.05883,3.1251c-0.02987,0.92721 0.05871,1.46492 0.40403,2.45545c0.243,0.69737 0.47219,1.76371 0.50928,2.36954c0.0722,1.1828 0.34561,2.66342 0.68825,3.7217c0.27515,0.85115 0.80732,4.44924 1.12634,7.61981c0.39672,3.93972 0.73363,6.19147 1.12179,7.50351c0.94763,3.19911 1.72547,5.3211 2.09535,5.71561l0.39725,0.4237l1.192,-0.23684c0.65519,-0.13018 1.961,-0.27942 2.9011,-0.3316c1.61377,-0.08954 9.28968,-1.56349 10.30344,-1.97832c0.22649,-0.09274 0.63261,-0.21728 0.90292,-0.2764c2.88785,-0.63215 4.96837,-1.2132 5.24091,-1.46257c0.53553,-0.49077 -0.05558,-2.44081 -2.55844,-8.44382c-2.18894,-5.24917 -2.97309,-7.23618 -3.05358,-7.73703c-0.08655,-0.54008 -3.486,-9.26572 -4.07195,-10.45188c-0.20203,-0.40911 -0.57181,-1.48876 -0.82208,-2.40011c-0.25029,-0.91087 -0.55548,-1.79862 -0.67825,-1.9719c-0.75614,-1.06868 1.36591,-5.43869 2.90708,-5.98637c0.29866,-0.10604 0.9876,-0.37518 1.53109,-0.59826c1.06675,-0.43851 2.31405,-0.81655 3.15548,-0.95635c0.42391,-0.07078 0.62097,-0.24937 1.0044,-0.91192c0.46764,-0.80723 0.53643,-0.85234 3.2836,-2.16197c3.39345,-1.61773 4.31763,-2.17552 5.66554,-3.41944c0.56933,-0.52529 1.34271,-1.12795 1.71843,-1.33887c0.37573,-0.21091 1.37291,-0.92934 2.21621,-1.5971c4.47336,-3.5408 6.77412,-3.44473 11.27769,0.47012c0.72061,0.62638 1.54971,1.24796 1.84211,1.38133c0.80171,0.36595 2.73086,2.65095 2.93603,3.47787c0.09332,0.37534 0.33058,1.23601 0.52741,1.91287c0.22235,0.76307 0.37949,1.83881 0.41433,2.83253c0.07794,2.2317 -0.44981,2.04146 6.27509,2.26098c8.26587,0.26916 10.88954,1.0969 12.58797,3.96981l0.43549,0.73675l-0.27848,8.858c-0.29686,9.44399 -0.34299,16.315 -0.12155,18.04577c0.07441,0.5836 0.22471,1.97779 0.33353,3.09881c0.38919,4.00731 0.69622,5.94382 0.98036,6.18234c0.43334,0.36385 3.82561,0.16129 8.58287,-0.51264c0.98783,-0.13995 2.2369,-0.31542 2.77563,-0.3903c0.53871,-0.07439 1.83718,-0.17751 2.88607,-0.22863c2.76349,-0.13449 2.6309,-0.00261 2.59694,-2.58474c-0.0415,-3.12064 -0.54031,-13.66288 -0.73709,-15.56852c-0.99539,-9.63982 0.49856,-16.61501 4.28567,-20.0159l0.61158,-0.54882l1.89801,0.0704c2.5409,0.09452 5.91083,1.47969 7.40257,3.04249c0.32479,0.34035 1.13551,1.18386 1.80182,1.87486c1.60417,1.66305 4.10334,7.08373 4.17417,8.00541c0.02823,0.36593 0.24533,1.11029 0.48253,1.65474c0.23722,0.54395 0.70926,1.94849 1.0482,3.12183c0.33944,1.17287 0.84918,2.68013 1.13361,3.34906c0.64819,1.52636 1.23972,3.47887 1.22182,4.03462c-0.0149,0.46263 1.30628,3.76015 2.24534,5.60429c0.32355,0.63604 1.55738,3.17629 2.74179,5.64518c2.53658,5.28917 2.22318,5.03506 5.05635,4.10054c0.48191,-0.15918 1.44147,-0.42157 2.13184,-0.58379c2.05243,-0.48143 7.31729,-1.67289 9.66994,-2.18808c2.59495,-0.56838 2.51129,-0.48568 2.47234,-2.44333c-0.03966,-1.99573 -1.92972,-12.38807 -2.44056,-13.42152c-0.2827,-0.57129 -1.11834,-5.39866 -1.09163,-6.30353c0.03807,-1.28808 -0.23277,-2.51533 -1.12299,-5.08747c-0.41432,-1.19675 -0.74702,-2.38208 -0.73892,-2.63362c0.00811,-0.25202 -0.08794,-0.60308 -0.21349,-0.78085c-0.12554,-0.17777 -0.22243,-0.57861 -0.21579,-0.8912c0.00714,-0.31258 -0.18819,-1.11138 -0.43376,-1.77468c-0.43818,-1.18287 -0.61098,-2.07562 -0.8443,-4.36162c-0.13397,-1.3102 -0.36026,-1.58735 -1.23013,-1.50363c-3.69189,0.35347 -21.24249,-0.17229 -36.91724,-1.10612c-6.5603,-0.39089 -6.43678,-0.36203 -7.19073,-1.68048c-0.25822,-0.4524 -0.60299,-0.89929 -0.76493,-0.99283c-0.46999,-0.27133 -1.12364,-1.74956 -1.26638,-2.8629c-0.07217,-0.56254 -0.33892,-1.43197 -0.59316,-1.93157c-1.3662,-2.68799 -3.85093,-11.4354 -4.14931,-14.61019c-0.1988,-2.11555 -0.56242,-2.31074 -2.97459,-1.59885c-1.47312,0.4347 -1.52271,0.4741 -3.6544,2.90155c-0.74519,0.84903 -1.74161,1.7861 -2.2148,2.08367c-0.47317,0.29708 -1.29603,0.81518 -1.82901,1.15084c-2.78096,1.75263 -6.07571,1.41227 -10.42661,-1.07614c-3.60529,-2.06227 -4.75995,-4.98501 -3.35967,-8.50621c0.55867,-1.406 0.44753,-1.84926 -0.56883,-2.26313c-0.39643,-0.1616 -1.22587,-0.49967 -1.8434,-0.75087c-0.85788,-0.34922 -1.25838,-0.62662 -1.69559,-1.17311l-0.57279,-0.7158l-3.29587,-0.29062c-4.72116,-0.41656 -11.36174,-1.26924 -14.17974,-1.82117c-0.88891,-0.17406 -1.65963,-0.09249 -1.6683,0.1766c-0.00093,0.02876 0.41552,0.40184 0.92583,0.83014c0.55404,0.46485 1.0015,0.99607 1.11164,1.31924c0.1012,0.29753 0.35496,0.97914 0.56364,1.51485c0.79202,2.03021 -0.14503,5.62392 -1.8442,7.07663c-2.03786,1.74143 -4.41433,2.31441 -9.59832,2.31336c-1.81585,0.00007 -4.15588,0.07793 -5.20035,0.1736c-1.04494,0.09518 -2.44113,0.1561 -3.10314,0.13477c-1.02861,-0.03313 -1.38959,0.0382 -2.48807,0.49229c-3.85677,1.59403 -7.14073,1.58536 -10.06805,-0.02709c-0.74658,-0.41104 -1.74655,-0.83315 -2.22141,-0.93824c-1.7405,-0.38497 -3.85242,-2.14685 -5.17048,-4.31405c-0.89632,-1.47384 -2.16493,-4.19188 -2.34866,-5.03276c-0.08846,-0.40496 -0.35716,-1.35009 -0.59604,-2.10004c-0.5142,-1.61086 -0.52316,-2.63546 -0.03273,-3.77135c0.66705,-1.54401 0.58559,-1.5603 -4.10058,-0.80551c-2.76275,0.44489 -2.99537,0.54622 -3.46964,1.51378c-0.66491,1.35621 -2.19699,1.48497 -2.79306,0.23456c-0.13347,-0.28001 0.06104,-7.15261 0.06104,-7.15261c0.37264,-4.41808 0.53931,-8.34989 0.45609,-10.7667c-0.04952,-1.43193 -0.14113,-4.36044 -0.20373,-6.5077c-0.18464,-6.34263 -0.57777,-8.81873 -1.76761,-11.13356c-0.81743,-1.58989 -3.07954,-3.64354 -5.73849,-5.2088M379.99568,129.98896c3.34417,-0.78484 6.07519,0.58852 7.69029,3.86672c2.90592,5.89739 3.77608,12.25917 3.0261,22.11996l-0.2818,3.70363c0,0 -0.84211,4.29705 2.17067,4.83183c8.70737,1.54634 12.36501,2.49863 14.04733,3.65911c0.42393,0.2923 1.34278,0.93043 2.04199,1.41802c0.69971,0.4876 1.49782,1.01057 1.77351,1.16294c1.95012,1.07346 3.93439,6.73815 3.32727,9.49679c-0.62539,2.84149 -2.45068,4.54341 -6.14699,5.73121c-1.89354,0.60903 -1.95243,0.64959 -2.46447,1.71402c-0.77507,1.60984 -3.4098,2.06471 -10.6042,1.83151c-6.49436,-0.21065 -16.11016,-2.35476 -19.62405,-4.37602c-0.30711,-0.17678 -1.31378,-0.70941 -2.23741,-1.18374c-2.00136,-1.02827 -3.37846,-1.90807 -5.43334,-3.47145c-0.83929,-0.6385 -1.59929,-1.16319 -1.68898,-1.16607c-0.35003,-0.01128 -2.37002,-2.5061 -2.81879,-3.48191c-1.44802,-3.14739 -0.98959,-5.1837 1.83942,-8.17087c2.9275,-3.09039 6.44635,-4.3742 12.89568,-4.70474c2.6552,-0.13603 2.71658,-0.1931 1.27272,-1.18193c-3.63161,-2.48768 -5.55629,-6.25994 -6.65763,-13.04983c-0.30373,-1.87248 -0.16249,-8.19682 0.20857,-9.33899c0.95989,-2.95419 2.8988,-6.22917 4.72316,-7.97845c0.5675,-0.54439 1.87833,-1.18244 2.94094,-1.43174M383.05485,134.17354c-4.0275,-2.02951 -8.3241,4.79636 -7.13928,11.34298l0.14872,0.8217l0.54467,-0.66859c1.46378,-1.79604 3.55255,-1.22465 3.88101,1.06246c0.05186,0.35937 0.35838,1.53947 0.68169,2.62252c1.03558,3.46839 0.79911,4.82523 -0.8791,5.03664c-1.40038,0.17644 -2.04414,-0.62411 -2.75886,-3.43313c-0.96075,-3.77635 -1.45521,-4.31834 -1.45082,-1.59077c0.00685,4.28731 2.77543,9.2521 5.43428,9.74521c0.37886,0.07027 1.19962,0.25384 1.82371,0.40717c0.62408,0.15381 1.60797,0.27237 2.18554,0.26413l1.05068,-0.01545l0.25354,-3.81142c0.27183,-4.09094 0.32662,-8.7164 0.1172,-9.91093c-0.07091,-0.4044 -0.1479,-1.65031 -0.17143,-2.76809c-0.08546,-4.07366 -1.73252,-8.10196 -3.72153,-9.10445M404.41663,136.20261c-2.00614,-1.09186 -3.09972,-0.62298 -4.5223,1.93956c-3.62595,6.53319 -3.29786,19.54312 0.54671,21.6458c0.32465,0.17784 0.98912,0.56231 1.476,0.85469c2.59573,1.55883 5.94042,1.68218 7.79534,0.2872c0.34257,-0.25737 0.88596,-0.58342 1.20821,-0.72481c0.74494,-0.3259 0.75568,-0.35629 0.94812,-2.69495c0.6778,-8.24099 -3.05471,-18.91374 -7.45208,-21.30751M406.1579,145.92695c1.14511,-0.90203 2.34143,-0.18176 2.82781,1.70148c0.1662,0.64268 0.42583,1.61193 0.57726,2.1531c1.0861,3.88434 0.65472,5.70239 -1.33719,5.63823c-0.97353,-0.03135 -1.1681,-0.3841 -1.57468,-2.85136c-0.19679,-1.19316 -0.52305,-2.57835 -0.72507,-3.07873c-0.78916,-1.95253 -0.734,-2.80135 0.23188,-3.56275M386.85723,167.6606c-2.41981,-0.55131 -10.41332,-0.79169 -12.38711,-0.37312c-2.37524,0.50422 -3.58561,0.88686 -5.14762,1.62711c-0.84891,0.40258 -1.63825,0.72852 -1.75379,0.72481c-1.01692,-0.03275 -2.22621,2.64987 -1.81313,4.02129c0.45279,1.50201 4.81041,5.28188 6.48585,5.62571c0.32579,0.06662 1.11803,0.43861 1.7614,0.8268c2.25946,1.36306 4.0973,2.1196 7.59941,3.12789c5.54255,1.59568 6.70553,1.82053 10.74287,2.075c4.85014,0.30604 5.82563,0.23107 6.7481,-0.51611c0.57727,-0.46844 1.19184,-0.71656 3.15598,-1.27499c1.34159,-0.38135 2.95724,-0.89247 3.5907,-1.13606c3.58534,-1.37828 3.87182,-1.62184 3.927,-3.3349c0.12518,-3.88631 -3.54584,-8.33214 -6.97147,-8.44248c-0.50066,-0.01612 -1.35718,-0.1501 -1.9034,-0.29702c-0.54621,-0.1474 -1.90137,-0.45066 -3.0117,-0.67382c-1.11032,-0.22365 -2.5469,-0.52953 -3.19255,-0.68014c-0.64616,-0.15013 -1.48562,-0.28356 -1.86635,-0.29583c-0.38024,-0.01225 -1.10892,-0.14552 -1.61893,-0.29566c-0.50999,-0.15063 -1.323,-0.28661 -1.8066,-0.3022c-0.48359,-0.01557 -1.62597,-0.19828 -2.53867,-0.4063M380.52778,168.45128c2.18931,-0.79227 3.32239,1.30067 3.63736,6.71786c0.05982,1.03649 -0.37497,1.80865 -1.22874,2.18034c-1.60412,0.69887 -2.90045,-0.5375 -3.03578,-2.89598c-0.02949,-0.50847 -0.20919,-1.68693 -0.39925,-2.61927c-0.45482,-2.22725 -0.24354,-2.92316 1.02641,-3.38295M400.48009,171.49879c0.63076,-0.3569 1.58313,-0.35014 2.23796,0.01547c1.60112,0.89435 1.63425,7.51662 0.04184,8.27638c-1.77429,0.84614 -2.8695,-0.30129 -3.00993,-3.15329c-0.04925,-1.00101 -0.15886,-2.17379 -0.2435,-2.60645c-0.202,-1.0313 0.20862,-2.09851 0.97362,-2.5321M388.2006,179.07233c0.84649,-0.47928 1.77209,-0.36846 4.72566,0.56506c0.44249,0.14015 1.16666,0.30745 1.60916,0.37196c1.09091,0.15958 1.29109,0.41392 1.25309,1.59367c-0.0644,1.99922 -1.24124,2.41711 -4.19945,1.49124c-1.01408,-0.31766 -2.21759,-0.69314 -2.67467,-0.83523c-1.81383,-0.56252 -2.21145,-2.33848 -0.71378,-3.18669M408.28968,241.71938c-0.11881,-0.34153 -1.19043,-0.29698 -2.82055,0.1185c-1.97258,0.50255 -2.58084,0.60007 -3.58437,0.57605c-0.93672,-0.02285 -6.88261,1.23744 -7.71723,1.63561c-0.56501,0.26973 -0.60548,0.57146 -0.19355,1.44849c0.16762,0.35627 0.29899,0.82312 0.29208,1.03762c-0.02832,0.87943 2.54166,4.31332 3.84165,5.13257c1.05942,0.66755 2.60975,0.59304 4.25464,-0.20505c0.65488,-0.31758 1.19216,-0.63553 1.19445,-0.70671c0.0023,-0.07117 0.50171,-0.63776 1.11026,-1.25939c2.21723,-2.26513 4.11871,-6.34799 3.6226,-7.7777M297.44254,240.07617l0.03803,-1.18071l-0.77198,-0.00096c-1.88411,-0.00213 -3.64387,0.19592 -4.93448,0.55501c-1.56146,0.43527 -5.94427,1.42235 -8.43137,1.89954c-0.89956,0.17209 -2.4091,0.49483 -3.35514,0.71616c-0.94555,0.22135 -1.92183,0.4422 -2.16933,0.48986c-0.74153,0.14399 -0.50001,1.02432 1.44765,5.28042c2.52211,5.51122 6.92553,6.71739 11.01606,3.01686c0.65044,-0.58856 1.60674,-1.34052 2.12493,-1.67177c2.49673,-1.5944 4.93576,-6.00398 5.03564,-9.10445M360.08165,242.3231c-0.24303,-0.46947 -2.89626,-0.27335 -8.86953,0.65519c-0.72783,0.1132 -1.59868,0.1969 -1.93555,0.18605c-1.03447,-0.03332 -4.06804,0.36576 -4.28377,0.56377c-0.16039,0.14661 -0.14627,0.45059 0.06475,1.41387c0.67905,3.09823 1.90868,5.58711 2.77398,5.61498c0.17306,0.00558 0.60646,0.17082 0.96366,0.36776c0.77915,0.42965 2.6658,0.45918 3.87522,0.06041c0.40692,-0.13426 0.94393,-0.27704 1.19459,-0.31728c1.84399,-0.29783 6.89385,-7.23802 6.21663,-8.54473M242.7829,239.08079c-3.21227,-0.18935 -7.00781,-0.42044 -8.43517,-0.51276c-3.1162,-0.20237 -3.24382,-0.16402 -3.12349,0.93298c0.18025,1.64597 1.52148,6.79073 2.07827,7.97304c0.17082,0.36321 0.59233,1.38206 0.93673,2.26472c1.10667,2.83677 3.66544,6.46744 5.1222,7.26783c0.9293,0.51062 3.86452,0.7862 6.7243,0.63187c3.70844,-0.20068 7.12441,-3.09332 9.43065,-7.98591c0.41535,-0.88063 0.81075,-1.67213 0.87896,-1.75972c0.36286,-0.46313 2.53749,-7.20851 2.42724,-7.52731c-0.12818,-0.36866 -0.68909,-0.43846 -5.65629,-0.70093c-2.49871,-0.13172 -7.17113,-0.39495 -10.38342,-0.58381" fill="#0b0b0b" fill-rule="evenodd" stroke-width="1"/><path d="M408.30986,241.70567c0.49611,1.42972 -1.40598,5.54082 -3.62321,7.80597c-0.60855,0.62163 -1.11424,1.19411 -1.11653,1.26528c-0.0023,0.07117 -0.54582,0.39203 -1.2007,0.70961c-1.6449,0.79809 -3.21436,0.87044 -4.27378,0.20289c-1.3,-0.81926 -3.88229,-4.27499 -3.85397,-5.15443c0.00691,-0.21449 -0.1241,-0.6849 -0.29172,-1.04117c-0.41193,-0.87702 -0.37012,-1.18352 0.19488,-1.45324c0.83462,-0.39816 6.80848,-1.67332 7.74519,-1.65046c1.00353,0.02403 1.62312,-0.06755 3.59571,-0.57009c1.63013,-0.41549 2.70531,-0.45586 2.82412,-0.11435" data-paper-data="{&quot;noHover&quot;:false,&quot;origItem&quot;:[&quot;Path&quot;,{&quot;applyMatrix&quot;:true,&quot;segments&quot;:[[[996.25601,588.83504],[0,0],[-0.532,-1.384]],[[984.71201,589.69304],[6.626,-1.918],[-8.018,2.32]],[[970.09801,592.52704],[4.116,-0.034],[-3.842,0.03]],[[938.68601,600.24904],[3.368,-1.742],[-2.28,1.18]],[[938.08401,606.21104],[-1.804,-3.54],[0.734,1.438]],[[939.41801,610.42504],[0,-0.88],[0,3.608]],[[955.84001,630.95304],[-5.436,-3.186],[4.43,2.596]],[[973.25001,629.55104],[-6.636,3.488],[2.642,-1.388]],[[978.05201,626.49704],[0,0.292],[0,-0.292]],[[982.43601,621.18904],[-2.412,2.628],[8.788,-9.576]],[[996.25601,588.83504],[2.222,5.794],[0,0]]],&quot;fillColor&quot;:[0,0,0,1]}]}" fill="#ff6cbf" fill-rule="nonzero" stroke-width="0.5"/><path d="M242.77783,239.05694c3.21228,0.18886 7.90682,0.4585 10.40553,0.59023c4.9672,0.26248 5.5323,0.33775 5.66049,0.70641c0.11027,0.3188 -2.06125,7.0753 -2.42411,7.53844c-0.06821,0.08759 -0.46379,0.88297 -0.87914,1.76362c-2.30626,4.89259 -5.74293,7.8063 -9.45137,8.00697c-2.85978,0.15432 -5.81128,-0.12464 -6.74058,-0.63525c-1.45677,-0.8004 -4.02689,-4.44848 -5.13357,-7.28525c-0.3444,-0.88266 -0.76608,-1.90659 -0.93689,-2.2698c-0.55679,-1.18231 -1.89414,-6.33863 -2.07439,-7.98461c-0.12033,-1.09699 0.00993,-1.13871 3.12612,-0.93634c1.42736,0.09233 5.23564,0.31621 8.44791,0.50556" data-paper-data="{&quot;noHover&quot;:false,&quot;origItem&quot;:[&quot;Path&quot;,{&quot;applyMatrix&quot;:true,&quot;segments&quot;:[[[317.60201,599.86904],[0,0],[-13.19,-0.352]],[[282.96401,598.88104],[5.862,0.19],[-12.798,-0.418]],[[270.28601,603.11704],[-0.638,-4.48],[0.956,6.722]],[[279.85601,635.51904],[-2.438,-4.772],[0.748,1.466]],[[283.99401,644.67704],[-1.528,-3.572],[4.91,11.48]],[[305.94601,673.78704],[-6.076,-3.088],[3.876,1.97]],[[333.58801,675.48904],[-11.7,1.01],[15.172,-1.312]],[[371.18401,641.51504],[-8.806,20.356],[1.586,-3.664]],[[374.55401,634.18704],[-0.268,0.368],[1.426,-1.946]],[[383.50801,603.01704],[0.494,1.292],[-0.574,-1.494]],[[360.23401,600.89104],[20.392,0.42],[-10.258,-0.21]],[[317.60201,599.86904],[13.19,0.35],[0,0]]],&quot;fillColor&quot;:[0,0,0,1]}]}" fill="#ff6cbf" fill-rule="nonzero" stroke-width="0.5"/><path d="M297.46377,240.06417c-0.09986,3.10047 -2.53981,7.5355 -5.03653,9.1299c-0.51819,0.33125 -1.48244,1.09074 -2.13285,1.67931c-4.09054,3.70051 -8.53,2.47934 -11.05211,-3.03188c-1.94766,-4.25613 -2.18859,-5.15033 -1.44707,-5.29431c0.24748,-0.04765 1.22513,-0.27171 2.17069,-0.49306c0.94604,-0.22134 2.46108,-0.55121 3.36064,-0.7233c2.48709,-0.47719 6.90013,-1.46599 8.46161,-1.90126c1.29062,-0.35907 3.05599,-0.55163 4.9401,-0.5495l0.77251,0.00169l-0.03698,1.18242" data-paper-data="{&quot;noHover&quot;:false,&quot;origItem&quot;:[&quot;Path&quot;,{&quot;applyMatrix&quot;:true,&quot;segments&quot;:[[541.74801,596.73304],[541.74801,591.88904],[[538.58401,591.98704],[0,0],[-7.722,0.24]],[[518.43401,594.91304],[5.242,-1.642],[-6.342,1.99]],[[484.13001,603.81104],[10.13,-2.284],[-3.664,0.824]],[[470.47401,607.18904],[3.848,-1.032],[-3.846,1.032]],[[461.64801,609.48304],[1.008,-0.228],[-3.02,0.688]],[[468.27801,630.93304],[-8.544,-17.186],[11.064,22.254]],[[513.82401,641.84304],[-16.276,15.706],[2.588,-2.498]],[[522.31201,634.71104],[-2.08,1.426],[10.022,-6.864]],[[541.74801,596.73304],[0,12.72],[0,0]]],&quot;fillColor&quot;:[0,0,0,1]}]}" fill="#ff6cbf" fill-rule="nonzero" stroke-width="0.5"/><path d="M360.10283,242.31102c0.67722,1.30671 -4.38577,8.282 -6.22977,8.57982c-0.25066,0.04024 -0.79429,0.18433 -1.20121,0.3186c-1.20942,0.39879 -3.1129,0.3638 -3.89205,-0.06585c-0.35722,-0.19695 -0.79344,-0.3649 -0.96649,-0.37048c-0.8653,-0.02787 -2.10056,-2.53799 -2.77961,-5.63622c-0.21102,-0.96327 -0.22392,-1.27128 -0.06353,-1.41788c0.21573,-0.19801 3.25577,-0.60628 4.29024,-0.57297c0.33686,0.01085 1.21643,-0.07783 1.94426,-0.19101c5.97327,-0.92854 8.65514,-1.11351 8.89818,-0.64404" data-paper-data="{&quot;noHover&quot;:false,&quot;origItem&quot;:[&quot;Path&quot;,{&quot;applyMatrix&quot;:true,&quot;segments&quot;:[[[798.76201,597.67304],[0,0],[-1.058,-1.892]],[[762.49801,601.52904],[24.358,-4.594],[-2.968,0.56]],[[754.59001,602.54704],[1.382,0],[-4.244,0]],[[737.10801,605.42304],[0.858,-0.84],[-0.638,0.622]],[[737.56001,611.20904],[-0.992,-3.92],[3.192,12.608]],[[749.67001,633.85504],[-3.55,0],[0.71,0]],[[753.66801,635.23504],[-1.49,-0.76],[3.25,1.658]],[[769.55801,634.97104],[-4.904,1.794],[1.65,-0.604]],[[774.41201,633.51304],[-1.022,0.198],[7.518,-1.464]],[[798.76201,597.67304],[2.948,5.266],[0,0]]],&quot;fillColor&quot;:[0,0,0,1]}]}" fill="#ff6cbf" fill-rule="nonzero" stroke-width="0.5"/><path d="M243.40686,121.16352c2.65896,1.56526 4.95949,3.64895 5.77693,5.23884c1.18985,2.31485 1.58428,4.78905 1.76893,11.13168c0.0626,2.14727 0.15505,5.07434 0.20457,6.50627c0.08319,2.41681 -0.08213,6.34575 -0.45477,10.76381c0,0 -0.19381,6.87045 -0.06033,7.15046c0.59608,1.25042 2.08129,1.10813 2.7462,-0.24809c0.47426,-0.96756 0.70717,-1.06974 3.4699,-1.51462c4.68617,-0.75479 4.8138,-0.72274 4.14674,0.82127c-0.49043,1.13589 -0.48104,2.15914 0.03316,3.77c0.23888,0.74994 0.50777,1.69435 0.59623,2.09931c0.18373,0.84089 1.45271,3.55712 2.34903,5.03096c1.31807,2.16721 3.43022,3.92749 5.1707,4.31246c0.47486,0.10508 1.47487,0.52686 2.22144,0.93789c2.92731,1.61246 6.16274,1.61628 10.01951,0.02226c1.09848,-0.45408 1.45951,-0.52592 2.48813,-0.49279c0.66202,0.02133 2.05825,-0.03999 3.10321,-0.13517c1.04447,-0.09567 3.38463,-0.17433 5.2005,-0.17441c5.184,0.00105 7.56186,-0.57671 9.59971,-2.31813c1.69916,-1.4527 2.64051,-5.05338 1.84849,-7.0836c-0.20869,-0.53571 -0.46192,-1.21792 -0.56312,-1.51545c-0.11013,-0.3232 -0.5222,-0.82083 -1.07623,-1.28569c-0.51032,-0.4283 -0.96206,-0.83505 -0.96113,-0.86382c0.00867,-0.2691 0.78027,-0.35153 1.66918,-0.17748c2.818,0.55192 9.47071,1.39836 14.19187,1.81493l3.30065,0.29018l0.5737,0.71582c0.43721,0.54649 0.84064,0.82419 1.69851,1.17342c0.61752,0.2512 1.45022,0.59003 1.84665,0.75165c1.01635,0.41386 1.12976,0.85796 0.5711,2.26396c-1.40028,3.5212 -0.23206,6.45847 3.37324,8.52075c4.35089,2.48839 7.5983,2.83895 10.37927,1.08631c0.53297,-0.33566 1.35596,-0.8526 1.82914,-1.14969c0.47319,-0.29757 1.46993,-1.23282 2.21513,-2.08186c2.1317,-2.42746 2.22845,-2.47908 3.70158,-2.91376c2.41218,-0.7119 2.77628,-0.51481 2.97508,1.60073c0.29838,3.17478 2.78293,11.93322 4.14912,14.62121c0.25427,0.49961 0.5207,1.37018 0.59286,1.93272c0.14274,1.11333 0.7959,2.59302 1.26589,2.86435c0.16194,0.09354 0.50656,0.54082 0.76477,0.99323c0.75394,1.31847 0.58483,1.2723 7.14513,1.66319c15.67475,0.93382 33.22439,1.46294 36.91627,1.10947c0.86987,-0.08374 1.1438,0.20385 1.27777,1.51405c0.23332,2.286 0.40583,3.17987 0.84402,4.36275c0.24558,0.66329 0.44078,1.46253 0.43365,1.77512c-0.00665,0.3126 0.09018,0.71364 0.21572,0.89142c0.12554,0.17777 0.22154,0.52899 0.21343,0.78103c-0.0081,0.25155 0.3244,1.43748 0.73873,2.63423c0.89022,2.57213 1.16065,3.80049 1.12258,5.08858c-0.0267,0.90487 0.80838,5.73353 1.09107,6.30481c0.51084,1.03345 2.39966,11.42809 2.43932,13.42384c0.03893,1.95765 0.12218,1.87563 -2.47276,2.44401c-2.35266,0.51518 -7.61856,1.70812 -9.67097,2.18956c-0.69037,0.16223 -1.65022,0.42496 -2.13212,0.58415c-2.83317,0.93452 -2.55797,1.1583 -5.09455,-4.13086c-1.1844,-2.46887 -2.41871,-5.00849 -2.74228,-5.64453c-0.93905,-1.84414 -2.26082,-5.14085 -2.24591,-5.60349c0.0179,-0.55575 -0.57409,-2.50753 -1.22229,-4.03389c-0.28443,-0.66894 -0.79455,-2.17555 -1.13401,-3.34841c-0.33895,-1.17334 -0.81136,-2.57721 -1.04858,-3.12116c-0.23721,-0.54443 -0.4545,-1.28841 -0.48273,-1.65435c-0.07084,-0.92168 -2.57088,-6.34049 -4.17505,-8.00353c-0.66631,-0.691 -1.4772,-1.53412 -1.80198,-1.87447c-1.49175,-1.5628 -4.81631,-2.93003 -7.35721,-3.02457l-1.89812,-0.07012l-0.61171,0.54918c-3.78711,3.4009 -5.28601,10.38351 -4.29062,20.02332c0.19678,1.90563 0.69273,12.4504 0.73422,15.57103c0.03395,2.58214 0.1655,2.451 -2.598,2.58549c-1.0489,0.05112 -2.34815,0.15473 -2.88685,0.22913c-0.53873,0.07488 -1.78862,0.25082 -2.77644,0.39079c-4.75727,0.67394 -8.15223,0.87781 -8.58557,0.51395c-0.28414,-0.23851 -0.61031,-2.21989 -0.9995,-6.2272c-0.10883,-1.12103 -0.25951,-2.51502 -0.33392,-3.09863c-0.22144,-1.73074 -0.17954,-8.59927 0.11732,-18.04326l0.27532,-8.85522l-0.4001,-0.70317c-1.69842,-2.87291 -4.32763,-3.69626 -12.5935,-3.96543c-6.7249,-0.21953 -6.20346,-0.02675 -6.2814,-2.25844c-0.03485,-0.99372 -0.2043,-2.11664 -0.42664,-2.87971c-0.19682,-0.67685 -0.42127,-1.49047 -0.51458,-1.86581c-0.20516,-0.82693 -2.14114,-3.11107 -2.94286,-3.47703c-0.2924,-0.13338 -1.12929,-0.75638 -1.8499,-1.38275c-4.50357,-3.91486 -6.7733,-4.04254 -11.24667,-0.50172c-0.8433,0.66775 -1.84087,1.38522 -2.2166,1.59614c-0.37573,0.21091 -1.14939,0.81292 -1.71872,1.33821c-1.3479,1.24394 -2.27239,1.80109 -5.66583,3.41883c-2.74716,1.30964 -2.81614,1.35441 -3.28379,2.16163c-0.38344,0.66255 -0.62367,0.86384 -1.04758,0.93461c-0.84143,0.13979 -2.08895,0.51743 -3.15568,0.95594c-0.54351,0.22309 -1.18891,0.47021 -1.48756,0.57625c-1.54118,0.54767 -3.66439,4.9156 -2.90826,5.98427c0.12276,0.17329 0.4273,1.06004 0.67758,1.9709c0.25027,0.91135 0.61921,1.98988 0.82124,2.399c0.58595,1.18617 3.98143,9.90784 4.06799,10.44791c0.08049,0.50084 0.86183,2.48594 3.05077,7.73511c2.50285,6.00299 3.07173,7.99638 2.5362,8.48714c-0.27253,0.24937 -2.35454,0.8297 -5.24239,1.46185c-0.27031,0.05913 -0.67665,0.18354 -0.90314,0.27629c-1.01376,0.41485 -8.69209,1.88728 -10.30586,1.97682c-0.94011,0.0522 -2.24652,0.20099 -2.90171,0.33117l-1.19223,0.23668l-0.3974,-0.42381c-0.36988,-0.39451 -1.14912,-2.51768 -2.09675,-5.71679c-0.38816,-1.31205 -0.72664,-3.56537 -1.12336,-7.50509c-0.31902,-3.17057 -0.85283,-6.77064 -1.12798,-7.62179c-0.34265,-1.05829 -0.61687,-2.54006 -0.68906,-3.72286c-0.0371,-0.60582 -0.26677,-1.67297 -0.50978,-2.37034c-0.34532,-0.99054 -0.43439,-1.5291 -0.40452,-2.45631c0.04189,-1.30063 -0.23503,-2.11745 -1.05947,-3.12634c-0.24648,-0.30172 -0.44563,-0.6237 -0.44268,-0.71485c0.00296,-0.09164 -0.2011,-0.4431 -0.45323,-0.7816c-0.29332,-0.39302 -0.53965,-1.02778 -0.68346,-1.76003c-0.70937,-3.6116 -1.09282,-4.48884 -2.12689,-4.86766c-2.38263,-0.87219 -3.2472,0.90198 -3.37158,6.70275c-0.04707,2.18863 -0.21038,5.36251 -0.36155,7.05638c-0.24326,2.71959 -0.25192,3.51441 -0.06615,6.82221c0.53335,9.5005 0.5236,9.70122 -0.52927,14.52681c-0.91837,4.21017 -0.21187,3.84741 -6.4348,3.42152c-2.79546,-0.19107 -9.10045,-0.55561 -14.00895,-0.80691c-9.84379,-0.50495 -9.61452,-0.48218 -9.72229,-0.99951c-0.27768,-1.33288 -0.38289,-6.30771 -0.28623,-13.70268c0.06034,-4.64627 0.13851,-11.88832 0.17473,-16.08835c0.03623,-4.20052 0.10219,-10.71155 0.14644,-14.46431c0.06524,-5.51035 0.03499,-7.04629 -0.15823,-7.97141c-0.27103,-1.29705 0.34538,-28.18161 0.926,-40.45076l0.29245,-6.168l0.9319,-2.84788c1.35591,-4.14386 3.02868,-7.75545 4.12944,-8.91657c0.29856,-0.31491 0.85334,-1.00161 1.23233,-1.5262c1.73041,-2.39256 3.03265,-2.65452 5.62264,-1.12955" data-paper-data="{&quot;noHover&quot;:false,&quot;origItem&quot;:[&quot;Path&quot;,{&quot;applyMatrix&quot;:true,&quot;segments&quot;:[[[152.337,58.28952],[0,0],[-5.408,-2.954]],[[140.891,60.97352],[3.388,-5.017],[-0.742,1.1]],[[138.467,64.18152],[0.591,-0.665],[-2.179,2.452]],[[130.596,82.72152],[2.505,-8.581],[0,0]],[128.875,88.61752],[[128.684,101.27352],[0,0],[-0.38,25.18]],[[129.46,184.20452],[-0.641,-2.64],[0.457,1.883]],[[130.31,200.52452],[-0.23,-11.296],[0.157,7.693]],[[130.963,230.16652],[-0.203,-8.61],[0.203,8.609]],[[131.664,263.13852],[-0.183,-9.525],[0.29,15.16]],[[133.152,291.19352],[-0.657,-2.713],[0.255,1.053]],[[153.139,292.59752],[-20.205,-0.385],[10.075,0.191]],[[181.896,293.32252],[-5.741,-0.207],[12.78,0.462]],[[194.782,285.95352],[-1.604,8.688],[1.839,-9.958]],[[194.903,256.14452],[1.72,19.433],[-0.599,-6.766]],[[194.586,242.15652],[-0.319,5.589],[0.198,-3.481]],[[194.859,227.66852],[0.048,4.488],[-0.128,-11.895]],[[201.419,213.67552],[-4.94,-1.63],[2.144,0.708]],[[206.097,223.50552],[-1.692,-7.354],[0.343,1.491]],[[207.613,227.06552],[-0.627,-0.786],[0.539,0.677]],[[208.593,228.63652],[0,-0.188],[0,0.187]],[[209.547,230.07152],[-0.525,-0.602],[1.756,2.013]],[[211.923,236.40552],[0,-2.668],[0,1.902]],[[212.913,241.41052],[-0.773,-2.007],[0.544,1.413]],[[214.113,246.23252],[-0.116,-1.239],[0.226,2.419]],[[215.769,253.81352],[-0.772,-2.146],[0.62,1.726]],[[218.58,269.35352],[-0.863,-6.476],[1.073,8.047]],[[221.374,284.65552],[-0.882,-2.663],[2.153,6.493]],[[226.045,296.22952],[-0.784,-0.784],[0,0]],[226.887,297.07152],[[229.314,296.50752],[0,0],[1.334,-0.31]],[[235.237,295.63652],[-1.923,0.169],[3.301,-0.29]],[[256.22,290.90252],[-2.05,0.917],[0.458,-0.205]],[[258.052,290.27652],[-0.55,0.139],[5.876,-1.486]],[[268.695,286.93352],[-0.542,0.529],[1.065,-1.041]],[[262.895,269.79952],[5.525,12.136],[-4.832,-10.612]],[[256.127,254.14652],[0.198,1.021],[-0.213,-1.101]],[[247.093,232.99752],[1.279,2.392],[-0.441,-0.825]],[[245.25,228.13352],[0.573,1.851],[-0.573,-1.85]],[[243.73,224.13752],[0.263,0.347],[-1.62,-2.14]],[[249.292,211.67852],[-3.122,1.224],[0.605,-0.237]],[[252.39,210.35152],[-1.099,0.493],[2.157,-0.969]],[[258.793,208.18352],[-1.715,0.342],[0.864,-0.173]],[[260.791,206.24852],[-0.742,1.383],[0.905,-1.685]],[[267.377,201.60152],[-5.543,2.865],[6.847,-3.539]],[[278.761,194.22052],[-2.68,2.638],[1.132,-1.114]],[[282.194,191.36352],[-0.756,0.457],[0.756,-0.457]],[[286.63,187.94452],[-1.684,1.424],[8.933,-7.551]],[[309.771,188.16352],[-9.487,-7.725],[1.518,1.236]],[[313.637,190.87252],[-0.608,-0.254],[1.667,0.697]],[[319.883,197.80552],[-0.475,-1.681],[0.216,0.763]],[[321.09,201.69052],[-0.448,-1.374],[0.506,1.549]],[[322.126,207.46752],[-0.137,-2.034],[0.307,4.568]],[[335.134,211.68652],[-13.795,-0.006],[16.956,0.006]],[[361.191,218.99052],[-3.67,-5.775],[0,0]],[362.132,220.47152],[[362.146,238.64152],[0,0],[0.015,19.372]],[[363.088,275.62852],[-0.568,-3.532],[0.191,1.191]],[[363.976,281.95652],[-0.297,-2.29],[1.062,8.186]],[[366.393,294.56052],[-0.598,-0.47],[0.912,0.717]],[[383.947,292.94352],[-9.704,1.695],[2.015,-0.352]],[[389.609,291.96052],[-1.099,0.189],[1.099,-0.188]],[[395.508,291.30152],[-2.146,0.174],[5.654,-0.458]],[[400.659,285.83352],[0.24,5.289],[-0.291,-6.392]],[[398.121,253.97952],[0.529,3.892],[-2.676,-19.688]],[[405.582,212.68052],[-7.536,7.219],[0,0]],[406.799,211.51552],[[410.693,211.53452],[0,0],[5.213,0.026]],[[426.063,217.28052],[-3.16,-3.104],[0.688,0.676]],[[429.879,221.00352],[-1.411,-1.372],[3.397,3.302]],[[438.961,237.13252],[-0.206,-1.884],[0.082,0.748]],[[440.059,240.49152],[-0.522,-1.1],[0.522,1.099]],[[442.413,246.81952],[-0.772,-2.382],[0.773,2.381]],[[444.957,253.60752],[-0.627,-1.352],[1.429,3.085]],[[447.727,261.79452],[0,-1.14],[0,0.949]],[[452.698,273.13052],[-2.046,-3.717],[0.705,1.282]],[[458.689,284.51752],[-2.59,-4.981],[5.547,10.671]],[[469.321,292.58652],[-5.744,2.102],[0.977,-0.358]],[[473.651,291.24952],[-1.404,0.378],[4.174,-1.122]],[[493.322,286.12752],[-4.787,1.211],[5.28,-1.336]],[[498.227,280.95752],[0.209,4.009],[-0.213,-4.087]],[[492.34,253.61552],[1.115,2.084],[-0.617,-1.152]],[[489.687,240.77052],[0.005,1.856],[-0.007,-2.642]],[[487.05,230.41952],[1.994,5.212],[-0.928,-2.425]],[[485.362,225.07152],[0,0.516],[0,-0.517]],[[484.873,223.48552],[0.269,0.356],[-0.269,-0.356]],[[484.372,221.67352],[0.007,0.641],[-0.006,-0.641]],[[483.366,218.06552],[0.547,1.343],[-0.976,-2.395]],[[481.348,209.18352],[0.629,4.669],[-0.361,-2.676]],[[478.728,206.18352],[1.777,-0.229],[-7.542,0.968]],[[403.005,206.35352],[32.182,0.879],[-13.469,-0.368]],[[388.159,203.38452],[1.632,2.652],[-0.559,-0.91]],[[386.526,201.40052],[0.338,0.181],[-0.981,-0.525]],[[383.742,195.61752],[0.366,2.272],[-0.185,-1.148]],[[382.399,191.69852],[0.554,1.007],[-2.977,-5.418]],[[372.932,162.03352],[0.821,6.486],[-0.547,-4.322]],[[366.731,158.95352],[4.896,-1.618],[-2.99,0.988]],[[359.434,165.14052],[4.208,-5.115],[-1.471,1.789]],[[355.033,169.55652],[0.95,-0.641],[-0.95,0.64]],[[351.361,172.03552],[1.07,-0.723],[-5.583,3.775]],[[329.924,170.51852],[9.08,4.812],[-7.524,-3.988]],[[322.478,153.30952],[-2.637,7.308],[1.052,-2.918]],[[321.163,148.70952],[2.11,0.781],[-0.823,-0.305]],[[317.336,147.29252],[1.282,0.474],[-1.781,-0.659]],[[313.784,145.00052],[0.932,1.091],[0,0]],[312.563,143.57152],[[305.79,143.19352],[0,0],[-9.702,-0.542]],[[276.613,140.39752],[5.811,0.945],[-1.833,-0.298]],[[273.206,140.86952],[0,-0.552],[0,0.059]],[[275.158,142.50952],[-1.074,-0.844],[1.166,0.916]],[[277.523,145.13952],[-0.247,-0.655],[0.227,0.603]],[[278.778,148.20652],[-0.463,-1.084],[1.757,4.108]],[[275.466,162.82952],[3.386,-3.089],[-4.061,3.703]],[[255.95,168.20352],[10.623,-0.34],[-3.721,0.12]],[[245.305,168.90252],[2.134,-0.265],[-2.135,0.264]],[[238.955,169.38352],[1.358,0],[-2.11,0]],[[233.889,170.55652],[2.221,-1.003],[-7.798,3.521]],[[213.256,171.16552],[6.105,3.111],[-1.557,-0.793]],[[208.642,169.38952],[0.98,0.184],[-3.592,-0.674]],[[197.762,160.89052],[2.844,4.354],[-1.934,-2.961]],[[192.617,150.73252],[0.432,1.711],[-0.208,-0.824]],[[191.257,146.46852],[0.539,1.521],[-1.16,-3.267]],[[190.941,138.74252],[-0.93,2.36],[1.265,-3.208]],[[182.485,137.36252],[9.553,-1.856],[-5.632,1.094]],[[175.475,140.69352],[0.908,-2.014],[-1.273,2.823]],[[169.767,141.35852],[1.304,2.523],[-0.292,-0.565]],[[169.42,126.69752],[0,0],[0.472,-9.078]],[[169.644,104.60452],[0.33,4.947],[-0.196,-2.931]],[[168.797,91.28252],[0.27,4.396],[-0.797,-12.985]],[[164.44,68.58452],[2.591,4.665],[-1.78,-3.204]],[[152.337,58.28952],[5.552,3.032],[0,0]]],&quot;fillColor&quot;:[0.04314,0.04314,0.04314]}]}" fill="#fbfbfb" fill-rule="nonzero" stroke-width="0.5"/><path d="M233.46508,172.52347c-1.71567,-0.63396 -1.08172,-2.34963 -1.08172,-2.34963l0.37485,-0.86714c0.09655,-0.14299 0.19413,-0.28047 0.29191,-0.41397c-0.1407,-0.09944 -0.28652,-0.19481 -0.43881,-0.28532c0,0 -1.55803,-0.95812 -0.59991,-2.51614c0.95812,-1.55803 2.51614,-0.59991 2.51614,-0.59991c0.1593,0.10026 0.31285,0.20324 0.46176,0.30867c0.13732,-0.30696 0.80903,-1.57609 2.32248,-1.01686c1.71567,0.63396 1.08172,2.34963 1.08172,2.34963c-0.16678,0.42751 -0.34876,0.80912 -0.54349,1.16432c0.03354,0.03007 0.06728,0.06013 0.10121,0.09021l0.74882,0.98263c0,0 1.04976,1.49781 -0.44805,2.54757c-1.2829,0.89914 -2.2371,-0.07067 -2.48451,-0.3675c-0.175,0.36666 -0.85234,1.50921 -2.30237,0.9734z" fill="#0b0b0b" fill-rule="nonzero" stroke-width="0.5"/></g></g></svg>