<svg version="1.1" xmlns="http://www.w3.org/2000/svg" xmlns:xlink="http://www.w3.org/1999/xlink" width="842.2269" height="505.33614" viewBox="0,0,842.2269,505.33614"><g transform="translate(101.11345,72.66806)"><g data-paper-data="{&quot;isPaintingLayer&quot;:true}" fill-rule="nonzero" stroke-width="0" stroke-linecap="butt" stroke-linejoin="miter" stroke-miterlimit="10" stroke-dasharray="" stroke-dashoffset="0" style="mix-blend-mode: normal"><path d="M-101.11345,432.66808v-505.33614h842.2269v505.33614z" fill="#000bff" stroke="#ffffff"/><g stroke="#000000"><g fill="#000abf"><path d="M320,243.16703v-21.05567h21.05567v21.05567z"/><path d="M341.05567,264.2227v-21.05567h21.05567v21.05567z"/><path d="M362.11135,243.16703v-21.05567h21.05567v21.05567z"/><path d="M383.16702,264.2227v-21.05567h21.05567v21.05567z"/><path d="M320,201.05568v-21.05567h21.05567v21.05567z"/><path d="M341.05567,222.11136v-21.05567h21.05567v21.05567z"/><path d="M362.11135,201.05568v-21.05567h21.05567v21.05567z"/><path d="M383.16702,222.11136v-21.05567h21.05567v21.05567z"/><path d="M235.77731,243.16703v-21.05567h21.05567v21.05567z"/><path d="M256.83298,264.2227v-21.05567h21.05567v21.05567z"/><path d="M277.88865,243.16703v-21.05567h21.05567v21.05567z"/><path d="M298.94433,264.2227v-21.05567h21.05567v21.05567z"/><path d="M235.77731,201.05568v-21.05567h21.05567v21.05567z"/><path d="M256.83298,222.11136v-21.05567h21.05567v21.05567z"/><path d="M277.88865,201.05568v-21.05567h21.05567v21.05567z"/><path d="M298.94433,222.11136v-21.05567h21.05567v21.05567z"/><path d="M320,158.94434v-21.05567h21.05567v21.05567z"/><path d="M341.05567,180.00001v-21.05567h21.05567v21.05567z"/><path d="M362.11135,158.94434v-21.05567h21.05567v21.05567z"/><path d="M383.16702,180.00001v-21.05567h21.05567v21.05567z"/><path d="M320,116.83299v-21.05567h21.05567v21.05567z"/><path d="M341.05567,137.88867v-21.05567h21.05567v21.05567z"/><path d="M362.11135,116.83299v-21.05567h21.05567v21.05567z"/><path d="M383.16702,137.88867v-21.05567h21.05567v21.05567z"/><path d="M235.77731,158.94434v-21.05567h21.05567v21.05567z"/><path d="M256.83298,180.00001v-21.05567h21.05567v21.05567z"/><path d="M277.88865,158.94434v-21.05567h21.05567v21.05567z"/><path d="M298.94433,180.00001v-21.05567h21.05567v21.05567z"/><path d="M235.77731,116.83299v-21.05567h21.05567v21.05567z"/><path d="M256.83298,137.88867v-21.05567h21.05567v21.05567z"/><path d="M277.88865,116.83299v-21.05567h21.05567v21.05567z"/><path d="M298.94433,137.88867v-21.05567h21.05567v21.05567z"/></g><g fill="#000abf"><path d="M151.55462,243.16703v-21.05568h21.05567v21.05568z"/><path d="M172.61029,264.2227v-21.05567h21.05567v21.05567z"/><path d="M193.66596,243.16703v-21.05568h21.05567v21.05568z"/><path d="M214.72164,264.2227v-21.05567h21.05567v21.05567z"/><path d="M151.55462,201.05568v-21.05567h21.05567v21.05567z"/><path d="M172.61029,222.11135v-21.05568h21.05567v21.05568z"/><path d="M193.66596,201.05568v-21.05567h21.05567v21.05567z"/><path d="M214.72164,222.11135v-21.05568h21.05567v21.05568z"/><path d="M67.33193,243.16703v-21.05568h21.05567v21.05568z"/><path d="M88.3876,264.2227v-21.05567h21.05568v21.05567z"/><path d="M109.44327,243.16703v-21.05568h21.05567v21.05568z"/><path d="M130.49894,264.2227v-21.05567h21.05568v21.05567z"/><path d="M67.33193,201.05568v-21.05567h21.05567v21.05567z"/><path d="M88.3876,222.11135v-21.05567h21.05568v21.05567z"/><path d="M109.44327,201.05568v-21.05567h21.05567v21.05567z"/><path d="M130.49894,222.11135v-21.05567h21.05568v21.05567z"/><path d="M151.55462,158.94433v-21.05567h21.05568v21.05567z"/><path d="M172.61029,180.00001v-21.05568h21.05567v21.05568z"/><path d="M193.66596,158.94433v-21.05567h21.05567v21.05567z"/><path d="M214.72164,180.00001v-21.05568h21.05567v21.05568z"/><path d="M151.55462,116.83299v-21.05567h21.05568v21.05567z"/><path d="M172.61029,137.88866v-21.05568h21.05567v21.05568z"/><path d="M193.66596,116.83299v-21.05567h21.05567v21.05567z"/><path d="M214.72164,137.88866v-21.05568h21.05567v21.05568z"/><path d="M67.33193,158.94433v-21.05567h21.05567v21.05567z"/><path d="M88.3876,180.00001v-21.05568h21.05568v21.05568z"/><path d="M109.44327,158.94433v-21.05567h21.05567v21.05567z"/><path d="M130.49894,180.00001v-21.05568h21.05568v21.05568z"/><path d="M67.33193,116.83299v-21.05567h21.05567v21.05567z"/><path d="M88.3876,137.88866v-21.05568h21.05568v21.05568z"/><path d="M109.44327,116.83299v-21.05567h21.05567v21.05567z"/><path d="M130.49894,137.88866v-21.05568h21.05568v21.05568z"/></g><g fill="#000abf"><path d="M488.44538,243.16703v-21.05568h21.05567v21.05568z"/><path d="M509.50105,264.2227v-21.05567h21.05568v21.05567z"/><path d="M530.55673,243.16703v-21.05568h21.05568v21.05568z"/><path d="M551.6124,264.2227v-21.05567h21.05567v21.05567z"/><path d="M488.44538,201.05568v-21.05567h21.05567v21.05567z"/><path d="M509.50105,222.11135v-21.05567h21.05568v21.05567z"/><path d="M530.55673,201.05568v-21.05567h21.05568v21.05567z"/><path d="M551.6124,222.11135v-21.05567h21.05567v21.05567z"/><path d="M404.22269,243.16703v-21.05568h21.05567v21.05568z"/><path d="M425.27836,264.2227v-21.05567h21.05567v21.05567z"/><path d="M446.33404,243.16703v-21.05568h21.05567v21.05568z"/><path d="M467.38971,264.2227v-21.05567h21.05568v21.05567z"/><path d="M404.22269,201.05568v-21.05568h21.05567v21.05568z"/><path d="M425.27836,222.11135v-21.05567h21.05567v21.05567z"/><path d="M446.33404,201.05568v-21.05568h21.05567v21.05568z"/><path d="M467.38971,222.11135v-21.05567h21.05568v21.05567z"/><path d="M488.44538,158.94433v-21.05567h21.05568v21.05567z"/><path d="M509.50106,180.00001v-21.05568h21.05567v21.05568z"/><path d="M530.55673,158.94433v-21.05567h21.05568v21.05567z"/><path d="M551.6124,180.00001v-21.05568h21.05567v21.05568z"/><path d="M488.44538,116.83299v-21.05567h21.05568v21.05567z"/><path d="M509.50106,137.88866v-21.05568h21.05567v21.05568z"/><path d="M530.55673,116.83299v-21.05567h21.05568v21.05567z"/><path d="M551.6124,137.88866v-21.05568h21.05567v21.05568z"/><path d="M404.22269,158.94433v-21.05567h21.05567v21.05567z"/><path d="M425.27836,180.00001v-21.05568h21.05567v21.05568z"/><path d="M446.33404,158.94433v-21.05567h21.05567v21.05567z"/><path d="M467.38971,180.00001v-21.05568h21.05568v21.05568z"/><path d="M404.22269,116.83299v-21.05567h21.05567v21.05567z"/><path d="M425.27836,137.88866v-21.05568h21.05567v21.05568z"/><path d="M446.33404,116.83299v-21.05567h21.05567v21.05567z"/><path d="M467.38971,137.88866v-21.05568h21.05568v21.05568z"/></g><g fill="#000abf"><path d="M488.44538,243.16703v-21.05568h21.05567v21.05568z"/><path d="M509.50105,264.2227v-21.05567h21.05568v21.05567z"/><path d="M530.55673,243.16703v-21.05568h21.05568v21.05568z"/><path d="M551.6124,264.2227v-21.05567h21.05567v21.05567z"/><path d="M488.44538,201.05568v-21.05567h21.05567v21.05567z"/><path d="M509.50105,222.11135v-21.05567h21.05568v21.05567z"/><path d="M530.55673,201.05568v-21.05567h21.05568v21.05567z"/><path d="M551.6124,222.11135v-21.05567h21.05567v21.05567z"/><path d="M404.22269,243.16703v-21.05568h21.05567v21.05568z"/><path d="M425.27836,264.2227v-21.05567h21.05567v21.05567z"/><path d="M446.33404,243.16703v-21.05568h21.05567v21.05568z"/><path d="M467.38971,264.2227v-21.05567h21.05568v21.05567z"/><path d="M404.22269,201.05568v-21.05568h21.05567v21.05568z"/><path d="M425.27836,222.11135v-21.05567h21.05567v21.05567z"/><path d="M446.33404,201.05568v-21.05568h21.05567v21.05568z"/><path d="M467.38971,222.11135v-21.05567h21.05568v21.05567z"/><path d="M488.44538,158.94433v-21.05567h21.05568v21.05567z"/><path d="M509.50106,180.00001v-21.05568h21.05567v21.05568z"/><path d="M530.55673,158.94433v-21.05567h21.05568v21.05567z"/><path d="M551.6124,180.00001v-21.05568h21.05567v21.05568z"/><path d="M488.44538,116.83299v-21.05567h21.05568v21.05567z"/><path d="M509.50106,137.88866v-21.05568h21.05567v21.05568z"/><path d="M530.55673,116.83299v-21.05567h21.05568v21.05567z"/><path d="M551.6124,137.88866v-21.05568h21.05567v21.05568z"/><path d="M404.22269,158.94433v-21.05567h21.05567v21.05567z"/><path d="M425.27836,180.00001v-21.05568h21.05567v21.05568z"/><path d="M446.33404,158.94433v-21.05567h21.05567v21.05567z"/><path d="M467.38971,180.00001v-21.05568h21.05568v21.05568z"/><path d="M404.22269,116.83299v-21.05567h21.05567v21.05567z"/><path d="M425.27836,137.88866v-21.05568h21.05567v21.05568z"/><path d="M446.33404,116.83299v-21.05567h21.05567v21.05567z"/><path d="M467.38971,137.88866v-21.05568h21.05568v21.05568z"/></g><g fill="#000abf"><path d="M656.89076,74.72165v-21.05568h21.05567v21.05568z"/><path d="M677.94643,95.77732v-21.05567h21.05568v21.05567z"/><path d="M699.00211,74.72165v-21.05568h21.05568v21.05568z"/><path d="M720.05778,95.77732v-21.05567h21.05567v21.05567z"/><path d="M656.89076,32.6103v-21.05567h21.05567v21.05567z"/><path d="M677.94643,53.66597v-21.05568h21.05568v21.05568z"/><path d="M699.00211,32.6103v-21.05567h21.05568v21.05567z"/><path d="M720.05778,53.66597v-21.05568h21.05567v21.05568z"/><path d="M572.66807,74.72165v-21.05568h21.05567v21.05568z"/><path d="M593.72374,95.77732v-21.05567h21.05567v21.05567z"/><path d="M614.77942,74.72165v-21.05568h21.05567v21.05568z"/><path d="M635.83509,95.77732v-21.05567h21.05567v21.05567z"/><path d="M572.66807,32.6103v-21.05568h21.05567v21.05568z"/><path d="M593.72374,53.66597v-21.05567h21.05567v21.05567z"/><path d="M614.77942,32.6103v-21.05568h21.05567v21.05568z"/><path d="M635.83509,53.66597v-21.05567h21.05567v21.05567z"/><path d="M656.89076,-9.50105v-21.05567h21.05568v21.05567z"/><path d="M677.94644,11.55463v-21.05568h21.05567v21.05568z"/><path d="M699.00211,-9.50105v-21.05567h21.05568v21.05567z"/><path d="M720.05778,11.55463v-21.05568h21.05567v21.05568z"/><path d="M656.89076,-51.61239v-21.05567h21.05568v21.05567z"/><path d="M677.94644,-30.55672v-21.05567h21.05567v21.05567z"/><path d="M699.00211,-51.61239v-21.05567h21.05568v21.05567z"/><path d="M720.05778,-30.55672v-21.05567h21.05567v21.05567z"/><path d="M572.66807,-9.50105v-21.05567h21.05567v21.05567z"/><path d="M593.72374,11.55463v-21.05568h21.05567v21.05568z"/><path d="M614.77942,-9.50105v-21.05567h21.05567v21.05567z"/><path d="M635.83509,11.55463v-21.05568h21.05567v21.05568z"/><path d="M572.66807,-51.61239v-21.05567h21.05567v21.05567z"/><path d="M593.72374,-30.55672v-21.05567h21.05567v21.05567z"/><path d="M614.77942,-51.61239v-21.05567h21.05567v21.05567z"/><path d="M635.83509,-30.55672v-21.05567h21.05567v21.05567z"/></g><g fill="#000abf"><path d="M656.89076,243.16703v-21.05568h21.05567v21.05568z"/><path d="M677.94643,264.2227v-21.05567h21.05568v21.05567z"/><path d="M699.00211,243.16703v-21.05568h21.05567v21.05568z"/><path d="M720.05778,264.2227v-21.05567h21.05567v21.05567z"/><path d="M656.89076,201.05568v-21.05567h21.05567v21.05567z"/><path d="M677.94643,222.11135v-21.05567h21.05568v21.05567z"/><path d="M699.00211,201.05568v-21.05567h21.05567v21.05567z"/><path d="M720.05778,222.11135v-21.05567h21.05567v21.05567z"/><path d="M572.66807,243.16703v-21.05568h21.05567v21.05568z"/><path d="M593.72374,264.2227v-21.05567h21.05567v21.05567z"/><path d="M614.77942,243.16703v-21.05568h21.05567v21.05568z"/><path d="M635.83509,264.2227v-21.05567h21.05567v21.05567z"/><path d="M572.66807,201.05568v-21.05568h21.05567v21.05568z"/><path d="M593.72374,222.11135v-21.05567h21.05567v21.05567z"/><path d="M614.77942,201.05568v-21.05568h21.05567v21.05568z"/><path d="M635.83509,222.11135v-21.05567h21.05567v21.05567z"/><path d="M656.89076,158.94433v-21.05567h21.05568v21.05567z"/><path d="M677.94644,180.00001v-21.05567h21.05567v21.05567z"/><path d="M699.00211,158.94433v-21.05567h21.05567v21.05567z"/><path d="M720.05778,180.00001v-21.05567h21.05567v21.05567z"/><path d="M656.89076,116.83299v-21.05567h21.05568v21.05567z"/><path d="M677.94644,137.88866v-21.05568h21.05567v21.05568z"/><path d="M699.00211,116.83299v-21.05567h21.05567v21.05567z"/><path d="M720.05778,137.88866v-21.05568h21.05567v21.05568z"/><path d="M572.66807,158.94433v-21.05567h21.05567v21.05567z"/><path d="M593.72374,180.00001v-21.05567h21.05567v21.05567z"/><path d="M614.77942,158.94433v-21.05567h21.05567v21.05567z"/><path d="M635.83509,180.00001v-21.05567h21.05567v21.05567z"/><path d="M572.66807,116.83299v-21.05567h21.05567v21.05567z"/><path d="M593.72374,137.88866v-21.05568h21.05567v21.05568z"/><path d="M614.77942,116.83299v-21.05567h21.05567v21.05567z"/><path d="M635.83509,137.88866v-21.05568h21.05567v21.05568z"/></g><g fill="#000abf"><path d="M320,74.72165v-21.05568h21.05568v21.05568z"/><path d="M341.05568,95.77732v-21.05567h21.05567v21.05567z"/><path d="M362.11135,74.72165v-21.05568h21.05567v21.05568z"/><path d="M383.16702,95.77732v-21.05567h21.05567v21.05567z"/><path d="M320,32.61031v-21.05567h21.05568v21.05567z"/><path d="M341.05568,53.66598v-21.05567h21.05567v21.05567z"/><path d="M362.11135,32.61031v-21.05567h21.05567v21.05567z"/><path d="M383.16702,53.66598v-21.05567h21.05567v21.05567z"/><path d="M235.77731,74.72165v-21.05568h21.05567v21.05568z"/><path d="M256.83298,95.77732v-21.05567h21.05568v21.05567z"/><path d="M277.88866,74.72165v-21.05568h21.05568v21.05568z"/><path d="M298.94433,95.77732v-21.05567h21.05567v21.05567z"/><path d="M235.77731,32.61031v-21.05567h21.05567v21.05567z"/><path d="M256.83298,53.66598v-21.05567h21.05568v21.05567z"/><path d="M277.88866,32.61031v-21.05567h21.05568v21.05567z"/><path d="M298.94433,53.66598v-21.05567h21.05567v21.05567z"/><path d="M320,-9.50104v-21.05568h21.05568v21.05568z"/><path d="M341.05568,11.55463v-21.05567h21.05567v21.05567z"/><path d="M362.11135,-9.50104v-21.05568h21.05567v21.05568z"/><path d="M383.16702,11.55463v-21.05567h21.05567v21.05567z"/><path d="M320,-51.61239v-21.05567h21.05568v21.05567z"/><path d="M341.05568,-30.55671v-21.05568h21.05567v21.05568z"/><path d="M362.11135,-51.61239v-21.05567h21.05567v21.05567z"/><path d="M383.16702,-30.55671v-21.05568h21.05567v21.05568z"/><path d="M235.77731,-9.50104v-21.05568h21.05567v21.05568z"/><path d="M256.83298,11.55463v-21.05567h21.05568v21.05567z"/><path d="M277.88866,-9.50104v-21.05568h21.05568v21.05568z"/><path d="M298.94433,11.55463v-21.05567h21.05567v21.05567z"/><path d="M235.77731,-51.61239v-21.05567h21.05567v21.05567z"/><path d="M256.83298,-30.55671v-21.05568h21.05568v21.05568z"/><path d="M277.88866,-51.61239v-21.05567h21.05568v21.05567z"/><path d="M298.94433,-30.55671v-21.05568h21.05567v21.05568z"/></g><g fill="#000abf"><path d="M151.55462,74.72165v-21.05568h21.05567v21.05568z"/><path d="M172.61029,95.77732v-21.05567h21.05567v21.05567z"/><path d="M193.66597,74.72165v-21.05568h21.05568v21.05568z"/><path d="M214.72164,95.77732v-21.05567h21.05567v21.05567z"/><path d="M151.55462,32.6103v-21.05567h21.05567v21.05567z"/><path d="M172.61029,53.66597v-21.05568h21.05567v21.05568z"/><path d="M193.66597,32.6103v-21.05567h21.05568v21.05567z"/><path d="M214.72164,53.66597v-21.05568h21.05567v21.05568z"/><path d="M67.33193,74.72165v-21.05568h21.05567v21.05568z"/><path d="M88.3876,95.77732v-21.05567h21.05568v21.05567z"/><path d="M109.44328,74.72165v-21.05568h21.05567v21.05568z"/><path d="M130.49895,95.77732v-21.05567h21.05568v21.05567z"/><path d="M67.33193,32.6103v-21.05567h21.05567v21.05567z"/><path d="M88.3876,53.66597v-21.05567h21.05568v21.05567z"/><path d="M109.44328,32.6103v-21.05567h21.05567v21.05567z"/><path d="M130.49895,53.66597v-21.05567h21.05568v21.05567z"/><path d="M151.55462,-9.50105v-21.05567h21.05567v21.05567z"/><path d="M172.6103,11.55463v-21.05568h21.05567v21.05568z"/><path d="M193.66597,-9.50105v-21.05567h21.05568v21.05567z"/><path d="M214.72164,11.55463v-21.05568h21.05567v21.05568z"/><path d="M151.55462,-51.61239v-21.05567h21.05567v21.05567z"/><path d="M172.6103,-30.55672v-21.05568h21.05567v21.05568z"/><path d="M193.66597,-51.61239v-21.05567h21.05568v21.05567z"/><path d="M214.72164,-30.55672v-21.05568h21.05567v21.05568z"/><path d="M67.33193,-9.50105v-21.05567h21.05567v21.05567z"/><path d="M88.3876,11.55463v-21.05568h21.05568v21.05568z"/><path d="M109.44328,-9.50105v-21.05567h21.05567v21.05567z"/><path d="M130.49895,11.55463v-21.05568h21.05568v21.05568z"/><path d="M67.33193,-51.61239v-21.05567h21.05567v21.05567z"/><path d="M88.3876,-30.55672v-21.05568h21.05568v21.05568z"/><path d="M109.44328,-51.61239v-21.05567h21.05567v21.05567z"/><path d="M130.49895,-30.55672v-21.05568h21.05568v21.05568z"/></g><g fill="#000abf"><path d="M488.44538,74.72165v-21.05568h21.05567v21.05568z"/><path d="M509.50105,95.77732v-21.05567h21.05567v21.05567z"/><path d="M530.55673,74.72165v-21.05568h21.05568v21.05568z"/><path d="M551.6124,95.77732v-21.05567h21.05567v21.05567z"/><path d="M488.44538,32.6103v-21.05567h21.05567v21.05567z"/><path d="M509.50105,53.66598v-21.05567h21.05567v21.05567z"/><path d="M530.55673,32.6103v-21.05567h21.05568v21.05567z"/><path d="M551.6124,53.66598v-21.05567h21.05567v21.05567z"/><path d="M404.22269,74.72165v-21.05568h21.05567v21.05568z"/><path d="M425.27836,95.77732v-21.05567h21.05567v21.05567z"/><path d="M446.33404,74.72165v-21.05568h21.05567v21.05568z"/><path d="M467.38971,95.77732v-21.05567h21.05568v21.05567z"/><path d="M404.22269,32.61031v-21.05567h21.05567v21.05567z"/><path d="M425.27836,53.66598v-21.05567h21.05567v21.05567z"/><path d="M446.33404,32.61031v-21.05567h21.05567v21.05567z"/><path d="M467.38971,53.66598v-21.05567h21.05568v21.05567z"/><path d="M488.44538,-9.50104v-21.05567h21.05568v21.05567z"/><path d="M509.50106,11.55463v-21.05568h21.05567v21.05568z"/><path d="M530.55673,-9.50104v-21.05567h21.05568v21.05567z"/><path d="M551.6124,11.55463v-21.05568h21.05567v21.05568z"/><path d="M488.44538,-51.61239v-21.05567h21.05568v21.05567z"/><path d="M509.50106,-30.55671v-21.05568h21.05567v21.05568z"/><path d="M530.55673,-51.61239v-21.05567h21.05568v21.05567z"/><path d="M551.6124,-30.55671v-21.05568h21.05567v21.05568z"/><path d="M404.22269,-9.50104v-21.05567h21.05567v21.05567z"/><path d="M425.27836,11.55463v-21.05568h21.05567v21.05568z"/><path d="M446.33404,-9.50104v-21.05567h21.05567v21.05567z"/><path d="M467.38971,11.55463v-21.05568h21.05568v21.05568z"/><path d="M404.22269,-51.61239v-21.05567h21.05567v21.05567z"/><path d="M425.27836,-30.55671v-21.05568h21.05567v21.05568z"/><path d="M446.33404,-51.61239v-21.05567h21.05567v21.05567z"/><path d="M467.38971,-30.55671v-21.05568h21.05568v21.05568z"/></g><g fill="#000abf"><path d="M488.44538,74.72165v-21.05568h21.05567v21.05568z"/><path d="M509.50105,95.77732v-21.05567h21.05567v21.05567z"/><path d="M530.55673,74.72165v-21.05568h21.05568v21.05568z"/><path d="M551.6124,95.77732v-21.05567h21.05567v21.05567z"/><path d="M488.44538,32.6103v-21.05567h21.05567v21.05567z"/><path d="M509.50105,53.66598v-21.05567h21.05567v21.05567z"/><path d="M530.55673,32.6103v-21.05567h21.05568v21.05567z"/><path d="M551.6124,53.66598v-21.05567h21.05567v21.05567z"/><path d="M404.22269,74.72165v-21.05568h21.05567v21.05568z"/><path d="M425.27836,95.77732v-21.05567h21.05567v21.05567z"/><path d="M446.33404,74.72165v-21.05568h21.05567v21.05568z"/><path d="M467.38971,95.77732v-21.05567h21.05568v21.05567z"/><path d="M404.22269,32.61031v-21.05567h21.05567v21.05567z"/><path d="M425.27836,53.66598v-21.05567h21.05567v21.05567z"/><path d="M446.33404,32.61031v-21.05567h21.05567v21.05567z"/><path d="M467.38971,53.66598v-21.05567h21.05568v21.05567z"/><path d="M488.44538,-9.50104v-21.05567h21.05568v21.05567z"/><path d="M509.50106,11.55463v-21.05568h21.05567v21.05568z"/><path d="M530.55673,-9.50104v-21.05567h21.05568v21.05567z"/><path d="M551.6124,11.55463v-21.05568h21.05567v21.05568z"/><path d="M488.44538,-51.61239v-21.05567h21.05568v21.05567z"/><path d="M509.50106,-30.55671v-21.05568h21.05567v21.05568z"/><path d="M530.55673,-51.61239v-21.05567h21.05568v21.05567z"/><path d="M551.6124,-30.55671v-21.05568h21.05567v21.05568z"/><path d="M404.22269,-9.50104v-21.05567h21.05567v21.05567z"/><path d="M425.27836,11.55463v-21.05568h21.05567v21.05568z"/><path d="M446.33404,-9.50104v-21.05567h21.05567v21.05567z"/><path d="M467.38971,11.55463v-21.05568h21.05568v21.05568z"/><path d="M404.22269,-51.61239v-21.05567h21.05567v21.05567z"/><path d="M425.27836,-30.55671v-21.05568h21.05567v21.05568z"/><path d="M446.33404,-51.61239v-21.05567h21.05567v21.05567z"/><path d="M467.38971,-30.55671v-21.05568h21.05568v21.05568z"/></g><g fill="#000abf"><path d="M320,411.61241v-21.05568h21.05568v21.05568z"/><path d="M341.05567,432.66808v-21.05567h21.05567v21.05567z"/><path d="M362.11134,411.61241v-21.05568h21.05567v21.05568z"/><path d="M383.16702,432.66808v-21.05567h21.05567v21.05567z"/><path d="M320,369.50107v-21.05568h21.05568v21.05568z"/><path d="M341.05567,390.55674v-21.05567h21.05567v21.05567z"/><path d="M362.11134,369.50107v-21.05568h21.05567v21.05568z"/><path d="M383.16702,390.55674v-21.05567h21.05567v21.05567z"/><path d="M235.77731,411.61241v-21.05568h21.05567v21.05568z"/><path d="M256.83298,432.66808v-21.05567h21.05568v21.05567z"/><path d="M277.88865,411.61241v-21.05568h21.05568v21.05568z"/><path d="M298.94433,432.66808v-21.05567h21.05567v21.05567z"/><path d="M235.77731,369.50107v-21.05568h21.05567v21.05568z"/><path d="M256.83298,390.55674v-21.05567h21.05568v21.05567z"/><path d="M277.88865,369.50107v-21.05568h21.05568v21.05568z"/><path d="M298.94433,390.55674v-21.05567h21.05567v21.05567z"/><path d="M320,327.38972v-21.05568h21.05568v21.05568z"/><path d="M341.05567,348.44539v-21.05567h21.05567v21.05567z"/><path d="M362.11134,327.38972v-21.05568h21.05567v21.05568z"/><path d="M383.16702,348.44539v-21.05567h21.05567v21.05567z"/><path d="M320,285.27837v-21.05567h21.05568v21.05567z"/><path d="M341.05567,306.33405v-21.05567h21.05567v21.05567z"/><path d="M362.11134,285.27837v-21.05567h21.05567v21.05567z"/><path d="M383.16702,306.33405v-21.05567h21.05567v21.05567z"/><path d="M235.77731,327.38972v-21.05568h21.05567v21.05568z"/><path d="M256.83298,348.44539v-21.05567h21.05568v21.05567z"/><path d="M277.88865,327.38972v-21.05568h21.05568v21.05568z"/><path d="M298.94433,348.44539v-21.05567h21.05567v21.05567z"/><path d="M235.77731,285.27837v-21.05567h21.05567v21.05567z"/><path d="M256.83298,306.33405v-21.05567h21.05568v21.05567z"/><path d="M277.88865,285.27837v-21.05567h21.05568v21.05567z"/><path d="M298.94433,306.33405v-21.05567h21.05567v21.05567z"/></g><g fill="#000abf"><path d="M151.55462,411.61241v-21.05568h21.05567v21.05568z"/><path d="M172.61029,432.66808v-21.05567h21.05567v21.05567z"/><path d="M193.66596,411.61241v-21.05568h21.05568v21.05568z"/><path d="M214.72164,432.66808v-21.05567h21.05567v21.05567z"/><path d="M151.55462,369.50106v-21.05567h21.05567v21.05567z"/><path d="M172.61029,390.55673v-21.05568h21.05567v21.05568z"/><path d="M193.66596,369.50106v-21.05567h21.05568v21.05567z"/><path d="M214.72164,390.55673v-21.05568h21.05567v21.05568z"/><path d="M67.33193,411.61241v-21.05568h21.05567v21.05568z"/><path d="M88.3876,432.66808v-21.05567h21.05568v21.05567z"/><path d="M109.44327,411.61241v-21.05568h21.05567v21.05568z"/><path d="M130.49894,432.66808v-21.05567h21.05568v21.05567z"/><path d="M67.33193,369.50106v-21.05568h21.05567v21.05568z"/><path d="M88.3876,390.55673v-21.05567h21.05568v21.05567z"/><path d="M109.44327,369.50106v-21.05568h21.05567v21.05568z"/><path d="M130.49894,390.55673v-21.05567h21.05568v21.05567z"/><path d="M151.55462,327.38971v-21.05567h21.05567v21.05567z"/><path d="M172.61029,348.44539v-21.05568h21.05567v21.05568z"/><path d="M193.66596,327.38971v-21.05567h21.05568v21.05567z"/><path d="M214.72164,348.44539v-21.05568h21.05567v21.05568z"/><path d="M151.55462,285.27837v-21.05567h21.05567v21.05567z"/><path d="M172.61029,306.33404v-21.05567h21.05567v21.05567z"/><path d="M193.66596,285.27837v-21.05567h21.05568v21.05567z"/><path d="M214.72164,306.33404v-21.05567h21.05567v21.05567z"/><path d="M67.33193,327.38971v-21.05567h21.05567v21.05567z"/><path d="M88.3876,348.44539v-21.05568h21.05568v21.05568z"/><path d="M109.44327,327.38971v-21.05567h21.05567v21.05567z"/><path d="M130.49894,348.44539v-21.05568h21.05568v21.05568z"/><path d="M67.33193,285.27837v-21.05567h21.05567v21.05567z"/><path d="M88.3876,306.33404v-21.05567h21.05568v21.05567z"/><path d="M109.44327,285.27837v-21.05567h21.05567v21.05567z"/><path d="M130.49894,306.33404v-21.05567h21.05568v21.05567z"/></g><g fill="#000abf"><path d="M488.44538,411.61241v-21.05568h21.05567v21.05568z"/><path d="M509.50105,432.66808v-21.05567h21.05567v21.05567z"/><path d="M530.55672,411.61241v-21.05568h21.05568v21.05568z"/><path d="M551.6124,432.66808v-21.05567h21.05567v21.05567z"/><path d="M488.44538,369.50106v-21.05567h21.05567v21.05567z"/><path d="M509.50105,390.55674v-21.05567h21.05567v21.05567z"/><path d="M530.55672,369.50106v-21.05567h21.05568v21.05567z"/><path d="M551.6124,390.55674v-21.05567h21.05567v21.05567z"/><path d="M404.22269,411.61241v-21.05568h21.05567v21.05568z"/><path d="M425.27836,432.66808v-21.05567h21.05567v21.05567z"/><path d="M446.33403,411.61241v-21.05568h21.05567v21.05568z"/><path d="M467.3897,432.66808v-21.05567h21.05568v21.05567z"/><path d="M404.22269,369.50107v-21.05568h21.05567v21.05568z"/><path d="M425.27836,390.55674v-21.05567h21.05567v21.05567z"/><path d="M446.33403,369.50107v-21.05568h21.05567v21.05568z"/><path d="M467.3897,390.55674v-21.05567h21.05568v21.05567z"/><path d="M488.44538,327.38972v-21.05567h21.05568v21.05567z"/><path d="M509.50105,348.44539v-21.05568h21.05567v21.05568z"/><path d="M530.55672,327.38972v-21.05567h21.05568v21.05567z"/><path d="M551.6124,348.44539v-21.05568h21.05567v21.05568z"/><path d="M488.44538,285.27837v-21.05567h21.05568v21.05567z"/><path d="M509.50105,306.33405v-21.05567h21.05567v21.05567z"/><path d="M530.55672,285.27837v-21.05567h21.05568v21.05567z"/><path d="M551.6124,306.33405v-21.05567h21.05567v21.05567z"/><path d="M404.22269,327.38972v-21.05567h21.05567v21.05567z"/><path d="M425.27836,348.44539v-21.05568h21.05567v21.05568z"/><path d="M446.33403,327.38972v-21.05567h21.05567v21.05567z"/><path d="M467.3897,348.44539v-21.05568h21.05568v21.05568z"/><path d="M404.22269,285.27837v-21.05567h21.05567v21.05567z"/><path d="M425.27836,306.33405v-21.05567h21.05567v21.05567z"/><path d="M446.33403,285.27837v-21.05567h21.05567v21.05567z"/><path d="M467.3897,306.33405v-21.05567h21.05568v21.05567z"/></g><g fill="#000abf"><path d="M488.44538,411.61241v-21.05568h21.05567v21.05568z"/><path d="M509.50105,432.66808v-21.05567h21.05567v21.05567z"/><path d="M530.55672,411.61241v-21.05568h21.05568v21.05568z"/><path d="M551.6124,432.66808v-21.05567h21.05567v21.05567z"/><path d="M488.44538,369.50106v-21.05567h21.05567v21.05567z"/><path d="M509.50105,390.55674v-21.05567h21.05567v21.05567z"/><path d="M530.55672,369.50106v-21.05567h21.05568v21.05567z"/><path d="M551.6124,390.55674v-21.05567h21.05567v21.05567z"/><path d="M404.22269,411.61241v-21.05568h21.05567v21.05568z"/><path d="M425.27836,432.66808v-21.05567h21.05567v21.05567z"/><path d="M446.33403,411.61241v-21.05568h21.05567v21.05568z"/><path d="M467.3897,432.66808v-21.05567h21.05568v21.05567z"/><path d="M404.22269,369.50107v-21.05568h21.05567v21.05568z"/><path d="M425.27836,390.55674v-21.05567h21.05567v21.05567z"/><path d="M446.33403,369.50107v-21.05568h21.05567v21.05568z"/><path d="M467.3897,390.55674v-21.05567h21.05568v21.05567z"/><path d="M488.44538,327.38972v-21.05567h21.05568v21.05567z"/><path d="M509.50105,348.44539v-21.05568h21.05567v21.05568z"/><path d="M530.55672,327.38972v-21.05567h21.05568v21.05567z"/><path d="M551.6124,348.44539v-21.05568h21.05567v21.05568z"/><path d="M488.44538,285.27837v-21.05567h21.05568v21.05567z"/><path d="M509.50105,306.33405v-21.05567h21.05567v21.05567z"/><path d="M530.55672,285.27837v-21.05567h21.05568v21.05567z"/><path d="M551.6124,306.33405v-21.05567h21.05567v21.05567z"/><path d="M404.22269,327.38972v-21.05567h21.05567v21.05567z"/><path d="M425.27836,348.44539v-21.05568h21.05567v21.05568z"/><path d="M446.33403,327.38972v-21.05567h21.05567v21.05567z"/><path d="M467.3897,348.44539v-21.05568h21.05568v21.05568z"/><path d="M404.22269,285.27837v-21.05567h21.05567v21.05567z"/><path d="M425.27836,306.33405v-21.05567h21.05567v21.05567z"/><path d="M446.33403,285.27837v-21.05567h21.05567v21.05567z"/><path d="M467.3897,306.33405v-21.05567h21.05568v21.05567z"/></g><g fill="#000abf"><path d="M656.89076,411.61241v-21.05568h21.05567v21.05568z"/><path d="M677.94643,432.66808v-21.05567h21.05567v21.05567z"/><path d="M699.0021,411.61241v-21.05568h21.05568v21.05568z"/><path d="M720.05778,432.66808v-21.05567h21.05567v21.05567z"/><path d="M656.89076,369.50106v-21.05567h21.05567v21.05567z"/><path d="M677.94643,390.55674v-21.05567h21.05567v21.05567z"/><path d="M699.0021,369.50106v-21.05567h21.05568v21.05567z"/><path d="M720.05778,390.55674v-21.05567h21.05567v21.05567z"/><path d="M572.66807,411.61241v-21.05568h21.05567v21.05568z"/><path d="M593.72374,432.66808v-21.05567h21.05567v21.05567z"/><path d="M614.77941,411.61241v-21.05568h21.05567v21.05568z"/><path d="M635.83508,432.66808v-21.05567h21.05567v21.05567z"/><path d="M572.66807,369.50107v-21.05568h21.05567v21.05568z"/><path d="M593.72374,390.55674v-21.05567h21.05567v21.05567z"/><path d="M614.77941,369.50107v-21.05568h21.05567v21.05568z"/><path d="M635.83508,390.55674v-21.05567h21.05567v21.05567z"/><path d="M656.89076,327.38972v-21.05567h21.05568v21.05567z"/><path d="M677.94643,348.44539v-21.05568h21.05567v21.05568z"/><path d="M699.0021,327.38972v-21.05567h21.05568v21.05567z"/><path d="M720.05778,348.44539v-21.05568h21.05567v21.05568z"/><path d="M656.89076,285.27837v-21.05567h21.05568v21.05567z"/><path d="M677.94643,306.33405v-21.05567h21.05567v21.05567z"/><path d="M699.0021,285.27837v-21.05567h21.05568v21.05567z"/><path d="M720.05778,306.33405v-21.05567h21.05567v21.05567z"/><path d="M572.66807,327.38972v-21.05567h21.05567v21.05567z"/><path d="M593.72374,348.44539v-21.05568h21.05567v21.05568z"/><path d="M614.77941,327.38972v-21.05567h21.05567v21.05567z"/><path d="M635.83508,348.44539v-21.05568h21.05567v21.05568z"/><path d="M572.66807,285.27837v-21.05567h21.05567v21.05567z"/><path d="M593.72374,306.33405v-21.05567h21.05567v21.05567z"/><path d="M614.77941,285.27837v-21.05567h21.05567v21.05567z"/><path d="M635.83508,306.33405v-21.05567h21.05567v21.05567z"/></g><g fill="#000abf"><path d="M-16.89076,243.16703v-21.05568h21.05567v21.05568z"/><path d="M4.16491,264.2227v-21.05567h21.05567v21.05567z"/><path d="M25.22058,243.16703v-21.05568h21.05567v21.05568z"/><path d="M46.27626,264.2227v-21.05567h21.05567v21.05567z"/><path d="M-16.89076,201.05568v-21.05567h21.05567v21.05567z"/><path d="M4.16491,222.11135v-21.05568h21.05567v21.05568z"/><path d="M25.22058,201.05568v-21.05567h21.05567v21.05567z"/><path d="M46.27626,222.11135v-21.05568h21.05567v21.05568z"/><path d="M-101.11345,243.16703v-21.05568h21.05567v21.05568z"/><path d="M-80.05778,264.2227v-21.05567h21.05568v21.05567z"/><path d="M-59.00211,243.16703v-21.05568h21.05567v21.05568z"/><path d="M-37.94644,264.2227v-21.05567h21.05568v21.05567z"/><path d="M-101.11345,201.05568v-21.05567h21.05567v21.05567z"/><path d="M-80.05778,222.11135v-21.05567h21.05568v21.05567z"/><path d="M-59.00211,201.05568v-21.05567h21.05567v21.05567z"/><path d="M-37.94644,222.11135v-21.05567h21.05568v21.05567z"/><path d="M-16.89076,158.94433v-21.05567h21.05568v21.05567z"/><path d="M4.16491,180.00001v-21.05568h21.05567v21.05568z"/><path d="M25.22058,158.94433v-21.05567h21.05567v21.05567z"/><path d="M46.27626,180.00001v-21.05568h21.05567v21.05568z"/><path d="M-16.89076,116.83299v-21.05567h21.05568v21.05567z"/><path d="M4.16491,137.88866v-21.05568h21.05567v21.05568z"/><path d="M25.22058,116.83299v-21.05567h21.05567v21.05567z"/><path d="M46.27626,137.88866v-21.05568h21.05567v21.05568z"/><path d="M-101.11345,158.94433v-21.05567h21.05567v21.05567z"/><path d="M-80.05778,180.00001v-21.05568h21.05568v21.05568z"/><path d="M-59.00211,158.94433v-21.05567h21.05567v21.05567z"/><path d="M-37.94644,180.00001v-21.05568h21.05568v21.05568z"/><path d="M-101.11345,116.83299v-21.05567h21.05567v21.05567z"/><path d="M-80.05778,137.88866v-21.05568h21.05568v21.05568z"/><path d="M-59.00211,116.83299v-21.05567h21.05567v21.05567z"/><path d="M-37.94644,137.88866v-21.05568h21.05568v21.05568z"/></g><g fill="#000abf"><path d="M-16.89076,74.72165v-21.05568h21.05567v21.05568z"/><path d="M4.16491,95.77732v-21.05567h21.05567v21.05567z"/><path d="M25.22059,74.72165v-21.05568h21.05568v21.05568z"/><path d="M46.27626,95.77732v-21.05567h21.05567v21.05567z"/><path d="M-16.89076,32.6103v-21.05567h21.05567v21.05567z"/><path d="M4.16491,53.66597v-21.05568h21.05567v21.05568z"/><path d="M25.22059,32.6103v-21.05567h21.05568v21.05567z"/><path d="M46.27626,53.66597v-21.05568h21.05567v21.05568z"/><path d="M-101.11345,74.72165v-21.05568h21.05567v21.05568z"/><path d="M-80.05778,95.77732v-21.05567h21.05568v21.05567z"/><path d="M-59.0021,74.72165v-21.05568h21.05567v21.05568z"/><path d="M-37.94643,95.77732v-21.05567h21.05568v21.05567z"/><path d="M-101.11345,32.6103v-21.05567h21.05567v21.05567z"/><path d="M-80.05778,53.66597v-21.05567h21.05568v21.05567z"/><path d="M-59.0021,32.6103v-21.05567h21.05567v21.05567z"/><path d="M-37.94643,53.66597v-21.05567h21.05568v21.05567z"/><path d="M-16.89076,-9.50105v-21.05567h21.05567v21.05567z"/><path d="M4.16492,11.55463v-21.05568h21.05567v21.05568z"/><path d="M25.22059,-9.50105v-21.05567h21.05568v21.05567z"/><path d="M46.27626,11.55463v-21.05568h21.05567v21.05568z"/><path d="M-16.89076,-51.61239v-21.05567h21.05567v21.05567z"/><path d="M4.16492,-30.55672v-21.05568h21.05567v21.05568z"/><path d="M25.22059,-51.61239v-21.05567h21.05568v21.05567z"/><path d="M46.27626,-30.55672v-21.05568h21.05567v21.05568z"/><path d="M-101.11345,-9.50105v-21.05567h21.05567v21.05567z"/><path d="M-80.05778,11.55463v-21.05568h21.05568v21.05568z"/><path d="M-59.0021,-9.50105v-21.05567h21.05567v21.05567z"/><path d="M-37.94643,11.55463v-21.05568h21.05568v21.05568z"/><path d="M-101.11345,-51.61239v-21.05567h21.05567v21.05567z"/><path d="M-80.05778,-30.55672v-21.05568h21.05568v21.05568z"/><path d="M-59.0021,-51.61239v-21.05567h21.05567v21.05567z"/><path d="M-37.94643,-30.55672v-21.05568h21.05568v21.05568z"/></g><g fill="#000abf"><path d="M-16.89076,411.61241v-21.05568h21.05567v21.05568z"/><path d="M4.16491,432.66808v-21.05567h21.05567v21.05567z"/><path d="M25.22058,411.61241v-21.05568h21.05568v21.05568z"/><path d="M46.27626,432.66808v-21.05567h21.05567v21.05567z"/><path d="M-16.89076,369.50106v-21.05567h21.05567v21.05567z"/><path d="M4.16491,390.55673v-21.05568h21.05567v21.05568z"/><path d="M25.22058,369.50106v-21.05567h21.05568v21.05567z"/><path d="M46.27626,390.55673v-21.05568h21.05567v21.05568z"/><path d="M-101.11345,411.61241v-21.05568h21.05567v21.05568z"/><path d="M-80.05778,432.66808v-21.05567h21.05568v21.05567z"/><path d="M-59.00211,411.61241v-21.05568h21.05567v21.05568z"/><path d="M-37.94644,432.66808v-21.05567h21.05568v21.05567z"/><path d="M-101.11345,369.50106v-21.05568h21.05567v21.05568z"/><path d="M-80.05778,390.55673v-21.05567h21.05568v21.05567z"/><path d="M-59.00211,369.50106v-21.05568h21.05567v21.05568z"/><path d="M-37.94644,390.55673v-21.05567h21.05568v21.05567z"/><path d="M-16.89076,327.38971v-21.05567h21.05567v21.05567z"/><path d="M4.16491,348.44539v-21.05568h21.05567v21.05568z"/><path d="M25.22058,327.38971v-21.05567h21.05568v21.05567z"/><path d="M46.27626,348.44539v-21.05568h21.05567v21.05568z"/><path d="M-16.89076,285.27837v-21.05567h21.05567v21.05567z"/><path d="M4.16491,306.33404v-21.05567h21.05567v21.05567z"/><path d="M25.22058,285.27837v-21.05567h21.05568v21.05567z"/><path d="M46.27626,306.33404v-21.05567h21.05567v21.05567z"/><path d="M-101.11345,327.38971v-21.05567h21.05567v21.05567z"/><path d="M-80.05778,348.44539v-21.05568h21.05568v21.05568z"/><path d="M-59.00211,327.38971v-21.05567h21.05567v21.05567z"/><path d="M-37.94644,348.44539v-21.05568h21.05568v21.05568z"/><path d="M-101.11345,285.27837v-21.05567h21.05567v21.05567z"/><path d="M-80.05778,306.33404v-21.05567h21.05568v21.05567z"/><path d="M-59.00211,285.27837v-21.05567h21.05567v21.05567z"/><path d="M-37.94644,306.33404v-21.05567h21.05568v21.05567z"/></g></g></g></g></svg>