<svg version="1.1" xmlns="http://www.w3.org/2000/svg" xmlns:xlink="http://www.w3.org/1999/xlink" width="432.58168" height="280.84941" viewBox="0,0,432.58168,280.84941"><g transform="translate(-10.35092,-6.32985)"><g data-paper-data="{&quot;isPaintingLayer&quot;:true}" fill-rule="nonzero" stroke-linejoin="miter" stroke-miterlimit="10" stroke-dasharray="" stroke-dashoffset="0" style="mix-blend-mode: normal"><text transform="translate(10.60092,23.57985) scale(0.5,0.5)" font-size="40" xml:space="preserve" fill="#9966ff" fill-rule="nonzero" stroke="none" stroke-width="1" stroke-linecap="butt" stroke-linejoin="miter" stroke-miterlimit="10" stroke-dasharray="" stroke-dashoffset="0" font-family="&quot;OCR A&quot;, Sans Serif" font-weight="normal" text-anchor="start" style="mix-blend-mode: normal"><tspan x="0" dy="0">15.09.2023</tspan><tspan x="0" dy="48px"> </tspan><tspan x="0" dy="48px">All box designs</tspan></text><text transform="translate(345.54197,147.37406) scale(0.5,0.5)" font-size="40" xml:space="preserve" fill="#9966ff" fill-rule="nonzero" stroke="none" stroke-width="1" stroke-linecap="butt" stroke-linejoin="miter" stroke-miterlimit="10" stroke-dasharray="" stroke-dashoffset="0" font-family="&quot;OCR A&quot;, Sans Serif" font-weight="normal" text-anchor="start" style="mix-blend-mode: normal"><tspan x="0" dy="0">14.09.23</tspan></text><text transform="translate(208.35012,147.90997) scale(0.5,0.5)" font-size="40" xml:space="preserve" fill="#9966ff" fill-rule="nonzero" stroke="none" stroke-width="1" stroke-linecap="butt" stroke-linejoin="miter" stroke-miterlimit="10" stroke-dasharray="" stroke-dashoffset="0" font-family="&quot;OCR A&quot;, Sans Serif" font-weight="normal" text-anchor="start" style="mix-blend-mode: normal"><tspan x="0" dy="0">xx.07.23</tspan></text><text transform="translate(79.19685,145.76635) scale(0.5,0.5)" font-size="40" xml:space="preserve" fill="#9966ff" fill-rule="nonzero" stroke="none" stroke-width="1" stroke-linecap="butt" stroke-linejoin="miter" stroke-miterlimit="10" stroke-dasharray="" stroke-dashoffset="0" font-family="&quot;OCR A&quot;, Sans Serif" font-weight="normal" text-anchor="start" style="mix-blend-mode: normal"><tspan x="0" dy="0">?????</tspan></text><path d="M54.53537,276.84588v-109h128v109z" fill="#8f661e" stroke="none" stroke-width="0" stroke-linecap="butt"/><path d="M172.8687,276.51253v-108.66667h9.33333v108.66667z" fill="#8c5921" stroke="none" stroke-width="0" stroke-linecap="butt"/><path d="M54.53537,276.17919v-108.33333h8v108.33333z" fill="#8c5921" stroke="none" stroke-width="0" stroke-linecap="butt"/><path d="M63.20204,276.51256v-108.33333h109.33334v108.33333z" fill="#8c5921" stroke="#000000" stroke-width="2" stroke-linecap="butt"/><path d="M63.53537,176.84586v-8.33333h109v8.33333z" fill="#090000" stroke="#000000" stroke-width="0" stroke-linecap="butt"/><path d="M54.20204,285.84591v-9h128v9z" fill="#86837b" stroke="none" stroke-width="0" stroke-linecap="butt"/><path d="M54.53537,167.84591v-9h128v9z" fill="#86837b" stroke="none" stroke-width="0" stroke-linecap="butt"/><path d="M54.53537,286.17926v-127h128v127z" fill="none" stroke="#000000" stroke-width="2" stroke-linecap="butt"/><path d="M171.8687,193.84586h-108.33333" fill="none" stroke="#000000" stroke-width="2" stroke-linecap="round"/><path d="M63.53537,219.51256h108.66667" fill="none" stroke="#000000" stroke-width="2" stroke-linecap="round"/><path d="M63.53537,254.84591h108.33333" fill="none" stroke="#000000" stroke-width="2" stroke-linecap="round"/><path d="M55.20204,168.17925h126.66667" fill="none" stroke="#000000" stroke-width="2" stroke-linecap="round"/><path d="M54.53537,276.84591h126.66667" fill="none" stroke="#000000" stroke-width="2" stroke-linecap="round"/><path d="M61.53537,162.51254c0,-0.55228 0.44772,-1 1,-1c0.55228,0 1,0.44772 1,1c0,0.55228 -0.44772,1 -1,1c-0.55228,0 -1,-0.44772 -1,-1z" fill="#000000" stroke="none" stroke-width="0.5" stroke-linecap="butt"/><path d="M75.20204,162.84587c0,-0.55228 0.44772,-1 1,-1c0.55228,0 1,0.44772 1,1c0,0.55228 -0.44772,1 -1,1c-0.55228,0 -1,-0.44772 -1,-1z" fill="#000000" stroke="none" stroke-width="0.5" stroke-linecap="butt"/><path d="M87.53537,162.84587c0,-0.55228 0.44772,-1 1,-1c0.55228,0 1,0.44772 1,1c0,0.55228 -0.44772,1 -1,1c-0.55228,0 -1,-0.44772 -1,-1z" fill="#000000" stroke="none" stroke-width="0.5" stroke-linecap="butt"/><path d="M102.8687,163.51254c0,-0.55228 0.44772,-1 1,-1c0.55228,0 1,0.44772 1,1c0,0.55228 -0.44772,1 -1,1c-0.55228,0 -1,-0.44772 -1,-1z" fill="#000000" stroke="none" stroke-width="0.5" stroke-linecap="butt"/><path d="M117.53537,163.1792c0,-0.55228 0.44772,-1 1,-1c0.55228,0 1,0.44772 1,1c0,0.55228 -0.44772,1 -1,1c-0.55228,0 -1,-0.44772 -1,-1z" fill="#000000" stroke="none" stroke-width="0.5" stroke-linecap="butt"/><path d="M129.20204,163.1792c0,-0.55228 0.44772,-1 1,-1c0.55228,0 1,0.44772 1,1c0,0.55228 -0.44772,1 -1,1c-0.55228,0 -1,-0.44772 -1,-1z" fill="#000000" stroke="none" stroke-width="0.5" stroke-linecap="butt"/><path d="M144.8687,162.84587c0,-0.55228 0.44772,-1 1,-1c0.55228,0 1,0.44772 1,1c0,0.55228 -0.44772,1 -1,1c-0.55228,0 -1,-0.44772 -1,-1z" fill="#000000" stroke="none" stroke-width="0.5" stroke-linecap="butt"/><path d="M157.8687,162.1792c0,-0.55228 0.44772,-1 1,-1c0.55228,0 1,0.44772 1,1c0,0.55228 -0.44772,1 -1,1c-0.55228,0 -1,-0.44772 -1,-1z" fill="#000000" stroke="none" stroke-width="0.5" stroke-linecap="butt"/><path d="M172.8687,162.84587c0,-0.55228 0.44772,-1 1,-1c0.55228,0 1,0.44772 1,1c0,0.55228 -0.44772,1 -1,1c-0.55228,0 -1,-0.44772 -1,-1z" fill="#000000" stroke="none" stroke-width="0.5" stroke-linecap="butt"/><path d="M60.8687,280.84587c0,-0.55228 0.44772,-1 1,-1c0.55228,0 1,0.44772 1,1c0,0.55228 -0.44772,1 -1,1c-0.55228,0 -1,-0.44772 -1,-1z" fill="#000000" stroke="none" stroke-width="0.5" stroke-linecap="butt"/><path d="M76.20204,279.84587c0,-0.55228 0.44772,-1 1,-1c0.55228,0 1,0.44772 1,1c0,0.55228 -0.44772,1 -1,1c-0.55228,0 -1,-0.44772 -1,-1z" fill="#000000" stroke="none" stroke-width="0.5" stroke-linecap="butt"/><path d="M87.53537,281.51254c0,-0.55228 0.44772,-1 1,-1c0.55228,0 1,0.44772 1,1c0,0.55228 -0.44772,1 -1,1c-0.55228,0 -1,-0.44772 -1,-1z" fill="#000000" stroke="none" stroke-width="0.5" stroke-linecap="butt"/><path d="M103.8687,280.51254c0,-0.55228 0.44772,-1 1,-1c0.55228,0 1,0.44772 1,1c0,0.55228 -0.44772,1 -1,1c-0.55228,0 -1,-0.44772 -1,-1z" fill="#000000" stroke="none" stroke-width="0.5" stroke-linecap="butt"/><path d="M117.53537,281.51254c0,-0.55228 0.44772,-1 1,-1c0.55228,0 1,0.44772 1,1c0,0.55228 -0.44772,1 -1,1c-0.55228,0 -1,-0.44772 -1,-1z" fill="#000000" stroke="none" stroke-width="0.5" stroke-linecap="butt"/><path d="M130.20204,281.51254c0,-0.55228 0.44772,-1 1,-1c0.55228,0 1,0.44772 1,1c0,0.55228 -0.44772,1 -1,1c-0.55228,0 -1,-0.44772 -1,-1z" fill="#000000" stroke="none" stroke-width="0.5" stroke-linecap="butt"/><path d="M145.20204,280.84587c0,-0.55228 0.44772,-1 1,-1c0.55228,0 1,0.44772 1,1c0,0.55228 -0.44772,1 -1,1c-0.55228,0 -1,-0.44772 -1,-1z" fill="#000000" stroke="none" stroke-width="0.5" stroke-linecap="butt"/><path d="M157.53537,280.84587c0,-0.55228 0.44772,-1 1,-1c0.55228,0 1,0.44772 1,1c0,0.55228 -0.44772,1 -1,1c-0.55228,0 -1,-0.44772 -1,-1z" fill="#000000" stroke="none" stroke-width="0.5" stroke-linecap="butt"/><path d="M173.20204,281.51254c0,-0.55228 0.44772,-1 1,-1c0.55228,0 1,0.44772 1,1c0,0.55228 -0.44772,1 -1,1c-0.55228,0 -1,-0.44772 -1,-1z" fill="#000000" stroke="none" stroke-width="0.5" stroke-linecap="butt"/><path d="M368.59931,223.57647v-61.42947h61.42947v61.42947z" fill="#8f661e" stroke="#000000" stroke-width="2.5" stroke-linecap="butt"/><path d="M368.59931,172.40241v-4.5041h61.42947v4.5041z" fill="#000000" stroke="none" stroke-width="0" stroke-linecap="butt"/><path d="M368.59932,192.89292h61.42947" fill="none" stroke="#000000" stroke-width="1.5" stroke-linecap="round"/><path d="M368.59931,201.13987h61.42947" fill="none" stroke="#000000" stroke-width="1.5" stroke-linecap="round"/><path d="M368.59931,209.25995h61.42947" fill="none" stroke="#000000" stroke-width="1.5" stroke-linecap="round"/><path d="M368.59931,217.38002h61.42947" fill="none" stroke="#000000" stroke-width="1.5" stroke-linecap="round"/><path d="M430.02878,184.89972h-61.42947" fill="none" stroke="#000000" stroke-width="1.5" stroke-linecap="round"/><path d="M368.59931,176.39901h61.42947" fill="none" stroke="#000000" stroke-width="1.5" stroke-linecap="round"/><path d="M430.0288,167.89831h-61.42947" fill="none" stroke="#000000" stroke-width="1.5" stroke-linecap="round"/><path d="M430.02879,162.14701v61.42947h-6.89969v-61.42947z" data-paper-data="{&quot;index&quot;:null}" fill="#c78a32" stroke="#000000" stroke-width="2.5" stroke-linecap="butt"/><path d="M375.49901,162.14701v61.42947h-6.89969v-61.42947z" data-paper-data="{&quot;index&quot;:null}" fill="#c78a32" stroke="#000000" stroke-width="2.5" stroke-linecap="butt"/><path d="M368.59931,167.71127v-5.56426h61.42947v5.56426z" fill="#909090" stroke="#000000" stroke-width="2.5" stroke-linecap="butt"/><path d="M430.02879,218.01221v5.56426h-61.42947v-5.56426z" data-paper-data="{&quot;index&quot;:null}" fill="#909090" stroke="#000000" stroke-width="2.5" stroke-linecap="butt"/><g fill="#000000" stroke="none" stroke-width="0.5" stroke-linecap="butt"><path d="M376.31406,164.92914c0,-0.27614 0.22386,-0.5 0.5,-0.5c0.27614,0 0.5,0.22386 0.5,0.5c0,0.27614 -0.22386,0.5 -0.5,0.5c-0.27614,0 -0.5,-0.22386 -0.5,-0.5z"/><path d="M381.31406,164.92914c0,-0.27614 0.22386,-0.5 0.5,-0.5c0.27614,0 0.5,0.22386 0.5,0.5c0,0.27614 -0.22386,0.5 -0.5,0.5c-0.27614,0 -0.5,-0.22386 -0.5,-0.5z"/><path d="M386.31406,164.92914c0,-0.27614 0.22386,-0.5 0.5,-0.5c0.27614,0 0.5,0.22386 0.5,0.5c0,0.27614 -0.22386,0.5 -0.5,0.5c-0.27614,0 -0.5,-0.22386 -0.5,-0.5z"/><path d="M391.31406,164.92914c0,-0.27614 0.22386,-0.5 0.5,-0.5c0.27614,0 0.5,0.22386 0.5,0.5c0,0.27614 -0.22386,0.5 -0.5,0.5c-0.27614,0 -0.5,-0.22386 -0.5,-0.5z"/><path d="M396.31406,164.92914c0,-0.27614 0.22386,-0.5 0.5,-0.5c0.27614,0 0.5,0.22386 0.5,0.5c0,0.27614 -0.22386,0.5 -0.5,0.5c-0.27614,0 -0.5,-0.22386 -0.5,-0.5z"/><path d="M401.31406,164.92914c0,-0.27614 0.22386,-0.5 0.5,-0.5c0.27614,0 0.5,0.22386 0.5,0.5c0,0.27614 -0.22386,0.5 -0.5,0.5c-0.27614,0 -0.5,-0.22386 -0.5,-0.5z"/><path d="M406.31406,164.92914c0,-0.27614 0.22386,-0.5 0.5,-0.5c0.27614,0 0.5,0.22386 0.5,0.5c0,0.27614 -0.22386,0.5 -0.5,0.5c-0.27614,0 -0.5,-0.22386 -0.5,-0.5z"/><path d="M411.31406,164.92914c0,-0.27614 0.22386,-0.5 0.5,-0.5c0.27614,0 0.5,0.22386 0.5,0.5c0,0.27614 -0.22386,0.5 -0.5,0.5c-0.27614,0 -0.5,-0.22386 -0.5,-0.5z"/><path d="M416.31406,164.92914c0,-0.27614 0.22386,-0.5 0.5,-0.5c0.27614,0 0.5,0.22386 0.5,0.5c0,0.27614 -0.22386,0.5 -0.5,0.5c-0.27614,0 -0.5,-0.22386 -0.5,-0.5z"/><path d="M421.31406,164.92914c0,-0.27614 0.22386,-0.5 0.5,-0.5c0.27614,0 0.5,0.22386 0.5,0.5c0,0.27614 -0.22386,0.5 -0.5,0.5c-0.27614,0 -0.5,-0.22386 -0.5,-0.5z"/><path d="M426.31406,164.92914c0,-0.27614 0.22386,-0.5 0.5,-0.5c0.27614,0 0.5,0.22386 0.5,0.5c0,0.27614 -0.22386,0.5 -0.5,0.5c-0.27614,0 -0.5,-0.22386 -0.5,-0.5z"/><path d="M371.31406,164.92914c0,-0.27614 0.22386,-0.5 0.5,-0.5c0.27614,0 0.5,0.22386 0.5,0.5c0,0.27614 -0.22386,0.5 -0.5,0.5c-0.27614,0 -0.5,-0.22386 -0.5,-0.5z"/></g><g fill="#000000" stroke="none" stroke-width="0.5" stroke-linecap="butt"><path d="M376.31405,220.79434c0,-0.27614 0.22386,-0.5 0.5,-0.5c0.27614,0 0.5,0.22386 0.5,0.5c0,0.27614 -0.22386,0.5 -0.5,0.5c-0.27614,0 -0.5,-0.22386 -0.5,-0.5z"/><path d="M381.31405,220.79434c0,-0.27614 0.22386,-0.5 0.5,-0.5c0.27614,0 0.5,0.22386 0.5,0.5c0,0.27614 -0.22386,0.5 -0.5,0.5c-0.27614,0 -0.5,-0.22386 -0.5,-0.5z"/><path d="M386.31405,220.79434c0,-0.27614 0.22386,-0.5 0.5,-0.5c0.27614,0 0.5,0.22386 0.5,0.5c0,0.27614 -0.22386,0.5 -0.5,0.5c-0.27614,0 -0.5,-0.22386 -0.5,-0.5z"/><path d="M391.31405,220.79434c0,-0.27614 0.22386,-0.5 0.5,-0.5c0.27614,0 0.5,0.22386 0.5,0.5c0,0.27614 -0.22386,0.5 -0.5,0.5c-0.27614,0 -0.5,-0.22386 -0.5,-0.5z"/><path d="M396.31405,220.79434c0,-0.27614 0.22386,-0.5 0.5,-0.5c0.27614,0 0.5,0.22386 0.5,0.5c0,0.27614 -0.22386,0.5 -0.5,0.5c-0.27614,0 -0.5,-0.22386 -0.5,-0.5z"/><path d="M401.31405,220.79434c0,-0.27614 0.22386,-0.5 0.5,-0.5c0.27614,0 0.5,0.22386 0.5,0.5c0,0.27614 -0.22386,0.5 -0.5,0.5c-0.27614,0 -0.5,-0.22386 -0.5,-0.5z"/><path d="M406.31405,220.79434c0,-0.27614 0.22386,-0.5 0.5,-0.5c0.27614,0 0.5,0.22386 0.5,0.5c0,0.27614 -0.22386,0.5 -0.5,0.5c-0.27614,0 -0.5,-0.22386 -0.5,-0.5z"/><path d="M411.31405,220.79434c0,-0.27614 0.22386,-0.5 0.5,-0.5c0.27614,0 0.5,0.22386 0.5,0.5c0,0.27614 -0.22386,0.5 -0.5,0.5c-0.27614,0 -0.5,-0.22386 -0.5,-0.5z"/><path d="M416.31405,220.79434c0,-0.27614 0.22386,-0.5 0.5,-0.5c0.27614,0 0.5,0.22386 0.5,0.5c0,0.27614 -0.22386,0.5 -0.5,0.5c-0.27614,0 -0.5,-0.22386 -0.5,-0.5z"/><path d="M421.31405,220.79434c0,-0.27614 0.22386,-0.5 0.5,-0.5c0.27614,0 0.5,0.22386 0.5,0.5c0,0.27614 -0.22386,0.5 -0.5,0.5c-0.27614,0 -0.5,-0.22386 -0.5,-0.5z"/><path d="M426.31405,220.79434c0,-0.27614 0.22386,-0.5 0.5,-0.5c0.27614,0 0.5,0.22386 0.5,0.5c0,0.27614 -0.22386,0.5 -0.5,0.5c-0.27614,0 -0.5,-0.22386 -0.5,-0.5z"/><path d="M371.31405,220.79434c0,-0.27614 0.22386,-0.5 0.5,-0.5c0.27614,0 0.5,0.22386 0.5,0.5c0,0.27614 -0.22386,0.5 -0.5,0.5c-0.27614,0 -0.5,-0.22386 -0.5,-0.5z"/></g><path d="M230.33564,224.11238v-61.42947h61.42947v61.42947z" fill="#8f661e" stroke="#000000" stroke-width="2.5" stroke-linecap="butt"/><path d="M230.33566,192.87872h61.42947" fill="none" stroke="#000000" stroke-width="1.5" stroke-linecap="round"/><path d="M230.33564,202.26081h61.42947" fill="none" stroke="#000000" stroke-width="1.5" stroke-linecap="round"/><path d="M230.33564,211.49856h61.42947" fill="none" stroke="#000000" stroke-width="1.5" stroke-linecap="round"/><path d="M291.76511,220.7363h-61.42947" fill="none" stroke="#000000" stroke-width="1.5" stroke-linecap="round"/><path d="M291.76511,183.78531h-61.42947" fill="none" stroke="#000000" stroke-width="1.5" stroke-linecap="round"/><path d="M291.76511,174.11454h-61.42947" fill="none" stroke="#000000" stroke-width="1.5" stroke-linecap="round"/><path d="M291.76514,168.43422h-61.42947" fill="none" stroke="#000000" stroke-width="1.5" stroke-linecap="round"/><path d="M291.76513,162.68292v61.42947h-6.89969v-61.42947z" data-paper-data="{&quot;index&quot;:null}" fill="#c78a32" stroke="#000000" stroke-width="2.5" stroke-linecap="butt"/><path d="M237.23534,162.68292v61.42947h-6.89969v-61.42947z" data-paper-data="{&quot;index&quot;:null}" fill="#c78a32" stroke="#000000" stroke-width="2.5" stroke-linecap="butt"/><path d="M230.33564,168.24718v-5.56426h61.42947v5.56426z" fill="#909090" stroke="#000000" stroke-width="2.5" stroke-linecap="butt"/><path d="M291.76513,218.54812v5.56426h-61.42947v-5.56426z" data-paper-data="{&quot;index&quot;:null}" fill="#909090" stroke="#000000" stroke-width="2.5" stroke-linecap="butt"/></g></g></svg>