<svg version="1.1" xmlns="http://www.w3.org/2000/svg" xmlns:xlink="http://www.w3.org/1999/xlink" width="215.84794" height="188.85643" viewBox="0,0,215.84794,188.85643"><g transform="translate(-212.07603,-85.57178)"><g data-paper-data="{&quot;isPaintingLayer&quot;:true}" stroke-linecap="butt" stroke-linejoin="miter" stroke-miterlimit="10" stroke-dasharray="" stroke-dashoffset="0" style="mix-blend-mode: normal"><path d="M212.07603,254.26685l17.11395,-168.69507l198.73399,20.16137l-17.11395,168.69507z" fill-opacity="0.01176" fill="#ff0000" fill-rule="nonzero" stroke="#000000" stroke-width="0"/><path d="M405.83985,135.84455c1.1598,0.45143 3.10049,2.27683 3.39912,3.20706c0.14306,0.44515 0.47756,1.17805 0.73673,1.62645c0.7165,1.23914 1.43826,3.23733 1.68937,4.7299c0.1239,0.73783 0.42939,2.07769 0.66957,2.9508c1.08592,3.95033 1.06599,3.95237 0.59459,8.67326c-0.49374,4.94599 -0.38309,4.68081 -2.42925,5.21857c-2.24469,0.58989 -6.82928,0.00518 -9.05615,-1.15881c-0.89033,-0.46575 -2.30799,-2.66651 -2.54701,-3.96664c-1.14694,-6.23824 -0.96054,-9.08931 0.99893,-14.93711c1.36779,-4.08235 3.25822,-6.46351 5.1997,-6.5928c0.04751,-0.00321 0.3837,0.1088 0.74438,0.24929" data-paper-data="{&quot;noHover&quot;:false,&quot;origItem&quot;:[&quot;Path&quot;,{&quot;applyMatrix&quot;:true,&quot;segments&quot;:[[[401.84325,127.53929],[0,0],[-0.37302,-0.10337]],[[401.08024,127.36601],[0.04694,-0.00799],[-1.91852,0.32458]],[[396.60104,134.43436],[0.94877,-4.19956],[-1.35924,6.01571]],[[397.10689,149.32159],[-1.77071,-6.09062],[0.36902,1.26936]],[[400.02511,153.00332],[-0.93279,-0.37351],[2.33298,0.93329]],[[409.11834,153.24501],[-2.17369,0.81344],[1.98143,-0.74154]],[[410.99291,147.81903],[0.00799,4.97057],[-0.00749,-4.74436]],[[409.51333,139.29457],[1.47908,3.82055],[-0.32708,-0.84441]],[[408.55907,136.44726],[0.19774,0.72156],[-0.40048,-1.45961]],[[406.42334,131.92811],[0.83791,1.1605],[-0.30311,-0.41996]],[[405.53249,130.38611],[0.18726,0.42844],[-0.39099,-0.89534]],[[401.84327,127.5393],[1.19944,0.33207],[0,0]]],&quot;fillColor&quot;:[0,0,0,1]}]}" fill="#ffffff" fill-rule="nonzero" stroke="none" stroke-width="0.5"/><path d="M242.29028,109.26315c1.64356,1.07571 3.18756,2.30735 3.84246,3.06543c0.33553,0.38839 0.8813,0.89125 1.16937,1.07456c2.01593,1.28414 2.69797,5.16334 2.45164,13.97861c-0.05388,1.91637 -0.12334,4.86067 -0.15561,6.54434c-0.05134,2.63838 -0.15157,3.67074 -0.7333,7.47548l-0.6751,4.41381l-0.70779,0.83331c-1.35772,1.59839 -1.47611,2.70034 -0.44367,4.13015c0.34851,0.48306 0.7253,1.03949 0.83726,1.23706c0.5951,1.05065 1.50565,0.98657 2.3842,-0.13342c0.68366,-0.87124 1.04733,-0.98904 4.48864,-1.44099c2.18075,-0.28621 2.90896,-0.32282 3.25485,-0.16025l0.48948,0.23247l-0.23429,2.35698c-0.32296,3.24776 0.21273,6.31247 1.53552,8.80367c0.22165,0.41749 0.47443,0.98425 0.56143,1.2596c0.26265,0.82972 2.1193,3.20608 2.96939,3.80126c0.43766,0.3069 1.21315,0.87604 1.72318,1.26607c0.52676,0.40328 1.3299,0.82827 1.86005,0.98545c0.51261,0.15188 1.49568,0.48536 2.18398,0.74089c1.60589,0.59607 3.65455,0.80322 5.62489,0.57748c0.82872,-0.09461 2.08176,-0.16574 2.78403,-0.15674c0.70177,0.00896 1.82258,-0.07463 2.48984,-0.18562c1.99662,-0.33148 4.97901,-0.46073 8.13122,-0.34873c7.91135,0.2806 7.84365,0.28243 10.34372,-1.13783c1.11376,-0.63336 1.22739,-0.78286 2.07965,-2.73719c0.88517,-2.0313 1.07015,-3.29966 0.67841,-4.71214c-0.17317,-0.62338 -0.37651,-1.43851 -0.45329,-1.80968c-0.07623,-0.37162 -0.37765,-1.00063 -0.66915,-1.39759c-0.99142,-1.34935 -0.59241,-1.38562 3.61246,-0.31508c4.62661,1.17807 8.30381,1.88988 11.26426,2.19022c3.11148,0.31566 3.30823,0.38434 4.25214,1.49949c0.46697,0.5523 1.24871,1.19968 1.92469,1.59651c1.78914,1.05083 2.06837,1.78221 1.33654,3.53394c-1.4135,3.38508 0.6311,7.80443 4.11061,8.89072c0.78719,0.2455 1.72236,0.61246 2.07703,0.81206c1.21885,0.6858 4.89542,1.05625 6.49629,0.653c0.72112,-0.18181 1.57361,-0.38206 1.95556,-0.45122c1.30797,-0.23722 3.66866,-2.34237 5.16518,-4.61129c0.64356,-0.97569 3.70714,-1.63125 4.65248,-0.99529c0.49237,0.33153 0.58412,0.69126 0.91779,3.59154c0.15292,1.32752 0.51615,3.47685 0.8079,4.77178c0.2912,1.29538 0.65579,3.06067 0.81002,3.92004c0.15429,0.85887 0.42489,1.94092 0.60192,2.40256c0.54338,1.41683 0.84079,2.64331 0.90384,3.71879c0.07299,1.24463 0.84905,3.48562 1.34808,3.89011c0.19896,0.16122 0.57794,0.6694 0.84201,1.12884c0.99613,1.73329 -1.14459,1.36652 23.58466,3.93601c24.78694,2.57484 22.19186,2.10329 22.30019,4.10286c0.03597,0.65966 0.13552,1.57724 0.22226,2.03827c0.139,0.74238 0.11134,0.96949 -0.2405,1.97377c-0.396,1.13281 -0.39677,1.13892 -0.08655,2.57827c0.68002,3.15728 0.48687,6.63386 -0.76143,13.77849c-0.43446,2.48659 -1.00327,5.80544 -1.26211,7.37227c-0.47566,2.87792 -1.09483,5.93181 -1.24119,6.12274c-0.04341,0.05683 -0.37862,1.20086 -0.74445,2.54101c-0.99655,3.65373 -0.47185,3.44618 -6.15362,2.44264c-1.87866,-0.33163 -5.23127,-0.85408 -7.45012,-1.16199c-4.30358,-0.5972 -4.83926,-0.78315 -5.0667,-1.56411c-0.15823,-0.54306 -0.44219,-3.33017 -0.47545,-4.66964c-0.01332,-0.51682 -0.13574,-1.98573 -0.27248,-3.26493c-0.54682,-5.12332 -0.60758,-7.44582 -0.34025,-13.41057c0.33892,-7.55108 -0.02037,-9.18822 -2.79187,-12.81064c-1.84492,-2.41066 -2.04486,-2.57889 -3.84397,-2.94762c-0.8039,-0.16487 -1.90918,-0.55049 -2.71807,-0.94825c-3.05771,-1.50376 -5.24182,-0.73766 -7.35989,2.57694c-1.55777,2.43738 -1.55094,3.42343 0.07377,8.77156c0.21517,0.70895 0.42289,1.80426 0.46194,2.43361c0.18234,2.9522 0.43545,4.10908 1.41207,6.42563c1.45715,3.45747 1.83926,4.51345 2.04404,5.64146c0.10308,0.56708 0.44411,1.70978 0.75859,2.53822c0.31448,0.82844 0.65573,1.99372 0.75902,2.58844c0.1271,0.73113 0.41926,1.45114 0.90115,2.22228c1.46283,2.33776 1.01949,2.96655 -2.89062,4.10624c-1.64321,0.47927 -3.95584,1.5305 -5.97167,2.71429c-0.62868,0.36887 -1.63186,0.80165 -2.22874,0.96094c-0.59638,0.15934 -1.60266,0.47431 -2.23486,0.69979c-1.87467,0.66809 -2.4101,0.41151 -3.40867,-1.46106c-0.91552,-1.71658 -1.72524,-4.61916 -1.72138,-6.17119c0.00303,-1.21233 -0.08905,-1.49953 -1.05764,-3.31134c-0.24762,-0.4633 -0.47441,-1.12315 -0.50334,-1.46638c-0.02898,-0.34273 -0.28944,-1.34471 -0.57894,-2.22633c-0.28901,-0.88157 -0.64629,-2.21652 -0.79309,-2.96621c-0.33414,-1.70327 -0.65185,-2.68726 -1.34531,-4.16851c-0.29899,-0.63966 -0.61851,-1.66864 -0.70935,-2.28717c-0.19402,-1.32316 -0.96258,-4.38868 -1.44536,-5.76973c-0.18665,-0.53491 -0.31089,-1.26291 -0.27585,-1.61823c0.03509,-0.35582 -0.11976,-1.2133 -0.34311,-1.90602c-0.39659,-1.22626 -0.40077,-1.30752 -0.12743,-3.11128c0.21189,-1.40094 0.23462,-1.99895 0.09605,-2.45369c-0.10149,-0.33052 -0.20432,-1.0977 -0.22844,-1.70596c-0.08032,-2.02334 -0.94433,-2.94329 -3.20855,-3.39785c-0.86675,-0.17376 -2.09462,-0.50018 -2.72817,-0.72657c-0.96966,-0.34682 -2.0319,-0.49893 -6.72057,-0.98111c-6.9607,-0.7162 -6.60557,-0.55384 -6.56756,-3.57051c0.01405,-1.13291 -0.1053,-2.30524 -0.33709,-3.35016c-0.19639,-0.88423 -0.34227,-1.76483 -0.32272,-1.95759c0.07631,-0.75216 -0.33353,-1.31665 -1.56129,-2.16195c-0.67419,-0.46391 -1.68157,-1.36027 -2.23513,-1.99413c-1.02843,-1.17743 -3.11975,-3.05145 -4.08587,-3.67547c-0.43149,-0.27867 -0.88601,-0.37757 -2.27271,-0.47258l-1.6828,-0.12003l-1.6024,0.84927c-0.88124,0.46873 -2.32565,1.41184 -3.20919,2.10118c-1.14027,0.88966 -1.9308,1.35925 -2.72499,1.62299c-0.72772,0.24188 -1.30534,0.57026 -1.65259,0.94059c-0.29331,0.31356 -0.93027,0.72229 -1.41549,0.90896c-0.48477,0.18723 -1.32985,0.56615 -1.87796,0.84331c-0.54756,0.27672 -1.4817,0.6246 -2.01846,0.75033c-1.41493,0.33177 -2.55858,0.97479 -3.47939,1.94242c-0.80844,0.84954 -1.7936,1.28956 -4.35608,1.9496c-0.37623,0.09685 -1.02743,0.45331 -1.50336,0.81559c-0.47598,0.36278 -1.1154,0.75751 -1.42075,0.87811c-0.67553,0.26675 -0.81287,0.46217 -1.77617,2.54627c-1.19477,2.58462 -1.52827,5.40622 -1.20668,10.28584c0.13022,1.98172 0.20845,4.36564 0.17546,5.29937c-0.03304,0.93423 0.00041,2.1255 0.07478,2.64902c0.35181,2.474 0.73551,7.37311 0.74198,9.44668c0.00355,1.26619 0.04766,3.03387 0.09935,3.92951c0.05169,0.89564 0.05638,2.47977 0.01156,3.52022l-0.08179,1.89128l-0.52899,0.45255l-0.5029,0.4097l-5.25652,-0.59988c-5.83202,-0.66543 -6.02355,-0.72075 -6.45726,-1.84839c-0.44539,-1.15593 -1.08338,-3.8391 -1.16498,-4.89989c-0.04942,-0.63593 -0.30434,-1.59737 -0.62206,-2.34434c-0.65075,-1.53111 -1.09574,-3.15848 -1.29585,-4.74325c-0.0822,-0.64928 -0.32269,-1.81272 -0.53454,-2.58408c-0.30073,-1.09759 -0.37377,-1.81007 -0.33078,-3.27281c0.04477,-1.5248 -0.02602,-2.1609 -0.38079,-3.44817c-0.23919,-0.86798 -0.47238,-2.03387 -0.51735,-2.59004c-0.04496,-0.55617 -0.28796,-1.9627 -0.5391,-3.12351c-0.54484,-2.51567 -0.61879,-3.52709 -0.49893,-6.89031c0.17971,-5.04661 -0.41755,-6.35441 -2.96648,-6.48601c-2.01176,-0.10321 -2.48635,0.78806 -1.94894,3.43648c0.13272,0.65591 0.35086,1.81637 0.48472,2.57981c0.13386,0.76344 0.47495,2.14047 0.75843,3.06163c0.283,0.92112 0.63334,2.47767 0.77807,3.46054c0.14521,0.98293 0.37463,2.15466 0.51073,2.60414c0.48157,1.59074 1.12719,4.05345 1.10925,4.23031c-0.02903,0.28616 0.52292,1.60769 0.96355,2.30589c0.22225,0.35231 0.46509,0.9532 0.53972,1.33571c0.07512,0.38256 0.36516,1.377 0.64599,2.21056c0.4866,1.4472 0.50475,1.63024 0.41472,4.04637c-0.05194,1.39257 -0.0194,2.97919 0.07308,3.52713c0.85125,5.05634 0.00723,6.28918 -4.51581,6.69261c-0.91471,0.08137 -3.82145,0.62897 -6.45896,1.21717l-4.79587,1.06944l-2.41098,-0.10439l-2.41101,-0.10388l-1.90671,0.6612c-1.04873,0.3634 -2.4091,0.69947 -3.0232,0.74659c-0.61416,0.04762 -1.52242,0.1676 -2.01784,0.2669c-1.28797,0.25782 -1.41796,0.14303 -2.73215,-2.41304c-0.32019,-0.62374 -0.73488,-1.73995 -0.9203,-2.48001c-0.18536,-0.74056 -0.5361,-2.05715 -0.77828,-2.92544c-0.35078,-1.25725 -0.43055,-1.92504 -0.38966,-3.27807c0.03365,-1.11837 -0.03532,-1.92592 -0.20149,-2.36087c-0.1388,-0.36341 -0.31827,-1.17456 -0.39816,-1.80204c-0.07995,-0.62697 -0.3712,-1.93056 -0.64673,-2.89559c-0.27548,-0.96552 -0.61479,-2.49347 -0.75372,-3.39496c-0.2496,-1.6164 -0.51884,-2.50005 -1.26294,-4.14504c-0.20872,-0.46085 -0.51424,-1.66753 -0.67855,-2.68l-0.2992,-1.84174l0.46151,-1.16607c0.57768,-1.4592 0.58319,-3.20581 0.02043,-5.83672c-0.51074,-2.38673 -1.10178,-5.70329 -1.07068,-6.00981c0.04995,-0.49233 -0.29644,-1.50733 -0.73381,-2.14848c-0.66228,-0.97214 -0.66715,-1.23934 -0.13669,-7.89314c0.32706,-4.0996 0.48539,-7.07679 0.43759,-8.2235c-0.06399,-1.53132 0.2758,-5.2586 2.2867,-25.13979l2.36292,-23.34063l0.53773,-1.1679c0.29557,-0.64258 0.66794,-1.66336 0.82661,-2.26763c0.33244,-1.26323 0.61119,-1.88373 1.60613,-3.57715c0.3926,-0.66888 0.88055,-1.58704 1.08407,-2.0397c0.20303,-0.45271 0.65021,-1.09332 0.99333,-1.4229c0.34317,-0.33008 0.90388,-0.91701 1.24629,-1.30389c1.01214,-1.14558 3.14187,-2.8864 3.57733,-2.92404c0.99099,-0.08618 1.51738,0.06034 2.48275,0.69181" data-paper-data="{&quot;noHover&quot;:false,&quot;origItem&quot;:[&quot;Path&quot;,{&quot;applyMatrix&quot;:true,&quot;segments&quot;:[[[150.944,54.88802],[0,0],[-2.051,-1.063]],[[145.858,54.01102],[1.957,-0.372],[-0.86,0.163]],[[139.323,60.55802],[1.785,-2.487],[-0.604,0.84]],[[137.104,63.40702],[0.617,-0.727],[-0.617,0.726]],[[135.413,66.44202],[0.313,-0.943],[-0.314,0.943]],[[133.666,70.72402],[0.647,-1.412],[-1.64,3.575]],[[131.19,78.17402],[0.407,-2.584],[-0.194,1.236]],[[130.002,82.85802],[0.459,-1.34],[0,0]],[129.167,85.29302],[[129.181,132.26302],[0,0],[0.012,40.017]],[[129.708,182.79902],[-0.437,-3.038],[0.327,2.275]],[[130.498,199.26702],[-0.177,-8.234],[0.288,13.364]],[[132.365,214.96102],[-1.516,-1.803],[1.001,1.189]],[[134.261,219.09202],[0,-0.991],[0,0.617]],[[137.608,230.84602],[-1.5,-4.652],[1.653,5.128]],[[138.746,242.47602],[0.856,-3.024],[0,0]],[138.062,244.89202],[[139.03,248.50002],[0,0],[0.532,1.984]],[[140.923,253.70102],[-0.509,-0.876],[1.815,3.127]],[[144.276,261.70202],[-0.824,-3.17],[0.459,1.768]],[[146.463,268.31202],[-0.744,-1.868],[0.744,1.867]],[[148.336,273.94902],[-0.286,-1.233],[0.286,1.234]],[[149.493,277.45802],[-0.35,-0.696],[0.419,0.833]],[[150.371,282.12002],[-0.159,-2.235],[0.192,2.704]],[[151.809,288.57102],[-0.953,-2.434],[0.658,1.681]],[[153.95,294.24102],[-0.519,-1.438],[0.519,1.437]],[[156.284,298.99502],[-0.764,-1.178],[3.135,4.827]],[[162.214,303.24902],[-2.514,0.774],[0.967,-0.298]],[[166.18,302.30902],[-1.214,0.219],[1.214,-0.218]],[[172.052,300.21002],[-2.016,0.936],[0,0]],[175.717,298.50702],[180.541,298.22602],[185.365,297.94602],[[194.703,294.84502],[0,0],[5.136,-1.705]],[[207.324,291.11302],[-1.806,0.347],[8.93,-1.718]],[[214.901,276.94002],[2.718,9.902],[-0.295,-1.073]],[[214.041,269.92602],[0.178,2.785],[-0.309,-4.832]],[[212.395,261.94602],[1.262,2.785],[-0.728,-1.604]],[[210.66,257.67102],[0.227,0.747],[-0.226,-0.747]],[[209.314,255.11802],[0.514,0.657],[-1.019,-1.302]],[[206.927,250.71702],[0,0.576],[0,-0.356]],[[203.86,242.51002],[1.281,3.072],[-0.362,-0.868]],[[202.315,237.42302],[0.488,1.929],[-0.487,-1.929]],[[200.064,230.68302],[0.75,1.778],[-0.751,-1.778]],[[197.933,224.73402],[0.421,1.494],[-0.421,-1.494]],[[196.445,219.69002],[0.397,1.28],[-1.606,-5.168]],[[199.728,212.41702],[-4.029,0.201],[5.105,-0.253]],[[206.947,224.73402],[-0.662,-10.091],[0.441,6.725]],[[209.331,238.35602],[-1.594,-4.902],[0.735,2.262]],[[211.035,244.46802],[-0.202,-1.099],[0.202,1.099]],[[212.588,249.52202],[-0.652,-1.681],[0.967,2.493]],[[214.042,256.31302],[-0.219,-3.047],[0.21,2.923]],[[215.361,262.76502],[-0.821,-2.126],[0.578,1.494]],[[216.947,267.80402],[-0.295,-1.277],[0.719,3.117]],[[220.485,276.99002],[-1.606,-2.919],[0.784,1.424]],[[222.197,281.53402],[-0.227,-1.257],[0.377,2.097]],[[225.506,291.05902],[-1.121,-2.213],[1.092,2.159]],[[238.741,293.43402],[-11.754,-0.147],[0,0]],[249.332,293.56502],[250.251,292.64702],[251.169,291.72802],[[250.949,287.94302],[0,0],[-0.121,-2.082]],[[250.213,280.93102],[0.284,1.774],[-0.284,-1.774]],[[249.219,273.12102],[0.263,2.522],[-0.432,-4.13]],[[245.826,254.44602],[1.201,4.858],[-0.254,-1.028]],[[245.14,249.18202],[0.123,1.868],[-0.123,-1.867]],[[243.716,238.65602],[0.66,3.922],[-1.627,-9.657]],[[244.035,217.91102],[-1.858,5.391],[1.498,-4.347]],[[247.058,212.47702],[-1.292,0.668],[0.584,-0.302]],[[249.711,210.44002],[-0.875,0.819],[0.875,-0.818]],[[252.629,208.46302],[-0.73,0.269],[4.972,-1.833]],[[260.826,203.74602],[-1.439,1.856],[1.639,-2.114]],[[267.454,199.12602],[-2.752,0.947],[1.044,-0.359]],[[271.235,197.26902],[-1.035,0.662],[1.036,-0.663]],[[274.806,195.20902],[-0.928,0.471],[0.929,-0.47]],[[277.442,193.11102],[-0.521,0.684],[0.617,-0.808]],[[280.544,190.90202],[-1.401,0.629],[1.529,-0.686]],[[285.644,187.11502],[-2.092,2.003],[1.621,-1.552]],[[291.611,182.27302],[-1.661,1.112],[0,0]],[294.631,180.25202],[[298.107,180.13702],[0,0],[2.782,-0.091]],[[302.727,180.60702],[-0.916,-0.468],[2.051,1.048]],[[311.541,187.08002],[-2.287,-2.138],[1.231,1.151]],[[316.39,190.60602],[-1.437,-0.788],[2.617,1.436]],[[320,194.67602],[0,-1.514],[0,0.388]],[[321.036,198.51302],[-0.57,-1.722],[0.673,2.035]],[[322.381,205.12202],[-0.201,-2.26],[0.534,6.018]],[[336.129,210.82802],[-14.013,-0.02],[9.439,0.013]],[[349.711,211.43102],[-2.002,-0.495],[1.308,0.323]],[[355.292,212.32902],[-1.762,-0.171],[4.603,0.448]],[[362.453,218.50802],[-0.569,-4.015],[0.171,1.207]],[[363.252,221.86202],[-0.269,-0.638],[0.368,0.878]],[[363.555,226.77202],[0.139,-2.834],[-0.18,3.649]],[[364.436,232.94702],[-1.038,-2.363],[0.585,1.335]],[[365.504,236.67602],[-0.002,-0.716],[0.002,0.715]],[[366.38,239.84502],[-0.48,-1.028],[1.241,2.654]],[[370.424,251.05002],[-0.654,-2.597],[0.306,1.214]],[[372.299,255.46402],[-0.725,-1.214],[1.681,2.811]],[[375.821,263.49802],[-1.01,-3.326],[0.444,1.464]],[[378,269.24802],[-0.754,-1.698],[0.755,1.698]],[[379.603,273.56702],[-0.127,-0.677],[0.127,0.678]],[[380.902,276.38702],[-0.587,-0.873],[2.296,3.414]],[[383.678,282.77102],[-0.239,-2.416],[0.306,3.093]],[[388.354,294.71902],[-2.171,-3.235],[2.368,3.529]],[[395.382,296.86002],[-3.6,1.71],[1.214,-0.577]],[[399.692,295.01502],[-1.156,0.438],[1.157,-0.438]],[[403.937,292.65102],[-1.178,0.862],[3.777,-2.766]],[[415.283,286.03902],[-3.177,1.287],[7.56,-3.061]],[[420.21,277.27602],[3.387,4.362],[-1.116,-1.439]],[[417.965,273.03102],[0.401,1.431],[-0.326,-1.164]],[[415.929,268.02802],[0.794,1.587],[-0.794,-1.587]],[[413.904,263.12502],[0.32,1.109],[-0.636,-2.206]],[[408.69,252.30002],[3.602,6.594],[-2.414,-4.418]],[[404.576,239.78602],[0.96,5.845],[-0.205,-1.246]],[[403.163,235.03202],[0.572,1.369],[-4.318,-10.327]],[[401.24,217.57702],[-2.611,5.171],[3.55,-7.032]],[[415.381,210.96002],[-6.396,-2.378],[1.692,0.629]],[[420.988,212.30002],[-1.635,-0.166],[3.659,0.371]],[[429.338,217.42502],[-4.163,-4.43],[6.254,6.657]],[[437.487,242.39102],[-0.851,-15.113],[0.673,11.938]],[[440.872,269.04702],[-2.125,-10.097],[0.531,2.521]],[[442.074,275.49802],[-0.131,-1.027],[0.337,2.662]],[[443.964,284.70702],[-0.425,-1.05],[0.611,1.51]],[[454.295,286.73902],[-8.695,-0.32],[4.483,0.165]],[[469.372,287.55002],[-3.81,-0.281],[11.523,0.851]],[[481.137,281.44202],[-1.247,7.481],[0.458,-2.744]],[[482.106,276.23002],[-0.075,0.122],[0.253,-0.41]],[[483.34,263.78302],[-0.366,5.83],[0.199,-3.174]],[[484.363,248.84302],[-0.363,5.042],[1.043,-14.487]],[[483.093,221.24402],[1.993,6.153],[-0.909,-2.805]],[[482.744,216.09102],[-0.56,2.337],[0.498,-2.072]],[[482.824,212.11102],[0.427,1.451],[-0.266,-0.901]],[[481.969,208.09602],[0.205,1.307],[-0.62,-3.962]],[[436.808,204.44702],[49.905,0.12],[-49.789,-0.121]],[[388.926,201.34902],[2.335,3.252],[-0.619,-0.862]],[[387.02,199.27102],[0.429,0.281],[-1.076,-0.705]],[[383.547,191.79702],[0.397,2.465],[-0.343,-2.13]],[[380.994,184.57502],[1.369,2.713],[-0.446,-0.884]],[[379.309,179.91302],[0.481,1.68],[-0.481,-1.681]],[[376.903,172.27202],[0.842,2.522],[-0.843,-2.521]],[[374.33,162.93502],[0.573,2.614],[-1.251,-5.711]],[[371.777,155.97002],[1.048,0.561],[-2.012,-1.076]],[[362.803,158.86002],[1.085,-2.074],[-2.523,4.823]],[[353.446,169.09802],[2.558,-0.737],[-0.747,0.215]],[[349.543,170.41202],[1.4,-0.508],[-3.108,1.127]],[[336.469,170.42802],[2.567,1.12],[-0.747,-0.326]],[[332.168,169.23402],[1.618,0.33],[-7.152,-1.461]],[[322.203,152.37702],[-2.132,7.03],[1.104,-3.638]],[[318.834,145.61002],[3.777,1.732],[-1.427,-0.654]],[[314.683,142.82002],[1.042,1.006],[-2.106,-2.031]],[[305.92,140.69302],[6.263,0],[-5.959,0]],[[283.059,138.59902],[9.456,1.412],[-8.594,-1.283]],[[275.931,139.95302],[-2.248,-2.488],[0.661,0.732]],[[277.547,142.60202],[-0.227,-0.725],[0.228,0.724]],[[278.817,146.11502],[-0.471,-1.207],[1.066,2.735]],[[278.424,155.63402],[1.353,-4.226],[-1.303,4.066]],[[274.839,161.50002],[2.091,-1.487],[-4.694,3.335]],[[254.465,165.84602],[15.819,-1.04],[-6.303,0.414]],[[238.336,168.18002],[3.911,-1.064],[-1.307,0.356]],[[233.413,169.05202],[1.4,-0.124],[-1.401,0.124]],[[227.898,169.92602],[1.632,-0.356],[-3.88,0.848]],[[216.475,169.90202],[3.32,0.863],[-1.423,-0.37]],[[211.974,168.86702],[1.052,0.199],[-1.088,-0.206]],[[208.069,167.27902],[1.131,0.697],[-1.095,-0.674]],[[204.38,165.10402],[0.934,0.523],[-1.814,-1.014]],[[197.696,158.12802],[0.691,1.6],[-0.229,-0.531]],[[196.323,155.73102],[0.526,0.787],[-3.139,-4.696]],[[191.486,138.49502],[0.013,6.536],[0,0]],[191.477,133.75002],[[190.548,133.42202],[0,0],[-0.722,-0.254]],[[184.096,134.39802],[4.287,-1.011],[-6.765,1.596]],[[175.445,138.17402],[1.186,-1.874],[-1.524,2.409]],[[170.626,138.89302],[1.398,1.973],[-0.263,-0.371]],[[168.708,136.59702],[0.792,0.892],[-2.346,-2.64]],[[168.758,128.27602],[-2.382,3.459],[0,0]],[170,126.47202],[[170.454,117.53902],[0,0],[0.39,-7.698]],[[170.406,102.49302],[0.431,5.267],[-0.276,-3.361]],[[169.395,89.42002],[0.28,3.829],[-1.291,-17.613]],[[161.688,62.06102],[4.276,2.151],[-0.611,-0.307]],[[159.219,60.21902],[0.747,0.706],[-1.458,-1.378]],[[150.944,54.88802],[3.492,1.811],[0,0]]],&quot;fillColor&quot;:[0,0,0,1]}]}" fill="#ffffff" fill-rule="nonzero" stroke="none" stroke-width="0.5"/><path d="M395.5017,112.56314c0.16334,0.19576 0.16326,0.6852 -0.00159,2.02817c-0.31141,2.54023 -0.07324,2.97492 1.72429,3.16631c1.42661,0.15175 1.94767,-0.14223 2.22405,-1.36245c0.39078,-1.72459 0.61447,-2.3225 0.90873,-2.46731c0.45109,-0.22126 0.51378,-0.03649 0.51135,1.51619c-0.00542,4.08556 0.25197,4.96544 1.57238,5.40706c1.12037,0.37516 1.72917,0.192 2.5405,-0.76516c1.45862,-1.72216 4.44633,-4.04338 7.16379,-5.56807c1.305,-0.73242 5.74298,-0.05722 6.51407,0.99021c0.68237,0.9275 0.71348,3.93932 0.05036,4.97425c-1.55354,2.42525 -3.19183,3.55361 -5.24592,3.59569c-2.58423,0.05303 -3.77182,1.09854 -3.37433,2.97387c0.37059,1.74963 1.06175,2.14545 2.9703,1.69762c2.38406,-0.5587 2.66024,-0.23719 2.53331,2.93862c-0.05118,1.28624 -0.03992,3.8504 0.02347,5.69435c0.06578,1.90944 0.04422,3.55322 -0.05066,3.81563l-0.21345,0.47655l-0.74604,-0.90012c-0.41051,-0.49538 -1.11515,-1.55484 -1.56685,-2.35655c-0.4517,-0.80171 -1.20225,-1.91597 -1.6691,-2.47929c-0.46691,-0.56284 -1.09738,-1.4074 -1.40139,-1.87892c-2.66603,-4.12769 -9.86734,-3.05431 -11.02633,1.64149c-0.16463,0.66791 -0.50558,1.62311 -0.80111,2.16632c-3.94386,7.24609 -4.0988,19.89031 -0.30393,24.54711c4.22604,5.18589 9.91607,5.94471 16.13565,2.1814c0.89943,-0.54418 1.79584,-0.93926 1.93471,-0.89806c0.84328,0.25169 0.84187,5.22545 0.00327,15.07984c-0.38081,4.4761 -0.65011,8.23218 -0.59616,8.34356c0.14867,0.3057 -0.84576,5.72221 -1.15889,6.31532c-0.47467,0.89896 -1.53211,1.27526 -3.69412,1.3124c-1.0383,0.01814 -2.29156,0.1121 -2.78415,0.20819c-5.09411,0.99598 -10.27843,0.91638 -22.99094,-0.36526c-8.11932,-0.81818 -8.21788,-0.84001 -9.59304,-2.22126c-0.53972,-0.54262 -1.29242,-1.12503 -1.67129,-1.29397c-0.50848,-0.22725 -1.01286,-0.72738 -1.92685,-1.91479c-0.69319,-0.89999 -1.55561,-1.8105 -1.95905,-2.06876c-0.39639,-0.25353 -1.11051,-0.7866 -1.58569,-1.18364c-0.47514,-0.39754 -1.3702,-1.04001 -1.98696,-1.42682c-0.61726,-0.38686 -1.98883,-1.30202 -3.04658,-2.03221c-3.53152,-2.43871 -5.67994,-3.32157 -8.58949,-3.5249c-2.04235,-0.14295 -2.1187,-0.20964 -2.10889,-1.82531c0.00425,-0.67515 -0.20037,-2.97682 -0.4526,-5.11147c-0.40466,-3.42749 -0.44354,-4.26152 -0.31881,-7.10879c0.17372,-3.96358 0.18596,-4.00729 1.47547,-4.57214c1.68815,-0.73922 5.4248,-3.86511 6.24017,-5.21837c1.7868,-2.96324 0.88325,-7.25918 -1.84775,-8.77749c-1.45102,-0.80672 -1.67363,-1.50387 -1.48543,-4.61072c0.14875,-2.45082 0.09321,-2.7623 -0.93449,-5.04036c-0.42076,-0.93359 -0.85088,-1.91876 -0.95643,-2.18946c-0.271,-0.69303 -0.11033,-1.91788 0.32014,-2.45544c0.19702,-0.24503 0.64289,-0.79 0.9901,-1.2095c0.71445,-0.86309 0.78562,-1.15659 0.48448,-2.00276c-0.43861,-1.23253 -3.51358,-3.32589 -5.12371,-3.48924c-3.0156,-0.30593 -1.44882,-4.56064 1.90583,-5.17746c1.73843,-0.31953 4.57502,0.04034 5.74765,0.73148c1.02117,0.601 3.01505,1.61749 3.97154,2.02471c0.31413,0.13426 1.17889,0.68885 1.9202,1.23335c3.02235,2.21842 5.2714,1.58289 4.38265,-1.2387c-0.2301,-0.73004 -0.41736,-0.9786 -1.0004,-1.39111c-0.4032,-0.28534 -1.17247,-0.86516 -1.71022,-1.28861c-0.53776,-0.42346 -1.30821,-0.90755 -1.71328,-1.07563c-2.38984,-0.99231 -1.57584,-1.87081 2.58805,-2.64747c0.80376,-0.15034 1.50314,0.63454 1.8718,2.1014c0.69997,2.78738 1.36822,3.56237 3.01837,3.50943c2.03341,-0.06575 2.45387,-2.12232 0.84137,-4.24639c-0.42898,-0.56552 -0.88257,-1.28122 -1.00833,-1.5901c-0.12572,-0.30939 -0.5517,-0.812 -0.94639,-1.11705c-0.75819,-0.58586 -2.65809,-3.57836 -2.60562,-4.09553c0.08397,-0.82767 0.9742,-0.79749 1.79599,0.06186c0.33311,0.348 0.84833,0.79007 1.14405,0.98219c0.29566,0.19261 0.98221,0.72428 1.52449,1.18234c0.54228,0.45805 1.38006,1.0055 1.86063,1.21586c0.48052,0.21087 1.04314,0.51467 1.24967,0.67566c0.37909,0.29544 2.50548,0.96639 3.37426,1.06556c0.85736,0.09803 1.39147,-0.53108 1.37406,-1.621c-0.01839,-1.13971 0.2537,-1.33513 1.99077,-1.43346c0.63203,-0.03576 2.53834,-0.27718 4.23256,-0.53695c4.59616,-0.70369 8.53132,-0.73605 9.08171,-0.07591" data-paper-data="{&quot;noHover&quot;:false,&quot;origItem&quot;:[&quot;Path&quot;,{&quot;applyMatrix&quot;:true,&quot;segments&quot;:[[[456.814,30.51302],[0,0],[-1.23,-1.204]],[[438.746,32.50102],[9.015,-2.331],[-3.323,0.86]],[[430.427,34.42602],[1.252,-0.199],[-3.441,0.547]],[[426.753,37.68402],[-0.267,-2.267],[0.255,2.168]],[[424.345,41.19102],[1.728,0.022],[-1.751,-0.022]],[[417.411,39.74902],[0.815,0.512],[-0.444,-0.279]],[[414.786,38.65502],[1,0.323],[-1,-0.322]],[[410.835,36.60802],[1.173,0.803],[-1.173,-0.803]],[[407.56,34.56002],[0.628,0.324],[-0.628,-0.323]],[[405.083,32.83402],[0.734,0.626],[-1.811,-1.546]],[[401.494,33.07302],[0,-1.666],[0,1.041]],[[407.472,40.61502],[-1.629,-1.014],[0.848,0.528]],[[409.584,42.64902],[-0.313,-0.591],[0.313,0.59]],[[411.915,45.61302],[-0.969,-1.04],[3.642,3.906]],[[411.137,54.33502],[4.038,-0.542],[-3.277,0.439]],[[404.416,47.95202],[1.958,5.412],[-1.031,-2.848]],[[400.263,44.14302],[1.571,-0.462],[-8.139,2.389]],[[395.589,49.85602],[-4.962,-1.494],[0.841,0.253]],[[399.221,51.65202],[-1.157,-0.735],[1.157,0.735]],[[402.89,53.87302],[-0.861,-0.487],[1.245,0.704]],[[405.216,56.52802],[-0.606,-1.408],[2.341,5.442]],[[396.74,59.87802],[6.47,3.809],[-1.587,-0.935]],[[392.666,57.80802],[0.653,0.204],[-1.988,-0.618]],[[384.346,54.57502],[2.156,0.991],[-2.476,-1.14]],[[372.75,54.27602],[3.399,-0.988],[-6.559,1.907]],[[370.003,64.97202],[-6.07,0],[3.241,0]],[[380.916,70.88902],[-1.123,-2.367],[0.771,1.625]],[[380.357,74.97502],[1.249,-1.864],[-0.607,0.906]],[[378.63,77.58302],[0.343,-0.528],[-0.749,1.158]],[[378.49,82.53702],[-0.68,-1.326],[0.265,0.518]],[[380.839,86.70402],[-1.027,-1.775],[2.508,4.331]],[[383.722,96.55102],[-0.199,-4.913],[0.253,6.228]],[[387.615,105.43002],[-3.054,-1.314],[5.748,2.473]],[[393.07,122.52702],[2.961,-6.265],[-1.351,2.861]],[[381.69,134.17802],[3.214,-1.814],[-2.455,1.386]],[[379.672,143.58002],[-0.455,-7.932],[0.327,5.698]],[[381.739,157.67102],[-1.499,-6.747],[0.934,4.202]],[[383.67,167.75902],[-0.128,-1.346],[0.307,3.221]],[[388.238,170.96702],[-4.098,0.128],[5.838,-0.183]],[[406.054,176.24702],[-7.529,-4.145],[2.255,1.241]],[[412.53,179.67802],[-1.308,-0.646],[1.307,0.646]],[[416.774,182.11802],[-1.027,-0.696],[1.027,0.695]],[[420.17,184.15502],[-0.841,-0.425],[0.856,0.433]],[[424.488,187.88002],[-1.563,-1.653],[2.061,2.181]],[[428.711,191.30502],[-1.059,-0.35],[0.789,0.26]],[[432.3,193.54502],[-1.185,-0.972],[3.019,2.474]],[[451.85,196.03202],[-16.342,0.011],[25.587,-0.016]],[[497.708,192.12202],[-9.948,3.014],[0.962,-0.291]],[[503.211,191.14602],[-2.065,0.246],[4.3,-0.511]],[[510.303,187.78702],[-0.764,1.887],[0.504,-1.245]],[[511.332,174.97402],[0.358,0.579],[-0.13,-0.211]],[[510.829,158.23602],[0.146,8.995],[-0.321,-19.803]],[[507.768,128.20802],[1.731,0.331],[-0.285,-0.054]],[[504.192,130.41202],[1.682,-1.266],[-11.631,8.755]],[[471.51,129.29202],[9.468,9.478],[-8.502,-8.511]],[[467.166,80.38402],[-6.393,15.234],[0.479,-1.142]],[[468.388,75.82902],[-0.193,1.364],[1.36,-9.59]],[[490.032,70.33702],[-6.146,-7.685],[0.701,0.878]],[[493.206,73.80002],[-1.044,-1.027],[1.044,1.028]],[[497.035,78.40602],[-1.062,-1.506],[1.062,1.506]],[[500.635,82.78802],[-0.918,-0.904],[0,0]],[502.304,84.43202],[[502.542,83.48102],[0,0],[0.136,-0.542]],[[501.874,75.87302],[0.517,3.791],[-0.499,-3.661]],[[500.68,64.53802],[0.158,2.573],[-0.389,-6.353]],[[495.042,59.19902],[4.637,-1.595],[-3.712,1.278]],[[488.784,56.42002],[1.092,3.411],[-1.171,-3.656]],[[494.972,49.73802],[-5.138,0.628],[4.084,-0.499]],[[504.63,41.58802],[-2.605,5.146],[1.112,-2.196]],[[503.527,31.69002],[1.547,1.71],[-1.748,-1.931]],[[490.353,31.03702],[2.452,-1.723],[-5.106,3.587]],[[477.208,43.58002],[2.558,-3.726],[-1.423,2.071]],[[472.303,45.61902],[2.308,0.521],[-2.72,-0.613]],[[468.082,35.16602],[0.815,8.141],[-0.309,-3.094]],[[466.758,32.24902],[0.854,-0.532],[-0.557,0.348]],[[465.479,37.25402],[0.43,-3.515],[-0.304,2.487]],[[461.292,40.51302],[2.873,0.014],[-3.62,-0.018]],[[457.22,34.55402],[-0.107,5.124],[0.057,-2.709]],[[456.814,30.51302],[0.365,0.357],[0,0]]],&quot;fillColor&quot;:[0,0,0,1]}]}" fill="#ffffff" fill-rule="nonzero" stroke="none" stroke-width="0.5"/><path d="M389.12016,168.04147c2.42298,0.64583 5.99838,1.77001 10.30024,3.22031c0.44504,0.15004 0.4384,0.49033 -0.02208,1.06147c-0.76536,0.94928 -0.93798,6.81693 -0.23102,7.85334c0.75322,1.10485 2.93639,1.29712 3.80918,0.34267c0.57191,-0.62559 1.01938,-4.05394 0.80041,-6.13552c-0.1646,-1.56862 -0.04213,-1.73855 0.79703,-1.65894c3.30745,0.31346 6.12068,9.51716 3.07781,10.06874c-1.00574,0.18205 -2.59557,0.54969 -3.64798,0.84045c-0.62642,0.17335 -1.9712,0.53602 -2.98609,0.80347c-2.10397,0.55348 -2.43255,0.67652 -3.47819,1.27163c-1.36573,0.77694 -7.13512,0.26515 -11.64413,-1.04303c-0.91074,-0.26455 -2.07592,-0.57312 -2.58019,-0.6835c-0.75174,-0.1646 -5.40412,-2.12583 -8.67804,-3.65051c-0.4026,-0.1874 -1.3459,-0.58569 -2.09586,-0.88161c-0.74946,-0.29588 -1.66055,-0.77094 -2.02395,-1.05275c-5.42347,-4.20767 -7.04618,-6.67816 -5.78036,-8.77073c0.43047,-0.71071 5.9833,-2.89373 8.33725,-3.27428c2.1565,-0.34889 12.44812,0.73003 16.04597,1.6888" data-paper-data="{&quot;noHover&quot;:false,&quot;origItem&quot;:[&quot;Path&quot;,{&quot;applyMatrix&quot;:true,&quot;segments&quot;:[[[455.314,142.33602],[0,0],[-7.362,-1.183]],[[423.056,142.19102],[4.226,-1.131],[-4.613,1.234]],[[407.113,150.38402],[0.714,-1.503],[-2.099,4.425]],[[420.402,166.66902],[-11.656,-7.287],[0.781,0.488]],[[424.646,168.35302],[-1.553,-0.438],[1.554,0.438]],[[428.998,169.68102],[-0.84,-0.292],[6.831,2.376]],[[446.995,175.17302],[-1.531,-0.176],[1.027,0.118]],[[452.258,176.01102],[-1.868,-0.343],[9.248,1.695]],[[475.628,175.75702],[-2.564,1.824],[1.963,-1.397]],[[482.296,172.52902],[-4.08,1.528],[1.968,-0.738]],[[488.081,170.33002],[-1.213,0.472],[2.038,-0.792]],[[495.178,167.92302],[-1.967,0.566],[5.951,-1.714]],[[487.012,148.50902],[6.653,-0.044],[-1.688,0.011]],[[485.856,151.95002],[-0.645,-3.092],[0.857,4.103]],[[485.502,164.35402],[1.013,-1.362],[-1.546,2.078]],[[477.745,164.42402],[1.724,2.049],[-1.618,-1.922]],[[476.621,148.76002],[-1.333,2.046],[0.802,-1.231]],[[476.452,146.64402],[0.917,0.209],[-8.864,-2.02]],[[455.314,142.33602],[4.958,0.797],[0,0]]],&quot;fillColor&quot;:[0,0,0,1]}]}" fill="#ff6cbf" fill-rule="nonzero" stroke="none" stroke-width="0.5"/><path d="M400.84844,103.66143l0.4086,-0.63363l3.27791,0.33254l3.2784,0.33259l0.2172,0.60978c0.11901,0.33581 0.15124,0.69594 0.07084,0.80072c-0.08846,0.115 -0.07083,0.15393 0.04483,0.0974c0.1172,-0.05687 0.20834,0.17271 0.23636,0.59416l0.04572,0.68724l4.4134,0.44975c2.42728,0.24725 4.69427,0.52592 5.03818,0.61903c0.6658,0.18047 6.59764,6.28878 7.3112,6.74062c0.36457,0.23073 0.64339,0.63395 0.88757,1.2846c0.19552,0.52175 0.43054,1.03999 0.52206,1.15216c0.28168,0.34528 -0.50436,7.47005 -0.84962,7.70205c-0.1508,0.10115 -0.2946,0.38068 -0.31894,0.62064c-0.04652,0.45855 -1.24365,1.60695 -1.63414,1.56734c-0.27672,-0.02807 -1.15096,0.68831 -1.17913,0.96602c-0.01205,0.11874 -0.23418,0.37878 -0.49373,0.57731c-0.46956,0.35892 -0.47242,0.37218 -0.5932,2.48303c-0.06672,1.16722 -0.14638,2.56098 -0.17716,3.09692c-0.03078,0.53594 -0.00896,0.97883 0.04818,0.98463c0.05714,0.0058 0.09851,0.52797 0.09215,1.15974c-0.00592,0.63231 0.04023,1.53793 0.10344,2.01314c0.07269,0.54995 -0.05488,2.5793 -0.35111,5.58836c-0.25614,2.59904 -0.42739,4.76701 -0.38046,4.81895c0.08939,0.09841 0.29592,3.75725 0.24951,4.41257c-0.01516,0.20877 0.04482,0.34485 0.13303,0.3016c0.1515,-0.07347 0.13537,1.09486 -0.02684,1.94171c-0.0424,0.22005 0.00173,0.35402 0.10048,0.30582c0.1077,-0.05232 0.15124,0.49316 0.11227,1.4017c-0.09561,2.22383 -0.09003,2.66859 0.03387,2.78305c0.06242,0.05752 0.06932,0.68713 0.01563,1.39942c-0.05369,0.7123 -0.03073,1.26272 0.05057,1.22328c0.0813,-0.03944 0.11043,0.29679 0.06471,0.7474c-0.04576,0.45109 -0.00906,0.91057 0.08111,1.0211c0.10625,0.13024 0.06549,0.97233 -0.11522,2.39249c-0.15338,1.2051 -0.2183,2.1617 -0.14436,2.12552c0.17423,-0.08472 -2.67612,27.98691 -2.86441,28.21024c-0.07819,0.09295 -0.42265,0.28738 -0.76561,0.43227c-0.34246,0.14495 -1.25527,0.73696 -2.0282,1.31555c-2.03137,1.52001 -2.56752,1.80793 -2.91134,1.56074c-0.10711,-0.07711 -0.14568,-0.07301 -0.08528,0.00942c0.16544,0.22457 -0.45735,0.54034 -0.97464,0.49389c-0.25019,-0.02237 -0.50899,0.03017 -0.57604,0.11723c-0.06656,0.08711 -0.38974,0.13111 -0.71763,0.09785c-0.32838,-0.03331 -0.8091,0.02482 -1.06867,0.12949c-0.77562,0.31332 -1.90277,0.47502 -2.21364,0.3185c-0.15992,-0.08097 -0.23536,-0.07959 -0.1674,0.00259c0.06795,0.08218 -0.40854,0.21755 -1.05853,0.30167l-1.18139,0.15219l-0.15838,1.82346c-0.08978,1.03338 -0.08798,1.99523 0.00427,2.2189c0.10591,0.25718 0.08779,0.7673 -0.05094,1.46193c-0.30798,1.53674 -0.35463,2.0806 -0.31036,3.61344c0.11198,3.89318 0.03392,5.10291 -0.59034,9.17839c-0.34262,2.23441 -0.66857,4.02732 -0.7249,3.98395c-0.05638,-0.04286 -0.15731,0.79364 -0.22422,1.85894c-0.0868,1.38 -0.18866,2.00309 -0.35475,2.16592c-0.22695,0.22341 -1.80213,12.13371 -2.18566,16.52773c-0.10518,1.20497 -0.20968,1.7254 -0.3448,1.71169c-0.10631,-0.01079 -0.15511,0.05955 -0.10819,0.15616c0.13164,0.27084 -0.27961,0.77721 -1.27908,1.57525c-0.50193,0.40081 -0.9233,0.83388 -0.93635,0.96255c-0.02838,0.2797 -0.70637,1.3573 -1.07655,1.71124c-0.14449,0.13792 -0.46388,0.58486 -0.70953,0.99259c-0.2457,0.40823 -0.61046,0.8621 -0.81061,1.00943c-0.20015,0.14733 -0.38296,0.46006 -0.40675,0.69454c-0.0444,0.43768 -0.70925,1.14821 -1.0426,1.11439c-0.19475,-0.01976 -0.82729,0.51586 -0.84785,0.71855c-0.02142,0.21115 -1.38522,1.27086 -1.6068,1.24838c-0.11874,-0.01205 -0.61182,0.28676 -1.09533,0.66434c-1.03461,0.80802 -2.6955,1.45163 -3.77582,1.4635c-0.42206,0.00436 -1.58003,0.07912 -2.57306,0.16559c-2.58721,0.22589 -5.88741,-0.25295 -7.02536,-1.01889c-0.179,-0.12055 -0.56753,-0.24379 -0.86263,-0.27372c-0.63343,-0.06426 -1.73654,-1.27737 -1.67883,-1.84621c0.01945,-0.19177 -0.27246,-0.74789 -0.64853,-1.23626c-0.54377,-0.70565 -0.7404,-1.1718 -0.96086,-2.27881c-0.15273,-0.76535 -0.42497,-1.77271 -0.60561,-2.23825c-0.18065,-0.46553 -0.35451,-1.07694 -0.3872,-1.35832c-0.03269,-0.28138 -0.12471,-0.56175 -0.20526,-0.62362c-0.08011,-0.06133 -0.12355,-0.33075 -0.09643,-0.59803c0.02712,-0.26728 -0.02193,-0.54078 -0.10904,-0.60734c-0.08656,-0.06701 -0.14286,-0.26896 -0.12462,-0.44881c0.0183,-0.18034 -0.0428,-0.3351 -0.1357,-0.34453c-0.0929,-0.00942 -0.19508,0.24573 -0.22769,0.56716c-0.03261,0.32143 -0.28357,0.9053 -0.55771,1.29709c-0.29884,0.42743 -0.52571,0.98162 -0.56664,1.38502c-0.04576,0.45109 -0.30919,1.02918 -0.80195,1.76018c-0.42071,0.62437 -0.83061,1.47871 -0.96109,2.00301c-0.12528,0.50276 -0.30506,1.1616 -0.39896,1.46377c-0.21744,0.69869 -1.83856,2.05855 -2.38803,2.00281c-0.21263,-0.02157 -0.62684,0.12814 -0.9201,0.33228c-0.2933,0.20464 -0.69212,0.35591 -0.88686,0.33616c-0.19425,-0.01971 -0.55218,0.10459 -0.79485,0.27522c-0.49086,0.34621 -1.79679,0.82556 -2.15051,0.78968c-0.12569,-0.01275 -0.30747,0.03757 -0.40387,0.11211c-0.09689,0.07449 -0.48357,0.14569 -0.85982,0.15871c-0.37626,0.01302 -0.94717,0.04997 -1.26815,0.08215c-0.4158,0.04164 -0.54429,0.00702 -0.44647,-0.12108c0.09309,-0.12105 -0.06059,-0.19938 -0.47243,-0.24116c-0.41234,-0.04183 -0.57862,0.00404 -0.51174,0.14132c0.06891,0.14201 -0.04624,0.15893 -0.3792,0.0569c-1.54018,-0.47195 -2.22,-0.75675 -2.466,-1.03316c-0.1518,-0.17099 -0.83465,-0.66338 -1.51713,-1.09501c-0.68204,-0.43107 -1.31554,-0.89537 -1.40706,-1.03214c-0.09202,-0.13683 -0.35731,-0.26763 -0.58932,-0.29117c-0.52562,-0.05332 -2.96346,-3.0908 -2.91151,-3.6276c0.01831,-0.19037 -0.30764,-0.81671 -0.72414,-1.39149c-0.41645,-0.57528 -0.70217,-1.11823 -0.63452,-1.20623c0.0677,-0.0885 0.05564,-0.16752 -0.02732,-0.17594c-0.19623,-0.01991 -1.05883,-1.70401 -1.02803,-2.00756c0.01305,-0.12867 -0.15929,-0.69575 -0.38307,-1.26053c-0.22428,-0.56482 -0.38195,-1.27648 -0.35106,-1.58102c0.03483,-0.34329 -0.06242,-0.68592 -0.25554,-0.89976c-0.17731,-0.19667 -0.25773,-0.45277 -0.18667,-0.59413c0.06906,-0.13655 0.06811,-0.20138 -0.00193,-0.14424c-0.17237,0.14062 -0.97885,-1.13676 -0.94272,-1.49297c0.01573,-0.155 -0.09337,-0.6183 -0.24293,-1.02898c-0.14951,-0.41118 -0.21023,-0.8269 -0.13561,-0.92424c0.0781,-0.102 0.05625,-0.13884 -0.05145,-0.08653c-0.23339,0.11384 -0.8049,-1.44637 -0.61867,-1.68898c0.07348,-0.09594 0.05286,-0.13517 -0.04589,-0.08697c-0.18845,0.09131 -0.42163,-0.39563 -0.54181,-1.13057c-0.13254,-0.81099 -1.01919,-3.08428 -1.41878,-3.63778c-0.22315,-0.30873 -0.50863,-1.12621 -0.64844,-1.85561c-0.1371,-0.71659 -0.51641,-2.04399 -0.8427,-2.94892c-0.34242,-0.94873 -0.59972,-2.0143 -0.6079,-2.51755c-0.00831,-0.48218 -0.21803,-1.38332 -0.46979,-2.01367c-0.25008,-0.62716 -0.40466,-1.206 -0.34339,-1.28561c0.06073,-0.07916 0.02656,-0.1529 -0.07628,-0.16333c-0.51817,-0.05257 -0.66305,-1.82548 -0.46835,-5.71867c0.01319,-0.25866 -0.01905,-0.43559 -0.07159,-0.39273c-0.08427,0.06875 -0.58827,-0.98923 -0.80733,-1.69456c-0.28296,-0.91157 -0.42248,-1.22337 -0.84595,-1.8877c-0.25973,-0.40831 -0.49572,-1.04559 -0.52481,-1.41694c-0.02863,-0.37081 -0.12616,-0.78977 -0.21734,-0.93002c-0.09975,-0.15467 -0.08327,-1.39073 0.042,-3.13021l0.2063,-2.87463l-1.30712,-0.55773c-0.71873,-0.30681 -1.58717,-0.62228 -1.9305,-0.70128c-0.38013,-0.08725 -0.57369,-0.20777 -0.49559,-0.30977c0.08731,-0.11361 -0.19245,-0.16608 -0.87874,-0.16443c-0.55422,0.001 -1.44064,-0.10249 -1.97072,-0.23054c-0.88041,-0.21228 -1.43466,-0.14655 -0.94249,0.11268c0.11152,0.05849 -1.29451,-0.03897 -3.12449,-0.2171c-2.99843,-0.29215 -3.31475,-0.35033 -3.19541,-0.58667c0.10743,-0.21295 0.06926,-0.23741 -0.20557,-0.13078c-0.36998,0.14416 -2.63547,-0.31254 -3.11248,-0.62745c-0.15289,-0.10084 -0.48725,-0.20402 -0.74359,-0.23003c-0.77407,-0.07803 -3.20507,-0.70912 -3.12647,-0.81106c0.04047,-0.05261 -2.05914,-0.28921 -4.66516,-0.52597c-3.13622,-0.28453 -4.7922,-0.4957 -4.89711,-0.6243c-0.09508,-0.11655 -1.10826,-0.29162 -2.52847,-0.4372c-1.30346,-0.13374 -2.27687,-0.29021 -2.16315,-0.34744c0.11372,-0.05722 -0.48174,-0.19392 -1.32334,-0.3039c-0.8421,-0.11003 -1.56632,-0.26882 -1.60947,-0.35301c-0.12154,-0.23669 -1.71315,-0.60244 -1.59847,-0.36745c0.05727,0.11824 -0.06961,0.17664 -0.32796,0.15043c-0.23201,-0.02354 -0.46127,-0.12359 -0.50898,-0.22229c-0.1454,-0.29833 -4.76066,-0.70281 -5.07693,-0.44478c-0.14391,0.1174 -0.32683,0.23336 -0.40602,0.25695c-0.07924,0.02409 -0.54075,0.65486 -1.02567,1.4027l-0.88122,1.35913l-0.35989,2.56291c-0.19819,1.40935 -0.30129,2.58894 -0.22929,2.62133c0.07205,0.0319 0.12884,0.86232 0.12709,1.84439c-0.00231,0.98251 0.05687,1.95773 0.13194,2.16762c0.07513,0.20939 0.07641,0.45898 0.00352,0.55397c-0.07343,0.09545 -0.06048,0.18058 0.02845,0.1896c0.22157,0.02248 0.25658,2.11651 0.1022,6.10213c-0.0082,0.20947 0.04879,0.35027 0.12641,0.31246c0.13356,-0.06475 0.18694,0.30455 0.25683,1.77272c0.01688,0.35306 0.08287,0.80093 0.14654,0.99461c0.09059,0.27471 -0.27065,5.43842 -0.76646,10.96391c-0.02322,0.25864 0.0354,0.43273 0.13042,0.38666c0.10875,-0.05271 0.02612,1.36033 -0.22301,3.81604c-0.21758,2.1447 -0.45665,3.85307 -0.53064,3.79587c-0.07455,-0.05675 -0.159,0.10283 -0.18803,0.35435c-0.44644,3.87618 -0.84888,5.65129 -1.51497,6.68091c-0.3714,0.57365 -0.68872,1.17338 -0.70485,1.33235c-0.01613,0.15897 -0.09002,0.30858 -0.16469,0.33212c-0.07422,0.02409 -0.41537,0.39854 -0.75848,0.83202c-0.86957,1.10083 -1.91352,1.93652 -2.36212,1.89101c-0.20717,-0.02102 -0.61591,0.12925 -0.90916,0.33339c-0.2933,0.20464 -0.61461,0.36377 -0.71447,0.35364c-0.09986,-0.01013 -0.37899,0.15378 -0.62062,0.36367c-0.24109,0.20944 -0.50477,0.37442 -0.58524,0.36625c-0.08049,-0.00817 -0.24558,0.05087 -0.36713,0.13089c-1.01663,0.67031 -1.42658,0.89675 -2.11783,1.16994c-0.4371,0.17248 -1.03874,0.49742 -1.33708,0.72213c-0.66076,0.49712 -2.37349,1.15203 -2.58632,0.9889c-0.08472,-0.06531 -0.16228,-0.03804 -0.17226,0.06032c-0.00998,0.09837 -0.12938,0.16706 -0.266,0.1532c-0.13612,-0.01381 -0.52832,0.09698 -0.87123,0.24639c-0.68999,0.30041 -2.4465,0.61008 -3.08986,0.54481c-0.53704,-0.05448 -1.52533,0.32158 -1.55259,0.59035c-0.01164,0.11476 -0.2768,0.40809 -0.58964,0.6519c-0.31229,0.24337 -0.70283,0.65949 -0.86817,0.92379c-0.29597,0.47339 -2.01996,1.66974 -2.35779,1.63547c-0.09489,-0.00963 -0.18151,0.06741 -0.19209,0.17174c-0.03412,0.33633 -1.89938,1.57455 -2.45287,1.62782c-0.29503,0.02879 -0.58424,0.11389 -0.64214,0.18983c-0.15208,0.19789 -13.8766,-1.21604 -13.98628,-1.44098c-0.04771,-0.0987 -0.23424,-0.19442 -0.41459,-0.21271c-0.17985,-0.01825 -0.31927,-0.1132 -0.3093,-0.21157c0.00998,-0.09837 -0.05156,-0.14476 -0.13659,-0.10319c-0.26343,0.12786 -1.37385,-0.66187 -1.92924,-1.37172c-0.51625,-0.6602 -1.07872,-1.07261 -1.90372,-1.39572c-0.73764,-0.28865 -1.53898,-1.62675 -1.45718,-2.43306c0.01774,-0.17487 -0.15977,-0.50306 -0.39482,-0.72918c-0.23505,-0.22612 -0.31925,-0.34106 -0.18686,-0.25586c0.20726,0.13395 0.2119,0.11284 0.03417,-0.15865c-0.11304,-0.17208 -0.24232,-0.28307 -0.28769,-0.24652c-0.17128,0.13973 -0.67076,-0.56696 -0.63689,-0.9008c0.0195,-0.19226 -0.27612,-0.72166 -0.6593,-1.17964c-0.38234,-0.45638 -0.81462,-1.18736 -0.96057,-1.62377c-0.14639,-0.43697 -0.46992,-1.05753 -0.71933,-1.37947c-0.27828,-0.35899 -0.39526,-0.66047 -0.30272,-0.78107c0.0914,-0.11921 0.077,-0.16033 -0.03702,-0.10514c-0.10292,0.04979 -0.28653,-0.18867 -0.40841,-0.5308c-0.12144,-0.34158 -0.48317,-0.82799 -0.80388,-1.08036c-0.80547,-0.63433 -1.82356,-2.50737 -1.75119,-3.22078c0.03054,-0.30106 -0.54838,-1.81786 -0.84533,-2.21539c-0.1701,-0.22806 -0.25458,-0.45898 -0.18783,-0.51344c0.06731,-0.05491 0.01395,-0.19684 -0.11855,-0.31569c-0.31828,-0.28626 -0.44405,-1.24814 -0.41308,-3.16634c0.0198,-1.26383 -0.0394,-1.65982 -0.30087,-2.00155c-0.17904,-0.23399 -0.31369,-0.54428 -0.29892,-0.68984c0.01472,-0.14507 -0.18462,-0.81226 -0.44288,-1.48242c-0.25826,-0.67016 -0.46074,-1.32111 -0.44953,-1.44646c0.01071,-0.1254 -0.0575,-0.47713 -0.15152,-0.7823c-0.34353,-1.11096 -0.48113,-1.79799 -0.54494,-2.72246c-0.03618,-0.51914 -0.24432,-1.4161 -0.46241,-1.99234c-0.21804,-0.57674 -0.35934,-1.07894 -0.31392,-1.11598c0.04597,-0.0375 -0.10947,-0.26658 -0.34485,-0.5093c-0.46668,-0.481 -0.84947,-1.8976 -0.75759,-2.80327c0.0313,-0.30852 -0.01948,-0.61933 -0.1121,-0.69096c-0.09316,-0.07119 -0.12067,-0.22556 -0.06107,-0.34299c0.0591,-0.11748 0.00292,-0.26623 -0.12554,-0.33095c-0.12796,-0.06467 -0.22046,-0.2412 -0.20509,-0.39273c0.01532,-0.15102 -0.04919,-0.52447 -0.14326,-0.82914c-0.31964,-1.03476 -0.47391,-1.77518 -0.64108,-3.07603c-0.09169,-0.71399 -0.23818,-1.47169 -0.32557,-1.68383c-0.0869,-0.21209 -0.14393,-0.53058 -0.12594,-0.70793c0.01799,-0.17736 -0.10535,-0.47546 -0.27457,-0.66278c-0.41646,-0.46135 -0.67405,-1.18766 -0.73222,-2.06388c-0.02655,-0.40122 -0.22819,-1.19412 -0.44809,-1.76252c-0.35188,-0.91003 -0.38764,-1.265 -0.29827,-2.98203c0.0555,-1.07148 0.04078,-1.995 -0.03328,-2.0517c-0.07356,-0.05665 -0.09898,-0.44921 -0.05614,-0.8715c0.04995,-0.49233 -0.043,-1.06541 -0.25753,-1.59261c-0.36808,-0.90365 -0.67381,-2.66929 -0.59559,-3.44033c0.02732,-0.26927 -0.00759,-0.56844 -0.0776,-0.66488c-0.36875,-0.5062 -0.48555,-2.45695 -0.2597,-4.34182c0.12884,-1.0771 1.66928,-16.682 3.42273,-34.67852c3.59626,-36.90849 3.39312,-35.3315 4.89217,-37.91738c0.27122,-0.46687 0.50745,-0.99451 0.52544,-1.17187c0.01804,-0.17786 0.11356,-0.36241 0.21226,-0.41011c0.09825,-0.04826 0.18963,-0.19207 0.20269,-0.32074c0.013,-0.12817 0.22382,-0.5043 0.46827,-0.83587c0.24439,-0.33106 0.57972,-1.04891 0.74562,-1.59574c0.51552,-1.7024 0.63074,-1.97229 0.97845,-2.28786c0.18577,-0.16887 0.41066,-0.51045 0.49966,-0.75941c0.24001,-0.6688 0.77226,-1.43292 1.34812,-1.93414c0.27969,-0.24366 0.71403,-0.7748 0.96548,-1.18043c0.45111,-0.72619 1.03361,-1.25834 1.35567,-1.23672c0.09072,0.00619 0.67677,-0.40264 1.30227,-0.90836c1.25373,-1.01367 1.55192,-1.09835 3.93547,-1.11755c2.5905,-0.02077 5.76346,0.90593 6.20407,1.81192c0.04608,0.09502 0.76865,0.60148 1.60544,1.12504c0.83678,0.52356 1.56054,1.03315 1.60915,1.13295c0.05479,0.11297 0.00455,0.11841 -0.13443,0.01396c-0.18936,-0.14218 -0.19252,-0.12092 -0.02122,0.13989c0.11037,0.1688 0.27677,0.27 0.36965,0.22522c0.30783,-0.14997 3.65723,3.96525 3.61089,4.43687c-0.01624,0.16499 0.08366,0.35782 0.22264,0.42763c0.28599,0.14445 0.71511,1.3173 0.77234,2.11363c0.02149,0.29279 0.1896,0.97589 0.37401,1.51809c0.18441,0.54221 0.32403,1.10044 0.30986,1.24005c-0.01416,0.1396 0.04552,0.30828 0.13208,0.37528c0.09082,0.06944 0.07497,0.94317 -0.03642,2.04112c-0.12434,1.22562 -0.13152,1.96923 -0.01924,2.0549c0.10289,0.0792 0.11331,0.36735 0.02454,0.69814c-0.08312,0.30978 -0.08712,0.53222 -0.00846,0.49403c0.18214,-0.08843 0.11984,2.67784 -0.07386,3.27103c-0.11284,0.34541 -0.09914,0.39348 0.05977,0.21235c0.14996,-0.172 0.15293,0.28856 0.01031,1.71408c-0.12214,1.21881 -0.13135,2.02696 -0.02421,2.1583c0.11567,0.14123 0.08231,0.84103 -0.10157,2.15396c-0.15015,1.06941 -0.22088,1.94962 -0.15728,1.95607c0.06359,0.00645 0.09235,0.7768 0.06427,1.71153c-0.06121,2.00849 -0.81472,7.4471 -1.01122,7.29616c-0.18856,-0.14511 -0.24915,0.63525 -0.09396,1.21314l0.12786,0.47624l2.58263,0.16062c1.42054,0.0879 2.80194,0.10156 3.07025,0.02939c0.67388,-0.18109 4.23626,0.21193 8.62132,0.95091c2.0277,0.34172 5.73558,0.83433 8.23986,1.09442c2.50478,0.26013 5.11606,0.60334 5.80257,0.76283c0.68705,0.15904 4.43,0.68682 8.31721,1.17303c6.73861,0.84224 11.54708,1.67235 12.18346,2.10331c0.15214,0.10327 0.63751,0.23181 1.07875,0.28561c0.66133,0.08114 0.72562,0.11528 0.36572,0.19471c-0.34762,0.07717 -0.26559,0.1146 0.40742,0.18438c0.95813,0.09921 7.5826,1.54219 8.83776,1.92451c1.19769,0.36494 17.04475,1.95755 18.55792,1.86461c0.66055,-0.03989 1.71793,-0.02348 2.34972,0.03711c0.63184,0.06009 1.01664,0.04692 0.85531,-0.03018c-0.16182,-0.07715 0.50852,-0.11455 1.4896,-0.08328c0.98113,0.03077 2.32294,0.03389 2.98219,0.00691c0.6588,-0.02753 1.44822,-0.0167 1.75479,0.02393c0.33378,0.04441 0.52182,0.00175 0.46955,-0.10645c-0.04904,-0.10034 0.08425,-0.16261 0.30186,-0.14053c0.39098,0.03966 2.34864,-0.1452 3.32286,-0.31338l0.52006,-0.08979l0.85849,-8.93234c1.00598,-10.4653 1.01722,-9.53711 -0.12218,-10.22439c-0.68768,-0.41509 -0.86435,-0.60316 -0.7607,-0.80847c0.07419,-0.14757 0.07654,-0.22011 0.00431,-0.16118c-0.07169,0.05848 -0.21729,-0.03509 -0.32317,-0.20845c-0.22858,-0.37403 -0.04587,-2.69944 0.22233,-2.82984c0.0982,-0.04776 0.1914,-0.20946 0.20657,-0.35899c0.01517,-0.14954 0.16404,-0.39493 0.33036,-0.54519c0.28284,-0.25488 0.2517,-0.33384 -0.47448,-1.20054c-0.42752,-0.51066 -0.76648,-1.03842 -0.75272,-1.17406c0.01371,-0.13513 -0.07341,-0.29555 -0.19327,-0.35589c-0.29508,-0.14889 -0.82977,-1.70587 -0.66147,-1.9252c0.07348,-0.09594 0.05286,-0.13517 -0.04589,-0.08697c-0.32254,0.1565 -0.75327,-1.49032 -0.65102,-2.48829c0.03437,-0.33381 0.23886,-0.84057 0.45496,-1.12532c0.21615,-0.28524 0.40059,-0.59428 0.41001,-0.68719c0.00937,-0.09241 0.36942,-0.61853 0.80015,-1.1686c0.43074,-0.55007 0.79521,-1.11991 0.81013,-1.26696c0.01492,-0.14706 0.10786,-0.30627 0.20656,-0.35398c0.09875,-0.04821 0.19261,-0.22138 0.20924,-0.38533c0.04097,-0.4039 0.87433,-1.02405 1.12116,-0.83488c0.12433,0.09543 0.15805,0.07475 0.0937,-0.05775c-0.05518,-0.11401 -0.01254,-0.19803 0.09477,-0.18714c0.10731,0.01089 0.54394,-0.2806 0.97063,-0.64738c0.48724,-0.41936 0.99723,-0.69186 1.37397,-0.73444c0.32903,-0.03739 0.90205,-0.21867 1.27312,-0.40337c0.37059,-0.18475 0.74708,-0.32876 0.8365,-0.31968c0.08942,0.00907 0.44571,-0.1139 0.79271,-0.27393c0.34645,-0.1596 0.71453,-0.22565 0.81792,-0.14639c0.10984,0.08492 0.15021,0.06794 0.09794,-0.04026c-0.05281,-0.10775 0.25027,-0.2356 0.72886,-0.30752c0.45057,-0.06772 1.00255,-0.17535 1.22743,-0.23987c0.22433,-0.06408 0.48468,-0.05774 0.57879,0.01405c0.1015,0.07805 0.12972,0.04729 0.06992,-0.07572c-0.05518,-0.11401 -0.01254,-0.19803 0.09477,-0.18714c0.10731,0.01089 0.55836,-0.2942 1.00233,-0.6778c0.87643,-0.75782 1.92013,-1.07154 3.14509,-0.94576c1.88617,0.19336 2.68193,-0.4818 2.15459,-1.82924c-0.05783,-0.14741 -0.04551,-0.49147 0.02782,-0.7641c0.10256,-0.38259 0.08605,-0.44249 -0.07187,-0.26126c-0.15388,0.17612 -0.17854,-0.03116 -0.09952,-0.82972c0.07532,-0.7623 0.15714,-1.02453 0.28802,-0.92442c0.11589,0.08955 0.14386,0.06127 0.07663,-0.07755c-0.15734,-0.32414 0.79053,-2.18194 1.02246,-2.00432c0.08383,0.06422 0.10209,0.01788 0.04234,-0.10563c-0.1076,-0.22072 0.60336,-0.97525 0.89102,-0.94607c0.08049,0.00817 0.3211,-0.1175 0.53479,-0.27952c0.50682,-0.38475 1.94659,-0.43694 4.00856,-0.14595c0.71054,0.10069 0.99181,0.24718 1.61846,0.84329c0.41745,0.3972 1.19123,0.99268 1.72027,1.32391c0.86031,0.539 2.3286,1.91263 2.17697,2.03678c-0.03278,0.02629 0.23054,0.07759 0.58525,0.11358c0.35472,0.03599 0.6174,0.00943 0.58372,-0.05924c-0.03319,-0.06862 0.19592,-0.17487 0.50933,-0.23643c1.10457,-0.2162 2.15045,-0.49707 2.88026,-0.77438c0.41184,-0.15598 0.82473,-0.21347 0.93411,-0.12909c0.11639,0.0896 0.16033,0.077 0.10806,-0.0312c-0.09433,-0.19327 1.83893,-0.37509 2.87327,-0.27016c0.32491,0.03296 0.65028,-0.01785 0.72321,-0.11334c0.07343,-0.09545 0.34838,-0.11925 0.61069,-0.05298c0.2628,0.06631 0.44201,0.07596 0.39776,0.02228c-0.10535,-0.12914 2.29295,-0.50168 2.97809,-0.4623c0.29393,0.01677 0.50497,-0.03009 0.4688,-0.10401c-0.03566,-0.07389 0.23835,-0.10331 0.60946,-0.06566c0.37112,0.03765 0.72036,0.00883 0.77586,-0.06333c0.11798,-0.15367 2.09751,-0.23743 4.98128,-0.21039c1.12422,0.01065 2.54441,-0.00689 3.15696,-0.0386c0.6125,-0.03122 1.24237,-0.05566 1.39922,-0.0533c0.15686,0.00236 0.26152,-0.04474 0.23239,-0.10392c-0.02859,-0.05962 0.10612,-0.20004 0.30016,-0.31186c0.20528,-0.11871 0.37243,-0.40089 0.40061,-0.6786c0.02656,-0.26182 0.23179,-0.76098 0.45683,-1.10907M405.98701,112.4734c-0.38674,-0.19533 -0.48663,-0.18037 -0.82424,0.12468c-0.72927,0.65781 -0.19141,1.35734 0.58671,0.7622c0.52185,-0.39929 0.60327,-0.70222 0.23754,-0.88688M395.49397,112.58688c-0.55038,-0.66014 -4.48028,-0.62668 -9.07644,0.07701c-1.69422,0.25977 -3.5979,0.5013 -4.22993,0.53707c-1.73707,0.09833 -2.00785,0.29371 -1.98945,1.43341c0.01742,1.08992 -0.51569,1.71895 -1.37305,1.62092c-0.8688,-0.09918 -2.99306,-0.77043 -3.37216,-1.06587c-0.20652,-0.16099 -0.76845,-0.46493 -1.24897,-0.6758c-0.48057,-0.21037 -1.31742,-0.75804 -1.85971,-1.21609c-0.54228,-0.45805 -1.22815,-0.9899 -1.52381,-1.18252c-0.29571,-0.19212 -0.81049,-0.63433 -1.14359,-0.98232c-0.82179,-0.85933 -1.71111,-0.88983 -1.79507,-0.06215c-0.05247,0.51718 1.83159,3.46232 2.58978,4.04818c0.39468,0.30505 0.82102,0.80756 0.94673,1.11695c0.12577,0.30889 0.57968,1.0245 1.00866,1.59c1.6125,2.12407 1.2073,4.22816 -0.82611,4.29391c-1.65015,0.05294 -2.31734,-0.72245 -3.01731,-3.50983c-0.36866,-1.46686 -1.06749,-2.25198 -1.87126,-2.10164c-4.16389,0.77666 -4.99984,1.61036 -2.61,2.60267c0.40506,0.16808 1.17611,0.65185 1.71387,1.07531c0.53776,0.42346 1.30763,1.00298 1.71084,1.28832c0.58304,0.41249 0.79166,0.7062 1.02176,1.43624c0.88874,2.82159 -1.3574,3.45551 -4.37975,1.2371c-0.7413,-0.5445 -1.60552,-1.09945 -1.91965,-1.23371c-0.95649,-0.40722 -2.9493,-1.4245 -3.97046,-2.0255c-1.17263,-0.69114 -4.00743,-1.05252 -5.74586,-0.73299c-3.35465,0.61683 -4.9194,4.86944 -1.9038,5.17537c1.61014,0.16335 4.68479,2.25707 5.12339,3.4896c0.30113,0.84616 0.2308,1.13867 -0.48365,2.00177c-0.34722,0.41951 -0.79241,0.9636 -0.98942,1.20862c-0.43047,0.53755 -0.59023,1.76107 -0.31924,2.45411c0.10555,0.27071 0.53622,1.25498 0.95697,2.18857c1.0277,2.27806 1.08474,2.5865 0.936,5.03732c-0.1882,3.10684 0.03554,3.80061 1.48655,4.60733c2.73098,1.51829 3.63516,5.80555 1.84837,8.76879c-0.81538,1.35326 -4.55268,4.47549 -6.24083,5.21471c-1.2895,0.56483 -1.30268,0.60566 -1.47642,4.56924c-0.12472,2.84727 -0.08796,3.67715 0.3167,7.10464c0.25224,2.13464 0.45513,4.43393 0.45089,5.10908c-0.00982,1.61568 0.06537,1.68102 2.10772,1.82398c2.90957,0.20332 5.05341,1.08234 8.58494,3.52106c1.05774,0.73019 2.42712,1.64407 3.04437,2.03092c0.61677,0.38681 1.51032,1.02856 1.98546,1.4261c0.47519,0.39704 1.18809,0.92962 1.58448,1.18314c0.40344,0.25826 1.26427,1.16823 1.95746,2.06822c0.91399,1.1874 1.4169,1.68713 1.92538,1.9144c0.37887,0.16893 1.13041,0.75111 1.67013,1.29372c1.37516,1.38125 1.46785,1.4027 9.58716,2.22087c12.71252,1.28164 17.88537,1.36474 22.97948,0.36875c0.49259,-0.09608 1.74481,-0.18939 2.7831,-0.20753c2.16201,-0.03715 3.21796,-0.41236 3.69263,-1.31133c0.31313,-0.59312 1.30566,-6.00799 1.15698,-6.31369c-0.05395,-0.11137 0.21289,-3.86474 0.59371,-8.34085c0.8386,-9.85438 0.83599,-14.82061 -0.0073,-15.07229c-0.13887,-0.0412 -0.98823,0.37054 -1.88765,0.91473c-6.21958,3.76331 -11.95404,2.9823 -16.18008,-2.2036c-3.79486,-4.6568 -3.637,-17.27051 0.30686,-24.5166c0.29553,-0.54321 0.67203,-1.53344 0.83667,-2.20136c1.15899,-4.6958 8.36358,-5.76528 11.02962,-1.63758c0.30401,0.47152 0.93541,1.31757 1.40232,1.8804c0.46686,0.56334 1.21841,1.67955 1.67011,2.48126c0.4517,0.80171 1.15714,1.86305 1.56764,2.35844l0.74631,0.90087l0.16617,-0.46047c0.09488,-0.26241 0.11736,-1.90391 0.05158,-3.81335c-0.06339,-1.84394 -0.07308,-4.40521 -0.0219,-5.69144c0.12693,-3.1758 -0.14782,-3.49529 -2.5319,-2.93659c-1.90855,0.44783 -2.59834,0.05361 -2.96893,-1.69602c-0.39749,-1.87534 0.82677,-2.95473 3.411,-3.00776c2.0541,-0.04207 3.65536,-1.13693 5.20889,-3.56218c0.66312,-1.03494 0.63326,-4.04545 -0.04912,-4.97295c-0.77109,-1.04743 -5.20698,-1.72079 -6.51197,-0.98839c-2.71747,1.52469 -5.70404,3.84673 -7.16265,5.56889c-0.81133,0.95716 -1.41922,1.14092 -2.53959,0.76577c-1.32041,-0.44163 -1.57559,-1.32028 -1.57017,-5.40582c0.00243,-1.55268 -0.05967,-1.73716 -0.51075,-1.5159c-0.29426,0.14482 -0.49688,0.69745 -0.88766,2.42204c-0.27637,1.22023 -0.81776,1.55981 -2.24437,1.40805c-1.79752,-0.19139 -2.03406,-0.62545 -1.72265,-3.16568c0.16485,-1.34297 0.16531,-1.83229 0.00196,-2.02805M242.30818,109.28055c-0.96536,-0.63147 -1.49155,-0.77821 -2.48254,-0.69203c-0.43546,0.03763 -2.56444,1.77763 -3.57659,2.92321c-0.34241,0.38688 -0.90282,0.97348 -1.246,1.30356c-0.34312,0.32958 -0.79003,0.96986 -0.99306,1.42257c-0.20353,0.45266 -0.69113,1.37038 -1.08373,2.03926c-0.99494,1.69342 -1.27313,2.31316 -1.60557,3.57639c-0.15867,0.60427 -0.53071,1.62457 -0.82628,2.26715l-0.53756,1.16764l-2.36034,23.33556c-2.01091,19.88119 -2.3492,23.60171 -2.28521,25.13303c0.0478,1.14671 -0.11046,4.12158 -0.43752,8.22117c-0.53047,6.6538 -0.52573,6.91879 0.13655,7.89093c0.43737,0.64115 0.78368,1.65552 0.73373,2.14785c-0.0311,0.30653 0.55966,3.62139 1.0704,6.00812c0.56276,2.63092 0.55688,4.37599 -0.0208,5.83518l-0.46158,1.16581l0.29906,1.84126c0.16431,1.01247 0.4696,2.21843 0.67832,2.67929c0.7441,1.64498 1.01294,2.52752 1.26253,4.14392c0.13892,0.90148 0.47789,2.42857 0.75337,3.3941c0.27553,0.96503 0.56646,2.2679 0.64641,2.89489c0.0799,0.62747 0.25915,1.43818 0.39795,1.80159c0.16618,0.43495 0.23489,1.24198 0.20122,2.36035c-0.04089,1.35303 0.0385,2.0201 0.38927,3.27736c0.24217,0.86829 0.59252,2.18422 0.77789,2.92478c0.18541,0.74006 0.59976,1.8557 0.91994,2.47944c1.31419,2.55608 1.44367,2.6701 2.73165,2.41228c0.49542,-0.09931 1.40354,-0.21949 2.0177,-0.26711c0.61411,-0.04712 1.97429,-0.38344 3.02302,-0.74684l1.90662,-0.66134l2.41074,0.10353l2.41069,0.10402l4.79544,-1.06996c2.63752,-0.5882 5.54354,-1.1366 6.45825,-1.21797c4.52305,-0.40343 5.32985,-1.60298 4.4786,-6.65932c-0.09248,-0.54794 -0.12568,-2.13536 -0.07374,-3.52793c0.09002,-2.41613 0.07106,-2.60025 -0.41555,-4.04745c-0.28083,-0.83356 -0.57137,-1.82873 -0.64649,-2.21128c-0.07462,-0.38251 -0.31778,-0.98387 -0.54003,-1.33618c-0.44062,-0.6982 -0.99309,-2.02058 -0.96406,-2.30673c0.01794,-0.17686 -0.62849,-2.6411 -1.11006,-4.23184c-0.1361,-0.44947 -0.36596,-1.62218 -0.51117,-2.60511c-0.14473,-0.98288 -0.49562,-2.54079 -0.7786,-3.4619c-0.28348,-0.92117 -0.625,-2.29944 -0.75886,-3.06288c-0.13386,-0.76344 -0.3523,-1.92496 -0.48503,-2.58087c-0.5374,-2.64842 -0.01419,-3.551 1.99757,-3.44779c2.54893,0.1316 3.14535,1.43636 2.96564,6.48297c-0.11986,3.36323 -0.04701,4.37194 0.49783,6.88761c0.25114,1.16082 0.49354,2.56618 0.53851,3.12235c0.04496,0.55617 0.27762,1.72113 0.51682,2.58911c0.35476,1.28727 0.42485,1.92228 0.38008,3.44708c-0.043,1.46274 0.02938,2.17427 0.3301,3.27186c0.21186,0.77135 0.45177,1.93404 0.53396,2.58332c0.20011,1.58477 0.64397,3.21084 1.29471,4.74195c0.31772,0.74696 0.57209,1.70784 0.62151,2.34376c0.08161,1.06079 0.71848,3.7429 1.16386,4.89883c0.43369,1.12763 0.62347,1.18152 6.45549,1.84695l5.25504,0.59887l0.50283,-0.40975l0.50239,-0.4103l0.08147,-1.89149c0.04482,-1.04044 0.03944,-2.62503 -0.01224,-3.52068c-0.05169,-0.89564 -0.09665,-2.66394 -0.1002,-3.93013c-0.00647,-2.07357 -0.39261,-6.97481 -0.74443,-9.44882c-0.07438,-0.52352 -0.10855,-1.71552 -0.0755,-2.64975c0.03299,-0.93373 -0.04672,-3.3194 -0.17694,-5.30113c-0.32159,-4.87964 0.00926,-7.70548 1.20403,-10.29011c0.9633,-2.08411 1.10017,-2.28052 1.77572,-2.54727c0.30535,-0.1206 0.9447,-0.51549 1.42068,-0.87827c0.47593,-0.36228 1.17309,-0.73827 1.54931,-0.83511c2.56249,-0.66005 3.50159,-1.08075 4.31004,-1.93029c0.92081,-0.96763 2.11073,-1.62941 3.52567,-1.96118c0.53676,-0.12574 1.42445,-0.45528 1.97201,-0.732c0.5481,-0.27716 1.39314,-0.65621 1.87791,-0.84344c0.48522,-0.18668 1.122,-0.59589 1.41532,-0.90943c0.34725,-0.37032 0.92469,-0.69922 1.65241,-0.9411c0.79419,-0.26375 1.5843,-0.7347 2.72456,-1.62435c0.88354,-0.68934 2.32723,-1.63605 3.20846,-2.10479l1.60221,-0.85183l1.73268,0.11805c1.38669,0.09501 1.84006,0.18768 2.27154,0.46635c0.96612,0.62402 3.02415,2.48261 4.05258,3.66004c0.55355,0.63387 1.55709,1.53221 2.23129,1.99612c1.22776,0.84531 1.66464,1.45178 1.58834,2.20394c-0.01956,0.19276 0.12492,1.07422 0.3213,1.95845c0.23178,1.04491 0.34915,2.21826 0.3351,3.35117c-0.03802,3.01668 -0.41823,2.81146 6.54247,3.52766c4.68868,0.48218 5.74754,0.63729 6.71719,0.98411c0.63354,0.22639 1.86065,0.55365 2.7274,0.72741c2.2642,0.45456 3.16586,1.40732 3.24619,3.43067c0.02412,0.60826 0.12642,1.37603 0.2279,1.70655c0.13857,0.45474 0.11495,1.05364 -0.09694,2.45458c-0.27333,1.80376 -0.27013,1.88591 0.12646,3.11217c0.22334,0.69272 0.37774,1.55059 0.34264,1.90641c-0.03504,0.35532 0.08882,1.08362 0.27548,1.61852c0.48277,1.38106 1.25032,4.44735 1.44434,5.77051c0.09083,0.61855 0.41005,1.64773 0.70904,2.2874c0.69345,1.48123 1.01069,2.46556 1.34482,4.16883c0.14679,0.74969 0.50372,2.08487 0.79273,2.96644c0.28951,0.88162 0.54973,1.88375 0.57869,2.22649c0.02892,0.34323 0.2556,1.00316 0.50322,1.46646c0.9686,1.8118 1.0604,2.09918 1.05738,3.3115c-0.00387,1.55204 0.80535,4.4549 1.72087,6.17148c0.99857,1.87257 1.50895,2.08596 3.38363,1.41787c0.63221,-0.22547 1.63783,-0.54004 2.23421,-0.69938c0.59688,-0.15929 1.5994,-0.59162 2.22808,-0.96049c2.01584,-1.18379 4.32677,-2.23376 5.96997,-2.71303c3.91011,-1.13969 4.35224,-1.7674 2.8894,-4.10516c-0.48191,-0.77115 -0.77428,-1.49094 -0.90138,-2.22208c-0.10329,-0.59471 -0.44487,-1.75968 -0.75934,-2.58813c-0.31448,-0.82844 -0.65583,-1.97081 -0.75891,-2.53789c-0.20479,-1.128 -0.58761,-2.18322 -2.04475,-5.64068c-0.97662,-2.31654 -1.2308,-3.47215 -1.41314,-6.42435c-0.03905,-0.62935 -0.24721,-1.72407 -0.46238,-2.43302c-1.62472,-5.34811 -1.63339,-6.33125 -0.07562,-8.76863c2.11806,-3.3146 4.30109,-4.07839 7.3588,-2.57464c0.80889,0.39776 1.91413,0.78344 2.71805,0.94831c1.7991,0.36873 2.04509,0.5563 3.89001,2.96696c2.7715,3.62243 3.12908,5.26283 2.79016,12.81391c-0.26733,5.96476 -0.2086,8.29007 0.33821,13.4134c0.13675,1.2792 0.25871,2.74864 0.27202,3.26546c0.03326,1.33948 0.3166,4.12726 0.47482,4.67032c0.22744,0.78096 0.72648,0.93298 5.03006,1.53019c2.21885,0.30791 5.57078,0.83117 7.44943,1.1628c5.68178,1.00354 5.15618,1.21222 6.15273,-2.44152c0.36583,-1.34015 0.70068,-2.48367 0.74409,-2.5405c0.14636,-0.19093 0.76472,-3.2436 1.24038,-6.12152c0.25883,-1.56683 0.82675,-4.8841 1.26121,-7.37068c1.24832,-7.14462 1.44007,-10.61801 0.76005,-13.77529c-0.31022,-1.43935 -0.30966,-1.44481 0.08633,-2.57762c0.35184,-1.00428 0.37934,-1.23087 0.24034,-1.97325c-0.08674,-0.46103 -0.18644,-1.3781 -0.22241,-2.03775c-0.10833,-1.99959 2.5347,-1.51412 -22.25223,-4.08896c-24.72925,-2.56949 -22.63567,-2.21907 -23.6318,-3.95236c-0.26408,-0.45944 -0.64321,-0.9672 -0.84218,-1.12842c-0.49902,-0.40447 -1.27571,-2.64352 -1.3487,-3.88815c-0.06305,-1.07548 -0.36096,-2.29976 -0.90435,-3.71659c-0.17702,-0.46165 -0.44786,-1.54215 -0.60215,-2.40103c-0.15424,-0.85937 -0.519,-2.62196 -0.8102,-3.91734c-0.29175,-1.29493 -0.65477,-3.44081 -0.80769,-4.76833c-0.33366,-2.9003 -0.42493,-3.25738 -0.9173,-3.58891c-0.94534,-0.63596 -3.96041,0.00778 -4.60397,0.98347c-1.49652,2.26892 -3.85662,4.37746 -5.16459,4.61468c-0.38195,0.06916 -1.28412,0.27427 -2.00525,0.45609c-1.60087,0.40325 -5.27717,0.03482 -6.49602,-0.65098c-0.35468,-0.19961 -1.28938,-0.56446 -2.07657,-0.80996c-3.47951,-1.0863 -5.51455,-5.49178 -4.10105,-8.87685c0.73183,-1.75173 0.45646,-2.48084 -1.33267,-3.53167c-0.67598,-0.39683 -1.45465,-1.043 -1.92162,-1.5953c-0.94391,-1.11515 -1.1348,-1.1827 -4.24628,-1.49835c-2.96045,-0.30034 -6.62527,-1.01444 -11.25189,-2.19251c-4.20486,-1.07054 -4.60088,-1.03593 -3.60946,0.31341c0.29149,0.39698 0.59309,1.02586 0.66933,1.39748c0.07678,0.37117 0.28072,1.1859 0.45389,1.80928c0.39175,1.41248 0.21016,2.67797 -0.67501,4.70927c-0.85226,1.95433 -0.96292,2.10021 -2.07669,2.73357c-2.50008,1.42026 -2.42957,1.41286 -10.34092,1.13225c-3.15222,-0.112 -6.13395,0.01515 -8.13058,0.34663c-0.66727,0.11099 -1.78794,0.19405 -2.48972,0.1851c-0.70227,-0.00901 -1.9552,0.06164 -2.78392,0.15624c-1.97034,0.22573 -4.06788,0.00843 -5.67378,-0.58764c-0.6883,-0.25554 -1.67134,-0.58916 -2.18395,-0.74104c-0.53014,-0.15718 -1.33323,-0.58246 -1.85999,-0.98573c-0.51003,-0.39003 -1.28543,-0.95957 -1.72309,-1.26647c-0.8501,-0.59518 -2.7064,-2.97286 -2.96904,-3.80258c-0.087,-0.27535 -0.33965,-0.84254 -0.5613,-1.26004c-1.32279,-2.49119 -1.8573,-5.55893 -1.53434,-8.80669l0.23468,-2.35778l-0.445,-0.20978c-0.34589,-0.16258 -1.07382,-0.12651 -3.25457,0.1597c-3.44132,0.45194 -3.8045,0.56868 -4.48816,1.43992c-0.87854,1.11999 -1.83524,1.16498 -2.43033,0.11433c-0.11196,-0.19757 -0.48864,-0.75426 -0.83715,-1.23733c-1.03244,-1.4298 -0.9135,-2.533 0.44422,-4.13138l0.70795,-0.83363l0.67578,-4.41506c0.58174,-3.80473 0.68314,-4.83894 0.73447,-7.47732c0.03228,-1.68367 0.10273,-4.62929 0.15661,-6.54567c0.24632,-8.81526 -0.43404,-12.69634 -2.44997,-13.98048c-0.28807,-0.18331 -0.79824,-0.65116 -1.13377,-1.03955c-0.65489,-0.75808 -2.19881,-1.98981 -3.84237,-3.06552M381.50263,128.28433c3.56208,-0.63794 6.46824,0.5784 7.43536,3.11231c0.30691,0.80408 0.81404,2.00442 1.12672,2.66755c0.63413,1.34371 0.86527,2.17726 1.44658,5.2141c0.96959,5.06734 0.97462,7.24416 0.03665,14.94627c-0.62267,5.1136 -0.66777,5.72638 -0.46335,6.24452c0.22482,0.5694 0.21329,0.67312 -0.28423,2.53947c-0.21231,0.79659 -0.10702,0.86198 2.93895,1.81846c2.41214,0.75767 3.13762,0.93868 6.82603,1.70235c2.61627,0.54147 4.74446,1.66885 7.15146,3.78821c0.81787,0.7199 2.00332,1.72003 2.63438,2.22322c2.02245,1.61054 2.59129,2.78652 2.93791,6.06859c0.39267,3.71387 -0.01996,4.87209 -2.47257,6.94262c-1.23842,1.04584 -1.5909,1.24999 -2.4579,1.42504c-2.67163,0.53856 -3.42508,0.94497 -4.26948,2.30231c-0.62552,1.00562 -0.94673,1.12913 -3.36999,1.30239c-6.74235,0.48094 -15.3499,-0.92733 -21.78691,-3.56494c-1.48905,-0.60982 -3.15348,-1.24746 -3.69895,-1.41673c-1.07884,-0.33431 -1.68294,-0.67767 -2.44313,-1.3872c-0.27098,-0.25285 -1.0711,-0.7717 -1.7787,-1.15367c-0.7076,-0.38197 -1.73622,-1.0826 -2.28578,-1.55795c-1.43097,-1.23684 -2.68726,-2.07299 -3.6005,-2.39702c-1.59103,-0.56445 -1.76786,-0.78065 -3.22563,-3.94004c-1.66136,-3.60165 -1.57713,-5.64896 0.30677,-7.48156c0.42656,-0.41498 1.13056,-1.22442 1.56471,-1.79824c0.85162,-1.12674 2.78061,-2.45386 3.93785,-2.70938c0.33525,-0.0739 1.38918,-0.35496 2.34153,-0.62424c2.32021,-0.65652 3.43778,-0.78809 6.08578,-0.7177c3.62004,0.09672 3.85431,-0.48082 0.96891,-2.39171c-1.1184,-0.74085 -1.71531,-1.42228 -1.66657,-1.90269c0.01431,-0.1411 -0.19032,-0.75612 -0.45512,-1.36671c-0.26431,-0.61054 -0.66047,-1.88545 -0.87958,-2.83271c-0.21965,-0.94681 -0.66415,-2.78425 -0.98819,-4.08246l-0.58918,-2.36056l0.47386,-4.73519l0.47386,-4.73519l1.52699,-2.45556c3.19776,-5.14096 4.32018,-6.29494 6.50152,-6.68598M385.39302,133.17218c-2.06702,-1.69085 -5.00017,-0.61769 -6.98969,2.55788l-0.70429,1.12412l-0.27711,3.19168c-0.31809,3.66485 -0.28572,3.78106 0.92236,3.35101c1.91992,-0.68358 2.52635,0.04248 3.57495,4.28164c0.73666,2.97983 0.66998,4.33476 -0.25146,5.08601c-1.55083,1.26561 -3.13061,-0.00339 -3.73915,-3.00436c-0.38943,-1.92019 -0.63612,-2.48678 -0.96617,-2.22162c-0.42458,0.3409 -0.53051,1.41981 -0.24607,2.50972c0.15022,0.57739 0.44258,1.75743 0.64898,2.6221c0.81529,3.41192 2.83194,5.61414 6.04819,6.60395c2.9334,0.9034 2.92155,0.92128 3.72333,-5.57199c0.62503,-5.06267 0.67363,-5.90296 0.76573,-13.16338c0.04495,-3.55001 -0.77077,-5.9436 -2.50958,-7.36675M405.84047,135.89451c-0.36068,-0.14049 -0.69412,-0.25262 -0.74162,-0.24941c-1.94148,0.12928 -3.80195,2.49781 -5.16974,6.58017c-1.95947,5.8478 -2.14625,8.62403 -0.99932,14.86226c0.23902,1.30012 1.64139,3.49172 2.53172,3.95747c2.22687,1.16399 6.77771,1.74814 9.0224,1.15824c2.04616,-0.53777 1.91891,-0.26308 2.41265,-5.20907c0.4714,-4.72089 0.47427,-4.67994 -0.61164,-8.63026c-0.24018,-0.87311 -0.5381,-2.19125 -0.66201,-2.92908c-0.25112,-1.49258 -0.9522,-3.47249 -1.6687,-4.71163c-0.25918,-0.44841 -0.5876,-1.17889 -0.73067,-1.62404c-0.29863,-0.93023 -2.22325,-2.75319 -3.38305,-3.20463M407.72505,146.89401c1.39664,-1.29931 2.43246,-0.17986 3.07765,3.32573c0.46837,2.54706 0.36958,4.64409 -0.25347,5.37792c-1.25634,1.47968 -2.9213,0.50118 -2.7123,-1.59369c0.13269,-1.33268 -0.03338,-2.91651 -0.42939,-4.09403c-0.56997,-1.69407 -0.51214,-2.24433 0.31751,-3.01592M297.58624,150.06277c0.16674,-0.02575 0.03712,-0.07403 -0.28729,-0.10694c-0.32491,-0.03296 -0.46108,-0.01165 -0.30341,0.04702c0.15812,0.0592 0.42391,0.08617 0.5907,0.05993M389.11286,168.06537c-3.59784,-0.95877 -13.86209,-2.04675 -16.01858,-1.69785c-2.35395,0.38056 -7.90299,2.55608 -8.33346,3.26678c-1.26581,2.09257 0.35777,4.55254 5.78126,8.76021c0.36341,0.2818 1.2741,0.75464 2.02356,1.05051c0.74996,0.29593 1.69256,0.69169 2.09516,0.8791c3.27391,1.52468 7.91243,3.47089 8.66418,3.6355c0.50427,0.11038 1.6617,0.41703 2.57244,0.68158c4.50901,1.30818 10.25737,1.82861 11.6231,1.05166c1.04563,-0.5951 1.37141,-0.71413 3.47538,-1.26761c1.01491,-0.26745 2.35842,-0.62755 2.98484,-0.80091c1.0524,-0.29075 2.64139,-0.65606 3.64713,-0.83811c3.04286,-0.55159 0.22903,-9.74306 -3.07843,-10.05651c-0.83916,-0.07961 -0.91234,0.08261 -0.74773,1.65124c0.21897,2.08158 -0.22913,5.51892 -0.80103,6.14451c-0.87279,0.95444 -3.10401,0.74866 -3.85724,-0.35618c-0.70695,-1.03641 -0.53429,-6.88931 0.23107,-7.83858c0.46048,-0.57114 0.46773,-0.90971 0.02269,-1.05975c-4.30186,-1.45029 -7.86133,-2.55975 -10.2843,-3.20558M379.92939,167.87151c1.82063,-0.77848 3.05706,0.84216 3.45727,4.5312c0.39492,3.6373 -0.25332,4.96586 -2.32023,4.75819c-1.55862,-0.15661 -1.7887,-0.62465 -2.34968,-4.7772c-0.46938,-3.47721 -0.37397,-3.83393 1.21264,-4.51218M229.23086,154.33601c0.41024,-0.08587 0.89687,-0.10827 1.08122,-0.05042c0.18485,0.0579 1.00055,0.25007 1.81279,0.42684c1.66476,0.36213 1.98103,0.599 2.17974,1.63352c0.07166,0.37216 0.38855,1.03823 0.70414,1.47982c1.86719,2.61167 0.75784,4.60166 -2.10995,3.78371c-0.86873,-0.24824 -1.32543,-0.29809 -1.92409,-0.21025c-2.56889,0.37682 -4.08382,-1.04169 -3.08816,-2.89063c0.57692,-1.07079 0.59067,-1.23603 0.18748,-2.22404c-0.49286,-1.20742 -0.22459,-1.66003 1.15683,-1.94853M387.9196,178.98646c2.49142,-0.19696 6.78022,2.04503 6.63577,3.46887c-0.17353,1.71049 -1.73135,2.13467 -3.89499,1.05992c-0.57671,-0.28688 -1.52978,-0.62399 -2.1174,-0.74885c-2.99047,-0.63766 -3.47154,-3.55442 -0.62337,-3.77993M364.42582,205.17415c-0.64005,-0.6075 -1.82706,-0.00416 -1.92844,0.98036c-0.0256,0.24736 -0.11078,0.57751 -0.18932,0.73317c-0.09786,0.19285 -0.07658,0.25022 0.06647,0.18091c0.13356,-0.06475 0.19762,0.02105 0.17585,0.23567c-0.0188,0.18531 0.04166,0.39573 0.13434,0.46686c0.09316,0.07119 0.11753,0.23177 0.05469,0.35639c-0.06333,0.12457 -0.04133,0.23421 0.0486,0.24334c0.08992,0.00912 0.15372,0.11247 0.14183,0.22971c-0.01189,0.11725 0.34177,1.168 0.78593,2.33584c0.44373,1.1673 0.79708,2.22103 0.78488,2.34126c-0.0122,0.12022 0.1296,0.61244 0.31519,1.09353c0.18559,0.48109 0.32214,1.02497 0.30355,1.20829c-0.01855,0.18282 0.0375,0.38727 0.12406,0.45427c0.08711,0.06656 0.14336,0.26901 0.12506,0.44936c-0.03664,0.36118 0.26876,1.17515 0.77129,2.05479c0.17952,0.31334 0.31434,0.68137 0.30043,0.81849c-0.04803,0.47345 0.34003,1.43735 0.79109,1.96344c0.24906,0.29078 0.47576,0.76249 0.50352,1.04789c0.02722,0.28585 0.21708,0.76435 0.42157,1.06416c0.20448,0.29981 0.35358,0.725 0.33135,0.94409c-0.02228,0.21958 0.0368,0.45847 0.13136,0.5308c0.0945,0.07283 0.12,0.27167 0.05606,0.44185c-0.06345,0.17024 -0.04671,0.31699 0.03774,0.32556c0.08396,0.00852 0.13417,0.1963 0.11169,0.41789c-0.02243,0.22108 0.048,0.62524 0.15587,0.89768c0.19383,0.48896 0.19736,0.48379 0.26544,-0.38515c0.03805,-0.484 0.0091,-0.80215 -0.06432,-0.7067c-0.07293,0.0955 -0.12374,-0.3634 -0.11237,-1.01975c0.01187,-0.6563 -0.05546,-1.37786 -0.14955,-1.60323c-0.1134,-0.2725 -0.07255,-1.79318 0.12281,-4.55499c0.46537,-6.5811 0.44879,-7.56051 -0.15702,-9.35158c-0.17287,-0.51242 -0.30323,-1.04313 -0.28937,-1.17975c0.01386,-0.13662 -0.0528,-0.25632 -0.14719,-0.26589c-0.09489,-0.00963 -0.46495,-0.33477 -0.82159,-0.7228c-0.80067,-0.86973 -1.24849,-1.19022 -1.74209,-1.24732c-0.44254,-0.05092 -0.98245,-0.49769 -0.79089,-0.65443c0.07218,-0.05843 -0.00551,-0.06932 -0.17273,-0.02405c-0.16672,0.04532 -0.39,0.00009 -0.49579,-0.09999M366.06575,241.72443c-0.18996,-0.69034 -0.93183,-0.70486 -2.57121,-0.05054c-2.96238,1.18314 -4.76166,1.761 -5.83318,1.87414c-0.78588,0.08289 -1.44445,0.29615 -2.17022,0.70185c-0.57306,0.32031 -1.44632,0.6709 -1.94007,0.7784c-1.44691,0.31547 -1.86896,0.52764 -1.91291,0.96085c-0.11653,1.14861 3.3721,6.13271 4.71081,6.73029c2.13192,0.95209 6.6637,-2.21401 8.06687,-5.63577c0.20947,-0.51128 0.61112,-1.42769 0.89273,-2.03656c0.6321,-1.36734 0.93251,-2.68602 0.75719,-3.32266M388.91633,245.46153c-2.26725,-0.41471 -10.21947,-1.40064 -10.78804,-1.33737c-1.29347,0.14383 -1.1556,5.69145 0.18558,7.45222c2.72263,3.5748 7.64738,1.99699 12.57729,-4.02981c0.95976,-1.17348 0.53091,-1.62656 -1.97482,-2.08504M262.38803,233.62366c-0.16429,-0.39913 -0.5066,-0.45845 -1.25778,-0.21794c-0.31695,0.10136 -1.50182,0.10964 -2.8991,0.02009l-2.36323,-0.15141l-2.88616,0.7286c-1.58705,0.40064 -3.14358,0.75769 -3.45835,0.79302c-0.31477,0.03532 -1.52516,0.30503 -2.68985,0.59945c-1.1647,0.29442 -2.74235,0.58759 -3.5052,0.65124c-0.90969,0.07635 -1.93769,0.32441 -2.98313,0.71977c-0.87691,0.33215 -2.05863,0.6409 -2.62494,0.68684c-2.26567,0.18323 -2.30767,1.40866 -0.13809,3.99329c1.24538,1.48302 1.49999,1.96158 1.70624,3.20367c0.32887,1.98281 2.96767,5.66154 5.17778,7.21834l1.08676,0.76576l4.1996,0.47925l4.19955,0.47974l1.27398,-0.47607c2.07174,-0.77509 3.65797,-2.33523 4.15144,-4.08254c0.20521,-0.72654 0.60667,-1.68563 0.89287,-2.13191c0.98976,-1.54336 1.19051,-2.45355 1.74663,-7.90567c0.32098,-3.14908 0.45955,-5.15826 0.37097,-5.37353M278.48079,236.46039c-0.22329,-0.42118 -9.8329,-1.47084 -10.42178,-1.13809c-0.39608,0.22332 -0.41544,0.3102 -0.73709,3.38192c-0.29481,2.81194 -0.52619,4.18731 -1.09521,6.51118c-0.2709,1.10685 0.07519,1.20319 2.15111,0.59969c0.94381,-0.27416 1.89275,-0.58896 2.10826,-0.6996c0.21546,-0.11015 0.82542,-0.31428 1.35498,-0.4533c2.86124,-0.7502 7.5322,-6.52018 6.63974,-8.2018" fill="#090909" fill-rule="evenodd" stroke="none" stroke-width="1"/><path d="M262.40902,233.61014c0.08858,0.21527 -0.04683,2.23166 -0.3678,5.38075c-0.55613,5.45211 -0.75769,6.37745 -1.74745,7.92082c-0.2862,0.44628 -0.68967,1.4095 -0.89488,2.13604c-0.49347,1.7473 -2.08785,3.31567 -4.1596,4.09076l-1.27635,0.47736l-4.20771,-0.47743l-4.20947,-0.48018l-1.08965,-0.76683c-2.21011,-1.5568 -4.86311,-5.25271 -5.19199,-7.23552c-0.20626,-1.24209 -0.4614,-1.72863 -1.70678,-3.21165c-2.16958,-2.58463 -2.12538,-3.81818 0.14028,-4.00141c0.56631,-0.04595 1.75014,-0.35843 2.62707,-0.69057c1.04545,-0.39535 2.07813,-0.6485 2.98782,-0.72486c0.76285,-0.06365 2.35024,-0.36175 3.51495,-0.65617c1.1647,-0.29442 2.38409,-0.56472 2.69886,-0.60004c0.31477,-0.03532 1.87981,-0.38979 3.46686,-0.79043l2.89018,-0.72602l2.36596,0.1539c1.39729,0.08956 2.58419,0.08372 2.90114,-0.01762c0.75117,-0.2405 1.09427,-0.18003 1.25856,0.2191" data-paper-data="{&quot;noHover&quot;:false,&quot;origItem&quot;:[&quot;Path&quot;,{&quot;applyMatrix&quot;:true,&quot;segments&quot;:[[[216.083,298.56602],[0,0],[-0.408,-0.762]],[[213.533,298.38602],[1.448,-0.631],[-0.611,0.266]],[[207.761,299.01202],[2.802,-0.104],[0,0]],[203.022,299.18802],[[197.419,301.22302],[0,0],[-3.081,1.119]],[[190.689,303.50202],[0.62,-0.134],[-0.62,0.134]],[[185.451,305.24002],[2.261,-0.822],[-2.261,0.822]],[[178.599,307.24602],[1.507,-0.281],[-1.797,0.336]],[[172.801,309.28302],[2.003,-0.999],[-1.68,0.839]],[[167.71,311.18202],[1.119,-0.206],[-4.477,0.823]],[[168.242,319.16602],[-4.845,-4.711],[2.781,2.703]],[[172.289,325.20402],[-0.662,-2.433],[1.056,3.884]],[[184.064,338.53902],[-4.718,-2.655],[0,0]],[186.384,339.84502],[194.848,339.95102],[203.312,340.05802],[[205.754,338.85202],[0,0],[3.971,-1.963]],[[213.2,329.87902],[-0.63,3.581],[0.262,-1.489]],[[214.548,325.45102],[-0.48,0.947],[1.66,-3.275]],[[216.43,309.34702],[-0.006,10.975],[0.003,-6.339]],[[216.083,298.56602],[0.22,0.411],[0,0]]],&quot;fillColor&quot;:[0,0,0,1]}]}" fill="#ff6cbf" fill-rule="nonzero" stroke="none" stroke-width="0.5"/><path d="M278.5006,236.44518c0.89246,1.68161 -3.80216,7.49147 -6.6634,8.24167c-0.52957,0.13901 -1.14646,0.341 -1.36191,0.45114c-0.21551,0.11064 -1.16991,0.42187 -2.11373,0.69603c-2.07592,0.60351 -2.42657,0.502 -2.15567,-0.60485c0.56903,-2.32386 0.79873,-3.72381 1.09353,-6.53575c0.32166,-3.07172 0.3486,-3.16781 0.74468,-3.39114c0.58887,-0.33275 10.23321,0.72172 10.4565,1.14289" data-paper-data="{&quot;noHover&quot;:false,&quot;origItem&quot;:[&quot;Path&quot;,{&quot;applyMatrix&quot;:true,&quot;segments&quot;:[[[248.719,300.96502],[0,0],[-0.53,-0.794]],[[227.725,300.80402],[1.106,-0.782],[-0.744,0.525]],[[226.94,307.69102],[0.02,-6.185],[-0.019,5.662]],[[226.074,320.88502],[0.664,-4.745],[-0.316,2.26]],[[230.481,321.64502],[-4.014,1.622],[1.825,-0.737]],[[234.54,319.82502],[-0.407,0.264],[0.407,-0.263]],[[237.148,318.64802],[-1.027,0.384],[5.549,-2.073]],[[248.719,300.96502],[2.118,3.17],[0,0]]],&quot;fillColor&quot;:[0,0,0,1]}]}" fill="#ff6cbf" fill-rule="nonzero" stroke="none" stroke-width="0.5"/><path d="M388.93618,245.44638c2.50573,0.45849 2.93901,0.92088 1.97925,2.09436c-4.9299,6.02679 -9.90198,7.62005 -12.62461,4.04524c-1.34117,-1.76077 -1.47495,-7.33427 -0.18146,-7.4781c0.56857,-0.06328 8.55957,0.92377 10.82682,1.33849" data-paper-data="{&quot;noHover&quot;:false,&quot;origItem&quot;:[&quot;Path&quot;,{&quot;applyMatrix&quot;:true,&quot;segments&quot;:[[[470.566,296.57702],[0,0],[-4.601,-0.368]],[[448.802,296.09302],[1.12,-0.241],[-2.548,0.548]],[[450.678,310.90302],[-3.028,-3.237],[6.147,6.572]],[[474.922,300.33202],[-8.604,13.004],[1.675,-2.532]],[[470.566,296.57702],[5.085,0.407],[0,0]]],&quot;fillColor&quot;:[0,0,0,1]}]}" fill="#ff6cbf" fill-rule="nonzero" stroke="none" stroke-width="0.5"/><path d="M366.08641,241.71045c0.17533,0.63665 -0.12158,1.96309 -0.75368,3.33043c-0.28161,0.60887 -0.6825,1.53283 -0.89197,2.04412c-1.40317,3.42176 -5.96875,6.60988 -8.10067,5.65778c-1.33872,-0.59758 -4.84327,-5.60781 -4.72674,-6.75643c0.04395,-0.43322 0.46721,-0.65073 1.91412,-0.9662c0.49375,-0.10751 1.37121,-0.46566 1.94428,-0.78597c0.72577,-0.4057 1.3967,-0.62719 2.18258,-0.7101c1.07152,-0.11314 2.8951,-0.68509 5.85747,-1.86823c1.63938,-0.65432 2.38466,-0.63576 2.57462,0.05458" data-paper-data="{&quot;noHover&quot;:false,&quot;origItem&quot;:[&quot;Path&quot;,{&quot;applyMatrix&quot;:true,&quot;segments&quot;:[[[424.284,293.75002],[0,0],[-0.518,-1.337]],[[419.151,294.16902],[3.134,-1.635],[-5.663,2.956]],[[407.908,299.08202],[2.112,-0.442],[-1.549,0.324]],[[403.726,300.91902],[1.364,-0.955],[-1.077,0.754]],[[400.018,302.86202],[0.962,-0.314],[-2.819,0.921]],[[396.401,305.16302],[0,-0.872],[0,2.312]],[[407.147,317.62002],[-2.788,-0.92],[4.44,1.466]],[[422.08,304.76102],[-2.104,7.101],[0.314,-1.061]],[[423.447,300.52302],[-0.438,1.27],[0.983,-2.852]],[[424.284,293.75002],[0.478,1.233],[0,0]]],&quot;fillColor&quot;:[0,0,0,1]}]}" fill="#ff6cbf" fill-rule="nonzero" stroke="none" stroke-width="0.5"/></g></g></svg>