<svg version="1.1" xmlns="http://www.w3.org/2000/svg" xmlns:xlink="http://www.w3.org/1999/xlink" width="767.13088" height="383.56544" viewBox="0,0,767.13088,383.56544"><g transform="translate(63.56544,11.78272)"><g data-paper-data="{&quot;isPaintingLayer&quot;:true}" fill-rule="nonzero" stroke="#000000" stroke-width="0" stroke-linecap="butt" stroke-linejoin="miter" stroke-miterlimit="10" stroke-dasharray="" stroke-dashoffset="0" style="mix-blend-mode: normal"><g><g><g><g><g><path d="M320,203.97284v-23.97284h23.97284v23.97284z" fill="#ff00ff"/><path d="M343.97284,203.97284v-23.97284h23.97284v23.97284z" fill="#000000"/><path d="M343.97284,227.94568v-23.97284h23.97284v23.97284z" data-paper-data="{&quot;index&quot;:null}" fill="#ff00ff"/><path d="M320,227.94568v-23.97284h23.97284v23.97284z" data-paper-data="{&quot;index&quot;:null}" fill="#000000"/></g><g><path d="M367.94568,203.97284v-23.97284h23.97284v23.97284z" fill="#ff00ff"/><path d="M391.91852,203.97284v-23.97284h23.97284v23.97284z" fill="#000000"/><path d="M391.91852,227.94568v-23.97284h23.97284v23.97284z" data-paper-data="{&quot;index&quot;:null}" fill="#ff00ff"/><path d="M367.94568,227.94568v-23.97284h23.97284v23.97284z" data-paper-data="{&quot;index&quot;:null}" fill="#000000"/></g><g><path d="M320,251.91852v-23.97284h23.97284v23.97284z" fill="#ff00ff"/><path d="M343.97284,251.91852v-23.97284h23.97284v23.97284z" fill="#000000"/><path d="M343.97284,275.89136v-23.97284h23.97284v23.97284z" data-paper-data="{&quot;index&quot;:null}" fill="#ff00ff"/><path d="M320,275.89136v-23.97284h23.97284v23.97284z" data-paper-data="{&quot;index&quot;:null}" fill="#000000"/></g><g><path d="M367.94568,251.91852v-23.97284h23.97284v23.97284z" fill="#ff00ff"/><path d="M391.91852,251.91852v-23.97284h23.97284v23.97284z" fill="#000000"/><path d="M391.91852,275.89136v-23.97284h23.97284v23.97284z" data-paper-data="{&quot;index&quot;:null}" fill="#ff00ff"/><path d="M367.94568,275.89136v-23.97284h23.97284v23.97284z" data-paper-data="{&quot;index&quot;:null}" fill="#000000"/></g></g><g><g><path d="M415.89136,203.97284v-23.97284h23.97284v23.97284z" fill="#ff00ff"/><path d="M439.8642,203.97284v-23.97284h23.97284v23.97284z" fill="#000000"/><path d="M439.8642,227.94568v-23.97284h23.97284v23.97284z" data-paper-data="{&quot;index&quot;:null}" fill="#ff00ff"/><path d="M415.89136,227.94568v-23.97284h23.97284v23.97284z" data-paper-data="{&quot;index&quot;:null}" fill="#000000"/></g><g><path d="M463.83704,203.97284v-23.97284h23.97284v23.97284z" fill="#ff00ff"/><path d="M487.80988,203.97284v-23.97284h23.97284v23.97284z" fill="#000000"/><path d="M487.80988,227.94568v-23.97284h23.97284v23.97284z" data-paper-data="{&quot;index&quot;:null}" fill="#ff00ff"/><path d="M463.83704,227.94568v-23.97284h23.97284v23.97284z" data-paper-data="{&quot;index&quot;:null}" fill="#000000"/></g><g><path d="M415.89136,251.91852v-23.97284h23.97284v23.97284z" fill="#ff00ff"/><path d="M439.8642,251.91852v-23.97284h23.97284v23.97284z" fill="#000000"/><path d="M439.8642,275.89136v-23.97284h23.97284v23.97284z" data-paper-data="{&quot;index&quot;:null}" fill="#ff00ff"/><path d="M415.89136,275.89136v-23.97284h23.97284v23.97284z" data-paper-data="{&quot;index&quot;:null}" fill="#000000"/></g><g><path d="M463.83704,251.91852v-23.97284h23.97284v23.97284z" fill="#ff00ff"/><path d="M487.80988,251.91852v-23.97284h23.97284v23.97284z" fill="#000000"/><path d="M487.80988,275.89136v-23.97284h23.97284v23.97284z" data-paper-data="{&quot;index&quot;:null}" fill="#ff00ff"/><path d="M463.83704,275.89136v-23.97284h23.97284v23.97284z" data-paper-data="{&quot;index&quot;:null}" fill="#000000"/></g></g><g><g><path d="M415.89136,299.8642v-23.97284h23.97284v23.97284z" fill="#ff00ff"/><path d="M439.8642,299.8642v-23.97284h23.97284v23.97284z" fill="#000000"/><path d="M439.8642,323.83704v-23.97284h23.97284v23.97284z" data-paper-data="{&quot;index&quot;:null}" fill="#ff00ff"/><path d="M415.89136,323.83704v-23.97284h23.97284v23.97284z" data-paper-data="{&quot;index&quot;:null}" fill="#000000"/></g><g><path d="M463.83704,299.8642v-23.97284h23.97284v23.97284z" fill="#ff00ff"/><path d="M487.80988,299.8642v-23.97284h23.97284v23.97284z" fill="#000000"/><path d="M487.80988,323.83704v-23.97284h23.97284v23.97284z" data-paper-data="{&quot;index&quot;:null}" fill="#ff00ff"/><path d="M463.83704,323.83704v-23.97284h23.97284v23.97284z" data-paper-data="{&quot;index&quot;:null}" fill="#000000"/></g><g><path d="M415.89136,347.80988v-23.97284h23.97284v23.97284z" fill="#ff00ff"/><path d="M439.8642,347.80988v-23.97284h23.97284v23.97284z" fill="#000000"/><path d="M439.8642,371.78272v-23.97284h23.97284v23.97284z" data-paper-data="{&quot;index&quot;:null}" fill="#ff00ff"/><path d="M415.89136,371.78272v-23.97284h23.97284v23.97284z" data-paper-data="{&quot;index&quot;:null}" fill="#000000"/></g><g><path d="M463.83704,347.80988v-23.97284h23.97284v23.97284z" fill="#ff00ff"/><path d="M487.80988,347.80988v-23.97284h23.97284v23.97284z" fill="#000000"/><path d="M487.80988,371.78272v-23.97284h23.97284v23.97284z" data-paper-data="{&quot;index&quot;:null}" fill="#ff00ff"/><path d="M463.83704,371.78272v-23.97284h23.97284v23.97284z" data-paper-data="{&quot;index&quot;:null}" fill="#000000"/></g></g><g><g><path d="M320,299.8642v-23.97284h23.97284v23.97284z" fill="#ff00ff"/><path d="M343.97284,299.8642v-23.97284h23.97284v23.97284z" fill="#000000"/><path d="M343.97284,323.83704v-23.97284h23.97284v23.97284z" data-paper-data="{&quot;index&quot;:null}" fill="#ff00ff"/><path d="M320,323.83704v-23.97284h23.97284v23.97284z" data-paper-data="{&quot;index&quot;:null}" fill="#000000"/></g><g><path d="M367.94568,299.8642v-23.97284h23.97284v23.97284z" fill="#ff00ff"/><path d="M391.91852,299.8642v-23.97284h23.97284v23.97284z" fill="#000000"/><path d="M391.91852,323.83704v-23.97284h23.97284v23.97284z" data-paper-data="{&quot;index&quot;:null}" fill="#ff00ff"/><path d="M367.94568,323.83704v-23.97284h23.97284v23.97284z" data-paper-data="{&quot;index&quot;:null}" fill="#000000"/></g><g><path d="M320,347.80988v-23.97284h23.97284v23.97284z" fill="#ff00ff"/><path d="M343.97284,347.80988v-23.97284h23.97284v23.97284z" fill="#000000"/><path d="M343.97284,371.78272v-23.97284h23.97284v23.97284z" data-paper-data="{&quot;index&quot;:null}" fill="#ff00ff"/><path d="M320,371.78272v-23.97284h23.97284v23.97284z" data-paper-data="{&quot;index&quot;:null}" fill="#000000"/></g><g><path d="M367.94568,347.80988v-23.97284h23.97284v23.97284z" fill="#ff00ff"/><path d="M391.91852,347.80988v-23.97284h23.97284v23.97284z" fill="#000000"/><path d="M391.91852,371.78272v-23.97284h23.97284v23.97284z" data-paper-data="{&quot;index&quot;:null}" fill="#ff00ff"/><path d="M367.94568,371.78272v-23.97284h23.97284v23.97284z" data-paper-data="{&quot;index&quot;:null}" fill="#000000"/></g></g></g><g><g><g><path d="M511.78272,203.97284v-23.97284h23.97284v23.97284z" fill="#ff00ff"/><path d="M535.75556,203.97284v-23.97284h23.97284v23.97284z" fill="#000000"/><path d="M535.75556,227.94568v-23.97284h23.97284v23.97284z" data-paper-data="{&quot;index&quot;:null}" fill="#ff00ff"/><path d="M511.78272,227.94568v-23.97284h23.97284v23.97284z" data-paper-data="{&quot;index&quot;:null}" fill="#000000"/></g><g><path d="M559.7284,203.97284v-23.97284h23.97284v23.97284z" fill="#ff00ff"/><path d="M583.70124,203.97284v-23.97284h23.97284v23.97284z" fill="#000000"/><path d="M583.70124,227.94568v-23.97284h23.97284v23.97284z" data-paper-data="{&quot;index&quot;:null}" fill="#ff00ff"/><path d="M559.7284,227.94568v-23.97284h23.97284v23.97284z" data-paper-data="{&quot;index&quot;:null}" fill="#000000"/></g><g><path d="M511.78272,251.91852v-23.97284h23.97284v23.97284z" fill="#ff00ff"/><path d="M535.75556,251.91852v-23.97284h23.97284v23.97284z" fill="#000000"/><path d="M535.75556,275.89136v-23.97284h23.97284v23.97284z" data-paper-data="{&quot;index&quot;:null}" fill="#ff00ff"/><path d="M511.78272,275.89136v-23.97284h23.97284v23.97284z" data-paper-data="{&quot;index&quot;:null}" fill="#000000"/></g><g><path d="M559.7284,251.91852v-23.97284h23.97284v23.97284z" fill="#ff00ff"/><path d="M583.70124,251.91852v-23.97284h23.97284v23.97284z" fill="#000000"/><path d="M583.70124,275.89136v-23.97284h23.97284v23.97284z" data-paper-data="{&quot;index&quot;:null}" fill="#ff00ff"/><path d="M559.7284,275.89136v-23.97284h23.97284v23.97284z" data-paper-data="{&quot;index&quot;:null}" fill="#000000"/></g></g><g><g><path d="M607.67408,203.97284v-23.97284h23.97284v23.97284z" fill="#ff00ff"/><path d="M631.64692,203.97284v-23.97284h23.97284v23.97284z" fill="#000000"/><path d="M631.64692,227.94568v-23.97284h23.97284v23.97284z" data-paper-data="{&quot;index&quot;:null}" fill="#ff00ff"/><path d="M607.67408,227.94568v-23.97284h23.97284v23.97284z" data-paper-data="{&quot;index&quot;:null}" fill="#000000"/></g><g><path d="M655.61976,203.97284v-23.97284h23.97284v23.97284z" fill="#ff00ff"/><path d="M679.5926,203.97284v-23.97284h23.97284v23.97284z" fill="#000000"/><path d="M679.5926,227.94568v-23.97284h23.97284v23.97284z" data-paper-data="{&quot;index&quot;:null}" fill="#ff00ff"/><path d="M655.61976,227.94568v-23.97284h23.97284v23.97284z" data-paper-data="{&quot;index&quot;:null}" fill="#000000"/></g><g><path d="M607.67408,251.91852v-23.97284h23.97284v23.97284z" fill="#ff00ff"/><path d="M631.64692,251.91852v-23.97284h23.97284v23.97284z" fill="#000000"/><path d="M631.64692,275.89136v-23.97284h23.97284v23.97284z" data-paper-data="{&quot;index&quot;:null}" fill="#ff00ff"/><path d="M607.67408,275.89136v-23.97284h23.97284v23.97284z" data-paper-data="{&quot;index&quot;:null}" fill="#000000"/></g><g><path d="M655.61976,251.91852v-23.97284h23.97284v23.97284z" fill="#ff00ff"/><path d="M679.5926,251.91852v-23.97284h23.97284v23.97284z" fill="#000000"/><path d="M679.5926,275.89136v-23.97284h23.97284v23.97284z" data-paper-data="{&quot;index&quot;:null}" fill="#ff00ff"/><path d="M655.61976,275.89136v-23.97284h23.97284v23.97284z" data-paper-data="{&quot;index&quot;:null}" fill="#000000"/></g></g><g><g><path d="M607.67408,299.8642v-23.97284h23.97284v23.97284z" fill="#ff00ff"/><path d="M631.64692,299.8642v-23.97284h23.97284v23.97284z" fill="#000000"/><path d="M631.64692,323.83704v-23.97284h23.97284v23.97284z" data-paper-data="{&quot;index&quot;:null}" fill="#ff00ff"/><path d="M607.67408,323.83704v-23.97284h23.97284v23.97284z" data-paper-data="{&quot;index&quot;:null}" fill="#000000"/></g><g><path d="M655.61976,299.8642v-23.97284h23.97284v23.97284z" fill="#ff00ff"/><path d="M679.5926,299.8642v-23.97284h23.97284v23.97284z" fill="#000000"/><path d="M679.5926,323.83704v-23.97284h23.97284v23.97284z" data-paper-data="{&quot;index&quot;:null}" fill="#ff00ff"/><path d="M655.61976,323.83704v-23.97284h23.97284v23.97284z" data-paper-data="{&quot;index&quot;:null}" fill="#000000"/></g><g><path d="M607.67408,347.80988v-23.97284h23.97284v23.97284z" fill="#ff00ff"/><path d="M631.64692,347.80988v-23.97284h23.97284v23.97284z" fill="#000000"/><path d="M631.64692,371.78272v-23.97284h23.97284v23.97284z" data-paper-data="{&quot;index&quot;:null}" fill="#ff00ff"/><path d="M607.67408,371.78272v-23.97284h23.97284v23.97284z" data-paper-data="{&quot;index&quot;:null}" fill="#000000"/></g><g><path d="M655.61976,347.80988v-23.97284h23.97284v23.97284z" fill="#ff00ff"/><path d="M679.5926,347.80988v-23.97284h23.97284v23.97284z" fill="#000000"/><path d="M679.5926,371.78272v-23.97284h23.97284v23.97284z" data-paper-data="{&quot;index&quot;:null}" fill="#ff00ff"/><path d="M655.61976,371.78272v-23.97284h23.97284v23.97284z" data-paper-data="{&quot;index&quot;:null}" fill="#000000"/></g></g><g><g><path d="M511.78272,299.8642v-23.97284h23.97284v23.97284z" fill="#ff00ff"/><path d="M535.75556,299.8642v-23.97284h23.97284v23.97284z" fill="#000000"/><path d="M535.75556,323.83704v-23.97284h23.97284v23.97284z" data-paper-data="{&quot;index&quot;:null}" fill="#ff00ff"/><path d="M511.78272,323.83704v-23.97284h23.97284v23.97284z" data-paper-data="{&quot;index&quot;:null}" fill="#000000"/></g><g><path d="M559.7284,299.8642v-23.97284h23.97284v23.97284z" fill="#ff00ff"/><path d="M583.70124,299.8642v-23.97284h23.97284v23.97284z" fill="#000000"/><path d="M583.70124,323.83704v-23.97284h23.97284v23.97284z" data-paper-data="{&quot;index&quot;:null}" fill="#ff00ff"/><path d="M559.7284,323.83704v-23.97284h23.97284v23.97284z" data-paper-data="{&quot;index&quot;:null}" fill="#000000"/></g><g><path d="M511.78272,347.80988v-23.97284h23.97284v23.97284z" fill="#ff00ff"/><path d="M535.75556,347.80988v-23.97284h23.97284v23.97284z" fill="#000000"/><path d="M535.75556,371.78272v-23.97284h23.97284v23.97284z" data-paper-data="{&quot;index&quot;:null}" fill="#ff00ff"/><path d="M511.78272,371.78272v-23.97284h23.97284v23.97284z" data-paper-data="{&quot;index&quot;:null}" fill="#000000"/></g><g><path d="M559.7284,347.80988v-23.97284h23.97284v23.97284z" fill="#ff00ff"/><path d="M583.70124,347.80988v-23.97284h23.97284v23.97284z" fill="#000000"/><path d="M583.70124,371.78272v-23.97284h23.97284v23.97284z" data-paper-data="{&quot;index&quot;:null}" fill="#ff00ff"/><path d="M559.7284,371.78272v-23.97284h23.97284v23.97284z" data-paper-data="{&quot;index&quot;:null}" fill="#000000"/></g></g></g><g><g><g><path d="M128.21728,203.97284v-23.97284h23.97284v23.97284z" fill="#ff00ff"/><path d="M152.19012,203.97284v-23.97284h23.97284v23.97284z" fill="#000000"/><path d="M152.19012,227.94568v-23.97284h23.97284v23.97284z" data-paper-data="{&quot;index&quot;:null}" fill="#ff00ff"/><path d="M128.21728,227.94568v-23.97284h23.97284v23.97284z" data-paper-data="{&quot;index&quot;:null}" fill="#000000"/></g><g><path d="M176.16296,203.97284v-23.97284h23.97284v23.97284z" fill="#ff00ff"/><path d="M200.1358,203.97284v-23.97284h23.97284v23.97284z" fill="#000000"/><path d="M200.1358,227.94568v-23.97284h23.97284v23.97284z" data-paper-data="{&quot;index&quot;:null}" fill="#ff00ff"/><path d="M176.16296,227.94568v-23.97284h23.97284v23.97284z" data-paper-data="{&quot;index&quot;:null}" fill="#000000"/></g><g><path d="M128.21728,251.91852v-23.97284h23.97284v23.97284z" fill="#ff00ff"/><path d="M152.19012,251.91852v-23.97284h23.97284v23.97284z" fill="#000000"/><path d="M152.19012,275.89136v-23.97284h23.97284v23.97284z" data-paper-data="{&quot;index&quot;:null}" fill="#ff00ff"/><path d="M128.21728,275.89136v-23.97284h23.97284v23.97284z" data-paper-data="{&quot;index&quot;:null}" fill="#000000"/></g><g><path d="M176.16296,251.91852v-23.97284h23.97284v23.97284z" fill="#ff00ff"/><path d="M200.1358,251.91852v-23.97284h23.97284v23.97284z" fill="#000000"/><path d="M200.1358,275.89136v-23.97284h23.97284v23.97284z" data-paper-data="{&quot;index&quot;:null}" fill="#ff00ff"/><path d="M176.16296,275.89136v-23.97284h23.97284v23.97284z" data-paper-data="{&quot;index&quot;:null}" fill="#000000"/></g></g><g><g><path d="M224.10864,203.97284v-23.97284h23.97284v23.97284z" fill="#ff00ff"/><path d="M248.08148,203.97284v-23.97284h23.97284v23.97284z" fill="#000000"/><path d="M248.08148,227.94568v-23.97284h23.97284v23.97284z" data-paper-data="{&quot;index&quot;:null}" fill="#ff00ff"/><path d="M224.10864,227.94568v-23.97284h23.97284v23.97284z" data-paper-data="{&quot;index&quot;:null}" fill="#000000"/></g><g><path d="M272.05432,203.97284v-23.97284h23.97284v23.97284z" fill="#ff00ff"/><path d="M296.02716,203.97284v-23.97284h23.97284v23.97284z" fill="#000000"/><path d="M296.02716,227.94568v-23.97284h23.97284v23.97284z" data-paper-data="{&quot;index&quot;:null}" fill="#ff00ff"/><path d="M272.05432,227.94568v-23.97284h23.97284v23.97284z" data-paper-data="{&quot;index&quot;:null}" fill="#000000"/></g><g><path d="M224.10864,251.91852v-23.97284h23.97284v23.97284z" fill="#ff00ff"/><path d="M248.08148,251.91852v-23.97284h23.97284v23.97284z" fill="#000000"/><path d="M248.08148,275.89136v-23.97284h23.97284v23.97284z" data-paper-data="{&quot;index&quot;:null}" fill="#ff00ff"/><path d="M224.10864,275.89136v-23.97284h23.97284v23.97284z" data-paper-data="{&quot;index&quot;:null}" fill="#000000"/></g><g><path d="M272.05432,251.91852v-23.97284h23.97284v23.97284z" fill="#ff00ff"/><path d="M296.02716,251.91852v-23.97284h23.97284v23.97284z" fill="#000000"/><path d="M296.02716,275.89136v-23.97284h23.97284v23.97284z" data-paper-data="{&quot;index&quot;:null}" fill="#ff00ff"/><path d="M272.05432,275.89136v-23.97284h23.97284v23.97284z" data-paper-data="{&quot;index&quot;:null}" fill="#000000"/></g></g><g><g><path d="M224.10864,299.8642v-23.97284h23.97284v23.97284z" fill="#ff00ff"/><path d="M248.08148,299.8642v-23.97284h23.97284v23.97284z" fill="#000000"/><path d="M248.08148,323.83704v-23.97284h23.97284v23.97284z" data-paper-data="{&quot;index&quot;:null}" fill="#ff00ff"/><path d="M224.10864,323.83704v-23.97284h23.97284v23.97284z" data-paper-data="{&quot;index&quot;:null}" fill="#000000"/></g><g><path d="M272.05432,299.8642v-23.97284h23.97284v23.97284z" fill="#ff00ff"/><path d="M296.02716,299.8642v-23.97284h23.97284v23.97284z" fill="#000000"/><path d="M296.02716,323.83704v-23.97284h23.97284v23.97284z" data-paper-data="{&quot;index&quot;:null}" fill="#ff00ff"/><path d="M272.05432,323.83704v-23.97284h23.97284v23.97284z" data-paper-data="{&quot;index&quot;:null}" fill="#000000"/></g><g><path d="M224.10864,347.80988v-23.97284h23.97284v23.97284z" fill="#ff00ff"/><path d="M248.08148,347.80988v-23.97284h23.97284v23.97284z" fill="#000000"/><path d="M248.08148,371.78272v-23.97284h23.97284v23.97284z" data-paper-data="{&quot;index&quot;:null}" fill="#ff00ff"/><path d="M224.10864,371.78272v-23.97284h23.97284v23.97284z" data-paper-data="{&quot;index&quot;:null}" fill="#000000"/></g><g><path d="M272.05432,347.80988v-23.97284h23.97284v23.97284z" fill="#ff00ff"/><path d="M296.02716,347.80988v-23.97284h23.97284v23.97284z" fill="#000000"/><path d="M296.02716,371.78272v-23.97284h23.97284v23.97284z" data-paper-data="{&quot;index&quot;:null}" fill="#ff00ff"/><path d="M272.05432,371.78272v-23.97284h23.97284v23.97284z" data-paper-data="{&quot;index&quot;:null}" fill="#000000"/></g></g><g><g><path d="M128.21728,299.8642v-23.97284h23.97284v23.97284z" fill="#ff00ff"/><path d="M152.19012,299.8642v-23.97284h23.97284v23.97284z" fill="#000000"/><path d="M152.19012,323.83704v-23.97284h23.97284v23.97284z" data-paper-data="{&quot;index&quot;:null}" fill="#ff00ff"/><path d="M128.21728,323.83704v-23.97284h23.97284v23.97284z" data-paper-data="{&quot;index&quot;:null}" fill="#000000"/></g><g><path d="M176.16296,299.8642v-23.97284h23.97284v23.97284z" fill="#ff00ff"/><path d="M200.1358,299.8642v-23.97284h23.97284v23.97284z" fill="#000000"/><path d="M200.1358,323.83704v-23.97284h23.97284v23.97284z" data-paper-data="{&quot;index&quot;:null}" fill="#ff00ff"/><path d="M176.16296,323.83704v-23.97284h23.97284v23.97284z" data-paper-data="{&quot;index&quot;:null}" fill="#000000"/></g><g><path d="M128.21728,347.80988v-23.97284h23.97284v23.97284z" fill="#ff00ff"/><path d="M152.19012,347.80988v-23.97284h23.97284v23.97284z" fill="#000000"/><path d="M152.19012,371.78272v-23.97284h23.97284v23.97284z" data-paper-data="{&quot;index&quot;:null}" fill="#ff00ff"/><path d="M128.21728,371.78272v-23.97284h23.97284v23.97284z" data-paper-data="{&quot;index&quot;:null}" fill="#000000"/></g><g><path d="M176.16296,347.80988v-23.97284h23.97284v23.97284z" fill="#ff00ff"/><path d="M200.1358,347.80988v-23.97284h23.97284v23.97284z" fill="#000000"/><path d="M200.1358,371.78272v-23.97284h23.97284v23.97284z" data-paper-data="{&quot;index&quot;:null}" fill="#ff00ff"/><path d="M176.16296,371.78272v-23.97284h23.97284v23.97284z" data-paper-data="{&quot;index&quot;:null}" fill="#000000"/></g></g></g><g><g><g><path d="M-63.56544,203.97284v-23.97284h23.97284v23.97284z" fill="#ff00ff"/><path d="M-39.5926,203.97284v-23.97284h23.97284v23.97284z" fill="#000000"/><path d="M-39.5926,227.94568v-23.97284h23.97284v23.97284z" data-paper-data="{&quot;index&quot;:null}" fill="#ff00ff"/><path d="M-63.56544,227.94568v-23.97284h23.97284v23.97284z" data-paper-data="{&quot;index&quot;:null}" fill="#000000"/></g><g><path d="M-15.61976,203.97284v-23.97284h23.97284v23.97284z" fill="#ff00ff"/><path d="M8.35308,203.97284v-23.97284h23.97284v23.97284z" fill="#000000"/><path d="M8.35308,227.94568v-23.97284h23.97284v23.97284z" data-paper-data="{&quot;index&quot;:null}" fill="#ff00ff"/><path d="M-15.61976,227.94568v-23.97284h23.97284v23.97284z" data-paper-data="{&quot;index&quot;:null}" fill="#000000"/></g><g><path d="M-63.56544,251.91852v-23.97284h23.97284v23.97284z" fill="#ff00ff"/><path d="M-39.5926,251.91852v-23.97284h23.97284v23.97284z" fill="#000000"/><path d="M-39.5926,275.89136v-23.97284h23.97284v23.97284z" data-paper-data="{&quot;index&quot;:null}" fill="#ff00ff"/><path d="M-63.56544,275.89136v-23.97284h23.97284v23.97284z" data-paper-data="{&quot;index&quot;:null}" fill="#000000"/></g><g><path d="M-15.61976,251.91852v-23.97284h23.97284v23.97284z" fill="#ff00ff"/><path d="M8.35308,251.91852v-23.97284h23.97284v23.97284z" fill="#000000"/><path d="M8.35308,275.89136v-23.97284h23.97284v23.97284z" data-paper-data="{&quot;index&quot;:null}" fill="#ff00ff"/><path d="M-15.61976,275.89136v-23.97284h23.97284v23.97284z" data-paper-data="{&quot;index&quot;:null}" fill="#000000"/></g></g><g><g><path d="M32.32592,203.97284v-23.97284h23.97284v23.97284z" fill="#ff00ff"/><path d="M56.29876,203.97284v-23.97284h23.97284v23.97284z" fill="#000000"/><path d="M56.29876,227.94568v-23.97284h23.97284v23.97284z" data-paper-data="{&quot;index&quot;:null}" fill="#ff00ff"/><path d="M32.32592,227.94568v-23.97284h23.97284v23.97284z" data-paper-data="{&quot;index&quot;:null}" fill="#000000"/></g><g><path d="M80.2716,203.97284v-23.97284h23.97284v23.97284z" fill="#ff00ff"/><path d="M104.24444,203.97284v-23.97284h23.97284v23.97284z" fill="#000000"/><path d="M104.24444,227.94568v-23.97284h23.97284v23.97284z" data-paper-data="{&quot;index&quot;:null}" fill="#ff00ff"/><path d="M80.2716,227.94568v-23.97284h23.97284v23.97284z" data-paper-data="{&quot;index&quot;:null}" fill="#000000"/></g><g><path d="M32.32592,251.91852v-23.97284h23.97284v23.97284z" fill="#ff00ff"/><path d="M56.29876,251.91852v-23.97284h23.97284v23.97284z" fill="#000000"/><path d="M56.29876,275.89136v-23.97284h23.97284v23.97284z" data-paper-data="{&quot;index&quot;:null}" fill="#ff00ff"/><path d="M32.32592,275.89136v-23.97284h23.97284v23.97284z" data-paper-data="{&quot;index&quot;:null}" fill="#000000"/></g><g><path d="M80.2716,251.91852v-23.97284h23.97284v23.97284z" fill="#ff00ff"/><path d="M104.24444,251.91852v-23.97284h23.97284v23.97284z" fill="#000000"/><path d="M104.24444,275.89136v-23.97284h23.97284v23.97284z" data-paper-data="{&quot;index&quot;:null}" fill="#ff00ff"/><path d="M80.2716,275.89136v-23.97284h23.97284v23.97284z" data-paper-data="{&quot;index&quot;:null}" fill="#000000"/></g></g><g><g><path d="M32.32592,299.8642v-23.97284h23.97284v23.97284z" fill="#ff00ff"/><path d="M56.29876,299.8642v-23.97284h23.97284v23.97284z" fill="#000000"/><path d="M56.29876,323.83704v-23.97284h23.97284v23.97284z" data-paper-data="{&quot;index&quot;:null}" fill="#ff00ff"/><path d="M32.32592,323.83704v-23.97284h23.97284v23.97284z" data-paper-data="{&quot;index&quot;:null}" fill="#000000"/></g><g><path d="M80.2716,299.8642v-23.97284h23.97284v23.97284z" fill="#ff00ff"/><path d="M104.24444,299.8642v-23.97284h23.97284v23.97284z" fill="#000000"/><path d="M104.24444,323.83704v-23.97284h23.97284v23.97284z" data-paper-data="{&quot;index&quot;:null}" fill="#ff00ff"/><path d="M80.2716,323.83704v-23.97284h23.97284v23.97284z" data-paper-data="{&quot;index&quot;:null}" fill="#000000"/></g><g><path d="M32.32592,347.80988v-23.97284h23.97284v23.97284z" fill="#ff00ff"/><path d="M56.29876,347.80988v-23.97284h23.97284v23.97284z" fill="#000000"/><path d="M56.29876,371.78272v-23.97284h23.97284v23.97284z" data-paper-data="{&quot;index&quot;:null}" fill="#ff00ff"/><path d="M32.32592,371.78272v-23.97284h23.97284v23.97284z" data-paper-data="{&quot;index&quot;:null}" fill="#000000"/></g><g><path d="M80.2716,347.80988v-23.97284h23.97284v23.97284z" fill="#ff00ff"/><path d="M104.24444,347.80988v-23.97284h23.97284v23.97284z" fill="#000000"/><path d="M104.24444,371.78272v-23.97284h23.97284v23.97284z" data-paper-data="{&quot;index&quot;:null}" fill="#ff00ff"/><path d="M80.2716,371.78272v-23.97284h23.97284v23.97284z" data-paper-data="{&quot;index&quot;:null}" fill="#000000"/></g></g><g><g><path d="M-63.56544,299.8642v-23.97284h23.97284v23.97284z" fill="#ff00ff"/><path d="M-39.5926,299.8642v-23.97284h23.97284v23.97284z" fill="#000000"/><path d="M-39.5926,323.83704v-23.97284h23.97284v23.97284z" data-paper-data="{&quot;index&quot;:null}" fill="#ff00ff"/><path d="M-63.56544,323.83704v-23.97284h23.97284v23.97284z" data-paper-data="{&quot;index&quot;:null}" fill="#000000"/></g><g><path d="M-15.61976,299.8642v-23.97284h23.97284v23.97284z" fill="#ff00ff"/><path d="M8.35308,299.8642v-23.97284h23.97284v23.97284z" fill="#000000"/><path d="M8.35308,323.83704v-23.97284h23.97284v23.97284z" data-paper-data="{&quot;index&quot;:null}" fill="#ff00ff"/><path d="M-15.61976,323.83704v-23.97284h23.97284v23.97284z" data-paper-data="{&quot;index&quot;:null}" fill="#000000"/></g><g><path d="M-63.56544,347.80988v-23.97284h23.97284v23.97284z" fill="#ff00ff"/><path d="M-39.5926,347.80988v-23.97284h23.97284v23.97284z" fill="#000000"/><path d="M-39.5926,371.78272v-23.97284h23.97284v23.97284z" data-paper-data="{&quot;index&quot;:null}" fill="#ff00ff"/><path d="M-63.56544,371.78272v-23.97284h23.97284v23.97284z" data-paper-data="{&quot;index&quot;:null}" fill="#000000"/></g><g><path d="M-15.61976,347.80988v-23.97284h23.97284v23.97284z" fill="#ff00ff"/><path d="M8.35308,347.80988v-23.97284h23.97284v23.97284z" fill="#000000"/><path d="M8.35308,371.78272v-23.97284h23.97284v23.97284z" data-paper-data="{&quot;index&quot;:null}" fill="#ff00ff"/><path d="M-15.61976,371.78272v-23.97284h23.97284v23.97284z" data-paper-data="{&quot;index&quot;:null}" fill="#000000"/></g></g></g></g><g><g><g><g><path d="M320,12.19012v-23.97284h23.97284v23.97284z" fill="#ff00ff"/><path d="M343.97284,12.19012v-23.97284h23.97284v23.97284z" fill="#000000"/><path d="M343.97284,36.16296v-23.97284h23.97284v23.97284z" data-paper-data="{&quot;index&quot;:null}" fill="#ff00ff"/><path d="M320,36.16296v-23.97284h23.97284v23.97284z" data-paper-data="{&quot;index&quot;:null}" fill="#000000"/></g><g><path d="M367.94568,12.19012v-23.97284h23.97284v23.97284z" fill="#ff00ff"/><path d="M391.91852,12.19012v-23.97284h23.97284v23.97284z" fill="#000000"/><path d="M391.91852,36.16296v-23.97284h23.97284v23.97284z" data-paper-data="{&quot;index&quot;:null}" fill="#ff00ff"/><path d="M367.94568,36.16296v-23.97284h23.97284v23.97284z" data-paper-data="{&quot;index&quot;:null}" fill="#000000"/></g><g><path d="M320,60.1358v-23.97284h23.97284v23.97284z" fill="#ff00ff"/><path d="M343.97284,60.1358v-23.97284h23.97284v23.97284z" fill="#000000"/><path d="M343.97284,84.10864v-23.97284h23.97284v23.97284z" data-paper-data="{&quot;index&quot;:null}" fill="#ff00ff"/><path d="M320,84.10864v-23.97284h23.97284v23.97284z" data-paper-data="{&quot;index&quot;:null}" fill="#000000"/></g><g><path d="M367.94568,60.1358v-23.97284h23.97284v23.97284z" fill="#ff00ff"/><path d="M391.91852,60.1358v-23.97284h23.97284v23.97284z" fill="#000000"/><path d="M391.91852,84.10864v-23.97284h23.97284v23.97284z" data-paper-data="{&quot;index&quot;:null}" fill="#ff00ff"/><path d="M367.94568,84.10864v-23.97284h23.97284v23.97284z" data-paper-data="{&quot;index&quot;:null}" fill="#000000"/></g></g><g><g><path d="M415.89136,12.19012v-23.97284h23.97284v23.97284z" fill="#ff00ff"/><path d="M439.8642,12.19012v-23.97284h23.97284v23.97284z" fill="#000000"/><path d="M439.8642,36.16296v-23.97284h23.97284v23.97284z" data-paper-data="{&quot;index&quot;:null}" fill="#ff00ff"/><path d="M415.89136,36.16296v-23.97284h23.97284v23.97284z" data-paper-data="{&quot;index&quot;:null}" fill="#000000"/></g><g><path d="M463.83704,12.19012v-23.97284h23.97284v23.97284z" fill="#ff00ff"/><path d="M487.80988,12.19012v-23.97284h23.97284v23.97284z" fill="#000000"/><path d="M487.80988,36.16296v-23.97284h23.97284v23.97284z" data-paper-data="{&quot;index&quot;:null}" fill="#ff00ff"/><path d="M463.83704,36.16296v-23.97284h23.97284v23.97284z" data-paper-data="{&quot;index&quot;:null}" fill="#000000"/></g><g><path d="M415.89136,60.1358v-23.97284h23.97284v23.97284z" fill="#ff00ff"/><path d="M439.8642,60.1358v-23.97284h23.97284v23.97284z" fill="#000000"/><path d="M439.8642,84.10864v-23.97284h23.97284v23.97284z" data-paper-data="{&quot;index&quot;:null}" fill="#ff00ff"/><path d="M415.89136,84.10864v-23.97284h23.97284v23.97284z" data-paper-data="{&quot;index&quot;:null}" fill="#000000"/></g><g><path d="M463.83704,60.1358v-23.97284h23.97284v23.97284z" fill="#ff00ff"/><path d="M487.80988,60.1358v-23.97284h23.97284v23.97284z" fill="#000000"/><path d="M487.80988,84.10864v-23.97284h23.97284v23.97284z" data-paper-data="{&quot;index&quot;:null}" fill="#ff00ff"/><path d="M463.83704,84.10864v-23.97284h23.97284v23.97284z" data-paper-data="{&quot;index&quot;:null}" fill="#000000"/></g></g><g><g><path d="M415.89136,108.08148v-23.97284h23.97284v23.97284z" fill="#ff00ff"/><path d="M439.8642,108.08148v-23.97284h23.97284v23.97284z" fill="#000000"/><path d="M439.8642,132.05432v-23.97284h23.97284v23.97284z" data-paper-data="{&quot;index&quot;:null}" fill="#ff00ff"/><path d="M415.89136,132.05432v-23.97284h23.97284v23.97284z" data-paper-data="{&quot;index&quot;:null}" fill="#000000"/></g><g><path d="M463.83704,108.08148v-23.97284h23.97284v23.97284z" fill="#ff00ff"/><path d="M487.80988,108.08148v-23.97284h23.97284v23.97284z" fill="#000000"/><path d="M487.80988,132.05432v-23.97284h23.97284v23.97284z" data-paper-data="{&quot;index&quot;:null}" fill="#ff00ff"/><path d="M463.83704,132.05432v-23.97284h23.97284v23.97284z" data-paper-data="{&quot;index&quot;:null}" fill="#000000"/></g><g><path d="M415.89136,156.02716v-23.97284h23.97284v23.97284z" fill="#ff00ff"/><path d="M439.8642,156.02716v-23.97284h23.97284v23.97284z" fill="#000000"/><path d="M439.8642,180v-23.97284h23.97284v23.97284z" data-paper-data="{&quot;index&quot;:null}" fill="#ff00ff"/><path d="M415.89136,180v-23.97284h23.97284v23.97284z" data-paper-data="{&quot;index&quot;:null}" fill="#000000"/></g><g><path d="M463.83704,156.02716v-23.97284h23.97284v23.97284z" fill="#ff00ff"/><path d="M487.80988,156.02716v-23.97284h23.97284v23.97284z" fill="#000000"/><path d="M487.80988,180v-23.97284h23.97284v23.97284z" data-paper-data="{&quot;index&quot;:null}" fill="#ff00ff"/><path d="M463.83704,180v-23.97284h23.97284v23.97284z" data-paper-data="{&quot;index&quot;:null}" fill="#000000"/></g></g><g><g><path d="M320,108.08148v-23.97284h23.97284v23.97284z" fill="#ff00ff"/><path d="M343.97284,108.08148v-23.97284h23.97284v23.97284z" fill="#000000"/><path d="M343.97284,132.05432v-23.97284h23.97284v23.97284z" data-paper-data="{&quot;index&quot;:null}" fill="#ff00ff"/><path d="M320,132.05432v-23.97284h23.97284v23.97284z" data-paper-data="{&quot;index&quot;:null}" fill="#000000"/></g><g><path d="M367.94568,108.08148v-23.97284h23.97284v23.97284z" fill="#ff00ff"/><path d="M391.91852,108.08148v-23.97284h23.97284v23.97284z" fill="#000000"/><path d="M391.91852,132.05432v-23.97284h23.97284v23.97284z" data-paper-data="{&quot;index&quot;:null}" fill="#ff00ff"/><path d="M367.94568,132.05432v-23.97284h23.97284v23.97284z" data-paper-data="{&quot;index&quot;:null}" fill="#000000"/></g><g><path d="M320,156.02716v-23.97284h23.97284v23.97284z" fill="#ff00ff"/><path d="M343.97284,156.02716v-23.97284h23.97284v23.97284z" fill="#000000"/><path d="M343.97284,180v-23.97284h23.97284v23.97284z" data-paper-data="{&quot;index&quot;:null}" fill="#ff00ff"/><path d="M320,180v-23.97284h23.97284v23.97284z" data-paper-data="{&quot;index&quot;:null}" fill="#000000"/></g><g><path d="M367.94568,156.02716v-23.97284h23.97284v23.97284z" fill="#ff00ff"/><path d="M391.91852,156.02716v-23.97284h23.97284v23.97284z" fill="#000000"/><path d="M391.91852,180v-23.97284h23.97284v23.97284z" data-paper-data="{&quot;index&quot;:null}" fill="#ff00ff"/><path d="M367.94568,180v-23.97284h23.97284v23.97284z" data-paper-data="{&quot;index&quot;:null}" fill="#000000"/></g></g></g><g><g><g><path d="M511.78272,12.19012v-23.97284h23.97284v23.97284z" fill="#ff00ff"/><path d="M535.75556,12.19012v-23.97284h23.97284v23.97284z" fill="#000000"/><path d="M535.75556,36.16296v-23.97284h23.97284v23.97284z" data-paper-data="{&quot;index&quot;:null}" fill="#ff00ff"/><path d="M511.78272,36.16296v-23.97284h23.97284v23.97284z" data-paper-data="{&quot;index&quot;:null}" fill="#000000"/></g><g><path d="M559.7284,12.19012v-23.97284h23.97284v23.97284z" fill="#ff00ff"/><path d="M583.70124,12.19012v-23.97284h23.97284v23.97284z" fill="#000000"/><path d="M583.70124,36.16296v-23.97284h23.97284v23.97284z" data-paper-data="{&quot;index&quot;:null}" fill="#ff00ff"/><path d="M559.7284,36.16296v-23.97284h23.97284v23.97284z" data-paper-data="{&quot;index&quot;:null}" fill="#000000"/></g><g><path d="M511.78272,60.1358v-23.97284h23.97284v23.97284z" fill="#ff00ff"/><path d="M535.75556,60.1358v-23.97284h23.97284v23.97284z" fill="#000000"/><path d="M535.75556,84.10864v-23.97284h23.97284v23.97284z" data-paper-data="{&quot;index&quot;:null}" fill="#ff00ff"/><path d="M511.78272,84.10864v-23.97284h23.97284v23.97284z" data-paper-data="{&quot;index&quot;:null}" fill="#000000"/></g><g><path d="M559.7284,60.1358v-23.97284h23.97284v23.97284z" fill="#ff00ff"/><path d="M583.70124,60.1358v-23.97284h23.97284v23.97284z" fill="#000000"/><path d="M583.70124,84.10864v-23.97284h23.97284v23.97284z" data-paper-data="{&quot;index&quot;:null}" fill="#ff00ff"/><path d="M559.7284,84.10864v-23.97284h23.97284v23.97284z" data-paper-data="{&quot;index&quot;:null}" fill="#000000"/></g></g><g><g><path d="M607.67408,12.19012v-23.97284h23.97284v23.97284z" fill="#ff00ff"/><path d="M631.64692,12.19012v-23.97284h23.97284v23.97284z" fill="#000000"/><path d="M631.64692,36.16296v-23.97284h23.97284v23.97284z" data-paper-data="{&quot;index&quot;:null}" fill="#ff00ff"/><path d="M607.67408,36.16296v-23.97284h23.97284v23.97284z" data-paper-data="{&quot;index&quot;:null}" fill="#000000"/></g><g><path d="M655.61976,12.19012v-23.97284h23.97284v23.97284z" fill="#ff00ff"/><path d="M679.5926,12.19012v-23.97284h23.97284v23.97284z" fill="#000000"/><path d="M679.5926,36.16296v-23.97284h23.97284v23.97284z" data-paper-data="{&quot;index&quot;:null}" fill="#ff00ff"/><path d="M655.61976,36.16296v-23.97284h23.97284v23.97284z" data-paper-data="{&quot;index&quot;:null}" fill="#000000"/></g><g><path d="M607.67408,60.1358v-23.97284h23.97284v23.97284z" fill="#ff00ff"/><path d="M631.64692,60.1358v-23.97284h23.97284v23.97284z" fill="#000000"/><path d="M631.64692,84.10864v-23.97284h23.97284v23.97284z" data-paper-data="{&quot;index&quot;:null}" fill="#ff00ff"/><path d="M607.67408,84.10864v-23.97284h23.97284v23.97284z" data-paper-data="{&quot;index&quot;:null}" fill="#000000"/></g><g><path d="M655.61976,60.1358v-23.97284h23.97284v23.97284z" fill="#ff00ff"/><path d="M679.5926,60.1358v-23.97284h23.97284v23.97284z" fill="#000000"/><path d="M679.5926,84.10864v-23.97284h23.97284v23.97284z" data-paper-data="{&quot;index&quot;:null}" fill="#ff00ff"/><path d="M655.61976,84.10864v-23.97284h23.97284v23.97284z" data-paper-data="{&quot;index&quot;:null}" fill="#000000"/></g></g><g><g><path d="M607.67408,108.08148v-23.97284h23.97284v23.97284z" fill="#ff00ff"/><path d="M631.64692,108.08148v-23.97284h23.97284v23.97284z" fill="#000000"/><path d="M631.64692,132.05432v-23.97284h23.97284v23.97284z" data-paper-data="{&quot;index&quot;:null}" fill="#ff00ff"/><path d="M607.67408,132.05432v-23.97284h23.97284v23.97284z" data-paper-data="{&quot;index&quot;:null}" fill="#000000"/></g><g><path d="M655.61976,108.08148v-23.97284h23.97284v23.97284z" fill="#ff00ff"/><path d="M679.5926,108.08148v-23.97284h23.97284v23.97284z" fill="#000000"/><path d="M679.5926,132.05432v-23.97284h23.97284v23.97284z" data-paper-data="{&quot;index&quot;:null}" fill="#ff00ff"/><path d="M655.61976,132.05432v-23.97284h23.97284v23.97284z" data-paper-data="{&quot;index&quot;:null}" fill="#000000"/></g><g><path d="M607.67408,156.02716v-23.97284h23.97284v23.97284z" fill="#ff00ff"/><path d="M631.64692,156.02716v-23.97284h23.97284v23.97284z" fill="#000000"/><path d="M631.64692,180v-23.97284h23.97284v23.97284z" data-paper-data="{&quot;index&quot;:null}" fill="#ff00ff"/><path d="M607.67408,180v-23.97284h23.97284v23.97284z" data-paper-data="{&quot;index&quot;:null}" fill="#000000"/></g><g><path d="M655.61976,156.02716v-23.97284h23.97284v23.97284z" fill="#ff00ff"/><path d="M679.5926,156.02716v-23.97284h23.97284v23.97284z" fill="#000000"/><path d="M679.5926,180v-23.97284h23.97284v23.97284z" data-paper-data="{&quot;index&quot;:null}" fill="#ff00ff"/><path d="M655.61976,180v-23.97284h23.97284v23.97284z" data-paper-data="{&quot;index&quot;:null}" fill="#000000"/></g></g><g><g><path d="M511.78272,108.08148v-23.97284h23.97284v23.97284z" fill="#ff00ff"/><path d="M535.75556,108.08148v-23.97284h23.97284v23.97284z" fill="#000000"/><path d="M535.75556,132.05432v-23.97284h23.97284v23.97284z" data-paper-data="{&quot;index&quot;:null}" fill="#ff00ff"/><path d="M511.78272,132.05432v-23.97284h23.97284v23.97284z" data-paper-data="{&quot;index&quot;:null}" fill="#000000"/></g><g><path d="M559.7284,108.08148v-23.97284h23.97284v23.97284z" fill="#ff00ff"/><path d="M583.70124,108.08148v-23.97284h23.97284v23.97284z" fill="#000000"/><path d="M583.70124,132.05432v-23.97284h23.97284v23.97284z" data-paper-data="{&quot;index&quot;:null}" fill="#ff00ff"/><path d="M559.7284,132.05432v-23.97284h23.97284v23.97284z" data-paper-data="{&quot;index&quot;:null}" fill="#000000"/></g><g><path d="M511.78272,156.02716v-23.97284h23.97284v23.97284z" fill="#ff00ff"/><path d="M535.75556,156.02716v-23.97284h23.97284v23.97284z" fill="#000000"/><path d="M535.75556,180v-23.97284h23.97284v23.97284z" data-paper-data="{&quot;index&quot;:null}" fill="#ff00ff"/><path d="M511.78272,180v-23.97284h23.97284v23.97284z" data-paper-data="{&quot;index&quot;:null}" fill="#000000"/></g><g><path d="M559.7284,156.02716v-23.97284h23.97284v23.97284z" fill="#ff00ff"/><path d="M583.70124,156.02716v-23.97284h23.97284v23.97284z" fill="#000000"/><path d="M583.70124,180v-23.97284h23.97284v23.97284z" data-paper-data="{&quot;index&quot;:null}" fill="#ff00ff"/><path d="M559.7284,180v-23.97284h23.97284v23.97284z" data-paper-data="{&quot;index&quot;:null}" fill="#000000"/></g></g></g><g><g><g><path d="M128.21728,12.19012v-23.97284h23.97284v23.97284z" fill="#ff00ff"/><path d="M152.19012,12.19012v-23.97284h23.97284v23.97284z" fill="#000000"/><path d="M152.19012,36.16296v-23.97284h23.97284v23.97284z" data-paper-data="{&quot;index&quot;:null}" fill="#ff00ff"/><path d="M128.21728,36.16296v-23.97284h23.97284v23.97284z" data-paper-data="{&quot;index&quot;:null}" fill="#000000"/></g><g><path d="M176.16296,12.19012v-23.97284h23.97284v23.97284z" fill="#ff00ff"/><path d="M200.1358,12.19012v-23.97284h23.97284v23.97284z" fill="#000000"/><path d="M200.1358,36.16296v-23.97284h23.97284v23.97284z" data-paper-data="{&quot;index&quot;:null}" fill="#ff00ff"/><path d="M176.16296,36.16296v-23.97284h23.97284v23.97284z" data-paper-data="{&quot;index&quot;:null}" fill="#000000"/></g><g><path d="M128.21728,60.1358v-23.97284h23.97284v23.97284z" fill="#ff00ff"/><path d="M152.19012,60.1358v-23.97284h23.97284v23.97284z" fill="#000000"/><path d="M152.19012,84.10864v-23.97284h23.97284v23.97284z" data-paper-data="{&quot;index&quot;:null}" fill="#ff00ff"/><path d="M128.21728,84.10864v-23.97284h23.97284v23.97284z" data-paper-data="{&quot;index&quot;:null}" fill="#000000"/></g><g><path d="M176.16296,60.1358v-23.97284h23.97284v23.97284z" fill="#ff00ff"/><path d="M200.1358,60.1358v-23.97284h23.97284v23.97284z" fill="#000000"/><path d="M200.1358,84.10864v-23.97284h23.97284v23.97284z" data-paper-data="{&quot;index&quot;:null}" fill="#ff00ff"/><path d="M176.16296,84.10864v-23.97284h23.97284v23.97284z" data-paper-data="{&quot;index&quot;:null}" fill="#000000"/></g></g><g><g><path d="M224.10864,12.19012v-23.97284h23.97284v23.97284z" fill="#ff00ff"/><path d="M248.08148,12.19012v-23.97284h23.97284v23.97284z" fill="#000000"/><path d="M248.08148,36.16296v-23.97284h23.97284v23.97284z" data-paper-data="{&quot;index&quot;:null}" fill="#ff00ff"/><path d="M224.10864,36.16296v-23.97284h23.97284v23.97284z" data-paper-data="{&quot;index&quot;:null}" fill="#000000"/></g><g><path d="M272.05432,12.19012v-23.97284h23.97284v23.97284z" fill="#ff00ff"/><path d="M296.02716,12.19012v-23.97284h23.97284v23.97284z" fill="#000000"/><path d="M296.02716,36.16296v-23.97284h23.97284v23.97284z" data-paper-data="{&quot;index&quot;:null}" fill="#ff00ff"/><path d="M272.05432,36.16296v-23.97284h23.97284v23.97284z" data-paper-data="{&quot;index&quot;:null}" fill="#000000"/></g><g><path d="M224.10864,60.1358v-23.97284h23.97284v23.97284z" fill="#ff00ff"/><path d="M248.08148,60.1358v-23.97284h23.97284v23.97284z" fill="#000000"/><path d="M248.08148,84.10864v-23.97284h23.97284v23.97284z" data-paper-data="{&quot;index&quot;:null}" fill="#ff00ff"/><path d="M224.10864,84.10864v-23.97284h23.97284v23.97284z" data-paper-data="{&quot;index&quot;:null}" fill="#000000"/></g><g><path d="M272.05432,60.1358v-23.97284h23.97284v23.97284z" fill="#ff00ff"/><path d="M296.02716,60.1358v-23.97284h23.97284v23.97284z" fill="#000000"/><path d="M296.02716,84.10864v-23.97284h23.97284v23.97284z" data-paper-data="{&quot;index&quot;:null}" fill="#ff00ff"/><path d="M272.05432,84.10864v-23.97284h23.97284v23.97284z" data-paper-data="{&quot;index&quot;:null}" fill="#000000"/></g></g><g><g><path d="M224.10864,108.08148v-23.97284h23.97284v23.97284z" fill="#ff00ff"/><path d="M248.08148,108.08148v-23.97284h23.97284v23.97284z" fill="#000000"/><path d="M248.08148,132.05432v-23.97284h23.97284v23.97284z" data-paper-data="{&quot;index&quot;:null}" fill="#ff00ff"/><path d="M224.10864,132.05432v-23.97284h23.97284v23.97284z" data-paper-data="{&quot;index&quot;:null}" fill="#000000"/></g><g><path d="M272.05432,108.08148v-23.97284h23.97284v23.97284z" fill="#ff00ff"/><path d="M296.02716,108.08148v-23.97284h23.97284v23.97284z" fill="#000000"/><path d="M296.02716,132.05432v-23.97284h23.97284v23.97284z" data-paper-data="{&quot;index&quot;:null}" fill="#ff00ff"/><path d="M272.05432,132.05432v-23.97284h23.97284v23.97284z" data-paper-data="{&quot;index&quot;:null}" fill="#000000"/></g><g><path d="M224.10864,156.02716v-23.97284h23.97284v23.97284z" fill="#ff00ff"/><path d="M248.08148,156.02716v-23.97284h23.97284v23.97284z" fill="#000000"/><path d="M248.08148,180v-23.97284h23.97284v23.97284z" data-paper-data="{&quot;index&quot;:null}" fill="#ff00ff"/><path d="M224.10864,180v-23.97284h23.97284v23.97284z" data-paper-data="{&quot;index&quot;:null}" fill="#000000"/></g><g><path d="M272.05432,156.02716v-23.97284h23.97284v23.97284z" fill="#ff00ff"/><path d="M296.02716,156.02716v-23.97284h23.97284v23.97284z" fill="#000000"/><path d="M296.02716,180v-23.97284h23.97284v23.97284z" data-paper-data="{&quot;index&quot;:null}" fill="#ff00ff"/><path d="M272.05432,180v-23.97284h23.97284v23.97284z" data-paper-data="{&quot;index&quot;:null}" fill="#000000"/></g></g><g><g><path d="M128.21728,108.08148v-23.97284h23.97284v23.97284z" fill="#ff00ff"/><path d="M152.19012,108.08148v-23.97284h23.97284v23.97284z" fill="#000000"/><path d="M152.19012,132.05432v-23.97284h23.97284v23.97284z" data-paper-data="{&quot;index&quot;:null}" fill="#ff00ff"/><path d="M128.21728,132.05432v-23.97284h23.97284v23.97284z" data-paper-data="{&quot;index&quot;:null}" fill="#000000"/></g><g><path d="M176.16296,108.08148v-23.97284h23.97284v23.97284z" fill="#ff00ff"/><path d="M200.1358,108.08148v-23.97284h23.97284v23.97284z" fill="#000000"/><path d="M200.1358,132.05432v-23.97284h23.97284v23.97284z" data-paper-data="{&quot;index&quot;:null}" fill="#ff00ff"/><path d="M176.16296,132.05432v-23.97284h23.97284v23.97284z" data-paper-data="{&quot;index&quot;:null}" fill="#000000"/></g><g><path d="M128.21728,156.02716v-23.97284h23.97284v23.97284z" fill="#ff00ff"/><path d="M152.19012,156.02716v-23.97284h23.97284v23.97284z" fill="#000000"/><path d="M152.19012,180v-23.97284h23.97284v23.97284z" data-paper-data="{&quot;index&quot;:null}" fill="#ff00ff"/><path d="M128.21728,180v-23.97284h23.97284v23.97284z" data-paper-data="{&quot;index&quot;:null}" fill="#000000"/></g><g><path d="M176.16296,156.02716v-23.97284h23.97284v23.97284z" fill="#ff00ff"/><path d="M200.1358,156.02716v-23.97284h23.97284v23.97284z" fill="#000000"/><path d="M200.1358,180v-23.97284h23.97284v23.97284z" data-paper-data="{&quot;index&quot;:null}" fill="#ff00ff"/><path d="M176.16296,180v-23.97284h23.97284v23.97284z" data-paper-data="{&quot;index&quot;:null}" fill="#000000"/></g></g></g><g><g><g><path d="M-63.56544,12.19012v-23.97284h23.97284v23.97284z" fill="#ff00ff"/><path d="M-39.5926,12.19012v-23.97284h23.97284v23.97284z" fill="#000000"/><path d="M-39.5926,36.16296v-23.97284h23.97284v23.97284z" data-paper-data="{&quot;index&quot;:null}" fill="#ff00ff"/><path d="M-63.56544,36.16296v-23.97284h23.97284v23.97284z" data-paper-data="{&quot;index&quot;:null}" fill="#000000"/></g><g><path d="M-15.61976,12.19012v-23.97284h23.97284v23.97284z" fill="#ff00ff"/><path d="M8.35308,12.19012v-23.97284h23.97284v23.97284z" fill="#000000"/><path d="M8.35308,36.16296v-23.97284h23.97284v23.97284z" data-paper-data="{&quot;index&quot;:null}" fill="#ff00ff"/><path d="M-15.61976,36.16296v-23.97284h23.97284v23.97284z" data-paper-data="{&quot;index&quot;:null}" fill="#000000"/></g><g><path d="M-63.56544,60.1358v-23.97284h23.97284v23.97284z" fill="#ff00ff"/><path d="M-39.5926,60.1358v-23.97284h23.97284v23.97284z" fill="#000000"/><path d="M-39.5926,84.10864v-23.97284h23.97284v23.97284z" data-paper-data="{&quot;index&quot;:null}" fill="#ff00ff"/><path d="M-63.56544,84.10864v-23.97284h23.97284v23.97284z" data-paper-data="{&quot;index&quot;:null}" fill="#000000"/></g><g><path d="M-15.61976,60.1358v-23.97284h23.97284v23.97284z" fill="#ff00ff"/><path d="M8.35308,60.1358v-23.97284h23.97284v23.97284z" fill="#000000"/><path d="M8.35308,84.10864v-23.97284h23.97284v23.97284z" data-paper-data="{&quot;index&quot;:null}" fill="#ff00ff"/><path d="M-15.61976,84.10864v-23.97284h23.97284v23.97284z" data-paper-data="{&quot;index&quot;:null}" fill="#000000"/></g></g><g><g><path d="M32.32592,12.19012v-23.97284h23.97284v23.97284z" fill="#ff00ff"/><path d="M56.29876,12.19012v-23.97284h23.97284v23.97284z" fill="#000000"/><path d="M56.29876,36.16296v-23.97284h23.97284v23.97284z" data-paper-data="{&quot;index&quot;:null}" fill="#ff00ff"/><path d="M32.32592,36.16296v-23.97284h23.97284v23.97284z" data-paper-data="{&quot;index&quot;:null}" fill="#000000"/></g><g><path d="M80.2716,12.19012v-23.97284h23.97284v23.97284z" fill="#ff00ff"/><path d="M104.24444,12.19012v-23.97284h23.97284v23.97284z" fill="#000000"/><path d="M104.24444,36.16296v-23.97284h23.97284v23.97284z" data-paper-data="{&quot;index&quot;:null}" fill="#ff00ff"/><path d="M80.2716,36.16296v-23.97284h23.97284v23.97284z" data-paper-data="{&quot;index&quot;:null}" fill="#000000"/></g><g><path d="M32.32592,60.1358v-23.97284h23.97284v23.97284z" fill="#ff00ff"/><path d="M56.29876,60.1358v-23.97284h23.97284v23.97284z" fill="#000000"/><path d="M56.29876,84.10864v-23.97284h23.97284v23.97284z" data-paper-data="{&quot;index&quot;:null}" fill="#ff00ff"/><path d="M32.32592,84.10864v-23.97284h23.97284v23.97284z" data-paper-data="{&quot;index&quot;:null}" fill="#000000"/></g><g><path d="M80.2716,60.1358v-23.97284h23.97284v23.97284z" fill="#ff00ff"/><path d="M104.24444,60.1358v-23.97284h23.97284v23.97284z" fill="#000000"/><path d="M104.24444,84.10864v-23.97284h23.97284v23.97284z" data-paper-data="{&quot;index&quot;:null}" fill="#ff00ff"/><path d="M80.2716,84.10864v-23.97284h23.97284v23.97284z" data-paper-data="{&quot;index&quot;:null}" fill="#000000"/></g></g><g><g><path d="M32.32592,108.08148v-23.97284h23.97284v23.97284z" fill="#ff00ff"/><path d="M56.29876,108.08148v-23.97284h23.97284v23.97284z" fill="#000000"/><path d="M56.29876,132.05432v-23.97284h23.97284v23.97284z" data-paper-data="{&quot;index&quot;:null}" fill="#ff00ff"/><path d="M32.32592,132.05432v-23.97284h23.97284v23.97284z" data-paper-data="{&quot;index&quot;:null}" fill="#000000"/></g><g><path d="M80.2716,108.08148v-23.97284h23.97284v23.97284z" fill="#ff00ff"/><path d="M104.24444,108.08148v-23.97284h23.97284v23.97284z" fill="#000000"/><path d="M104.24444,132.05432v-23.97284h23.97284v23.97284z" data-paper-data="{&quot;index&quot;:null}" fill="#ff00ff"/><path d="M80.2716,132.05432v-23.97284h23.97284v23.97284z" data-paper-data="{&quot;index&quot;:null}" fill="#000000"/></g><g><path d="M32.32592,156.02716v-23.97284h23.97284v23.97284z" fill="#ff00ff"/><path d="M56.29876,156.02716v-23.97284h23.97284v23.97284z" fill="#000000"/><path d="M56.29876,180v-23.97284h23.97284v23.97284z" data-paper-data="{&quot;index&quot;:null}" fill="#ff00ff"/><path d="M32.32592,180v-23.97284h23.97284v23.97284z" data-paper-data="{&quot;index&quot;:null}" fill="#000000"/></g><g><path d="M80.2716,156.02716v-23.97284h23.97284v23.97284z" fill="#ff00ff"/><path d="M104.24444,156.02716v-23.97284h23.97284v23.97284z" fill="#000000"/><path d="M104.24444,180v-23.97284h23.97284v23.97284z" data-paper-data="{&quot;index&quot;:null}" fill="#ff00ff"/><path d="M80.2716,180v-23.97284h23.97284v23.97284z" data-paper-data="{&quot;index&quot;:null}" fill="#000000"/></g></g><g><g><path d="M-63.56544,108.08148v-23.97284h23.97284v23.97284z" fill="#ff00ff"/><path d="M-39.5926,108.08148v-23.97284h23.97284v23.97284z" fill="#000000"/><path d="M-39.5926,132.05432v-23.97284h23.97284v23.97284z" data-paper-data="{&quot;index&quot;:null}" fill="#ff00ff"/><path d="M-63.56544,132.05432v-23.97284h23.97284v23.97284z" data-paper-data="{&quot;index&quot;:null}" fill="#000000"/></g><g><path d="M-15.61976,108.08148v-23.97284h23.97284v23.97284z" fill="#ff00ff"/><path d="M8.35308,108.08148v-23.97284h23.97284v23.97284z" fill="#000000"/><path d="M8.35308,132.05432v-23.97284h23.97284v23.97284z" data-paper-data="{&quot;index&quot;:null}" fill="#ff00ff"/><path d="M-15.61976,132.05432v-23.97284h23.97284v23.97284z" data-paper-data="{&quot;index&quot;:null}" fill="#000000"/></g><g><path d="M-63.56544,156.02716v-23.97284h23.97284v23.97284z" fill="#ff00ff"/><path d="M-39.5926,156.02716v-23.97284h23.97284v23.97284z" fill="#000000"/><path d="M-39.5926,180v-23.97284h23.97284v23.97284z" data-paper-data="{&quot;index&quot;:null}" fill="#ff00ff"/><path d="M-63.56544,180v-23.97284h23.97284v23.97284z" data-paper-data="{&quot;index&quot;:null}" fill="#000000"/></g><g><path d="M-15.61976,156.02716v-23.97284h23.97284v23.97284z" fill="#ff00ff"/><path d="M8.35308,156.02716v-23.97284h23.97284v23.97284z" fill="#000000"/><path d="M8.35308,180v-23.97284h23.97284v23.97284z" data-paper-data="{&quot;index&quot;:null}" fill="#ff00ff"/><path d="M-15.61976,180v-23.97284h23.97284v23.97284z" data-paper-data="{&quot;index&quot;:null}" fill="#000000"/></g></g></g></g></g></g></g></svg>