<svg version="1.1" xmlns="http://www.w3.org/2000/svg" xmlns:xlink="http://www.w3.org/1999/xlink" width="568.3566" height="320.52962" viewBox="0,0,568.3566,320.52962"><g transform="translate(-1.12879,-6.32985)"><g data-paper-data="{&quot;isPaintingLayer&quot;:true}" fill-rule="nonzero" stroke="none" stroke-linecap="butt" stroke-linejoin="miter" stroke-miterlimit="10" stroke-dasharray="" stroke-dashoffset="0" style="mix-blend-mode: normal"><path d="M179.01907,108.47615c0.80872,-2.98584 2.63381,-5.52403 3.43512,-8.5125c0.38688,-1.44287 0.15376,-3.0952 0.73553,-4.44934c0.87516,-2.03704 3.78721,-3.55059 3.21898,-5.7259c-1.24654,-4.77205 -5.274,-10.38626 -7.21937,-14.92989c-3.61666,-8.44709 -6.87529,-18.08521 -7.62935,-27.52158c-0.52574,0.88827 -0.96783,1.84692 -1.31328,2.86105c0,-4.93099 0,-9.86199 0,-14.79298c-0.31092,0.2699 -0.6315,0.52461 -0.96519,0.75872c-3.75158,2.632 -7.45014,2.29374 -11.28909,2.98007c0.04012,-0.36941 0.02726,-0.75247 -0.01565,-1.14387c-7.72498,0.12744 -14.69191,3.90231 -22.30728,4.60454c-14.68139,1.3538 -29.55176,-0.34895 -44.13543,-2.19309l1.10971,2.22665c-0.14236,-0.03528 -0.28477,-0.07017 -0.42724,-0.10463c-9.58566,-2.31899 -20.08855,-1.89845 -29.82565,-1.89845c-17.06519,0 -34.13037,0 -51.19556,0c0,0 -3.16377,0 -3.16377,-3.62752c0,-3.62752 3.16377,-3.62752 3.16377,-3.62752c17.06519,0 34.13037,0 51.19556,0c7.595,0 15.59062,-0.19276 23.3259,0.70406c1.01059,-1.58326 2.90887,-1.34142 2.90887,-1.34142c15.39555,1.96532 31.04262,3.92099 46.59529,2.62513c7.90653,-0.65878 15.1339,-4.60262 23.23352,-4.62596h3.45139c0,0 0.81782,0 1.62187,0.47675c0.86826,-0.28823 1.70903,-0.69397 2.50709,-1.28192c1.55599,-1.14633 2.76123,-2.82216 4.14184,-4.23324l0.62061,-0.71865c0.3428,-0.62193 0.89905,-1.19275 1.80165,-1.4077c0.58015,-0.2153 1.2907,-0.27453 2.04114,0.13366c0.78237,0.31979 1.24828,0.93775 1.52573,1.56035c0.50249,0.87821 0.54643,1.72763 0.40846,2.44252c0,4.32779 0,8.65558 0,12.98337c1.15046,1.05797 1.15046,2.90605 1.15046,2.90605c-0.06379,9.39142 3.51978,19.64433 7.16384,28.10374c1.79603,4.16934 3.78256,8.2272 5.66775,12.34448c0.67359,1.47112 1.87172,2.73788 2.06888,4.38396c0.24584,2.05252 -0.11069,4.23451 -0.80764,6.14597c-0.57763,1.58421 -2.19748,2.42666 -2.87616,3.95729c-0.46083,1.03932 -0.11566,2.35097 -0.41493,3.46524c-0.81344,3.02867 -2.66296,5.60402 -3.46766,8.63576c-0.97656,3.67923 -1.64217,8.13655 -2.1901,11.97307l-0.5235,4.8075c0.75007,1.50327 1.71488,2.88539 2.50156,4.36801c1.4241,14.93674 0.93119,30.02971 0.93119,45.04375c0,14.72005 0.61748,29.63767 -0.00273,44.3405c-0.56737,13.45016 -1.72296,26.57606 -1.72296,40.0817c0,17.36811 0,34.73622 0,52.10432v2.13587c0.17972,1.06467 -0.09303,1.89241 -0.48175,2.50078c-0.32544,0.65127 -0.87073,1.27043 -1.78439,1.51693c-3.46514,1.82137 -6.75261,4.25604 -10.45545,5.27172c-7.41248,2.03323 -16.02396,0.69361 -23.63055,1.15264c-11.90401,0.71836 -24.8319,1.5211 -36.70736,0.26768c-12.61152,-1.33111 -25.29276,-3.86026 -37.73452,-6.66634c-9.97657,-1.72312 -20.04345,-4.10409 -30.08528,-5.20001c-8.17901,-0.89262 -15.50653,3.71048 -23.29813,5.21466c-4.83602,0.9336 -8.28864,0.76641 -12.85609,2.52382l-2.72617,0.18615c0,0 -3.16377,0 -3.16377,-3.62752c0,-3.62752 3.16377,-3.62752 3.16377,-3.62752l0.72522,0.18615c4.76407,-1.80988 8.66414,-1.80795 13.60453,-2.75257c8.43057,-1.61195 16.15497,-6.23177 25.02128,-5.33812c10.23973,1.03209 20.53126,3.5281 30.6968,5.2868c12.28492,2.76709 24.78976,5.25057 37.23792,6.59058c11.56117,1.24454 24.19633,0.41081 35.78924,-0.28878c7.10475,-0.42875 15.45845,0.97267 22.37044,-0.92909c2.83174,-0.77912 5.37659,-2.51933 7.98673,-4.04438c0,-16.82316 0,-35.85042 0,-52.4638c0,-13.60505 1.16162,-26.83595 1.72843,-40.38321c0.61099,-14.60315 -0.00273,-29.41876 -0.00273,-44.03899c0,-14.23648 0.44339,-28.57345 -0.61106,-42.76533c-1.10025,-2.13068 -2.58509,-4.05582 -3.30076,-6.39204c-1.03273,-3.37126 0.07749,-7.21101 -0.60728,-10.69684c-1.11972,-5.70002 -3.79277,-7.30429 0.20064,-4.55703c0.92497,0.63633 1.80812,1.20314 2.654,1.69914c0.35528,-1.96391 0.75875,-3.89193 1.23314,-5.64344z" fill="#9966ff" stroke-width="0.5"/><text transform="translate(21.71511,99.70516) scale(0.5,0.5)" font-size="40" xml:space="preserve" fill="#9966ff" fill-rule="nonzero" stroke="none" stroke-width="1" stroke-linecap="butt" stroke-linejoin="miter" stroke-miterlimit="10" stroke-dasharray="" stroke-dashoffset="0" font-family="&quot;Rockwell&quot;, Sans Serif" font-weight="normal" text-anchor="start" style="mix-blend-mode: normal"><tspan x="0" dy="0">size</tspan></text><path d="M94.06043,105.15971v-25.45455h55.45455v25.45455z" fill="#9966ff" stroke-width="0"/><text transform="translate(96.33316,98.79607) scale(0.5,0.5)" font-size="40" xml:space="preserve" fill="#2cff00" fill-rule="nonzero" stroke="none" stroke-width="1" stroke-linecap="butt" stroke-linejoin="miter" stroke-miterlimit="10" stroke-dasharray="" stroke-dashoffset="0" font-family="&quot;Rockwell&quot;, Sans Serif" font-weight="normal" text-anchor="start" style="mix-blend-mode: normal"><tspan x="0" dy="0">100</tspan></text><path d="M167.96954,74.12162l-0.03325,-0.04545c-0.12868,0.26732 -0.21885,0.54684 -0.2601,0.84178c-0.43225,3.09077 0.11061,6.22163 0.11061,9.33267c0,7.65809 0.16417,15.29009 -0.5619,22.9045c-0.26349,2.76329 1.4377,8.7634 -1.62451,10.82124c-1.18556,0.79671 -10.79554,0.59245 -11.94647,0.59245c-8.31345,0 -16.62691,0 -24.94036,0c-10.46412,0 -20.33489,-2.0709 -30.69713,-2.73313c-5.87416,-0.37541 -11.45366,-0.76083 -17.26704,-1.36994c-5.37611,-0.56329 -11.05032,0.27208 -16.46467,0.0096c-4.1007,-0.1988 -8.12733,-1.00047 -12.21259,-1.35338c-9.09449,-0.78565 -18.39757,-0.46223 -27.55386,-0.46223c-3.68536,-0.00655 -7.15805,-0.36806 -10.7818,-0.91761c-1.79509,-0.27223 -4.25452,0.32736 -5.37678,-0.85348c-1.02492,-1.07841 -0.19121,-9.44538 -0.19121,-11.18346c0,-3.79517 0.75552,-8.17454 0.02946,-11.92597c-0.65185,-3.36805 -2.22774,-3.48228 -1.67732,-7.41128c0.79166,-5.65098 8.11754,-8.0176 14.06283,-8.16147c0.03577,-0.00127 0.05521,-0.00127 0.05521,-0.00127c5.75101,0 17.56521,0 21.61498,0c2.88004,0 5.904,0.82258 8.63952,0.08375c1.30571,-0.35266 2.25472,-1.3395 3.54517,-1.72809c4.73979,-1.42729 10.7588,-2.12315 15.66841,-3.17317c3.99149,-0.85366 7.83208,-2.1922 11.88104,-2.83867c6.02393,-0.9618 12.51212,-1.10195 18.92056,-1.07325c1.07837,0.26296 2.00641,0.47482 2.47744,0.58182c8.7536,1.98851 11.4464,-0.70858 18.23002,-0.71602c4.88083,-0.00536 9.76166,-0.00316 14.64249,0c1.98821,0.00129 4.4472,0.97315 6.84265,1.54916c-0.85697,0.38879 -1.73068,0.74199 -2.63064,1.03718c0.7661,0.14029 1.52626,0.28753 2.27956,0.44192c2.18635,0.44809 4.1816,1.47157 6.40425,1.77674c4.52047,0.62066 9.89557,-0.03228 14.47594,-0.03228h5.24336c-0.16734,0.66029 -0.25529,1.34445 -0.25529,2.04545c0,1.04138 0.19409,2.04559 0.55423,2.98961c0,0.12693 -0.00034,0.2539 -0.00099,0.3809zM20.54303,77.20218c-2.50595,-0.066 -5.58054,0.80547 -7.52316,2.26977c-1.90417,1.43532 0.96336,6.23162 1.21568,7.61373c0.73178,4.00846 0.02946,8.57318 0.02946,12.61948c0,2.18029 0.63604,4.42545 -0.00767,6.54086c-0.17018,0.55927 -1.27176,0.79041 -1.292,1.36659c-0.01579,0.44952 0.72815,-0.81061 1.27398,-0.85348c1.19031,-0.09347 2.35832,0.32595 3.5401,0.47543c2.2266,0.28163 4.48594,0.4297 6.73885,0.42514c9.3447,0 18.83208,-0.31692 28.11513,0.48346c3.99084,0.34409 7.92155,1.14564 11.92758,1.33729c5.53031,0.26457 11.28858,-0.5428 16.78915,0.0096c7.75096,0.77839 15.7491,0.84457 23.4852,1.84096c8.07148,1.03959 15.66704,2.23778 23.87824,2.23778c8.31345,0 16.62691,0 24.94036,0c2.03218,0 4.07258,-0.14978 6.09653,0c0.67771,0.05015 1.27292,0.79006 1.90929,0.59245c0.42151,-0.13089 -0.47008,-0.65798 -0.51333,-1.02592c-0.24702,-2.10181 -0.1971,-4.22913 -0.00272,-6.33466c0.84484,-9.15107 0.4512,-18.35333 0.54656,-27.55005c0.01592,-1.53564 -0.38842,-4.02901 0.22598,-6.11453c-4.48887,0.10528 -9.43631,0.53201 -13.73867,-0.05411c-1.31568,-0.17924 -5.42011,-1.5566 -6.89728,-1.85962c-9.28521,-1.90471 -19.66848,-2.65355 -29.19364,-2.65355c-9.3347,0 -19.75164,-0.60162 -28.92537,0.88668c-3.92423,0.63665 -7.645,1.94184 -11.51564,2.77025c-4.65257,0.99577 -10.46558,1.62242 -14.97364,2.98741c-1.50527,0.45578 -2.67374,1.53956 -4.21405,1.90827c-3.26536,0.78164 -6.8027,0.08375 -10.20431,0.08375c-6.46602,0 -12.93204,0 -19.39806,0c0,0 0,0 0,0h-2.21692c0,0 -0.0343,0 -0.09563,-0.00298z" fill="#9966ff" stroke-width="0.5"/><path d="M169.07801,250.69085l-0.03326,-0.04545c-0.12869,0.26732 -0.21885,0.54684 -0.2601,0.84178c-0.43225,3.09077 0.1106,6.22163 0.1106,9.33267c0,7.65809 0.16417,15.2901 -0.5619,22.90449c-0.26349,2.76328 1.43771,8.7634 -1.6245,10.82124c-1.18556,0.7967 -10.79553,0.59245 -11.94647,0.59245c-8.31345,0 -16.62692,0 -24.94037,0c-10.46412,0 -20.33488,-2.07091 -30.69712,-2.73314c-5.87416,-0.37541 -11.45366,-0.76083 -17.26705,-1.36994c-5.37611,-0.5633 -11.05032,0.27207 -16.46467,0.00959c-4.1007,-0.1988 -8.12734,-1.00047 -12.21259,-1.35339c-9.09448,-0.78566 -18.39757,-0.46222 -27.55386,-0.46222c-3.68535,-0.00654 -7.15806,-0.36806 -10.7818,-0.91761c-1.79509,-0.27223 -4.25451,0.32736 -5.37678,-0.85348c-1.02491,-1.07841 -0.19121,-9.44538 -0.19121,-11.18346c0,-3.79517 0.75552,-8.17454 0.02946,-11.92597c-0.65185,-3.36805 -2.22775,-3.48228 -1.67732,-7.41128c0.79166,-5.65098 8.11754,-8.01761 14.06283,-8.16148c0.03577,-0.00127 0.05521,-0.00127 0.05521,-0.00127c5.75101,0 17.5652,0 21.61498,0c2.88004,0 5.904,0.82259 8.63953,0.08375c1.30571,-0.35266 2.25471,-1.3395 3.54517,-1.72809c4.73979,-1.42729 10.7588,-2.12316 15.66841,-3.17318c3.99149,-0.85367 7.83208,-2.19219 11.88105,-2.83866c6.02394,-0.96179 12.51212,-1.10195 18.92057,-1.07325c1.07837,0.26296 2.00641,0.47482 2.47744,0.58182c8.7536,1.98851 11.4464,-0.70858 18.23002,-0.71602c4.88083,-0.00536 9.76167,-0.00315 14.64249,0c1.98821,0.00128 4.4472,0.97315 6.84265,1.54917c-0.85697,0.38879 -1.73068,0.74199 -2.63064,1.03718c0.7661,0.14029 1.52627,0.28753 2.27956,0.44191c2.18635,0.44809 4.1816,1.47158 6.40425,1.77675c4.52046,0.62066 9.89557,-0.03228 14.47594,-0.03228h5.24337c-0.16734,0.66029 -0.25529,1.34445 -0.25529,2.04546c0,1.04138 0.1941,2.04559 0.55423,2.98961c0,0.12693 -0.00034,0.2539 -0.00099,0.3809zM21.65149,253.77141c-2.50596,-0.06599 -5.58054,0.80546 -7.52316,2.26978c-1.90417,1.43532 0.96336,6.23161 1.21568,7.61372c0.73179,4.00846 0.02946,8.57317 0.02946,12.61948c0,2.18028 0.63604,4.42545 -0.00767,6.54086c-0.17018,0.55927 -1.27176,0.79041 -1.292,1.36659c-0.01579,0.44952 0.72815,-0.81061 1.27398,-0.85348c1.19031,-0.09348 2.35832,0.32595 3.5401,0.47543c2.22659,0.28164 4.48594,0.4297 6.73885,0.42515c9.3447,0 18.83208,-0.31693 28.11514,0.48346c3.99085,0.34409 7.92155,1.14564 11.92757,1.33729c5.53031,0.26457 11.28857,-0.5428 16.78914,0.00959c7.75096,0.77839 15.74911,0.84457 23.4852,1.84096c8.07148,1.03958 15.66703,2.23778 23.87823,2.23778c8.31345,0 16.62692,0 24.94037,0c2.03218,0 4.07258,-0.14978 6.09653,0c0.6777,0.05015 1.27291,0.79005 1.90929,0.59245c0.42151,-0.13089 -0.47009,-0.65798 -0.51333,-1.02593c-0.24702,-2.10181 -0.19711,-4.22913 -0.00272,-6.33466c0.84485,-9.15107 0.4512,-18.35333 0.54656,-27.55005c0.01592,-1.53564 -0.38842,-4.02901 0.22598,-6.11453c-4.48887,0.10528 -9.43631,0.53201 -13.73867,-0.05412c-1.31567,-0.17924 -5.42011,-1.5566 -6.89728,-1.85962c-9.2852,-1.90472 -19.66848,-2.65355 -29.19364,-2.65355c-9.3347,0 -19.75165,-0.60163 -28.92538,0.88668c-3.92423,0.63665 -7.645,1.94183 -11.51564,2.77025c-4.65258,0.99577 -10.46557,1.62242 -14.97364,2.98741c-1.50527,0.45577 -2.67374,1.53956 -4.21405,1.90827c-3.26536,0.78164 -6.80271,0.08375 -10.20431,0.08375c-6.46602,0 -12.93204,0 -19.39806,0v0h-2.21692c0,0 -0.03431,0 -0.09563,-0.00298z" fill="#9966ff" stroke-width="0.5"/><text transform="translate(20.77604,274.49039) scale(0.33287,0.33287)" font-size="40" xml:space="preserve" fill="#9966ff" fill-rule="nonzero" stroke="none" stroke-width="1" stroke-linecap="butt" stroke-linejoin="miter" stroke-miterlimit="10" stroke-dasharray="" stroke-dashoffset="0" font-family="&quot;Rockwell&quot;, Sans Serif" font-weight="normal" text-anchor="start" style="mix-blend-mode: normal"><tspan x="0" dy="0">targetMap</tspan></text><path d="M90.14637,281.72894v-25.45455h63.49313v25.45455z" fill="#9966ff" stroke-width="0"/><text transform="translate(92.4191,275.3653) scale(0.5,0.5)" font-size="40" xml:space="preserve" fill="#2cff00" fill-rule="nonzero" stroke="none" stroke-width="1" stroke-linecap="butt" stroke-linejoin="miter" stroke-miterlimit="10" stroke-dasharray="" stroke-dashoffset="0" font-family="&quot;Rockwell&quot;, Sans Serif" font-weight="normal" text-anchor="start" style="mix-blend-mode: normal"><tspan x="0" dy="0">catw...</tspan></text><text transform="translate(21.71512,157.04707) scale(0.5,0.5)" font-size="40" xml:space="preserve" fill="#9966ff" fill-rule="nonzero" stroke="none" stroke-width="1" stroke-linecap="butt" stroke-linejoin="miter" stroke-miterlimit="10" stroke-dasharray="" stroke-dashoffset="0" font-family="&quot;Rockwell&quot;, Sans Serif" font-weight="normal" text-anchor="start" style="mix-blend-mode: normal"><tspan x="0" dy="0">width</tspan></text><path d="M94.06044,162.50161v-25.45454h55.45455v25.45454z" fill="#9966ff" stroke-width="0"/><text transform="translate(96.33316,156.13798) scale(0.5,0.5)" font-size="40" xml:space="preserve" fill="#2cff00" fill-rule="nonzero" stroke="none" stroke-width="1" stroke-linecap="butt" stroke-linejoin="miter" stroke-miterlimit="10" stroke-dasharray="" stroke-dashoffset="0" font-family="&quot;Rockwell&quot;, Sans Serif" font-weight="normal" text-anchor="start" style="mix-blend-mode: normal"><tspan x="0" dy="0">100</tspan></text><path d="M167.96955,131.46353l-0.03325,-0.04545c-0.12868,0.26732 -0.21885,0.54684 -0.2601,0.84178c-0.43225,3.09077 0.1106,6.22163 0.1106,9.33266c0,7.65809 0.16417,15.29009 -0.5619,22.9045c-0.2635,2.76328 1.4377,8.7634 -1.6245,10.82123c-1.18556,0.79671 -10.79553,0.59245 -11.94646,0.59245c-8.31346,0 -16.62691,0 -24.94037,0c-10.46412,0 -20.33488,-2.07091 -30.69712,-2.73314c-5.87416,-0.37541 -11.45366,-0.76083 -17.26704,-1.36994c-5.37611,-0.5633 -11.05033,0.27208 -16.46467,0.0096c-4.1007,-0.1988 -8.12733,-1.00047 -12.21259,-1.35339c-9.09448,-0.78566 -18.39756,-0.46223 -27.55385,-0.46223c-3.68536,-0.00655 -7.15805,-0.36806 -10.7818,-0.91761c-1.79509,-0.27223 -4.25451,0.32737 -5.37678,-0.85348c-1.02491,-1.0784 -0.19121,-9.44538 -0.19121,-11.18346c0,-3.79516 0.75552,-8.17454 0.02947,-11.92598c-0.65186,-3.36805 -2.22775,-3.48228 -1.67732,-7.41128c0.79166,-5.65098 8.11754,-8.0176 14.06283,-8.16147c0.03577,-0.00127 0.05521,-0.00127 0.05521,-0.00127c5.75101,0 17.56521,0 21.61498,0c2.88004,0 5.904,0.82258 8.63953,0.08375c1.30571,-0.35266 2.25471,-1.3395 3.54517,-1.72809c4.73978,-1.42729 10.75881,-2.12315 15.66841,-3.17317c3.9915,-0.85367 7.83208,-2.1922 11.88105,-2.83867c6.02393,-0.96179 12.51211,-1.10196 18.92056,-1.07326c1.07837,0.26296 2.00641,0.47482 2.47744,0.58182c8.7536,1.98851 11.4464,-0.70858 18.23002,-0.71602c4.88083,-0.00535 9.76166,-0.00315 14.64249,0c1.9882,0.00129 4.4472,0.97314 6.84265,1.54916c-0.85697,0.38878 -1.73068,0.74199 -2.63063,1.03718c0.7661,0.14029 1.52626,0.28753 2.27956,0.44192c2.18635,0.44809 4.1816,1.47157 6.40425,1.77674c4.52047,0.62066 9.89557,-0.03228 14.47594,-0.03228h5.24336c-0.16734,0.6603 -0.25529,1.34445 -0.25529,2.04546c0,1.04139 0.1941,2.04559 0.55423,2.98961c0,0.12693 -0.00034,0.2539 -0.00099,0.3809zM20.54303,134.54408c-2.50596,-0.06599 -5.58054,0.80547 -7.52316,2.26978c-1.90417,1.43532 0.96336,6.23162 1.21568,7.61373c0.73179,4.00846 0.02947,8.57317 0.02947,12.61948c0,2.18028 0.63604,4.42545 -0.00767,6.54086c-0.17019,0.55927 -1.27177,0.7904 -1.29201,1.36659c-0.01579,0.44952 0.72815,-0.81061 1.27398,-0.85348c1.19031,-0.09348 2.35832,0.32595 3.5401,0.47543c2.22659,0.28163 4.48594,0.42969 6.73886,0.42514c9.34469,0 18.83208,-0.31693 28.11514,0.48346c3.99085,0.34409 7.92155,1.14564 11.92758,1.33729c5.53031,0.26457 11.28857,-0.5428 16.78914,0.0096c7.75096,0.77839 15.74911,0.84457 23.4852,1.84096c8.07148,1.03958 15.66703,2.23778 23.87823,2.23778c8.31346,0 16.62691,0 24.94037,0c2.03218,0 4.07257,-0.14978 6.09653,0c0.67771,0.05015 1.27292,0.79005 1.90929,0.59245c0.42151,-0.13089 -0.47008,-0.65798 -0.51333,-1.02593c-0.24702,-2.10181 -0.1971,-4.22913 -0.00272,-6.33465c0.84484,-9.15107 0.4512,-18.35333 0.54656,-27.55005c0.01592,-1.53564 -0.38842,-4.02901 0.22598,-6.11453c-4.48888,0.10528 -9.43631,0.53202 -13.73867,-0.05411c-1.31567,-0.17924 -5.42011,-1.5566 -6.89728,-1.85962c-9.28521,-1.90471 -19.66848,-2.65355 -29.19365,-2.65355c-9.3347,0 -19.75163,-0.60162 -28.92537,0.88668c-3.92422,0.63665 -7.645,1.94184 -11.51564,2.77025c-4.65257,0.99577 -10.46558,1.62242 -14.97365,2.98741c-1.50527,0.45578 -2.67374,1.53956 -4.21405,1.90827c-3.26537,0.78164 -6.80271,0.08375 -10.20431,0.08375c-6.46602,0 -12.93203,0 -19.39805,0v0h-2.21692c0,0 -0.0343,0 -0.09563,-0.00299z" fill="#9966ff" stroke-width="0.5"/><text transform="translate(21.71512,216.5326) scale(0.5,0.5)" font-size="40" xml:space="preserve" fill="#9966ff" fill-rule="nonzero" stroke="none" stroke-width="1" stroke-linecap="butt" stroke-linejoin="miter" stroke-miterlimit="10" stroke-dasharray="" stroke-dashoffset="0" font-family="&quot;Rockwell&quot;, Sans Serif" font-weight="normal" text-anchor="start" style="mix-blend-mode: normal"><tspan x="0" dy="0">height</tspan></text><path d="M94.06044,221.98714v-25.45454h55.45455v25.45454z" fill="#9966ff" stroke-width="0"/><text transform="translate(96.33316,215.62351) scale(0.5,0.5)" font-size="40" xml:space="preserve" fill="#2cff00" fill-rule="nonzero" stroke="none" stroke-width="1" stroke-linecap="butt" stroke-linejoin="miter" stroke-miterlimit="10" stroke-dasharray="" stroke-dashoffset="0" font-family="&quot;Rockwell&quot;, Sans Serif" font-weight="normal" text-anchor="start" style="mix-blend-mode: normal"><tspan x="0" dy="0">100</tspan></text><path d="M167.96955,190.94906l-0.03325,-0.04545c-0.12868,0.26733 -0.21885,0.54685 -0.2601,0.84178c-0.43225,3.09077 0.1106,6.22163 0.1106,9.33266c0,7.65809 0.16417,15.2901 -0.5619,22.90449c-0.2635,2.76328 1.4377,8.7634 -1.6245,10.82124c-1.18556,0.79671 -10.79553,0.59245 -11.94646,0.59245c-8.31346,0 -16.62691,0 -24.94037,0c-10.46412,0 -20.33488,-2.07091 -30.69712,-2.73314c-5.87416,-0.37541 -11.45366,-0.76083 -17.26704,-1.36994c-5.37611,-0.5633 -11.05033,0.27208 -16.46467,0.0096c-4.1007,-0.1988 -8.12733,-1.00047 -12.21259,-1.35339c-9.09448,-0.78565 -18.39756,-0.46223 -27.55385,-0.46223c-3.68536,-0.00654 -7.15805,-0.36806 -10.7818,-0.91761c-1.79509,-0.27223 -4.25451,0.32736 -5.37678,-0.85348c-1.02491,-1.07841 -0.19121,-9.44538 -0.19121,-11.18346c0,-3.79516 0.75552,-8.17454 0.02947,-11.92597c-0.65186,-3.36805 -2.22775,-3.48228 -1.67732,-7.41128c0.79166,-5.65098 8.11754,-8.0176 14.06283,-8.16147c0.03577,-0.00127 0.05521,-0.00127 0.05521,-0.00127c5.75101,0 17.56521,0 21.61498,0c2.88004,0 5.904,0.82258 8.63953,0.08375c1.30571,-0.35266 2.25471,-1.3395 3.54517,-1.72809c4.73978,-1.42729 10.75881,-2.12315 15.66841,-3.17317c3.9915,-0.85366 7.83208,-2.19219 11.88105,-2.83866c6.02393,-0.96179 12.51211,-1.10196 18.92056,-1.07326c1.07837,0.26296 2.00641,0.47482 2.47744,0.58182c8.7536,1.98851 11.4464,-0.70857 18.23002,-0.71602c4.88083,-0.00536 9.76166,-0.00316 14.64249,0c1.9882,0.00128 4.4472,0.97314 6.84265,1.54916c-0.85697,0.38878 -1.73068,0.74199 -2.63063,1.03718c0.7661,0.14029 1.52626,0.28753 2.27956,0.44192c2.18635,0.44809 4.1816,1.47157 6.40425,1.77674c4.52047,0.62066 9.89557,-0.03228 14.47594,-0.03228h5.24336c-0.16734,0.6603 -0.25529,1.34445 -0.25529,2.04546c0,1.04138 0.19409,2.04559 0.55423,2.98961c0,0.12693 -0.00034,0.2539 -0.00099,0.3809zM20.54304,194.02961c-2.50596,-0.066 -5.58054,0.80546 -7.52316,2.26977c-1.90417,1.43532 0.96336,6.23162 1.21568,7.61373c0.73179,4.00846 0.02947,8.57318 0.02947,12.61948c0,2.18028 0.63604,4.42545 -0.00767,6.54086c-0.17019,0.55927 -1.27177,0.7904 -1.29201,1.36659c-0.01579,0.44952 0.72815,-0.81061 1.27398,-0.85348c1.19031,-0.09348 2.35832,0.32595 3.5401,0.47543c2.22659,0.28163 4.48594,0.4297 6.73886,0.42514c9.34469,0 18.83208,-0.31692 28.11514,0.48346c3.99085,0.34409 7.92155,1.14564 11.92758,1.33729c5.53031,0.26457 11.28857,-0.54279 16.78914,0.0096c7.75096,0.77839 15.74911,0.84457 23.4852,1.84096c8.07148,1.03958 15.66703,2.23778 23.87823,2.23778c8.31346,0 16.62691,0 24.94037,0c2.03218,0 4.07258,-0.14978 6.09653,0c0.67771,0.05015 1.27292,0.79006 1.90929,0.59245c0.42151,-0.13089 -0.47008,-0.65798 -0.51333,-1.02593c-0.24702,-2.10181 -0.1971,-4.22913 -0.00272,-6.33465c0.84484,-9.15107 0.4512,-18.35333 0.54656,-27.55005c0.01593,-1.53564 -0.38842,-4.02901 0.22598,-6.11453c-4.48888,0.10528 -9.43631,0.53202 -13.73866,-0.05411c-1.31567,-0.17924 -5.42011,-1.55661 -6.89728,-1.85962c-9.2852,-1.90471 -19.66848,-2.65356 -29.19365,-2.65356c-9.3347,0 -19.75163,-0.60162 -28.92537,0.88668c-3.92422,0.63665 -7.645,1.94184 -11.51564,2.77025c-4.65257,0.99577 -10.46558,1.62242 -14.97365,2.98741c-1.50527,0.45577 -2.67374,1.53956 -4.21405,1.90827c-3.26537,0.78164 -6.80271,0.08375 -10.20431,0.08375c-6.46602,0 -12.93203,0 -19.39805,0v0h-2.21692c0,0 -0.0343,0 -0.09563,-0.00298z" fill="#9966ff" stroke-width="0.5"/><text transform="translate(240.26863,41.26032) scale(0.5,0.5)" font-size="40" xml:space="preserve" fill="#9966ff" fill-rule="nonzero" stroke="none" stroke-width="1" stroke-linecap="butt" stroke-linejoin="miter" stroke-miterlimit="10" stroke-dasharray="" stroke-dashoffset="0" font-family="&quot;Rockwell&quot;, Sans Serif" font-weight="normal" text-anchor="start" style="mix-blend-mode: normal"><tspan x="0" dy="0">properties window</tspan></text><text transform="translate(243.26938,50.80314) scale(0.22302,0.22302)" font-size="40" xml:space="preserve" fill="#9966ff" fill-rule="nonzero" stroke="none" stroke-width="1" stroke-linecap="butt" stroke-linejoin="miter" stroke-miterlimit="10" stroke-dasharray="" stroke-dashoffset="0" font-family="&quot;Rockwell&quot;, Sans Serif" font-weight="normal" text-anchor="start" style="mix-blend-mode: normal"><tspan x="0" dy="0">kinda like worldsprites</tspan></text><text transform="translate(239.14335,97.52438) scale(0.5,0.5)" font-size="40" xml:space="preserve" fill="#9966ff" fill-rule="nonzero" stroke="none" stroke-width="1" stroke-linecap="butt" stroke-linejoin="miter" stroke-miterlimit="10" stroke-dasharray="" stroke-dashoffset="0" font-family="&quot;Rockwell&quot;, Sans Serif" font-weight="normal" text-anchor="start" style="mix-blend-mode: normal"><tspan x="0" dy="0">when u click on a property</tspan><tspan x="0" dy="46.15px">a popup to change it will</tspan><tspan x="0" dy="46.15px">appear (using the better</tspan><tspan x="0" dy="46.15px">input ext)</tspan></text><text transform="translate(238.50882,198.82101) scale(0.5,0.5)" font-size="40" xml:space="preserve" fill="#9966ff" fill-rule="nonzero" stroke="none" stroke-width="1" stroke-linecap="butt" stroke-linejoin="miter" stroke-miterlimit="10" stroke-dasharray="" stroke-dashoffset="0" font-family="&quot;Rockwell&quot;, Sans Serif" font-weight="normal" text-anchor="start" style="mix-blend-mode: normal"><tspan x="0" dy="0">it will have all the default properties</tspan><tspan x="0" dy="46.15px">(e.g. costume, width, size), but also</tspan><tspan x="0" dy="46.15px">it'll have object-specific properties</tspan><tspan x="0" dy="46.15px">(e.g. targetMap, targetX, targetY)</tspan></text><text transform="translate(10.60092,23.57985) scale(0.5,0.5)" font-size="40" xml:space="preserve" fill="#9966ff" fill-rule="nonzero" stroke="none" stroke-width="1" stroke-linecap="butt" stroke-linejoin="miter" stroke-miterlimit="10" stroke-dasharray="" stroke-dashoffset="0" font-family="&quot;OCR A&quot;, Sans Serif" font-weight="normal" text-anchor="start" style="mix-blend-mode: normal"><tspan x="0" dy="0">15.09.2023</tspan></text></g></g></svg>